ISO-10303-21;
HEADER;
/* Generated by software containing ST-Developer
 * from STEP Tools, Inc. (www.steptools.com) 
 */
/* OPTION: using custom renumber hook */

FILE_DESCRIPTION(
/* description */ ('STEP AP242 Edition 2',
'CAx-IF Rec.Pracs.---Representation and Presentation of Product Manufa
cturing Information (PMI)---4.0---2014-10-13',
'CAx-IF Rec.Pracs.---3D Tessellated Geometry---0.4---2014-09-14','2;1',
'CAx-IF Rec.Pracs.---User Defined Attributes---1.5---2016-08-15'),
/* implementation_level */ '2;1');

FILE_NAME(
/* name */ 'Part Studio 1 - Part 1',
/* time_stamp */ '2026-08-05T08:27:36Z',
/* author */ (''),
/* organization */ (''),
/* preprocessor_version */ 'ST-DEVELOPER v20',
/* originating_system */ 'ONSHAPE BY PTC INC, 1.218',
/* authorisation */ '  ');

FILE_SCHEMA (('AP242_MANAGED_MODEL_BASED_3D_ENGINEERING_MIM_LF { 1 0 10303 442 3 1 4 }'));
ENDSEC;

DATA;
#10=SHAPE_REPRESENTATION_RELATIONSHIP('','',#598,#11);
#11=ADVANCED_BREP_SHAPE_REPRESENTATION('',(#596),#960);
#12=CYLINDRICAL_SURFACE('',#620,0.00144852813742385);
#13=CYLINDRICAL_SURFACE('',#622,0.005);
#14=CYLINDRICAL_SURFACE('',#625,0.00585404496296467);
#15=CYLINDRICAL_SURFACE('',#627,0.00585404496296468);
#16=CYLINDRICAL_SURFACE('',#634,0.00493552270528336);
#17=CYLINDRICAL_SURFACE('',#635,0.00493552270528336);
#18=CIRCLE('',#601,0.00493552270528336);
#19=CIRCLE('',#602,0.00585404496296468);
#20=CIRCLE('',#603,0.00585404496296467);
#21=CIRCLE('',#604,0.005);
#22=CIRCLE('',#605,0.00144852813742385);
#23=CIRCLE('',#606,0.00493552270528336);
#24=CIRCLE('',#608,0.00144852813742385);
#25=CIRCLE('',#609,0.005);
#26=CIRCLE('',#610,0.00585404496296467);
#27=CIRCLE('',#611,0.00585404496296468);
#28=CIRCLE('',#612,0.00493552270528336);
#29=CIRCLE('',#613,0.00493552270528336);
#30=ORIENTED_EDGE('',*,*,#188,.T.);
#31=ORIENTED_EDGE('',*,*,#189,.T.);
#32=ORIENTED_EDGE('',*,*,#190,.T.);
#33=ORIENTED_EDGE('',*,*,#191,.T.);
#34=ORIENTED_EDGE('',*,*,#192,.T.);
#35=ORIENTED_EDGE('',*,*,#193,.T.);
#36=ORIENTED_EDGE('',*,*,#194,.T.);
#37=ORIENTED_EDGE('',*,*,#195,.F.);
#38=ORIENTED_EDGE('',*,*,#196,.F.);
#39=ORIENTED_EDGE('',*,*,#197,.T.);
#40=ORIENTED_EDGE('',*,*,#198,.F.);
#41=ORIENTED_EDGE('',*,*,#199,.T.);
#42=ORIENTED_EDGE('',*,*,#200,.F.);
#43=ORIENTED_EDGE('',*,*,#201,.T.);
#44=ORIENTED_EDGE('',*,*,#202,.T.);
#45=ORIENTED_EDGE('',*,*,#203,.F.);
#46=ORIENTED_EDGE('',*,*,#204,.T.);
#47=ORIENTED_EDGE('',*,*,#205,.F.);
#48=ORIENTED_EDGE('',*,*,#206,.T.);
#49=ORIENTED_EDGE('',*,*,#207,.F.);
#50=ORIENTED_EDGE('',*,*,#208,.F.);
#51=ORIENTED_EDGE('',*,*,#209,.F.);
#52=ORIENTED_EDGE('',*,*,#210,.F.);
#53=ORIENTED_EDGE('',*,*,#211,.F.);
#54=ORIENTED_EDGE('',*,*,#212,.F.);
#55=ORIENTED_EDGE('',*,*,#213,.F.);
#56=ORIENTED_EDGE('',*,*,#214,.F.);
#57=ORIENTED_EDGE('',*,*,#215,.F.);
#58=ORIENTED_EDGE('',*,*,#216,.F.);
#59=ORIENTED_EDGE('',*,*,#217,.F.);
#60=ORIENTED_EDGE('',*,*,#218,.F.);
#61=ORIENTED_EDGE('',*,*,#219,.T.);
#62=ORIENTED_EDGE('',*,*,#220,.T.);
#63=ORIENTED_EDGE('',*,*,#221,.F.);
#64=ORIENTED_EDGE('',*,*,#222,.T.);
#65=ORIENTED_EDGE('',*,*,#223,.T.);
#66=ORIENTED_EDGE('',*,*,#224,.T.);
#67=ORIENTED_EDGE('',*,*,#225,.T.);
#68=ORIENTED_EDGE('',*,*,#226,.T.);
#69=ORIENTED_EDGE('',*,*,#227,.F.);
#70=ORIENTED_EDGE('',*,*,#228,.T.);
#71=ORIENTED_EDGE('',*,*,#229,.F.);
#72=ORIENTED_EDGE('',*,*,#230,.T.);
#73=ORIENTED_EDGE('',*,*,#231,.F.);
#74=ORIENTED_EDGE('',*,*,#232,.F.);
#75=ORIENTED_EDGE('',*,*,#233,.T.);
#76=ORIENTED_EDGE('',*,*,#234,.F.);
#77=ORIENTED_EDGE('',*,*,#235,.T.);
#78=ORIENTED_EDGE('',*,*,#236,.F.);
#79=ORIENTED_EDGE('',*,*,#237,.T.);
#80=ORIENTED_EDGE('',*,*,#238,.F.);
#81=ORIENTED_EDGE('',*,*,#239,.T.);
#82=ORIENTED_EDGE('',*,*,#195,.T.);
#83=ORIENTED_EDGE('',*,*,#240,.F.);
#84=ORIENTED_EDGE('',*,*,#222,.F.);
#85=ORIENTED_EDGE('',*,*,#241,.T.);
#86=ORIENTED_EDGE('',*,*,#210,.T.);
#87=ORIENTED_EDGE('',*,*,#242,.F.);
#88=ORIENTED_EDGE('',*,*,#223,.F.);
#89=ORIENTED_EDGE('',*,*,#240,.T.);
#90=ORIENTED_EDGE('',*,*,#209,.T.);
#91=ORIENTED_EDGE('',*,*,#243,.F.);
#92=ORIENTED_EDGE('',*,*,#224,.F.);
#93=ORIENTED_EDGE('',*,*,#242,.T.);
#94=ORIENTED_EDGE('',*,*,#208,.T.);
#95=ORIENTED_EDGE('',*,*,#244,.F.);
#96=ORIENTED_EDGE('',*,*,#225,.F.);
#97=ORIENTED_EDGE('',*,*,#243,.T.);
#98=ORIENTED_EDGE('',*,*,#207,.T.);
#99=ORIENTED_EDGE('',*,*,#245,.F.);
#100=ORIENTED_EDGE('',*,*,#226,.F.);
#101=ORIENTED_EDGE('',*,*,#244,.T.);
#102=ORIENTED_EDGE('',*,*,#206,.F.);
#103=ORIENTED_EDGE('',*,*,#246,.F.);
#104=ORIENTED_EDGE('',*,*,#227,.T.);
#105=ORIENTED_EDGE('',*,*,#245,.T.);
#106=ORIENTED_EDGE('',*,*,#205,.T.);
#107=ORIENTED_EDGE('',*,*,#247,.F.);
#108=ORIENTED_EDGE('',*,*,#228,.F.);
#109=ORIENTED_EDGE('',*,*,#246,.T.);
#110=ORIENTED_EDGE('',*,*,#204,.F.);
#111=ORIENTED_EDGE('',*,*,#248,.F.);
#112=ORIENTED_EDGE('',*,*,#229,.T.);
#113=ORIENTED_EDGE('',*,*,#247,.T.);
#114=ORIENTED_EDGE('',*,*,#203,.T.);
#115=ORIENTED_EDGE('',*,*,#249,.F.);
#116=ORIENTED_EDGE('',*,*,#230,.F.);
#117=ORIENTED_EDGE('',*,*,#248,.T.);
#118=ORIENTED_EDGE('',*,*,#202,.F.);
#119=ORIENTED_EDGE('',*,*,#250,.F.);
#120=ORIENTED_EDGE('',*,*,#231,.T.);
#121=ORIENTED_EDGE('',*,*,#249,.T.);
#122=ORIENTED_EDGE('',*,*,#201,.F.);
#123=ORIENTED_EDGE('',*,*,#251,.F.);
#124=ORIENTED_EDGE('',*,*,#232,.T.);
#125=ORIENTED_EDGE('',*,*,#250,.T.);
#126=ORIENTED_EDGE('',*,*,#200,.T.);
#127=ORIENTED_EDGE('',*,*,#252,.F.);
#128=ORIENTED_EDGE('',*,*,#233,.F.);
#129=ORIENTED_EDGE('',*,*,#251,.T.);
#130=ORIENTED_EDGE('',*,*,#199,.F.);
#131=ORIENTED_EDGE('',*,*,#253,.F.);
#132=ORIENTED_EDGE('',*,*,#234,.T.);
#133=ORIENTED_EDGE('',*,*,#252,.T.);
#134=ORIENTED_EDGE('',*,*,#198,.T.);
#135=ORIENTED_EDGE('',*,*,#254,.F.);
#136=ORIENTED_EDGE('',*,*,#235,.F.);
#137=ORIENTED_EDGE('',*,*,#253,.T.);
#138=ORIENTED_EDGE('',*,*,#197,.F.);
#139=ORIENTED_EDGE('',*,*,#255,.F.);
#140=ORIENTED_EDGE('',*,*,#236,.T.);
#141=ORIENTED_EDGE('',*,*,#254,.T.);
#142=ORIENTED_EDGE('',*,*,#196,.T.);
#143=ORIENTED_EDGE('',*,*,#241,.F.);
#144=ORIENTED_EDGE('',*,*,#237,.F.);
#145=ORIENTED_EDGE('',*,*,#255,.T.);
#146=ORIENTED_EDGE('',*,*,#219,.F.);
#147=ORIENTED_EDGE('',*,*,#256,.F.);
#148=ORIENTED_EDGE('',*,*,#257,.T.);
#149=ORIENTED_EDGE('',*,*,#258,.F.);
#150=ORIENTED_EDGE('',*,*,#256,.T.);
#151=ORIENTED_EDGE('',*,*,#218,.T.);
#152=ORIENTED_EDGE('',*,*,#259,.F.);
#153=ORIENTED_EDGE('',*,*,#221,.T.);
#154=ORIENTED_EDGE('',*,*,#260,.F.);
#155=ORIENTED_EDGE('',*,*,#259,.T.);
#156=ORIENTED_EDGE('',*,*,#257,.F.);
#157=ORIENTED_EDGE('',*,*,#258,.T.);
#158=ORIENTED_EDGE('',*,*,#260,.T.);
#159=ORIENTED_EDGE('',*,*,#220,.F.);
#160=ORIENTED_EDGE('',*,*,#238,.T.);
#161=ORIENTED_EDGE('',*,*,#194,.F.);
#162=ORIENTED_EDGE('',*,*,#239,.F.);
#163=ORIENTED_EDGE('',*,*,#211,.T.);
#164=ORIENTED_EDGE('',*,*,#261,.T.);
#165=ORIENTED_EDGE('',*,*,#212,.T.);
#166=ORIENTED_EDGE('',*,*,#262,.F.);
#167=ORIENTED_EDGE('',*,*,#189,.F.);
#168=ORIENTED_EDGE('',*,*,#262,.T.);
#169=ORIENTED_EDGE('',*,*,#217,.T.);
#170=ORIENTED_EDGE('',*,*,#263,.F.);
#171=ORIENTED_EDGE('',*,*,#190,.F.);
#172=ORIENTED_EDGE('',*,*,#263,.T.);
#173=ORIENTED_EDGE('',*,*,#216,.T.);
#174=ORIENTED_EDGE('',*,*,#264,.F.);
#175=ORIENTED_EDGE('',*,*,#191,.F.);
#176=ORIENTED_EDGE('',*,*,#264,.T.);
#177=ORIENTED_EDGE('',*,*,#215,.T.);
#178=ORIENTED_EDGE('',*,*,#265,.F.);
#179=ORIENTED_EDGE('',*,*,#192,.F.);
#180=ORIENTED_EDGE('',*,*,#265,.T.);
#181=ORIENTED_EDGE('',*,*,#214,.T.);
#182=ORIENTED_EDGE('',*,*,#266,.F.);
#183=ORIENTED_EDGE('',*,*,#193,.F.);
#184=ORIENTED_EDGE('',*,*,#266,.T.);
#185=ORIENTED_EDGE('',*,*,#213,.T.);
#186=ORIENTED_EDGE('',*,*,#261,.F.);
#187=ORIENTED_EDGE('',*,*,#188,.F.);
#188=EDGE_CURVE('',#267,#268,#321,.T.);
#189=EDGE_CURVE('',#268,#269,#322,.T.);
#190=EDGE_CURVE('',#269,#270,#323,.T.);
#191=EDGE_CURVE('',#270,#271,#324,.T.);
#192=EDGE_CURVE('',#271,#272,#325,.T.);
#193=EDGE_CURVE('',#272,#267,#326,.T.);
#194=EDGE_CURVE('',#273,#273,#18,.T.);
#195=EDGE_CURVE('',#274,#275,#327,.T.);
#196=EDGE_CURVE('',#276,#274,#328,.T.);
#197=EDGE_CURVE('',#276,#277,#329,.T.);
#198=EDGE_CURVE('',#278,#277,#19,.T.);
#199=EDGE_CURVE('',#278,#279,#330,.T.);
#200=EDGE_CURVE('',#280,#279,#20,.T.);
#201=EDGE_CURVE('',#280,#281,#331,.T.);
#202=EDGE_CURVE('',#281,#282,#332,.T.);
#203=EDGE_CURVE('',#283,#282,#21,.T.);
#204=EDGE_CURVE('',#283,#284,#333,.T.);
#205=EDGE_CURVE('',#285,#284,#22,.T.);
#206=EDGE_CURVE('',#285,#286,#334,.T.);
#207=EDGE_CURVE('',#287,#286,#335,.T.);
#208=EDGE_CURVE('',#288,#287,#336,.T.);
#209=EDGE_CURVE('',#289,#288,#337,.T.);
#210=EDGE_CURVE('',#275,#289,#338,.T.);
#211=EDGE_CURVE('',#290,#290,#23,.F.);
#212=EDGE_CURVE('',#291,#292,#339,.T.);
#213=EDGE_CURVE('',#293,#291,#340,.T.);
#214=EDGE_CURVE('',#294,#293,#341,.T.);
#215=EDGE_CURVE('',#295,#294,#342,.T.);
#216=EDGE_CURVE('',#296,#295,#343,.T.);
#217=EDGE_CURVE('',#292,#296,#344,.T.);
#218=EDGE_CURVE('',#297,#298,#345,.F.);
#219=EDGE_CURVE('',#297,#299,#346,.T.);
#220=EDGE_CURVE('',#299,#300,#347,.T.);
#221=EDGE_CURVE('',#298,#300,#348,.F.);
#222=EDGE_CURVE('',#301,#302,#349,.T.);
#223=EDGE_CURVE('',#302,#303,#350,.T.);
#224=EDGE_CURVE('',#303,#304,#351,.T.);
#225=EDGE_CURVE('',#304,#305,#352,.T.);
#226=EDGE_CURVE('',#305,#306,#353,.T.);
#227=EDGE_CURVE('',#307,#306,#354,.T.);
#228=EDGE_CURVE('',#307,#308,#24,.T.);
#229=EDGE_CURVE('',#309,#308,#355,.T.);
#230=EDGE_CURVE('',#309,#310,#25,.T.);
#231=EDGE_CURVE('',#311,#310,#356,.T.);
#232=EDGE_CURVE('',#312,#311,#357,.T.);
#233=EDGE_CURVE('',#312,#313,#26,.T.);
#234=EDGE_CURVE('',#314,#313,#358,.T.);
#235=EDGE_CURVE('',#314,#315,#27,.T.);
#236=EDGE_CURVE('',#316,#315,#359,.T.);
#237=EDGE_CURVE('',#316,#301,#360,.T.);
#238=EDGE_CURVE('',#317,#317,#28,.T.);
#239=EDGE_CURVE('',#318,#318,#29,.T.);
#240=EDGE_CURVE('',#302,#275,#361,.T.);
#241=EDGE_CURVE('',#301,#274,#362,.T.);
#242=EDGE_CURVE('',#303,#289,#363,.T.);
#243=EDGE_CURVE('',#304,#288,#364,.T.);
#244=EDGE_CURVE('',#305,#287,#365,.T.);
#245=EDGE_CURVE('',#306,#286,#366,.T.);
#246=EDGE_CURVE('',#307,#285,#367,.T.);
#247=EDGE_CURVE('',#308,#284,#368,.T.);
#248=EDGE_CURVE('',#309,#283,#369,.T.);
#249=EDGE_CURVE('',#310,#282,#370,.T.);
#250=EDGE_CURVE('',#311,#281,#371,.T.);
#251=EDGE_CURVE('',#312,#280,#372,.T.);
#252=EDGE_CURVE('',#313,#279,#373,.T.);
#253=EDGE_CURVE('',#314,#278,#374,.T.);
#254=EDGE_CURVE('',#315,#277,#375,.T.);
#255=EDGE_CURVE('',#316,#276,#376,.T.);
#256=EDGE_CURVE('',#319,#297,#377,.F.);
#257=EDGE_CURVE('',#319,#299,#378,.T.);
#258=EDGE_CURVE('',#319,#320,#379,.F.);
#259=EDGE_CURVE('',#320,#298,#380,.T.);
#260=EDGE_CURVE('',#320,#300,#381,.F.);
#261=EDGE_CURVE('',#268,#291,#382,.T.);
#262=EDGE_CURVE('',#269,#292,#383,.T.);
#263=EDGE_CURVE('',#270,#296,#384,.T.);
#264=EDGE_CURVE('',#271,#295,#385,.T.);
#265=EDGE_CURVE('',#272,#294,#386,.T.);
#266=EDGE_CURVE('',#267,#293,#387,.T.);
#267=VERTEX_POINT('',#798);
#268=VERTEX_POINT('',#799);
#269=VERTEX_POINT('',#801);
#270=VERTEX_POINT('',#803);
#271=VERTEX_POINT('',#805);
#272=VERTEX_POINT('',#807);
#273=VERTEX_POINT('',#810);
#274=VERTEX_POINT('',#812);
#275=VERTEX_POINT('',#813);
#276=VERTEX_POINT('',#815);
#277=VERTEX_POINT('',#817);
#278=VERTEX_POINT('',#819);
#279=VERTEX_POINT('',#821);
#280=VERTEX_POINT('',#823);
#281=VERTEX_POINT('',#825);
#282=VERTEX_POINT('',#827);
#283=VERTEX_POINT('',#829);
#284=VERTEX_POINT('',#831);
#285=VERTEX_POINT('',#833);
#286=VERTEX_POINT('',#835);
#287=VERTEX_POINT('',#837);
#288=VERTEX_POINT('',#839);
#289=VERTEX_POINT('',#841);
#290=VERTEX_POINT('',#844);
#291=VERTEX_POINT('',#847);
#292=VERTEX_POINT('',#848);
#293=VERTEX_POINT('',#850);
#294=VERTEX_POINT('',#852);
#295=VERTEX_POINT('',#854);
#296=VERTEX_POINT('',#856);
#297=VERTEX_POINT('',#859);
#298=VERTEX_POINT('',#860);
#299=VERTEX_POINT('',#862);
#300=VERTEX_POINT('',#864);
#301=VERTEX_POINT('',#867);
#302=VERTEX_POINT('',#868);
#303=VERTEX_POINT('',#870);
#304=VERTEX_POINT('',#872);
#305=VERTEX_POINT('',#874);
#306=VERTEX_POINT('',#876);
#307=VERTEX_POINT('',#878);
#308=VERTEX_POINT('',#880);
#309=VERTEX_POINT('',#882);
#310=VERTEX_POINT('',#884);
#311=VERTEX_POINT('',#886);
#312=VERTEX_POINT('',#888);
#313=VERTEX_POINT('',#890);
#314=VERTEX_POINT('',#892);
#315=VERTEX_POINT('',#894);
#316=VERTEX_POINT('',#896);
#317=VERTEX_POINT('',#899);
#318=VERTEX_POINT('',#901);
#319=VERTEX_POINT('',#936);
#320=VERTEX_POINT('',#940);
#321=LINE('',#797,#388);
#322=LINE('',#800,#389);
#323=LINE('',#802,#390);
#324=LINE('',#804,#391);
#325=LINE('',#806,#392);
#326=LINE('',#808,#393);
#327=LINE('',#811,#394);
#328=LINE('',#814,#395);
#329=LINE('',#816,#396);
#330=LINE('',#820,#397);
#331=LINE('',#824,#398);
#332=LINE('',#826,#399);
#333=LINE('',#830,#400);
#334=LINE('',#834,#401);
#335=LINE('',#836,#402);
#336=LINE('',#838,#403);
#337=LINE('',#840,#404);
#338=LINE('',#842,#405);
#339=LINE('',#846,#406);
#340=LINE('',#849,#407);
#341=LINE('',#851,#408);
#342=LINE('',#853,#409);
#343=LINE('',#855,#410);
#344=LINE('',#857,#411);
#345=LINE('',#858,#412);
#346=LINE('',#861,#413);
#347=LINE('',#863,#414);
#348=LINE('',#865,#415);
#349=LINE('',#866,#416);
#350=LINE('',#869,#417);
#351=LINE('',#871,#418);
#352=LINE('',#873,#419);
#353=LINE('',#875,#420);
#354=LINE('',#877,#421);
#355=LINE('',#881,#422);
#356=LINE('',#885,#423);
#357=LINE('',#887,#424);
#358=LINE('',#891,#425);
#359=LINE('',#895,#426);
#360=LINE('',#897,#427);
#361=LINE('',#903,#428);
#362=LINE('',#904,#429);
#363=LINE('',#906,#430);
#364=LINE('',#908,#431);
#365=LINE('',#910,#432);
#366=LINE('',#912,#433);
#367=LINE('',#914,#434);
#368=LINE('',#916,#435);
#369=LINE('',#918,#436);
#370=LINE('',#920,#437);
#371=LINE('',#922,#438);
#372=LINE('',#924,#439);
#373=LINE('',#926,#440);
#374=LINE('',#928,#441);
#375=LINE('',#930,#442);
#376=LINE('',#932,#443);
#377=LINE('',#935,#444);
#378=LINE('',#937,#445);
#379=LINE('',#939,#446);
#380=LINE('',#941,#447);
#381=LINE('',#943,#448);
#382=LINE('',#948,#449);
#383=LINE('',#949,#450);
#384=LINE('',#951,#451);
#385=LINE('',#953,#452);
#386=LINE('',#955,#453);
#387=LINE('',#957,#454);
#388=VECTOR('',#646,1.);
#389=VECTOR('',#647,1.);
#390=VECTOR('',#648,1.);
#391=VECTOR('',#649,1.);
#392=VECTOR('',#650,1.);
#393=VECTOR('',#651,1.);
#394=VECTOR('',#654,1.);
#395=VECTOR('',#655,1.);
#396=VECTOR('',#656,1.);
#397=VECTOR('',#659,1.);
#398=VECTOR('',#662,1.);
#399=VECTOR('',#663,1.);
#400=VECTOR('',#666,1.);
#401=VECTOR('',#669,1.);
#402=VECTOR('',#670,1.);
#403=VECTOR('',#671,1.);
#404=VECTOR('',#672,1.);
#405=VECTOR('',#673,1.);
#406=VECTOR('',#678,1.);
#407=VECTOR('',#679,1.);
#408=VECTOR('',#680,1.);
#409=VECTOR('',#681,1.);
#410=VECTOR('',#682,1.);
#411=VECTOR('',#683,1.);
#412=VECTOR('',#684,1.);
#413=VECTOR('',#685,1.);
#414=VECTOR('',#686,1.);
#415=VECTOR('',#687,1.);
#416=VECTOR('',#688,1.);
#417=VECTOR('',#689,1.);
#418=VECTOR('',#690,1.);
#419=VECTOR('',#691,1.);
#420=VECTOR('',#692,1.);
#421=VECTOR('',#693,1.);
#422=VECTOR('',#696,1.);
#423=VECTOR('',#699,1.);
#424=VECTOR('',#700,1.);
#425=VECTOR('',#703,1.);
#426=VECTOR('',#706,1.);
#427=VECTOR('',#707,1.);
#428=VECTOR('',#714,1.);
#429=VECTOR('',#715,1.);
#430=VECTOR('',#718,1.);
#431=VECTOR('',#721,1.);
#432=VECTOR('',#724,1.);
#433=VECTOR('',#727,1.);
#434=VECTOR('',#730,1.);
#435=VECTOR('',#733,1.);
#436=VECTOR('',#736,1.);
#437=VECTOR('',#739,1.);
#438=VECTOR('',#742,1.);
#439=VECTOR('',#745,1.);
#440=VECTOR('',#748,1.);
#441=VECTOR('',#751,1.);
#442=VECTOR('',#754,1.);
#443=VECTOR('',#757,1.);
#444=VECTOR('',#762,1.);
#445=VECTOR('',#763,1.);
#446=VECTOR('',#766,1.);
#447=VECTOR('',#767,1.);
#448=VECTOR('',#770,1.);
#449=VECTOR('',#779,1.);
#450=VECTOR('',#780,1.);
#451=VECTOR('',#783,1.);
#452=VECTOR('',#786,1.);
#453=VECTOR('',#789,1.);
#454=VECTOR('',#792,1.);
#455=EDGE_LOOP('',(#30,#31,#32,#33,#34,#35));
#456=EDGE_LOOP('',(#36));
#457=EDGE_LOOP('',(#37,#38,#39,#40,#41,#42,#43,#44,#45,#46,#47,#48,#49,
#50,#51,#52));
#458=EDGE_LOOP('',(#53));
#459=EDGE_LOOP('',(#54,#55,#56,#57,#58,#59));
#460=EDGE_LOOP('',(#60,#61,#62,#63));
#461=EDGE_LOOP('',(#64,#65,#66,#67,#68,#69,#70,#71,#72,#73,#74,#75,#76,
#77,#78,#79));
#462=EDGE_LOOP('',(#80));
#463=EDGE_LOOP('',(#81));
#464=EDGE_LOOP('',(#82,#83,#84,#85));
#465=EDGE_LOOP('',(#86,#87,#88,#89));
#466=EDGE_LOOP('',(#90,#91,#92,#93));
#467=EDGE_LOOP('',(#94,#95,#96,#97));
#468=EDGE_LOOP('',(#98,#99,#100,#101));
#469=EDGE_LOOP('',(#102,#103,#104,#105));
#470=EDGE_LOOP('',(#106,#107,#108,#109));
#471=EDGE_LOOP('',(#110,#111,#112,#113));
#472=EDGE_LOOP('',(#114,#115,#116,#117));
#473=EDGE_LOOP('',(#118,#119,#120,#121));
#474=EDGE_LOOP('',(#122,#123,#124,#125));
#475=EDGE_LOOP('',(#126,#127,#128,#129));
#476=EDGE_LOOP('',(#130,#131,#132,#133));
#477=EDGE_LOOP('',(#134,#135,#136,#137));
#478=EDGE_LOOP('',(#138,#139,#140,#141));
#479=EDGE_LOOP('',(#142,#143,#144,#145));
#480=EDGE_LOOP('',(#146,#147,#148));
#481=EDGE_LOOP('',(#149,#150,#151,#152));
#482=EDGE_LOOP('',(#153,#154,#155));
#483=EDGE_LOOP('',(#156,#157,#158,#159));
#484=EDGE_LOOP('',(#160));
#485=EDGE_LOOP('',(#161));
#486=EDGE_LOOP('',(#162));
#487=EDGE_LOOP('',(#163));
#488=EDGE_LOOP('',(#164,#165,#166,#167));
#489=EDGE_LOOP('',(#168,#169,#170,#171));
#490=EDGE_LOOP('',(#172,#173,#174,#175));
#491=EDGE_LOOP('',(#176,#177,#178,#179));
#492=EDGE_LOOP('',(#180,#181,#182,#183));
#493=EDGE_LOOP('',(#184,#185,#186,#187));
#494=FACE_BOUND('',#455,.T.);
#495=FACE_BOUND('',#456,.T.);
#496=FACE_BOUND('',#457,.T.);
#497=FACE_BOUND('',#458,.T.);
#498=FACE_BOUND('',#459,.T.);
#499=FACE_BOUND('',#460,.T.);
#500=FACE_BOUND('',#461,.T.);
#501=FACE_BOUND('',#462,.T.);
#502=FACE_BOUND('',#463,.T.);
#503=FACE_BOUND('',#464,.T.);
#504=FACE_BOUND('',#465,.T.);
#505=FACE_BOUND('',#466,.T.);
#506=FACE_BOUND('',#467,.T.);
#507=FACE_BOUND('',#468,.T.);
#508=FACE_BOUND('',#469,.T.);
#509=FACE_BOUND('',#470,.T.);
#510=FACE_BOUND('',#471,.T.);
#511=FACE_BOUND('',#472,.T.);
#512=FACE_BOUND('',#473,.T.);
#513=FACE_BOUND('',#474,.T.);
#514=FACE_BOUND('',#475,.T.);
#515=FACE_BOUND('',#476,.T.);
#516=FACE_BOUND('',#477,.T.);
#517=FACE_BOUND('',#478,.T.);
#518=FACE_BOUND('',#479,.T.);
#519=FACE_BOUND('',#480,.T.);
#520=FACE_BOUND('',#481,.T.);
#521=FACE_BOUND('',#482,.T.);
#522=FACE_BOUND('',#483,.T.);
#523=FACE_BOUND('',#484,.T.);
#524=FACE_BOUND('',#485,.T.);
#525=FACE_BOUND('',#486,.T.);
#526=FACE_BOUND('',#487,.T.);
#527=FACE_BOUND('',#488,.T.);
#528=FACE_BOUND('',#489,.T.);
#529=FACE_BOUND('',#490,.T.);
#530=FACE_BOUND('',#491,.T.);
#531=FACE_BOUND('',#492,.T.);
#532=FACE_BOUND('',#493,.T.);
#533=PLANE('',#600);
#534=PLANE('',#607);
#535=PLANE('',#614);
#536=PLANE('',#615);
#537=PLANE('',#616);
#538=PLANE('',#617);
#539=PLANE('',#618);
#540=PLANE('',#619);
#541=PLANE('',#621);
#542=PLANE('',#623);
#543=PLANE('',#624);
#544=PLANE('',#626);
#545=PLANE('',#628);
#546=PLANE('',#629);
#547=PLANE('',#630);
#548=PLANE('',#631);
#549=PLANE('',#632);
#550=PLANE('',#633);
#551=PLANE('',#636);
#552=PLANE('',#637);
#553=PLANE('',#638);
#554=PLANE('',#639);
#555=PLANE('',#640);
#556=PLANE('',#641);
#557=ADVANCED_FACE('',(#494,#495,#496,#497),#533,.F.);
#558=ADVANCED_FACE('',(#498,#499,#500,#501,#502),#534,.T.);
#559=ADVANCED_FACE('',(#503),#535,.F.);
#560=ADVANCED_FACE('',(#504),#536,.F.);
#561=ADVANCED_FACE('',(#505),#537,.F.);
#562=ADVANCED_FACE('',(#506),#538,.F.);
#563=ADVANCED_FACE('',(#507),#539,.F.);
#564=ADVANCED_FACE('',(#508),#540,.T.);
#565=ADVANCED_FACE('',(#509),#12,.T.);
#566=ADVANCED_FACE('',(#510),#541,.T.);
#567=ADVANCED_FACE('',(#511),#13,.T.);
#568=ADVANCED_FACE('',(#512),#542,.T.);
#569=ADVANCED_FACE('',(#513),#543,.T.);
#570=ADVANCED_FACE('',(#514),#14,.T.);
#571=ADVANCED_FACE('',(#515),#544,.T.);
#572=ADVANCED_FACE('',(#516),#15,.T.);
#573=ADVANCED_FACE('',(#517),#545,.T.);
#574=ADVANCED_FACE('',(#518),#546,.F.);
#575=ADVANCED_FACE('',(#519),#547,.T.);
#576=ADVANCED_FACE('',(#520),#548,.T.);
#577=ADVANCED_FACE('',(#521),#549,.T.);
#578=ADVANCED_FACE('',(#522),#550,.T.);
#579=ADVANCED_FACE('',(#523,#524),#16,.F.);
#580=ADVANCED_FACE('',(#525,#526),#17,.F.);
#581=ADVANCED_FACE('',(#527),#551,.F.);
#582=ADVANCED_FACE('',(#528),#552,.F.);
#583=ADVANCED_FACE('',(#529),#553,.F.);
#584=ADVANCED_FACE('',(#530),#554,.F.);
#585=ADVANCED_FACE('',(#531),#555,.F.);
#586=ADVANCED_FACE('',(#532),#556,.F.);
#587=CLOSED_SHELL('',(#557,#558,#559,#560,#561,#562,#563,#564,#565,#566,
#567,#568,#569,#570,#571,#572,#573,#574,#575,#576,#577,#578,#579,#580,#581,
#582,#583,#584,#585,#586));
#588=STYLED_ITEM('',(#589),#596);
#589=PRESENTATION_STYLE_ASSIGNMENT((#590));
#590=SURFACE_STYLE_USAGE(.BOTH.,#591);
#591=SURFACE_SIDE_STYLE('',(#592));
#592=SURFACE_STYLE_FILL_AREA(#593);
#593=FILL_AREA_STYLE('',(#594));
#594=FILL_AREA_STYLE_COLOUR('',#595);
#595=COLOUR_RGB('',0.917647058823529,0.917647058823529,0.917647058823529);
#596=MANIFOLD_SOLID_BREP('Part 1',#587);
#597=SHAPE_DEFINITION_REPRESENTATION(#965,#598);
#598=SHAPE_REPRESENTATION('Part 1',(#599),#960);
#599=AXIS2_PLACEMENT_3D('',#795,#642,#643);
#600=AXIS2_PLACEMENT_3D('',#796,#644,#645);
#601=AXIS2_PLACEMENT_3D('',#809,#652,#653);
#602=AXIS2_PLACEMENT_3D('',#818,#657,#658);
#603=AXIS2_PLACEMENT_3D('',#822,#660,#661);
#604=AXIS2_PLACEMENT_3D('',#828,#664,#665);
#605=AXIS2_PLACEMENT_3D('',#832,#667,#668);
#606=AXIS2_PLACEMENT_3D('',#843,#674,#675);
#607=AXIS2_PLACEMENT_3D('',#845,#676,#677);
#608=AXIS2_PLACEMENT_3D('',#879,#694,#695);
#609=AXIS2_PLACEMENT_3D('',#883,#697,#698);
#610=AXIS2_PLACEMENT_3D('',#889,#701,#702);
#611=AXIS2_PLACEMENT_3D('',#893,#704,#705);
#612=AXIS2_PLACEMENT_3D('',#898,#708,#709);
#613=AXIS2_PLACEMENT_3D('',#900,#710,#711);
#614=AXIS2_PLACEMENT_3D('',#902,#712,#713);
#615=AXIS2_PLACEMENT_3D('',#905,#716,#717);
#616=AXIS2_PLACEMENT_3D('',#907,#719,#720);
#617=AXIS2_PLACEMENT_3D('',#909,#722,#723);
#618=AXIS2_PLACEMENT_3D('',#911,#725,#726);
#619=AXIS2_PLACEMENT_3D('',#913,#728,#729);
#620=AXIS2_PLACEMENT_3D('',#915,#731,#732);
#621=AXIS2_PLACEMENT_3D('',#917,#734,#735);
#622=AXIS2_PLACEMENT_3D('',#919,#737,#738);
#623=AXIS2_PLACEMENT_3D('',#921,#740,#741);
#624=AXIS2_PLACEMENT_3D('',#923,#743,#744);
#625=AXIS2_PLACEMENT_3D('',#925,#746,#747);
#626=AXIS2_PLACEMENT_3D('',#927,#749,#750);
#627=AXIS2_PLACEMENT_3D('',#929,#752,#753);
#628=AXIS2_PLACEMENT_3D('',#931,#755,#756);
#629=AXIS2_PLACEMENT_3D('',#933,#758,#759);
#630=AXIS2_PLACEMENT_3D('',#934,#760,#761);
#631=AXIS2_PLACEMENT_3D('',#938,#764,#765);
#632=AXIS2_PLACEMENT_3D('',#942,#768,#769);
#633=AXIS2_PLACEMENT_3D('',#944,#771,#772);
#634=AXIS2_PLACEMENT_3D('',#945,#773,#774);
#635=AXIS2_PLACEMENT_3D('',#946,#775,#776);
#636=AXIS2_PLACEMENT_3D('',#947,#777,#778);
#637=AXIS2_PLACEMENT_3D('',#950,#781,#782);
#638=AXIS2_PLACEMENT_3D('',#952,#784,#785);
#639=AXIS2_PLACEMENT_3D('',#954,#787,#788);
#640=AXIS2_PLACEMENT_3D('',#956,#790,#791);
#641=AXIS2_PLACEMENT_3D('',#958,#793,#794);
#642=DIRECTION('',(0.,0.,1.));
#643=DIRECTION('',(1.,0.,0.));
#644=DIRECTION('',(0.,1.,0.));
#645=DIRECTION('',(1.,0.,0.));
#646=DIRECTION('',(-0.266495428889882,0.,0.963836182336396));
#647=DIRECTION('',(-0.999997598615371,0.,0.00219152081706934));
#648=DIRECTION('',(-1.,0.,0.));
#649=DIRECTION('',(0.,0.,1.));
#650=DIRECTION('',(1.,0.,0.));
#651=DIRECTION('',(-0.213058124893242,0.,-0.977039526025931));
#652=DIRECTION('',(0.,1.,0.));
#653=DIRECTION('',(1.,0.,0.));
#654=DIRECTION('',(-0.303682828230025,0.,-0.952773183836643));
#655=DIRECTION('',(0.707106781186547,0.,-0.707106781186548));
#656=DIRECTION('',(-1.,0.,0.));
#657=DIRECTION('',(0.,1.,0.));
#658=DIRECTION('',(1.,0.,0.));
#659=DIRECTION('',(-0.707106781186547,0.,-0.707106781186548));
#660=DIRECTION('',(0.,1.,0.));
#661=DIRECTION('',(1.,0.,0.));
#662=DIRECTION('',(0.303682828230025,0.,-0.952773183836643));
#663=DIRECTION('',(-0.718602345804687,0.,-0.695421216676628));
#664=DIRECTION('',(0.,1.,0.));
#665=DIRECTION('',(1.,0.,0.));
#666=DIRECTION('',(0.695421216676628,0.,-0.718602345804686));
#667=DIRECTION('',(0.,1.,0.));
#668=DIRECTION('',(1.,0.,0.));
#669=DIRECTION('',(0.718602345804687,0.,0.695421216676628));
#670=DIRECTION('',(-1.,0.,0.));
#671=DIRECTION('',(-0.718602345804687,0.,0.695421216676628));
#672=DIRECTION('',(-0.695421216676628,0.,-0.718602345804686));
#673=DIRECTION('',(0.718602345804687,0.,-0.695421216676628));
#674=DIRECTION('',(0.,1.,0.));
#675=DIRECTION('',(1.,0.,0.));
#676=DIRECTION('',(0.,1.,0.));
#677=DIRECTION('',(1.,0.,0.));
#678=DIRECTION('',(-0.999997598615371,0.,0.00219152081706934));
#679=DIRECTION('',(-0.266495428889882,0.,0.963836182336396));
#680=DIRECTION('',(-0.213058124893242,0.,-0.977039526025931));
#681=DIRECTION('',(1.,0.,0.));
#682=DIRECTION('',(0.,0.,1.));
#683=DIRECTION('',(-1.,0.,0.));
#684=DIRECTION('',(0.085015328616355,0.,0.996379643459386));
#685=DIRECTION('',(-1.,0.,3.06657471648694E-16));
#686=DIRECTION('',(0.085015328616355,0.,-0.996379643459386));
#687=DIRECTION('',(1.,0.,0.));
#688=DIRECTION('',(-0.303682828230025,0.,-0.952773183836643));
#689=DIRECTION('',(0.718602345804687,0.,-0.695421216676628));
#690=DIRECTION('',(-0.695421216676628,0.,-0.718602345804686));
#691=DIRECTION('',(-0.718602345804687,0.,0.695421216676628));
#692=DIRECTION('',(-1.,0.,0.));
#693=DIRECTION('',(0.718602345804687,0.,0.695421216676628));
#694=DIRECTION('',(0.,1.,0.));
#695=DIRECTION('',(1.,0.,0.));
#696=DIRECTION('',(0.695421216676628,0.,-0.718602345804686));
#697=DIRECTION('',(0.,1.,0.));
#698=DIRECTION('',(1.,0.,0.));
#699=DIRECTION('',(-0.718602345804687,0.,-0.695421216676628));
#700=DIRECTION('',(0.303682828230025,0.,-0.952773183836643));
#701=DIRECTION('',(0.,1.,0.));
#702=DIRECTION('',(1.,0.,0.));
#703=DIRECTION('',(-0.707106781186547,0.,-0.707106781186548));
#704=DIRECTION('',(0.,1.,0.));
#705=DIRECTION('',(1.,0.,0.));
#706=DIRECTION('',(-1.,0.,0.));
#707=DIRECTION('',(0.707106781186547,0.,-0.707106781186548));
#708=DIRECTION('',(0.,1.,0.));
#709=DIRECTION('',(1.,0.,0.));
#710=DIRECTION('',(0.,-1.,0.));
#711=DIRECTION('',(1.,0.,0.));
#712=DIRECTION('',(-0.952773183836643,0.,0.303682828230025));
#713=DIRECTION('',(0.303682828230025,0.,0.952773183836643));
#714=DIRECTION('',(0.,-1.,0.));
#715=DIRECTION('',(0.,-1.,0.));
#716=DIRECTION('',(-0.695421216676628,0.,-0.718602345804686));
#717=DIRECTION('',(-0.718602345804687,0.,0.695421216676628));
#718=DIRECTION('',(0.,-1.,0.));
#719=DIRECTION('',(-0.718602345804686,0.,0.695421216676628));
#720=DIRECTION('',(0.695421216676628,0.,0.718602345804686));
#721=DIRECTION('',(0.,-1.,0.));
#722=DIRECTION('',(0.695421216676628,0.,0.718602345804687));
#723=DIRECTION('',(0.718602345804687,0.,-0.695421216676628));
#724=DIRECTION('',(0.,-1.,0.));
#725=DIRECTION('',(0.,0.,1.));
#726=DIRECTION('',(0.,-1.,0.));
#727=DIRECTION('',(0.,-1.,0.));
#728=DIRECTION('',(0.695421216676628,0.,-0.718602345804686));
#729=DIRECTION('',(-0.718602345804687,0.,-0.695421216676628));
#730=DIRECTION('',(0.,-1.,0.));
#731=DIRECTION('',(0.,-1.,0.));
#732=DIRECTION('',(-1.,0.,0.));
#733=DIRECTION('',(0.,-1.,0.));
#734=DIRECTION('',(-0.718602345804686,0.,-0.695421216676628));
#735=DIRECTION('',(-0.695421216676628,0.,0.718602345804686));
#736=DIRECTION('',(0.,-1.,0.));
#737=DIRECTION('',(0.,-1.,0.));
#738=DIRECTION('',(-1.,0.,0.));
#739=DIRECTION('',(0.,-1.,0.));
#740=DIRECTION('',(-0.695421216676628,0.,0.718602345804686));
#741=DIRECTION('',(0.718602345804687,0.,0.695421216676628));
#742=DIRECTION('',(0.,-1.,0.));
#743=DIRECTION('',(-0.952773183836643,0.,-0.303682828230025));
#744=DIRECTION('',(-0.303682828230025,0.,0.952773183836643));
#745=DIRECTION('',(0.,-1.,0.));
#746=DIRECTION('',(0.,-1.,0.));
#747=DIRECTION('',(-1.,0.,0.));
#748=DIRECTION('',(0.,-1.,0.));
#749=DIRECTION('',(-0.707106781186548,0.,0.707106781186547));
#750=DIRECTION('',(0.707106781186547,0.,0.707106781186548));
#751=DIRECTION('',(0.,-1.,0.));
#752=DIRECTION('',(0.,-1.,0.));
#753=DIRECTION('',(-1.,0.,0.));
#754=DIRECTION('',(0.,-1.,0.));
#755=DIRECTION('',(0.,0.,1.));
#756=DIRECTION('',(0.,-1.,0.));
#757=DIRECTION('',(0.,-1.,0.));
#758=DIRECTION('',(-0.707106781186548,0.,-0.707106781186547));
#759=DIRECTION('',(-0.707106781186547,0.,0.707106781186548));
#760=DIRECTION('',(2.88163763217142E-16,0.342020143325668,0.939692620785908));
#761=DIRECTION('',(-1.04883032405173E-16,0.939692620785908,-0.342020143325668));
#762=DIRECTION('',(-0.349023821871155,0.88059897163896,-0.320511814002009));
#763=DIRECTION('',(-0.349023821871155,-0.88059897163896,0.320511814002009));
#764=DIRECTION('',(0.93629059846008,0.342020143325668,-0.0798882769544779));
#765=DIRECTION('',(-0.340781908462758,0.939692620785908,0.0290769548782445));
#766=DIRECTION('',(5.27512265516559E-18,0.227455280238187,0.973788527089824));
#767=DIRECTION('',(0.29964820828413,-0.89651352264206,-0.326304236858849));
#768=DIRECTION('',(0.,0.342020143325668,-0.939692620785908));
#769=DIRECTION('',(0.,0.939692620785908,0.342020143325668));
#770=DIRECTION('',(0.29964820828413,0.89651352264206,0.326304236858849));
#771=DIRECTION('',(-0.93629059846008,0.342020143325668,-0.0798882769544778));
#772=DIRECTION('',(0.340781908462758,0.939692620785908,0.0290769548782445));
#773=DIRECTION('',(0.,1.,0.));
#774=DIRECTION('',(1.,0.,0.));
#775=DIRECTION('',(0.,1.,0.));
#776=DIRECTION('',(1.,0.,0.));
#777=DIRECTION('',(-0.00219152081706934,0.,-0.999997598615371));
#778=DIRECTION('',(-0.999997598615371,0.,0.00219152081706934));
#779=DIRECTION('',(0.,1.,0.));
#780=DIRECTION('',(0.,1.,0.));
#781=DIRECTION('',(0.,0.,-1.));
#782=DIRECTION('',(0.,1.,0.));
#783=DIRECTION('',(0.,1.,0.));
#784=DIRECTION('',(-1.,0.,0.));
#785=DIRECTION('',(0.,1.,0.));
#786=DIRECTION('',(0.,1.,0.));
#787=DIRECTION('',(0.,0.,1.));
#788=DIRECTION('',(0.,-1.,0.));
#789=DIRECTION('',(0.,1.,0.));
#790=DIRECTION('',(0.977039526025931,0.,-0.213058124893242));
#791=DIRECTION('',(-0.213058124893242,0.,-0.977039526025931));
#792=DIRECTION('',(0.,1.,0.));
#793=DIRECTION('',(-0.963836182336396,0.,-0.266495428889882));
#794=DIRECTION('',(-0.266495428889882,0.,0.963836182336396));
#795=CARTESIAN_POINT('',(0.,0.,0.));
#796=CARTESIAN_POINT('',(0.000403056515455171,0.,-0.0333451765527338));
#797=CARTESIAN_POINT('',(0.0215502388783335,0.,-0.0274980963778158));
#798=CARTESIAN_POINT('',(0.0190522437020891,0.,-0.0184635769333528));
#799=CARTESIAN_POINT('',(0.0164742856100485,0.,-0.00913985496181237));
#800=CARTESIAN_POINT('',(0.000456180040532926,0.,-0.00910475086570832));
#801=CARTESIAN_POINT('',(-5.20417042793042E-18,0.,-0.00910375113525243));
#802=CARTESIAN_POINT('',(0.000403056515455171,0.,-0.00910375113525243));
#803=CARTESIAN_POINT('',(-0.0219255222314632,0.,-0.00910375113525243));
#804=CARTESIAN_POINT('',(-0.0219255222314632,0.,-0.0333451765527338));
#805=CARTESIAN_POINT('',(-0.0219255222314632,0.,-0.00353451976078464));
#806=CARTESIAN_POINT('',(0.000403056515455171,0.,-0.00353451976078464));
#807=CARTESIAN_POINT('',(0.0223077485643632,0.,-0.00353451976078463));
#808=CARTESIAN_POINT('',(0.0151078407072698,0.,-0.0365517753273105));
#809=CARTESIAN_POINT('',(-0.016428276640485,0.,-0.0480095168479337));
#810=CARTESIAN_POINT('',(-0.0114927539352016,0.,-0.0480095168479337));
#811=CARTESIAN_POINT('',(0.0343907974147891,0.,-0.0311671147355531));
#812=CARTESIAN_POINT('',(0.0420710678118655,0.,-0.00707106781186548));
#813=CARTESIAN_POINT('',(0.0267105270177126,0.,-0.0552631616592407));
#814=CARTESIAN_POINT('',(0.0385355339059327,0.,-0.00353553390593274));
#815=CARTESIAN_POINT('',(0.035,0.,0.));
#816=CARTESIAN_POINT('',(-0.016287587590799,0.,0.));
#817=CARTESIAN_POINT('',(-0.0325751751815982,0.,-1.56125112837912E-17));
#818=CARTESIAN_POINT('',(-0.0325751751815982,0.,-0.0058540449629647));
#819=CARTESIAN_POINT('',(-0.0367146100722814,0.,-0.00171461007228142));
#820=CARTESIAN_POINT('',(-0.0381324773904776,0.,-0.00313247739047756));
#821=CARTESIAN_POINT('',(-0.0395503447086737,0.,-0.00455034470867372));
#822=CARTESIAN_POINT('',(-0.0354109098179905,0.,-0.008689779599357));
#823=CARTESIAN_POINT('',(-0.0409884868756772,0.,-0.0104675525302958));
#824=CARTESIAN_POINT('',(-0.0338495069466949,0.,-0.0328653570947683));
#825=CARTESIAN_POINT('',(-0.0267105270177126,0.,-0.0552631616592407));
#826=CARTESIAN_POINT('',(-0.0277692838722956,0.,-0.056287764465337));
#827=CARTESIAN_POINT('',(-0.0288280407268787,0.,-0.0573123672714333));
#828=CARTESIAN_POINT('',(-0.0253509346434956,0.,-0.0609053790004567));
#829=CARTESIAN_POINT('',(-0.0289439463725189,0.,-0.0643824850838399));
#830=CARTESIAN_POINT('',(-0.0283309052949746,0.,-0.0650159612358953));
#831=CARTESIAN_POINT('',(-0.0277178642174302,0.,-0.0656494373879507));
#832=CARTESIAN_POINT('',(-0.0266769484999133,0.,-0.0646421001882331));
#833=CARTESIAN_POINT('',(-0.0256696113001957,0.,-0.06568301590575));
#834=CARTESIAN_POINT('',(-0.0231412794977803,0.,-0.0632362446302832));
#835=CARTESIAN_POINT('',(-0.0206129476953649,0.,-0.0607894733548164));
#836=CARTESIAN_POINT('',(0.0103064738476824,0.,-0.0607894733548164));
#837=CARTESIAN_POINT('',(0.0206129476953649,0.,-0.0607894733548164));
#838=CARTESIAN_POINT('',(0.0236617373565387,0.,-0.063739913230142));
#839=CARTESIAN_POINT('',(0.0267105270177126,0.,-0.0666903531054676));
#840=CARTESIAN_POINT('',(0.0295657897368073,0.,-0.063739913230142));
#841=CARTESIAN_POINT('',(0.0324210524559021,0.,-0.0607894733548164));
#842=CARTESIAN_POINT('',(0.0295657897368073,0.,-0.0580263175070286));
#843=CARTESIAN_POINT('',(0.016428276640485,0.,-0.0480095168479337));
#844=CARTESIAN_POINT('',(0.0213637993457684,0.,-0.0480095168479337));
#845=CARTESIAN_POINT('',(0.000403056515455171,0.003,-0.0333451765527338));
#846=CARTESIAN_POINT('',(0.00823714280502423,0.003,-0.0091218030485324));
#847=CARTESIAN_POINT('',(0.0164742856100485,0.003,-0.00913985496181237));
#848=CARTESIAN_POINT('',(-5.20417042793042E-18,0.003,-0.00910375113525243));
#849=CARTESIAN_POINT('',(0.0177632646560688,0.003,-0.0138017159475826));
#850=CARTESIAN_POINT('',(0.0190522437020891,0.003,-0.0184635769333528));
#851=CARTESIAN_POINT('',(0.0206799961332261,0.003,-0.0109990483470687));
#852=CARTESIAN_POINT('',(0.0223077485643632,0.003,-0.00353451976078463));
#853=CARTESIAN_POINT('',(0.000191113166449982,0.003,-0.00353451976078464));
#854=CARTESIAN_POINT('',(-0.0219255222314632,0.003,-0.00353451976078464));
#855=CARTESIAN_POINT('',(-0.0219255222314632,0.003,-0.00631913544801854));
#856=CARTESIAN_POINT('',(-0.0219255222314632,0.003,-0.00910375113525243));
#857=CARTESIAN_POINT('',(-0.0109627611157316,0.003,-0.00910375113525243));
#858=CARTESIAN_POINT('',(0.00563643376336433,0.003,-0.0134438107408346));
#859=CARTESIAN_POINT('',(0.00565687660127879,0.003,-0.0132042206823826));
#860=CARTESIAN_POINT('',(0.0025594683829695,0.003,-0.0495058447122574));
#861=CARTESIAN_POINT('',(0.00282843830063939,0.003,-0.0132042206823826));
#862=CARTESIAN_POINT('',(-0.00565687660127879,0.003,-0.0132042206823826));
#863=CARTESIAN_POINT('',(-0.00559554808753541,0.003,-0.0139229908577385));
#864=CARTESIAN_POINT('',(-0.0025594683829695,0.003,-0.0495058447122574));
#865=CARTESIAN_POINT('',(0.00282843830063939,0.003,-0.0495058447122574));
#866=CARTESIAN_POINT('',(0.0343907974147891,0.003,-0.0311671147355531));
#867=CARTESIAN_POINT('',(0.0420710678118655,0.003,-0.00707106781186548));
#868=CARTESIAN_POINT('',(0.0267105270177126,0.003,-0.0552631616592407));
#869=CARTESIAN_POINT('',(0.0295657897368073,0.003,-0.0580263175070286));
#870=CARTESIAN_POINT('',(0.0324210524559021,0.003,-0.0607894733548164));
#871=CARTESIAN_POINT('',(0.0295657897368073,0.003,-0.063739913230142));
#872=CARTESIAN_POINT('',(0.0267105270177126,0.003,-0.0666903531054676));
#873=CARTESIAN_POINT('',(0.0236617373565387,0.003,-0.063739913230142));
#874=CARTESIAN_POINT('',(0.0206129476953649,0.003,-0.0607894733548164));
#875=CARTESIAN_POINT('',(0.0103064738476824,0.003,-0.0607894733548164));
#876=CARTESIAN_POINT('',(-0.0206129476953649,0.003,-0.0607894733548164));
#877=CARTESIAN_POINT('',(-0.0231412794977803,0.003,-0.0632362446302832));
#878=CARTESIAN_POINT('',(-0.0256696113001957,0.003,-0.06568301590575));
#879=CARTESIAN_POINT('',(-0.0266769484999133,0.003,-0.0646421001882331));
#880=CARTESIAN_POINT('',(-0.0277178642174302,0.003,-0.0656494373879507));
#881=CARTESIAN_POINT('',(-0.0283309052949746,0.003,-0.0650159612358953));
#882=CARTESIAN_POINT('',(-0.0289439463725189,0.003,-0.0643824850838399));
#883=CARTESIAN_POINT('',(-0.0253509346434956,0.003,-0.0609053790004567));
#884=CARTESIAN_POINT('',(-0.0288280407268787,0.003,-0.0573123672714333));
#885=CARTESIAN_POINT('',(-0.0277692838722956,0.003,-0.056287764465337));
#886=CARTESIAN_POINT('',(-0.0267105270177126,0.003,-0.0552631616592407));
#887=CARTESIAN_POINT('',(-0.0338495069466949,0.003,-0.0328653570947683));
#888=CARTESIAN_POINT('',(-0.0409884868756772,0.003,-0.0104675525302958));
#889=CARTESIAN_POINT('',(-0.0354109098179905,0.003,-0.008689779599357));
#890=CARTESIAN_POINT('',(-0.0395503447086737,0.003,-0.00455034470867372));
#891=CARTESIAN_POINT('',(-0.0381324773904776,0.003,-0.00313247739047756));
#892=CARTESIAN_POINT('',(-0.0367146100722814,0.003,-0.00171461007228142));
#893=CARTESIAN_POINT('',(-0.0325751751815982,0.003,-0.0058540449629647));
#894=CARTESIAN_POINT('',(-0.0325751751815982,0.003,-1.56125112837912E-17));
#895=CARTESIAN_POINT('',(-0.016287587590799,0.003,0.));
#896=CARTESIAN_POINT('',(0.035,0.003,0.));
#897=CARTESIAN_POINT('',(0.0385355339059327,0.003,-0.00353553390593274));
#898=CARTESIAN_POINT('',(-0.016428276640485,0.003,-0.0480095168479337));
#899=CARTESIAN_POINT('',(-0.0114927539352016,0.003,-0.0480095168479337));
#900=CARTESIAN_POINT('',(0.016428276640485,0.003,-0.0480095168479337));
#901=CARTESIAN_POINT('',(0.0213637993457684,0.003,-0.0480095168479337));
#902=CARTESIAN_POINT('',(0.0343907974147891,0.003,-0.0311671147355531));
#903=CARTESIAN_POINT('',(0.0267105270177126,0.003,-0.0552631616592407));
#904=CARTESIAN_POINT('',(0.0420710678118655,0.003,-0.00707106781186548));
#905=CARTESIAN_POINT('',(0.0295657897368073,0.003,-0.0580263175070286));
#906=CARTESIAN_POINT('',(0.0324210524559021,0.003,-0.0607894733548164));
#907=CARTESIAN_POINT('',(0.0295657897368073,0.003,-0.063739913230142));
#908=CARTESIAN_POINT('',(0.0267105270177126,0.003,-0.0666903531054676));
#909=CARTESIAN_POINT('',(0.0236617373565387,0.003,-0.063739913230142));
#910=CARTESIAN_POINT('',(0.0206129476953649,0.003,-0.0607894733548164));
#911=CARTESIAN_POINT('',(0.0103064738476824,0.003,-0.0607894733548164));
#912=CARTESIAN_POINT('',(-0.0206129476953649,0.003,-0.0607894733548164));
#913=CARTESIAN_POINT('',(-0.0231412794977803,0.003,-0.0632362446302832));
#914=CARTESIAN_POINT('',(-0.0256696113001957,0.003,-0.06568301590575));
#915=CARTESIAN_POINT('',(-0.0266769484999133,0.003,-0.0646421001882331));
#916=CARTESIAN_POINT('',(-0.0277178642174302,0.003,-0.0656494373879507));
#917=CARTESIAN_POINT('',(-0.0283309052949746,0.003,-0.0650159612358953));
#918=CARTESIAN_POINT('',(-0.0289439463725189,0.003,-0.0643824850838399));
#919=CARTESIAN_POINT('',(-0.0253509346434956,0.003,-0.0609053790004567));
#920=CARTESIAN_POINT('',(-0.0288280407268787,0.003,-0.0573123672714333));
#921=CARTESIAN_POINT('',(-0.0277692838722956,0.003,-0.056287764465337));
#922=CARTESIAN_POINT('',(-0.0267105270177126,0.003,-0.0552631616592407));
#923=CARTESIAN_POINT('',(-0.0338495069466949,0.003,-0.0328653570947683));
#924=CARTESIAN_POINT('',(-0.0409884868756772,0.003,-0.0104675525302958));
#925=CARTESIAN_POINT('',(-0.0354109098179905,0.003,-0.008689779599357));
#926=CARTESIAN_POINT('',(-0.0395503447086737,0.003,-0.00455034470867372));
#927=CARTESIAN_POINT('',(-0.0381324773904776,0.003,-0.00313247739047756));
#928=CARTESIAN_POINT('',(-0.0367146100722814,0.003,-0.00171461007228142));
#929=CARTESIAN_POINT('',(-0.0325751751815982,0.003,-0.0058540449629647));
#930=CARTESIAN_POINT('',(-0.0325751751815982,0.003,-1.56125112837912E-17));
#931=CARTESIAN_POINT('',(-0.016287587590799,0.003,0.));
#932=CARTESIAN_POINT('',(0.035,0.003,0.));
#933=CARTESIAN_POINT('',(0.0385355339059327,0.003,-0.00353553390593274));
#934=CARTESIAN_POINT('',(0.00282843830063939,0.003,-0.0132042206823826));
#935=CARTESIAN_POINT('',(0.00531232295588997,0.00386932056435923,-0.0135206274918448));
#936=CARTESIAN_POINT('',(-1.3010426069826E-18,0.0172724920352672,-0.0183989829520213));
#937=CARTESIAN_POINT('',(-0.00462321566511233,0.00560796169307769,-0.0141534411107693));
#938=CARTESIAN_POINT('',(0.00563643376336433,0.003,-0.0134438107408346));
#939=CARTESIAN_POINT('',(0.,0.0176316294050728,-0.0168614330213291));
#940=CARTESIAN_POINT('',(-2.16840434497101E-19,0.0106576397010564,-0.0467186917963377));
#941=CARTESIAN_POINT('',(0.0025836189360135,0.00292774427884215,-0.0495321436440143));
#942=CARTESIAN_POINT('',(0.00282843830063939,0.003,-0.0495058447122574));
#943=CARTESIAN_POINT('',(-0.00207569336721363,0.0044474000896754,-0.0489790341625413));
#944=CARTESIAN_POINT('',(-0.00559554808753541,0.003,-0.0139229908577385));
#945=CARTESIAN_POINT('',(-0.016428276640485,-0.022,-0.0480095168479337));
#946=CARTESIAN_POINT('',(0.016428276640485,-0.022,-0.0480095168479337));
#947=CARTESIAN_POINT('',(0.00823714280502423,-0.022,-0.0091218030485324));
#948=CARTESIAN_POINT('',(0.0164742856100485,-0.022,-0.00913985496181237));
#949=CARTESIAN_POINT('',(-5.20417042793042E-18,-0.022,-0.00910375113525243));
#950=CARTESIAN_POINT('',(-0.0109627611157316,-0.022,-0.00910375113525243));
#951=CARTESIAN_POINT('',(-0.0219255222314632,-0.022,-0.00910375113525243));
#952=CARTESIAN_POINT('',(-0.0219255222314632,-0.022,-0.00631913544801854));
#953=CARTESIAN_POINT('',(-0.0219255222314632,-0.022,-0.00353451976078464));
#954=CARTESIAN_POINT('',(0.000191113166449982,-0.022,-0.00353451976078464));
#955=CARTESIAN_POINT('',(0.0223077485643632,-0.022,-0.00353451976078463));
#956=CARTESIAN_POINT('',(0.0206799961332261,-0.022,-0.0109990483470687));
#957=CARTESIAN_POINT('',(0.0190522437020891,-0.022,-0.0184635769333528));
#958=CARTESIAN_POINT('',(0.0177632646560688,-0.022,-0.0138017159475826));
#959=MECHANICAL_DESIGN_GEOMETRIC_PRESENTATION_REPRESENTATION('',(#588),
#960);
#960=(
GEOMETRIC_REPRESENTATION_CONTEXT(3)
GLOBAL_UNCERTAINTY_ASSIGNED_CONTEXT((#961))
GLOBAL_UNIT_ASSIGNED_CONTEXT((#964,#963,#962))
REPRESENTATION_CONTEXT('Part 1','TOP_LEVEL_ASSEMBLY_PART')
);
#961=UNCERTAINTY_MEASURE_WITH_UNIT(LENGTH_MEASURE(1.E-8),#964,
'DISTANCE_ACCURACY_VALUE','Maximum Tolerance applied to model');
#962=(
NAMED_UNIT(*)
SI_UNIT($,.STERADIAN.)
SOLID_ANGLE_UNIT()
);
#963=(
NAMED_UNIT(*)
PLANE_ANGLE_UNIT()
SI_UNIT($,.RADIAN.)
);
#964=(
LENGTH_UNIT()
NAMED_UNIT(*)
SI_UNIT($,.METRE.)
);
#965=PRODUCT_DEFINITION_SHAPE('','',#966);
#966=PRODUCT_DEFINITION('','',#968,#967);
#967=PRODUCT_DEFINITION_CONTEXT('',#974,'design');
#968=PRODUCT_DEFINITION_FORMATION_WITH_SPECIFIED_SOURCE('','',#970,
 .NOT_KNOWN.);
#969=PRODUCT_RELATED_PRODUCT_CATEGORY('','',(#970));
#970=PRODUCT('Part 1','Part 1','Part 1',(#972));
#971=PRODUCT_CATEGORY('','');
#972=PRODUCT_CONTEXT('',#974,'mechanical');
#973=APPLICATION_PROTOCOL_DEFINITION('international standard',
'ap242_managed_model_based_3d_engineering',2020,#974);
#974=APPLICATION_CONTEXT('managed model based 3d engineering');
ENDSEC;
END-ISO-10303-21;
