<?xml version="1.0" encoding="UTF-8"?><svg id="a" xmlns="http://www.w3.org/2000/svg" viewBox="0 0 3175 1530"><path d="M2734.3,1427.56h7.45v29.55h-5.49v-14.62c0-1.43.03-3.3.1-5.56.02-.46.03-.89.05-1.28l-7.73,21.46h-4.83l-7.42-21.37c.11,2.44.17,4.78.17,6.98v14.39h-5.24v-29.55h7.44l7.64,21.88,7.87-21.88ZM2764,1436.88c1.74,1.82,2.62,4.34,2.62,7.49v2.98h-14.37c.13,1.71.65,3.06,1.54,4,.98,1.02,2.33,1.52,4.15,1.52,1.24,0,2.4-.11,3.45-.34,1.07-.24,2.23-.63,3.46-1.18l.7-.31v4.81l-.29.14c-1.15.55-2.34.95-3.52,1.17-1.17.23-2.52.34-4.02.34-3.48,0-6.26-1.04-8.25-3.08-1.97-2.05-2.97-4.9-2.97-8.45s.93-6.55,2.76-8.65c1.85-2.12,4.41-3.2,7.62-3.2,2.98,0,5.37.93,7.12,2.75ZM2753.72,1439.84c-.7.74-1.16,1.81-1.36,3.2h8.72c-.09-1.4-.47-2.48-1.14-3.21-.74-.82-1.75-1.22-3.07-1.22s-2.36.4-3.15,1.23ZM2770.83,1457.12h5.59v-31.39h-5.59v31.39ZM2790.53,1452.8c-.77,0-1.38-.21-1.84-.64-.44-.43-.67-1.14-.67-2.1v-11.06h6.15v-4.48h-6.15v-4.8h-3.69l-1.61,4.72-3.25,1.73v2.83h2.95v11.14c0,4.83,2.43,7.38,7.02,7.38.89,0,1.75-.08,2.57-.24.86-.15,1.54-.34,2.08-.58l.3-.13v-4.46l-.65.2c-1.07.33-2.15.5-3.21.5ZM2797.71,1457.12h5.59v-22.6h-5.59v22.6ZM2800.53,1426.24c-.96,0-1.73.27-2.29.81-.54.54-.81,1.29-.81,2.25s.27,1.65.82,2.21c.55.53,1.32.81,2.28.81s1.69-.27,2.23-.81c.55-.55.83-1.29.83-2.21s-.28-1.71-.83-2.25c-.54-.54-1.29-.81-2.23-.81ZM2820.59,1434.13c-1.53,0-2.94.3-4.2.89-1.01.47-1.85,1.11-2.5,1.9l-.54-2.39h-4.49v22.6h5.59v-11.26c0-2.57.42-4.4,1.24-5.45.81-1.03,2.07-1.53,3.86-1.53,1.31,0,2.23.34,2.8,1.05.6.72.9,1.87.9,3.41v13.78h5.61v-14.58c0-5.58-2.78-8.41-8.27-8.41ZM2845.57,1434.52h7.92v3.44l-3.38.62c.19.35.36.74.5,1.16.24.71.36,1.48.36,2.27,0,2.37-.84,4.27-2.49,5.64-1.62,1.35-3.87,2.03-6.67,2.03-.64,0-1.23-.04-1.77-.13-.73.49-1.09,1.02-1.09,1.62,0,.31.13.51.42.67.27.14.89.31,2.32.31h3.77c2.49,0,4.42.55,5.75,1.64,1.35,1.11,2.04,2.72,2.04,4.78,0,2.62-1.09,4.66-3.25,6.08-2.09,1.38-5.13,2.07-9.03,2.07-3.03,0-5.39-.55-7.02-1.65-1.69-1.14-2.54-2.77-2.54-4.87,0-1.45.46-2.7,1.38-3.7.7-.74,1.6-1.31,2.69-1.7-.27-.23-.51-.49-.72-.8-.45-.68-.68-1.39-.68-2.12,0-.92.27-1.72.8-2.37.35-.44.83-.87,1.43-1.29-.86-.52-1.58-1.23-2.16-2.12-.74-1.17-1.12-2.55-1.12-4.1,0-2.48.8-4.44,2.38-5.83,1.57-1.37,3.81-2.06,6.66-2.06.63,0,1.29.05,1.98.14.66.08,1.16.16,1.52.25ZM2845.52,1441.97c0-1.27-.29-2.25-.87-2.91-.56-.66-1.42-.98-2.61-.98s-2.06.32-2.66.97c-.59.65-.88,1.65-.88,2.96,0,1.22.3,2.15.9,2.78.61.63,1.47.94,2.64.94,2.38,0,3.48-1.19,3.48-3.76ZM2848.04,1459.14c0-.76-.25-1.27-.77-1.58-.4-.23-1.33-.52-3.47-.52h-3.48c-1.19,0-2.15.27-2.84.81-.64.52-.96,1.22-.96,2.13,0,.81.36,1.42,1.09,1.86.81.48,2,.73,3.51.73,2.4,0,4.19-.34,5.33-1.01,1.07-.62,1.59-1.42,1.59-2.42ZM2874.71,1437.25c1.57,2.03,2.37,4.9,2.37,8.53s-.81,6.51-2.41,8.57c-1.61,2.1-3.88,3.16-6.72,3.16-2.47,0-4.49-.77-6.03-2.3.11,1.16.16,1.86.16,2.18v9.35h-5.59v-32.21h4.6l.1.38c.08.33.24,1.01.47,2.06,1.51-1.88,3.65-2.83,6.37-2.83s5.09,1.05,6.69,3.12ZM2870.18,1440.54c-.76-1.12-1.85-1.66-3.34-1.66-1.68,0-2.86.46-3.61,1.41-.76.97-1.14,2.59-1.14,4.81v.68c0,2.51.39,4.34,1.16,5.43.74,1.04,1.94,1.55,3.67,1.55,1.42,0,2.49-.57,3.25-1.73.8-1.21,1.21-2.99,1.21-5.29s-.4-4.06-1.2-5.2ZM2881.42,1457.12h5.59v-31.39h-5.59v31.39ZM2909.87,1437.32c1.9,2.09,2.86,4.94,2.86,8.46s-.96,6.53-2.85,8.6c-1.9,2.08-4.57,3.13-7.93,3.13-2.1,0-3.99-.48-5.61-1.44-1.63-.96-2.9-2.35-3.77-4.14-.86-1.76-1.3-3.84-1.3-6.16,0-3.61.95-6.49,2.83-8.54,1.89-2.07,4.57-3.11,7.97-3.11s5.88,1.07,7.79,3.19ZM2897.01,1445.78c0,4.7,1.64,6.98,5.03,6.98s4.97-2.28,4.97-6.98-1.64-6.9-5.01-6.9c-1.77,0-3.01.55-3.79,1.7-.8,1.18-1.2,2.94-1.2,5.21ZM2925.55,1452.8c-.77,0-1.38-.21-1.84-.64-.44-.43-.67-1.14-.67-2.1v-11.06h6.15v-4.48h-6.15v-4.8h-3.69l-1.61,4.72-3.25,1.73v2.83h2.95v11.14c0,4.83,2.43,7.38,7.02,7.38.89,0,1.75-.08,2.57-.24.86-.15,1.54-.34,2.08-.58l.3-.13v-4.46l-.65.2c-1.07.33-2.15.5-3.21.5ZM2958.68,1449.45l-7.64-21.88h-7.44v29.55h5.24v-14.39c0-2.2-.06-4.53-.17-6.98l7.42,21.37h4.83l7.73-21.46c-.01.39-.03.82-.05,1.28-.06,2.26-.1,4.13-.1,5.56v14.62h5.49v-29.55h-7.45l-7.87,21.88ZM3000.44,1443.58c1.02,1.19,1.54,2.82,1.54,4.83,0,2.71-.97,4.87-2.88,6.42-1.87,1.51-4.48,2.28-7.78,2.28h-10.81v-29.55h8.98c4.07,0,6.94.59,8.79,1.8,1.9,1.24,2.86,3.21,2.86,5.85,0,1.77-.47,3.28-1.39,4.47-.65.83-1.49,1.46-2.53,1.86,1.38.45,2.46,1.14,3.22,2.04ZM2986.19,1452.19h4.46c1.83,0,3.22-.34,4.11-1.01.88-.66,1.3-1.69,1.3-3.16,0-1.32-.43-2.27-1.31-2.89-.93-.65-2.39-.98-4.34-.98h-4.23v8.04ZM2995.3,1435.78c0-1.17-.4-1.98-1.23-2.48-.88-.55-2.34-.83-4.35-.83h-3.54v6.89h3.99c1.84,0,3.19-.28,4-.83.76-.53,1.13-1.43,1.13-2.75ZM3012.59,1427.56h-5.67v29.55h17.76v-5h-12.09v-24.55ZM3051.52,1441.56c1.23-.49,2.25-1.18,3.04-2.08,1.13-1.3,1.71-2.93,1.71-4.86,0-2.33-.88-4.18-2.62-5.51-1.7-1.3-4.07-1.96-7.04-1.96-3.56,0-6.72,1-9.42,2.99l-.39.29,2.8,4,.4-.26c1.32-.86,2.47-1.43,3.43-1.72.95-.3,1.95-.45,2.98-.45,1.42,0,2.5.3,3.2.88.68.57,1.01,1.37,1.01,2.45,0,2.84-2.07,4.23-6.34,4.23h-3.02v4.73h2.98c2.49,0,4.32.34,5.45,1,1.06.62,1.57,1.58,1.57,2.93,0,1.57-.47,2.68-1.44,3.41-1,.75-2.57,1.13-4.66,1.13-1.2,0-2.48-.16-3.79-.47-1.31-.31-2.57-.77-3.74-1.35l-.72-.36v5.2l.29.14c2.23,1.06,5,1.59,8.22,1.59,3.68,0,6.56-.78,8.59-2.33,2.06-1.59,3.1-3.87,3.1-6.76,0-2.02-.63-3.66-1.87-4.88-.91-.91-2.16-1.57-3.72-1.97ZM3077.63,1431.09c1.69,2.57,2.54,6.36,2.54,11.25s-.84,8.85-2.49,11.33c-1.68,2.55-4.28,3.84-7.72,3.84s-5.91-1.33-7.64-3.96c-1.69-2.56-2.54-6.33-2.54-11.21s.83-8.96,2.47-11.41c1.69-2.53,4.29-3.82,7.72-3.82s5.93,1.34,7.66,3.98ZM3074.54,1442.34c0-3.73-.4-6.45-1.18-8.08-.73-1.55-1.84-2.29-3.4-2.29s-2.67.73-3.4,2.24c-.76,1.6-1.14,4.34-1.14,8.14s.38,6.53,1.14,8.12c.72,1.49,1.83,2.21,3.4,2.21s2.67-.74,3.4-2.25h0c.78-1.62,1.18-4.34,1.18-8.08ZM3103,1449.22c0,2.5-.94,4.54-2.78,6.05-1.82,1.49-4.29,2.24-7.35,2.24s-5.73-.71-7.51-2.1c-1.83-1.42-2.75-3.45-2.75-6.04,0-1.69.48-3.22,1.42-4.56.82-1.17,2.1-2.23,3.8-3.15-1.42-.94-2.48-1.95-3.14-2.99-.79-1.24-1.19-2.64-1.19-4.18,0-2.23.89-4.02,2.64-5.34,1.71-1.3,3.95-1.96,6.67-1.96s5.08.67,6.74,1.98c1.69,1.33,2.55,3.14,2.55,5.37,0,2.87-1.58,5.22-4.7,6.99,1.86,1.02,3.24,2.11,4.09,3.23,1.01,1.32,1.53,2.82,1.53,4.44ZM3088,1449.22c0,1.21.4,2.11,1.24,2.77.85.67,2.05,1,3.56,1s2.76-.35,3.59-1.04c.83-.69,1.23-1.6,1.23-2.78,0-.93-.38-1.76-1.15-2.54-.81-.82-2.07-1.6-3.75-2.31l-.37-.17c-1.54.7-2.65,1.46-3.33,2.27-.69.81-1.02,1.73-1.02,2.79ZM3096.65,1434.82c0-.95-.33-1.68-1.02-2.22-.71-.58-1.67-.87-2.87-.87s-2.13.29-2.83.86c-.68.55-1.01,1.27-1.01,2.23,0,.59.12,1.12.37,1.58.25.47.63.92,1.12,1.31.48.38,1.31.85,2.46,1.4,1.38-.63,2.35-1.28,2.91-1.94.58-.68.86-1.45.86-2.35Z" style="fill:#bcbec0;"/><rect width="3175" height="1530" style="fill:none; stroke:#fff; stroke-linecap:round; stroke-linejoin:round; stroke-width:1.42px;"/></svg>