<?xml version="1.0" encoding="UTF-8"?><svg id="a" xmlns="http://www.w3.org/2000/svg" width="214" height="80" viewBox="0 0 214 80"><g id="b"><g id="c"><rect width="80" height="80" rx="9.57" ry="9.57" style="fill:#949494;"/></g></g><g id="d"><path id="e" d="M17.3,62.94c4.46,4.45,10.59,7.21,17.36,7.24,13.7.06,24.93-11.22,24.87-25-.03-6.81-2.77-12.97-7.2-17.45L17.31,62.94h0Z" style="fill:#292826;"/></g><g id="f"><path id="g" d="M52.32,27.73L17.3,62.94s.05.05.08.07c12.27-6.26,29.08-17.26,40.6-26.43-1.24-3.36-3.19-6.38-5.65-8.87" style="fill:#009789;"/></g><g id="h"><path id="i" d="M45.48,9.82c-13.67,0-24.77,11.15-24.77,24.91,0,6.85,2.75,13.05,7.2,17.56L62.94,17.07c-4.48-4.47-10.65-7.24-17.46-7.24" style="fill:#292826;"/></g><g id="j"><path id="k" d="M45.48,9.82c-4.74,0-9.17,1.34-12.93,3.65-2.02-.53-4.52-.95-7.39-.93-5,.03-9.08,1.39-11.85,2.65-.69.32-.58,1.33.16,1.49,1.82.39,4.22,1.19,6.59,2.95,1.5,1.1,2.64,2.33,3.5,3.48-1.82,3.47-2.85,7.42-2.85,11.61,0,2.5.37,4.92,1.05,7.2,1.04-2.32,2.14-3.87,2.5-4.36,2.27-3.13,4.68-4.76,8.23-7.15,2.62-1.77,6.26-3.84,16.7-8.14,0,0,3.27-.92,7.65-3.53,1.75-1.04,3.08-2.02,3.5-3.56.03-.11.06-.22.08-.32-4.15-3.17-9.33-5.04-14.95-5.04" style="fill:#262523;"/></g><g id="l"><path id="m" d="M49.61,18.19c.9,1.61-.91,4.37-4.06,6.17s-6.44,1.96-7.35.36c-.9-1.61.91-4.37,4.06-6.17,3.15-1.8,6.44-1.96,7.35-.36" style="fill:#949494;"/></g><path d="M142.44,48.1c-1.01,0-1.84.82-1.84,1.84v18.4c0,1.01.82,1.84,1.84,1.84s1.84-.82,1.84-1.84v-18.4c0-1.01-.82-1.84-1.84-1.84ZM190.71,48.1h-4.4c-6.09,0-11.04,4.96-11.04,11.04s4.96,11.04,11.04,11.04h4.4c1.01,0,1.84-.82,1.84-1.84s-.82-1.84-1.84-1.84h-4.4c-4.06,0-7.36-3.3-7.36-7.36s3.3-7.36,7.36-7.36h4.4c1.01,0,1.84-.82,1.84-1.84s-.82-1.84-1.84-1.84v-.02.02ZM190.71,57.31h-5.35c-1.01,0-1.84.82-1.84,1.84s.82,1.84,1.84,1.84h5.35c1.01,0,1.84-.82,1.84-1.84s-.82-1.84-1.84-1.84ZM105.69,70.18h-8.91c-1.01,0-1.83-.82-1.83-1.83s.81-1.83,1.83-1.83h8.91c1.53,0,2.78-1.24,2.78-2.78s-1.24-2.77-2.78-2.77h-4.31c-3.55,0-6.43-2.89-6.43-6.43s2.89-6.43,6.43-6.43h7.29c1.01,0,1.83.82,1.83,1.83s-.81,1.83-1.83,1.83h-7.29c-1.53,0-2.78,1.24-2.78,2.78s1.24,2.77,2.78,2.77h4.31c3.55,0,6.43,2.89,6.43,6.43s-2.89,6.43-6.43,6.43h0ZM165.89,65.28c-1.49.98-3.35,1.44-5.32,1.11-2.99-.51-5.4-2.88-5.96-5.85-.86-4.67,2.71-8.76,7.23-8.76,1.49,0,2.88.45,4.04,1.21.73.49,1.71.41,2.32-.22h0c.81-.81.71-2.17-.25-2.81-2.12-1.42-4.76-2.13-7.56-1.77-4.98.64-8.97,4.69-9.52,9.66-.75,6.65,4.46,12.32,10.96,12.32,2.23,0,4.31-.67,6.05-1.81.98-.65,1.15-2.03.32-2.86h0c-.63-.63-1.59-.71-2.32-.23h.01ZM132.24,66.5h-5.31c-2.53,0-4.6-2.07-4.6-4.6v-11.96c0-1.01-.82-1.84-1.84-1.84s-1.84.82-1.84,1.84v11.96c0,4.57,3.71,8.28,8.28,8.28h5.31c1.01,0,1.84-.82,1.84-1.84s-.82-1.84-1.84-1.84h0ZM211.96,51.79h-1.84c-4.03,0-7.32,3.27-7.36,7.3v9.27c0,1.01-.82,1.84-1.84,1.84s-1.84-.82-1.84-1.84v-9.27c.04-6.06,4.98-10.97,11.03-10.97h1.84c1.01,0,1.84.82,1.84,1.84s-.82,1.84-1.84,1.84h0Z" style="fill:#949494;"/><path d="M109.73,14.37c5.64,0,10.24,4.59,10.24,10.24s-4.59,10.24-10.24,10.24-10.24-4.59-10.24-10.24,4.59-10.24,10.24-10.24M109.73,9.82c-8.16,0-14.79,6.62-14.79,14.79s6.62,14.79,14.79,14.79,14.79-6.62,14.79-14.79-6.62-14.79-14.79-14.79h0ZM211.52,9.82c-1.26,0-2.27,1.02-2.27,2.27v1.86c-2.66-2.55-6.26-4.13-10.24-4.13-8.16,0-14.79,6.62-14.79,14.79s6.62,14.79,14.79,14.79c3.97,0,7.58-1.58,10.24-4.13v1.86c0,1.26,1.02,2.27,2.27,2.27s2.27-1.02,2.27-2.27V12.1c0-1.26-1.02-2.27-2.27-2.27h0ZM199.01,34.85c-5.64,0-10.24-4.59-10.24-10.24s4.59-10.24,10.24-10.24,10.24,4.59,10.24,10.24-4.59,10.24-10.24,10.24ZM148.11,9.82h-2.27c-8.16,0-14.79,6.62-14.79,14.79v12.51c0,1.26,1.02,2.27,2.27,2.27s2.27-1.02,2.27-2.27v-12.51c0-5.64,4.59-10.24,10.24-10.24h2.27c1.26,0,2.27-1.02,2.27-2.27s-1.02-2.27-2.27-2.27h0ZM175.38,33.05c-1.99,1.36-4.47,2.05-7.12,1.71-4.61-.59-8.31-4.35-8.84-8.97-.7-6.18,4.13-11.43,10.17-11.43,2.14,0,4.11.66,5.75,1.77.92.63,2.15.56,2.95-.24h0c1.02-1.02.83-2.7-.36-3.52-2.75-1.89-6.18-2.86-9.84-2.49-6.85.68-12.42,6.17-13.19,13.01-1,8.93,5.97,16.49,14.7,16.49,3.11,0,5.99-.95,8.36-2.59,1.18-.81,1.34-2.49.33-3.51h0c-.78-.78-2-.88-2.91-.26v.02h0Z" style="fill:#009789;"/></svg>