<?xml version="1.0" encoding="UTF-8"?><svg id="a" xmlns="http://www.w3.org/2000/svg" width="200" height="200" viewBox="0 0 200 200"><path d="M143,77.38v17.67h-17.67M140.32,93.38c-5.9-13.06-18.02-23.01-33.22-25.5-20.15-3.3-39.35,7.57-47.43,25.29" style="fill:none; stroke:#949494; stroke-linecap:round; stroke-linejoin:round; stroke-width:5px;"/><path d="M123,47.23c.88,0,1.71-.17,2.48-.48.15.56.24,1.15.24,1.76,0,3.71-3.01,6.72-6.72,6.72s-6.72-3.01-6.72-6.72c0-2.83,1.76-5.25,4.24-6.24.77,2.86,3.38,4.97,6.48,4.97Z" style="fill:#949494;"/><path d="M77,47.23c-.88,0-1.71-.17-2.48-.48-.15.56-.24,1.15-.24,1.76,0,3.71,3.01,6.72,6.72,6.72,3.71,0,6.72-3.01,6.72-6.72,0-2.83-1.76-5.25-4.24-6.24-.77,2.86-3.38,4.97-6.48,4.97Z" style="fill:#949494;"/><path d="M46,152h108M71,123h0c0-6.63-5.37-12-12-12h0c-6.63,0-12,5.37-12,12h0c0,6.63,5.37,12,12,12h0c6.63,0,12-5.37,12-12ZM153,123h0c0-6.63-5.37-12-12-12h0c-6.63,0-12,5.37-12,12h0c0,6.63,5.37,12,12,12h0c6.63,0,12-5.37,12-12ZM89.5,112.5l21,21M110.5,112.5l-21,21" style="fill:none; stroke:#949494; stroke-linecap:round; stroke-linejoin:round; stroke-width:5px;"/></svg>