<?xml version="1.0" encoding="UTF-8"?><svg id="a" xmlns="http://www.w3.org/2000/svg" width="16" height="16" viewBox="0 0 16 16"><path d="M14.5,2.96v2.54h-2.54M3.5,10h0c0-.83-.67-1.5-1.5-1.5h0c-.83,0-1.5.67-1.5,1.5h0c0,.83.67,1.5,1.5,1.5h0c.83,0,1.5-.67,1.5-1.5ZM15.5,10h0c0-.83-.67-1.5-1.5-1.5h0c-.83,0-1.5.67-1.5,1.5h0c0,.83.67,1.5,1.5,1.5h0c.83,0,1.5-.67,1.5-1.5ZM6.5,8.5l3,3M9.5,8.5l-3,3M.5,14.5h15M14.14,5.5c-.9-2-2.76-3.53-5.09-3.91-3.09-.51-6.03,1.16-7.27,3.88" style="fill:none; opacity:.5; stroke:#949494; stroke-linecap:round; stroke-linejoin:round;"/></svg>