<?xml version="1.0" encoding="UTF-8" standalone="no"?>
<svg
   width="40"
   height="40"
   viewBox="0 0 40 40"
   version="1.1"
   id="svg17"
   sodipodi:docname="texture_displacement_snap.svg"
   inkscape:version="1.4.2 (f4327f4, 2025-05-13)"
   xml:space="preserve"
   xmlns:inkscape="http://www.inkscape.org/namespaces/inkscape"
   xmlns:sodipodi="http://sodipodi.sourceforge.net/DTD/sodipodi-0.dtd"
   xmlns:xlink="http://www.w3.org/1999/xlink"
   xmlns="http://www.w3.org/2000/svg"
   xmlns:svg="http://www.w3.org/2000/svg"><defs
     id="defs17"><inkscape:path-effect
       effect="fillet_chamfer"
       id="path-effect29"
       is_visible="true"
       lpeversion="1"
       nodesatellites_param="F,0,1,1,0,1.015625,0,1 @ F,0,0,1,0,0,0,1 @ F,0,1,1,0,1.015625,0,1 @ F,0,0,1,0,1.015625,0,1 | F,0,0,1,0,0,0,1 @ F,0,0,1,0,0,0,1 @ F,0,0,1,0,0,0,1 @ F,0,0,1,0,0,0,1"
       radius="0"
       unit="px"
       method="auto"
       mode="F"
       chamfer_steps="1"
       flexible="false"
       use_knot_distance="true"
       apply_no_radius="true"
       apply_with_radius="true"
       only_selected="false"
       hide_knots="false" /><inkscape:path-effect
       effect="fillet_chamfer"
       id="path-effect27"
       is_visible="true"
       lpeversion="1"
       nodesatellites_param="F,0,1,1,0,1.059034,0,1 @ F,0,0,1,0,1.059034,0,1 @ F,0,1,1,0,1.059034,0,1 @ F,0,0,1,0,0,0,1 | F,0,0,1,0,0,0,1 @ F,0,0,1,0,0,0,1 @ F,0,0,1,0,0,0,1 @ F,0,0,1,0,0,0,1"
       radius="0"
       unit="px"
       method="auto"
       mode="F"
       chamfer_steps="1"
       flexible="false"
       use_knot_distance="true"
       apply_no_radius="true"
       apply_with_radius="true"
       only_selected="false"
       hide_knots="false" /><inkscape:path-effect
       effect="fillet_chamfer"
       id="path-effect25"
       is_visible="true"
       lpeversion="1"
       nodesatellites_param="F,0,1,1,0,1.059034,0,1 @ F,0,0,1,0,1.059034,0,1 @ F,0,1,1,0,1.059034,0,1 @ F,0,0,1,0,0,0,1 | F,0,0,1,0,0,0,1 @ F,0,0,1,0,0,0,1 @ F,0,0,1,0,0,0,1 @ F,0,0,1,0,0,0,1"
       radius="0"
       unit="px"
       method="auto"
       mode="F"
       chamfer_steps="1"
       flexible="false"
       use_knot_distance="true"
       apply_no_radius="true"
       apply_with_radius="true"
       only_selected="false"
       hide_knots="false" /><inkscape:path-effect
       effect="fillet_chamfer"
       id="path-effect24"
       is_visible="true"
       lpeversion="1"
       nodesatellites_param="F,0,1,1,0,1.015625,0,1 @ F,0,0,1,0,0,0,1 @ F,0,1,1,0,1.015625,0,1 @ F,0,0,1,0,1.015625,0,1 | F,0,0,1,0,0,0,1 @ F,0,0,1,0,0,0,1 @ F,0,0,1,0,0,0,1 @ F,0,0,1,0,0,0,1"
       radius="0"
       unit="px"
       method="auto"
       mode="F"
       chamfer_steps="1"
       flexible="false"
       use_knot_distance="true"
       apply_no_radius="true"
       apply_with_radius="true"
       only_selected="false"
       hide_knots="false" /><inkscape:path-effect
       effect="fillet_chamfer"
       id="path-effect23"
       is_visible="true"
       lpeversion="1"
       nodesatellites_param="F,0,0,1,0,0,0,1 @ F,0,0,1,0,0,0,1 @ F,0,0,1,0,0,0,1 @ F,0,0,1,0,1,0,1 | F,0,0,1,0,0,0,1 @ F,0,0,1,0,0,0,1 @ F,0,0,1,0,0,0,1 @ F,0,0,1,0,0,0,1"
       radius="0"
       unit="px"
       method="auto"
       mode="F"
       chamfer_steps="1"
       flexible="false"
       use_knot_distance="true"
       apply_no_radius="true"
       apply_with_radius="true"
       only_selected="false"
       hide_knots="false" /><inkscape:path-effect
       effect="fillet_chamfer"
       id="path-effect21"
       is_visible="true"
       lpeversion="1"
       nodesatellites_param="F,0,0,1,0,1,0,1 @ F,0,0,1,0,0,0,1 @ F,0,0,1,0,0,0,1 @ F,0,0,1,0,0.459375,0,1 @ F,0,0,1,0,0.499968,0,1 @ F,0,0,1,0,0,0,1 @ F,0,0,1,0,0.5002363,0,1 @ F,0,0,1,0,0,0,1 @ F,0,0,1,0,0,0,1 @ F,0,0,1,0,0.4828125,0,1 @ F,0,0,1,0,0.50584,0,1 @ F,0,0,1,0,0,0,1 @ F,0,0,1,0,0,0,1 @ F,0,0,1,0,0,0,1"
       radius="0"
       unit="px"
       method="auto"
       mode="F"
       chamfer_steps="1"
       flexible="false"
       use_knot_distance="true"
       apply_no_radius="true"
       apply_with_radius="true"
       only_selected="false"
       hide_knots="false" /><inkscape:path-effect
       effect="fillet_chamfer"
       id="path-effect19"
       is_visible="true"
       lpeversion="1"
       nodesatellites_param="F,0,0,1,0,1,0,1 @ F,0,0,1,0,0,0,1 @ F,0,0,1,0,0,0,1 @ F,0,0,1,0,0.459375,0,1 @ F,0,0,1,0,0.499968,0,1 @ F,0,0,1,0,0,0,1 @ F,0,0,1,0,0.5002363,0,1 @ F,0,0,1,0,0,0,1 @ F,0,0,1,0,0,0,1 @ F,0,0,1,0,0.4828125,0,1 @ F,0,0,1,0,0.50584,0,1 @ F,0,0,1,0,0,0,1 @ F,0,0,1,0,0,0,1 @ F,0,0,1,0,0,0,1"
       radius="0"
       unit="px"
       method="auto"
       mode="F"
       chamfer_steps="1"
       flexible="false"
       use_knot_distance="true"
       apply_no_radius="true"
       apply_with_radius="true"
       only_selected="false"
       hide_knots="false" /><inkscape:path-effect
       effect="fillet_chamfer"
       id="path-effect17"
       is_visible="true"
       lpeversion="1"
       nodesatellites_param="F,0,0,1,0,1,0,1 @ F,0,0,1,0,0,0,1 @ F,0,0,1,0,0,0,1 @ F,0,0,1,0,0.459375,0,1 @ F,0,0,1,0,0.499968,0,1 @ F,0,0,1,0,0,0,1 @ F,0,0,1,0,0.5002363,0,1 @ F,0,0,1,0,0,0,1 @ F,0,0,1,0,0,0,1 @ F,0,0,1,0,0.4828125,0,1 @ F,0,0,1,0,0.50584,0,1 @ F,0,0,1,0,0,0,1 @ F,0,0,1,0,0,0,1 @ F,0,0,1,0,0,0,1"
       radius="0"
       unit="px"
       method="auto"
       mode="F"
       chamfer_steps="1"
       flexible="false"
       use_knot_distance="true"
       apply_no_radius="true"
       apply_with_radius="true"
       only_selected="false"
       hide_knots="false" /><inkscape:path-effect
       effect="fillet_chamfer"
       id="path-effect15"
       is_visible="true"
       lpeversion="1"
       nodesatellites_param="F,0,0,1,0,1,0,1 @ F,0,0,1,0,0,0,1 @ F,0,0,1,0,0,0,1 @ F,0,0,1,0,0,0,1 @ F,0,0,1,0,0,0,1 @ F,0,0,1,0,0,0,1 @ F,0,0,1,0,0.5002363,0,1 @ F,0,0,1,0,0,0,1 @ F,0,0,1,0,0,0,1 @ F,0,0,1,0,0,0,1 @ F,0,0,1,0,0,0,1 @ F,0,0,1,0,0,0,1 @ F,0,0,1,0,0,0,1 @ F,0,0,1,0,0,0,1"
       radius="0"
       unit="px"
       method="auto"
       mode="F"
       chamfer_steps="1"
       flexible="false"
       use_knot_distance="true"
       apply_no_radius="true"
       apply_with_radius="true"
       only_selected="false"
       hide_knots="false" /><linearGradient
       id="swatch7"
       inkscape:swatch="solid"><stop
         style="stop-color:#77eaa3;stop-opacity:1;"
         offset="0"
         id="stop7" /></linearGradient><inkscape:path-effect
       effect="fillet_chamfer"
       id="path-effect3"
       is_visible="true"
       lpeversion="1"
       nodesatellites_param="F,0,0,1,0,0.49883385,0,1 @ F,0,0,1,0,0.48672135,0,1 @ F,0,0,1,0,0.5261776,0,1 @ F,0,0,1,0,0.50001454,0,1"
       radius="0"
       unit="px"
       method="auto"
       mode="F"
       chamfer_steps="1"
       flexible="false"
       use_knot_distance="true"
       apply_no_radius="true"
       apply_with_radius="true"
       only_selected="false"
       hide_knots="false" /><inkscape:path-effect
       effect="fillet_chamfer"
       id="path-effect2"
       is_visible="true"
       lpeversion="1"
       nodesatellites_param="F,0,0,1,0,0,0,1 @ F,0,0,1,0,0,0,1 @ F,0,0,1,0,0,0,1 @ F,0,0,1,0,0,0,1"
       radius="0"
       unit="px"
       method="auto"
       mode="F"
       chamfer_steps="1"
       flexible="false"
       use_knot_distance="true"
       apply_no_radius="true"
       apply_with_radius="true"
       only_selected="false"
       hide_knots="false" /></defs><sodipodi:namedview
     id="namedview17"
     pagecolor="#ffffff"
     bordercolor="#000000"
     borderopacity="0.25"
     inkscape:showpageshadow="2"
     inkscape:pageopacity="0.0"
     inkscape:pagecheckerboard="0"
     inkscape:deskcolor="#d1d1d1"
     inkscape:zoom="45.254834"
     inkscape:cx="14.363106"
     inkscape:cy="12.827359"
     inkscape:window-width="3840"
     inkscape:window-height="2126"
     inkscape:window-x="-11"
     inkscape:window-y="-11"
     inkscape:window-maximized="1"
     inkscape:current-layer="svg17" /><path
     d="m 33.973006,35.500013 h -0.999987 a 0.500013,0.500013 0 0 1 0,-1.000026 h 0.999987 A 0.49999998,0.49999998 0 0 0 34.473,33.999994 v -5.000013 a 0.5000126,0.5000126 0 0 1 1.000025,0 v 5.000013 a 1.5,1.5 0 0 1 -1.500019,1.500019 z"
     style="fill:#b6b6b6;stroke-width:0.999999"
     id="path3-6" /><path
     d="m 35.473026,33.999994 v -0.999987 a 0.500013,0.500013 0 0 0 -1.000026,0 v 0.999987 a 0.49999998,0.49999998 0 0 1 -0.499993,0.499994 h -5.000013 a 0.5000126,0.5000126 0 0 0 0,1.000025 h 5.000013 a 1.5,1.5 0 0 0 1.500019,-1.500019 z"
     style="fill:#b6b6b6;stroke-width:0.999999"
     id="path3-6-7" /><path
     d="m 5.9730079,35.500013 h 0.999987 a 0.500013,0.500013 0 0 0 0,-1.000026 h -0.999987 a 0.49999998,0.49999998 0 0 1 -0.499994,-0.499993 v -5.000013 a 0.5000126,0.5000126 0 0 0 -1.000025,0 v 5.000013 a 1.5,1.5 0 0 0 1.500019,1.500019 z"
     style="fill:#b6b6b6;stroke-width:0.999999"
     id="path3-6-3" /><path
     d="m 4.4729879,33.999994 v -0.999987 a 0.500013,0.500013 0 0 1 1.000026,0 v 0.999987 a 0.49999998,0.49999998 0 0 0 0.499993,0.499994 H 10.97302 a 0.5000126,0.5000126 0 0 1 0,1.000025 H 5.9730069 a 1.5,1.5 0 0 1 -1.500019,-1.500019 z"
     style="fill:#b6b6b6;stroke-width:0.999999"
     id="path3-6-7-5" /><path
     d="m 5.9730079,4.499987 h 0.999987 a 0.50001302,0.50001302 0 0 1 0,1.000026 h -0.999987 a 0.49999998,0.49999998 0 0 0 -0.499994,0.499993 v 5.000013 a 0.5000126,0.5000126 0 0 1 -1.0000251,0 V 6.000006 A 1.5,1.5 0 0 1 5.9730079,4.499987 Z"
     style="fill:#b6b6b6;stroke-width:0.999999"
     id="path3-6-3-9" /><path
     d="m 4.4729878,6.000006 v 0.999987 a 0.50001302,0.50001302 0 0 0 1.0000261,0 V 6.000006 A 0.49999998,0.49999998 0 0 1 5.9730068,5.500012 H 10.97302 a 0.5000126,0.5000126 0 0 0 0,-1.000025 H 5.9730068 a 1.5,1.5 0 0 0 -1.500019,1.500019 z"
     style="fill:#b6b6b6;stroke-width:0.999999"
     id="path3-6-7-5-8" /><path
     d="m 33.973006,4.499986 h -0.999987 a 0.50001302,0.50001302 0 0 0 0,1.000026 h 0.999987 A 0.49999998,0.49999998 0 0 1 34.473,6.000005 v 5.000013 a 0.5000126,0.5000126 0 0 0 1.000025,0 V 6.000005 A 1.5,1.5 0 0 0 33.973006,4.499986 Z"
     style="fill:#b6b6b6;stroke-width:0.999999"
     id="path3-6-3-9-8" /><path
     d="m 35.473026,6.000005 v 0.999987 a 0.50001305,0.50001305 0 0 1 -1.000026,0 V 6.000005 A 0.49999998,0.49999998 0 0 0 33.973007,5.500011 h -5.000013 a 0.5000126,0.5000126 0 0 1 0,-1.000025 h 5.000013 a 1.5,1.5 0 0 1 1.500019,1.500019 z"
     style="fill:#b6b6b6;stroke-width:0.999999"
     id="path3-6-7-5-8-2" /><g
     id="g5"><use
       x="0"
       y="0"
       xlink:href="#path3-6-3-9"
       id="use4" /><use
       x="0"
       y="0"
       xlink:href="#path3-6-7-5-8"
       id="use5" /></g><path
     d="M 20.422985,9.2501548 V 29.968905 H 28.78236 A 1.015625,1.015625 135 0 0 29.797985,28.95328 V 9.2501548 A 1.015625,1.015625 45 0 0 28.78236,8.2345298 h -7.34375 a 1.015625,1.015625 135 0 0 -1.015625,1.015625 z m 1.015625,-0.015625 h 7.34375 V 28.968905 h -7.34375 z"
     style="fill:#009688;stroke-width:0.1;paint-order:stroke fill markers"
     id="path23"
     inkscape:path-effect="#path-effect24"
     inkscape:original-d="M 20.422985,8.2345298 V 29.968905 h 9.375 V 8.2345298 Z m 1.015625,1 h 7.34375 V 28.968905 h -7.34375 z" /><path
     d="m 11.047985,11.324808 v 19.616307 a 1.059034,1.059034 45 0 0 1.059034,1.059034 h 7.256932 a 1.059034,1.059034 135 0 0 1.059034,-1.059034 V 10.265774 h -8.315966 a 1.059034,1.059034 135 0 0 -1.059034,1.059034 z m 1.015625,-0.05903 h 7.34375 v 19.734375 h -7.34375 z"
     style="fill:#009688;stroke-width:0.1;paint-order:stroke fill markers"
     id="path23-8"
     inkscape:path-effect="#path-effect25"
     inkscape:original-d="m 11.047985,10.265774 v 21.734375 h 9.375 V 10.265774 Z m 1.015625,1 h 7.34375 v 19.734375 h -7.34375 z" /><path
     id="use25"
     style="fill:#009688;stroke-width:0.1;paint-order:stroke fill markers"
     d="M 21.439453 8.234375 A 1.015625 1.015625 0 0 0 20.423828 9.25 L 20.423828 10.265625 L 12.107422 10.265625 A 1.059034 1.059034 0 0 0 11.048828 11.324219 L 11.048828 30.941406 A 1.059034 1.059034 0 0 0 12.107422 32 L 19.363281 32 A 1.059034 1.059034 0 0 0 20.423828 30.941406 L 20.423828 29.96875 L 28.783203 29.96875 A 1.015625 1.015625 0 0 0 29.798828 28.953125 L 29.798828 9.25 A 1.015625 1.015625 0 0 0 28.783203 8.234375 L 21.439453 8.234375 z M 21.439453 9.234375 L 28.783203 9.234375 L 28.783203 28.96875 L 21.439453 28.96875 L 21.439453 9.234375 z M 12.064453 11.265625 L 19.408203 11.265625 L 19.408203 31 L 12.064453 31 L 12.064453 11.265625 z " /></svg>
