<?xml version="1.0" encoding="UTF-8" standalone="no"?>
<svg
   width="40"
   height="40"
   viewBox="0 0 40 40"
   version="1.1"
   id="svg17"
   sodipodi:docname="toolbar_texture_displacement.svg"
   inkscape:version="1.4.2 (f4327f4, 2025-05-13)"
   xmlns:inkscape="http://www.inkscape.org/namespaces/inkscape"
   xmlns:sodipodi="http://sodipodi.sourceforge.net/DTD/sodipodi-0.dtd"
   xmlns="http://www.w3.org/2000/svg"
   xmlns:svg="http://www.w3.org/2000/svg">
  <defs
     id="defs17" />
  <sodipodi:namedview
     id="namedview17"
     pagecolor="#ffffff"
     bordercolor="#000000"
     borderopacity="0.25"
     inkscape:showpageshadow="2"
     inkscape:pageopacity="0.0"
     inkscape:pagecheckerboard="0"
     inkscape:deskcolor="#d1d1d1"
     inkscape:zoom="32"
     inkscape:cx="27.578125"
     inkscape:cy="27.671875"
     inkscape:window-width="3840"
     inkscape:window-height="2126"
     inkscape:window-x="-11"
     inkscape:window-y="-11"
     inkscape:window-maximized="1"
     inkscape:current-layer="svg17" />
  <g
     id="g17"
     transform="translate(0.69176086,0.249987)">
    <path
       d="m 27.659236,35.176022 h -4.399987 c -0.508996,0 -0.844996,0 -0.954999,-0.394015 a 0.59299998,0.59299998 0 0 1 0.36,-0.669997 2.3,2.3 0 0 0 1.2,-2.188989 3.253,3.253 0 1 1 3.800012,3.205984 z M 24.12125,34.175997 h 2.988 a 2.253,2.253 0 1 0 -2.252999,-2.252976 3.445,3.445 0 0 1 -0.735001,2.252976 z"
       style="fill:#009688;stroke-width:0.999999"
       id="path1-6" />
    <path
       d="m 30.281245,30.538996 -0.846009,-0.534993 4.364031,-6.899981 A 0.222,0.222 0 0 0 33.439456,22.84588 l -5.4,6.644032 -0.776013,-0.63103 5.400001,-6.643994 a 1.222,1.222 0 0 1 1.981984,1.422992 z"
       style="fill:#009688;stroke-width:0.999999"
       id="path2-0" />
    <path
       d="m 33.281245,35.250026 h -0.999987 a 0.500013,0.500013 0 0 1 0,-1.000026 h 0.999987 a 0.49999998,0.49999998 0 0 0 0.499994,-0.499993 v -5.000013 a 0.5000126,0.5000126 0 0 1 1.000025,0 v 5.000013 a 1.5,1.5 0 0 1 -1.500019,1.500019 z"
       style="fill:#b6b6b6;stroke-width:0.999999"
       id="path3-6" />
    <path
       d="M 19.281251,35.250026 H 5.28125 a 1.5,1.5 0 0 1 -1.5,-1.500019 V 5.750019 A 1.5,1.5 0 0 1 5.28125,4.25 h 27.999995 a 1.5,1.5 0 0 1 1.500019,1.500019 v 12.999987 a 0.5000126,0.5000126 0 0 1 -1.000025,0 V 5.750019 A 0.49999998,0.49999998 0 0 0 33.281245,5.250025 H 5.28125 A 0.49999998,0.49999998 0 0 0 4.781253,5.750019 V 33.750007 A 0.49999998,0.49999998 0 0 0 5.28125,34.25 h 14.000001 a 0.500013,0.500013 0 0 1 0,1.000026 z"
       style="fill:#b6b6b6;stroke-width:0.999999"
       id="path4-6" />
    <rect
       style="fill:#009688;fill-opacity:1;stroke-width:1.00157;stroke-dasharray:none"
       id="rect6-1"
       width="39.379108"
       height="0.99609375"
       x="-19.909107"
       y="27.094706"
       ry="0.49804688"
       transform="rotate(-45)" />
    <rect
       style="fill:#009688;fill-opacity:1;stroke-width:1.00157;stroke-dasharray:none"
       id="rect6-2"
       width="27.566595"
       height="0.99609375"
       x="7.9031763"
       y="-0.27849278"
       ry="0.49487707"
       transform="rotate(45)" />
    <g
       id="g7"
       transform="matrix(3.7795276,0,0,3.7795276,-350.69182,-427.25001)">
      <rect
         style="fill:#009688;fill-opacity:1;stroke-width:0.264999;stroke-dasharray:none"
         id="rect6-2-2"
         width="2.8453603"
         height="0.2635498"
         x="150.08304"
         y="13.289762"
         ry="0.1317749"
         transform="rotate(45)"
         rx="0.1317749" />
      <rect
         style="fill:#009688;fill-opacity:1;stroke-width:0.264999;stroke-dasharray:none"
         id="rect6-2-2-2"
         width="1.7498204"
         height="0.2635498"
         x="12.763216"
         y="-149.44461"
         ry="0.1317749"
         transform="rotate(135)"
         rx="0.1317749" />
      <rect
         style="fill:#009688;fill-opacity:1;stroke-width:0.264999;stroke-dasharray:none"
         id="rect6-2-2-2-2"
         width="0.82876241"
         height="0.27337581"
         x="13.654455"
         y="-148.49495"
         ry="0.1317749"
         transform="rotate(135)"
         rx="0.1317749" />
      <rect
         style="fill:#009688;fill-opacity:1;stroke-width:0.264999;stroke-dasharray:none"
         id="rect6-2-2-6"
         width="2.5927844"
         height="0.25224927"
         x="150.38367"
         y="12.286384"
         ry="0.12612464"
         transform="rotate(45)"
         rx="0.12612464" />
      <rect
         style="fill:#009688;fill-opacity:1;stroke-width:0.264999;stroke-dasharray:none"
         id="rect6-2-2-6-1"
         width="1.9647908"
         height="0.2635498"
         x="151.01166"
         y="11.21043"
         ry="0.1317749"
         transform="rotate(45)"
         rx="0.1317749" />
    </g>
    <rect
       style="fill:#009688;fill-opacity:1;stroke-width:1.00157;stroke-dasharray:none"
       id="rect6-2-2-8"
       width="10.754118"
       height="0.99609375"
       x="-10.211728"
       y="-31.661213"
       ry="0.49804688"
       transform="rotate(135)"
       rx="0.49804688" />
    <rect
       style="fill:#009688;fill-opacity:1;stroke-width:1.00157;stroke-dasharray:none"
       id="rect6-2-2-2-9"
       width="6.6134944"
       height="0.99609375"
       x="-33.794979"
       y="12.679931"
       ry="0.49804688"
       transform="rotate(-135)"
       rx="0.49804688" />
    <rect
       style="fill:#009688;fill-opacity:1;stroke-width:1.00157;stroke-dasharray:none"
       id="rect6-2-2-2-2-3"
       width="3.1323304"
       height="1.0332314"
       x="-30.282875"
       y="16.213961"
       ry="0.49804688"
       transform="rotate(-135)"
       rx="0.49804688" />
    <g
       id="g7-1"
       transform="matrix(0,-3.7795276,3.7795276,0,-427.55829,389.70233)">
      <rect
         style="fill:#009688;fill-opacity:1;stroke-width:0.264999;stroke-dasharray:none"
         id="rect6-2-2-9"
         width="2.8453603"
         height="0.2635498"
         x="150.08304"
         y="13.289762"
         ry="0.1317749"
         transform="rotate(45)"
         rx="0.1317749" />
      <rect
         style="fill:#009688;fill-opacity:1;stroke-width:0.264999;stroke-dasharray:none"
         id="rect6-2-2-2-8"
         width="1.7498204"
         height="0.2635498"
         x="12.763216"
         y="-149.44461"
         ry="0.1317749"
         transform="rotate(135)"
         rx="0.1317749" />
      <rect
         style="fill:#009688;fill-opacity:1;stroke-width:0.264999;stroke-dasharray:none"
         id="rect6-2-2-2-2-6"
         width="0.82876241"
         height="0.27337581"
         x="13.654455"
         y="-148.49495"
         ry="0.1317749"
         transform="rotate(135)"
         rx="0.1317749" />
      <rect
         style="fill:#009688;fill-opacity:1;stroke-width:0.264999;stroke-dasharray:none"
         id="rect6-2-2-6-5"
         width="2.5927844"
         height="0.25224927"
         x="150.38367"
         y="12.286384"
         ry="0.12612464"
         transform="rotate(45)"
         rx="0.12612464" />
      <rect
         style="fill:#009688;fill-opacity:1;stroke-width:0.264999;stroke-dasharray:none"
         id="rect6-2-2-6-1-0"
         width="1.9647908"
         height="0.2635498"
         x="151.01166"
         y="11.21043"
         ry="0.1317749"
         transform="rotate(45)"
         rx="0.1317749" />
    </g>
    <rect
       style="fill:#009688;fill-opacity:1;stroke-width:1.00157;stroke-dasharray:none"
       id="rect6-2-2-9-4"
       width="9.0822706"
       height="0.99609375"
       x="-36.379971"
       y="-4.5927153"
       ry="0.49804688"
       transform="rotate(-135)"
       rx="0.49804688" />
    <rect
       style="fill:#009688;fill-opacity:1;stroke-width:1.00157;stroke-dasharray:none"
       id="rect6-2-2-6-5-5"
       width="9.7995005"
       height="0.95338309"
       x="-36.915619"
       y="-8.385005"
       ry="0.47669154"
       transform="rotate(-135)"
       rx="0.47669154" />
    <rect
       style="fill:#009688;fill-opacity:1;stroke-width:1.00157;stroke-dasharray:none"
       id="rect6-2-2-6-1-0-0"
       width="7.425981"
       height="0.99609375"
       x="-34.54211"
       y="-12.451604"
       ry="0.49804688"
       transform="rotate(-135)"
       rx="0.49804688" />
  </g>
</svg>
