<?xml version="1.0" encoding="UTF-8" standalone="no"?>
<svg
   width="40"
   height="40"
   viewBox="0 0 40 40"
   version="1.1"
   id="svg17"
   sodipodi:docname="toolbar_face.svg"
   inkscape:version="1.4.2 (f4327f4, 2025-05-13)"
   xmlns:inkscape="http://www.inkscape.org/namespaces/inkscape"
   xmlns:sodipodi="http://sodipodi.sourceforge.net/DTD/sodipodi-0.dtd"
   xmlns="http://www.w3.org/2000/svg"
   xmlns:svg="http://www.w3.org/2000/svg">
  <defs
     id="defs17">
    <inkscape:path-effect
       effect="fillet_chamfer"
       id="path-effect48"
       is_visible="true"
       lpeversion="1"
       nodesatellites_param="F,0,0,1,0,1.0055868,0,1 @ F,0,0,1,0,0,0,1 @ F,0,0,1,0,0,0,1 @ F,0,0,1,0,1.4911902,0,1 @ F,0,0,1,0,0,0,1 @ F,0,0,1,0,0,0,1 @ F,0,0,1,0,1.0376412,0,1 @ F,0,0,1,0,0,0,1 @ F,0,0,1,0,0,0,1 | F,0,0,1,0,0,0,1 @ F,0,0,1,0,0,0,1 @ F,0,0,1,0,0,0,1"
       radius="0"
       unit="px"
       method="auto"
       mode="F"
       chamfer_steps="1"
       flexible="false"
       use_knot_distance="true"
       apply_no_radius="true"
       apply_with_radius="true"
       only_selected="false"
       hide_knots="false" />
    <inkscape:path-effect
       effect="fillet_chamfer"
       id="path-effect47"
       is_visible="true"
       lpeversion="1"
       nodesatellites_param="F,0,0,1,0,0,0,1 @ F,0,0,1,0,0,0,1 @ F,0,0,1,0,0,0,1 @ F,0,0,1,0,0,0,1"
       radius="0"
       unit="px"
       method="auto"
       mode="F"
       chamfer_steps="1"
       flexible="false"
       use_knot_distance="true"
       apply_no_radius="true"
       apply_with_radius="true"
       only_selected="false"
       hide_knots="false" />
  </defs>
  <sodipodi:namedview
     id="namedview17"
     pagecolor="#ffffff"
     bordercolor="#000000"
     borderopacity="0.25"
     inkscape:showpageshadow="2"
     inkscape:pageopacity="0.0"
     inkscape:pagecheckerboard="0"
     inkscape:deskcolor="#d1d1d1"
     inkscape:zoom="22.627417"
     inkscape:cx="23.113553"
     inkscape:cy="18.318485"
     inkscape:window-width="3840"
     inkscape:window-height="2126"
     inkscape:window-x="-11"
     inkscape:window-y="-11"
     inkscape:window-maximized="1"
     inkscape:current-layer="svg17" />
  <path
     d="m 33.973006,35.500013 h -0.999987 a 0.500013,0.500013 0 0 1 0,-1.000026 h 0.999987 A 0.49999998,0.49999998 0 0 0 34.473,33.999994 v -5.000013 a 0.5000126,0.5000126 0 0 1 1.000025,0 v 5.000013 a 1.5,1.5 0 0 1 -1.500019,1.500019 z"
     style="fill:#b6b6b6;stroke-width:0.999999"
     id="path3-6" />
  <path
     d="M 19.973012,35.500013 H 5.9730109 a 1.5,1.5 0 0 1 -1.5,-1.500019 V 6.000006 a 1.5,1.5 0 0 1 1.5,-1.500019 H 33.973006 a 1.5,1.5 0 0 1 1.500019,1.500019 v 12.999987 a 0.5000126,0.5000126 0 0 1 -1.000025,0 V 6.000006 A 0.49999998,0.49999998 0 0 0 33.973006,5.500012 H 5.9730109 a 0.49999998,0.49999998 0 0 0 -0.499997,0.499994 v 27.999988 a 0.49999998,0.49999998 0 0 0 0.499997,0.499993 H 19.973012 a 0.500013,0.500013 0 0 1 0,1.000026 z"
     style="fill:#b6b6b6;stroke-width:0.999999;fill-opacity:1"
     id="path4-6" />
  <rect
     style="fill:#b6b6b6;fill-opacity:1;stroke:none;stroke-width:0;stroke-linejoin:miter;stroke-dasharray:none;stroke-dashoffset:0;stroke-opacity:0;paint-order:stroke fill markers"
     id="rect40"
     width="15.363631"
     height="1.000026"
     x="18.609375"
     y="34.499989" />
  <rect
     style="fill:#b6b6b6;fill-opacity:1;stroke:none;stroke-width:0;stroke-linejoin:miter;stroke-dasharray:none;stroke-dashoffset:0;stroke-opacity:0;paint-order:stroke fill markers"
     id="rect41"
     width="1.000025"
     height="11.921875"
     x="34.473"
     y="18.546875" />
  <path
     id="path42"
     style="fill:#009688;stroke-width:0;stroke-opacity:0;paint-order:stroke fill markers;fill-opacity:1"
     d="M 19.58431,7.9401469 19.519531,8.0820312 9.1699219,30.736328 a 0.61329334,0.61329334 42.827026 0 0 0.828125,0.767578 l 0,0 20.7832031,-7.320312 0.0019,-6.61e-4 a 0.7874119,0.7874119 107.77086 0 0 0.382891,-1.194652 L 20.714844,8.0449219 20.578195,7.8494958 A 0.57476577,0.57476577 174.78854 0 0 19.58431,7.9401469 Z M 20.232422,9.1015625 30.1875,23.332031 10.576172,30.240234 Z"
     inkscape:path-effect="#path-effect48"
     inkscape:original-d="M 20.001953,7.0253906 19.519531,8.0820312 9.1699219,30.736328 8.5917969,32 9.9980469,31.503906 30.78125,24.183594 31.761719,23.837891 31.166016,22.988281 20.714844,8.0449219 Z M 20.232422,9.1015625 30.1875,23.332031 10.576172,30.240234 Z" />
</svg>
