<?xml version="1.0" encoding="UTF-8"?><svg id="a" xmlns="http://www.w3.org/2000/svg" viewBox="0 0 657.64 657.64"><rect id="c" x="14.17" y="14.17" width="56.69" height="56.69" rx="2.83" ry="2.83" style="fill:rgba(255,255,255,.4);"/><path id="d" d="M25.51,25.51v34.02h5.67v-14.17h5.67l8.18,14.17h6.55l-8.18-14.17h10.46v14.17h5.67V25.51h-5.67v14.17h-6.63c.28-.58.96-2.16.96-4.25,0-5.47-4.44-9.92-9.92-9.92h-12.76ZM31.18,31.18h7.09c2.38,0,4.25,1.93,4.25,4.25s-1.87,4.25-4.25,4.25h-7.09v-8.5Z"/><path id="e" d="M328.9,112.72l-187.17,108.18v215.92l187.22,108.09,186.95-107.93v-216.3l-187.01-107.97ZM310.06,512.49l-98.23-56.71v-86.65l-18.29-10.56v86.42l-33.07-19.09v-172.38l97.88,56.57v86.46l18.9,10.92v-86.28l32.82,18.94v172.38h-.01ZM179.13,220.82l149.55-86.77,149.68,86.42-32.39,18.7-74.92-43.25-18.89,10.9,75.09,43.35-47.16,27.23-74.79-43.18-18.49,10.67,75.14,43.38-32.98,19.04-149.84-86.51h.01ZM497.12,426.06l-149.41,86.27v-172.43l149.39-86.46v64.6l-74.58,43.06v43.41l18.58-10.73v-21.64l56.01-32.35v86.26Z" style="fill:#00bc00; isolation:isolate; opacity:.2;"/></svg>