ISO-10303-21;
HEADER;
FILE_DESCRIPTION(('FreeCAD Model'),'2;1');
FILE_NAME('Open CASCADE Shape Model','2026-08-05T12:46:26',('FreeCAD'),(
    'FreeCAD'),'Open CASCADE STEP processor 7.8','FreeCAD','Unknown');
FILE_SCHEMA(('AUTOMOTIVE_DESIGN { 1 0 10303 214 1 1 1 1 }'));
ENDSEC;
DATA;
#1 = APPLICATION_PROTOCOL_DEFINITION('international standard',
  'automotive_design',2000,#2);
#2 = APPLICATION_CONTEXT(
  'core data for automotive mechanical design processes');
#3 = SHAPE_DEFINITION_REPRESENTATION(#4,#10);
#4 = PRODUCT_DEFINITION_SHAPE('','',#5);
#5 = PRODUCT_DEFINITION('design','',#6,#9);
#6 = PRODUCT_DEFINITION_FORMATION('','',#7);
#7 = PRODUCT('Open CASCADE STEP translator 7.8 1',
  'Open CASCADE STEP translator 7.8 1','',(#8));
#8 = PRODUCT_CONTEXT('',#2,'mechanical');
#9 = PRODUCT_DEFINITION_CONTEXT('part definition',#2,'design');
#10 = ADVANCED_BREP_SHAPE_REPRESENTATION('',(#11,#15),#958);
#11 = AXIS2_PLACEMENT_3D('',#12,#13,#14);
#12 = CARTESIAN_POINT('',(0.,0.,0.));
#13 = DIRECTION('',(0.,0.,1.));
#14 = DIRECTION('',(1.,0.,-0.));
#15 = MANIFOLD_SOLID_BREP('',#16);
#16 = CLOSED_SHELL('',(#17,#229,#260,#497,#514,#531,#548,#565,#582,#599,
    #616,#633,#650,#667,#684,#701,#718,#735,#747,#770,#794,#810,#822,
    #839,#856,#878,#895,#912,#929,#946));
#17 = ADVANCED_FACE('',(#18,#68,#79,#213),#224,.F.);
#18 = FACE_BOUND('',#19,.F.);
#19 = EDGE_LOOP('',(#20,#30,#38,#46,#54,#62));
#20 = ORIENTED_EDGE('',*,*,#21,.F.);
#21 = EDGE_CURVE('',#22,#24,#26,.T.);
#22 = VERTEX_POINT('',#23);
#23 = CARTESIAN_POINT('',(19.029295926024,-0.2,-17.63009960955));
#24 = VERTEX_POINT('',#25);
#25 = CARTESIAN_POINT('',(16.626582997737,-0.2,-8.940188245231));
#26 = LINE('',#27,#28);
#27 = CARTESIAN_POINT('',(19.849519003668,-0.2,-20.59660707692));
#28 = VECTOR('',#29,1.);
#29 = DIRECTION('',(-0.26649542889,0.,0.963836182336));
#30 = ORIENTED_EDGE('',*,*,#31,.F.);
#31 = EDGE_CURVE('',#32,#22,#34,.T.);
#32 = VERTEX_POINT('',#33);
#33 = CARTESIAN_POINT('',(22.059435554995,-0.2,-3.734519760785));
#34 = LINE('',#35,#36);
#35 = CARTESIAN_POINT('',(17.698510515043,-0.2,-23.73280021221));
#36 = VECTOR('',#37,1.);
#37 = DIRECTION('',(-0.213058124893,0.,-0.977039526026));
#38 = ORIENTED_EDGE('',*,*,#39,.F.);
#39 = EDGE_CURVE('',#40,#32,#42,.T.);
#40 = VERTEX_POINT('',#41);
#41 = CARTESIAN_POINT('',(-21.72552223146,-0.2,-3.734519760785));
#42 = LINE('',#43,#44);
#43 = CARTESIAN_POINT('',(0.297084840953,-0.2,-3.734519760785));
#44 = VECTOR('',#45,1.);
#45 = DIRECTION('',(1.,0.,0.));
#46 = ORIENTED_EDGE('',*,*,#47,.F.);
#47 = EDGE_CURVE('',#48,#40,#50,.T.);
#48 = VERTEX_POINT('',#49);
#49 = CARTESIAN_POINT('',(-21.72552223146,-0.2,-8.903751135252));
#50 = LINE('',#51,#52);
#51 = CARTESIAN_POINT('',(-21.72552223146,-0.2,-19.83215600037));
#52 = VECTOR('',#53,1.);
#53 = DIRECTION('',(0.,0.,1.));
#54 = ORIENTED_EDGE('',*,*,#55,.F.);
#55 = EDGE_CURVE('',#56,#48,#58,.T.);
#56 = VERTEX_POINT('',#57);
#57 = CARTESIAN_POINT('',(4.383041634064E-04,-0.2,-8.903751615529));
#58 = LINE('',#59,#60);
#59 = CARTESIAN_POINT('',(-5.279852300138,-0.2,-8.903751135252));
#60 = VECTOR('',#61,1.);
#61 = DIRECTION('',(-1.,0.,0.));
#62 = ORIENTED_EDGE('',*,*,#63,.F.);
#63 = EDGE_CURVE('',#24,#56,#64,.T.);
#64 = LINE('',#65,#66);
#65 = CARTESIAN_POINT('',(4.347099726942,-0.2,-8.913277437397));
#66 = VECTOR('',#67,1.);
#67 = DIRECTION('',(-0.999997598615,0.,2.191520817069E-03));
#68 = FACE_BOUND('',#69,.F.);
#69 = EDGE_LOOP('',(#70));
#70 = ORIENTED_EDGE('',*,*,#71,.F.);
#71 = EDGE_CURVE('',#72,#72,#74,.T.);
#72 = VERTEX_POINT('',#73);
#73 = CARTESIAN_POINT('',(21.163799345768,-0.2,-48.00951684793));
#74 = CIRCLE('',#75,4.735522705283);
#75 = AXIS2_PLACEMENT_3D('',#76,#77,#78);
#76 = CARTESIAN_POINT('',(16.428276640485,-0.2,-48.00951684793));
#77 = DIRECTION('',(-0.,1.,0.));
#78 = DIRECTION('',(1.,0.,0.));
#79 = FACE_BOUND('',#80,.F.);
#80 = EDGE_LOOP('',(#81,#91,#100,#108,#116,#125,#133,#142,#150,#158,#166
    ,#174,#182,#190,#198,#206));
#81 = ORIENTED_EDGE('',*,*,#82,.T.);
#82 = EDGE_CURVE('',#83,#85,#87,.T.);
#83 = VERTEX_POINT('',#84);
#84 = CARTESIAN_POINT('',(-27.86158468659,-0.2,-65.78852163128));
#85 = VERTEX_POINT('',#86);
#86 = CARTESIAN_POINT('',(-29.08766684168,-0.2,-64.52156932717));
#87 = LINE('',#88,#89);
#88 = CARTESIAN_POINT('',(-29.44004200272,-0.2,-64.15744811364));
#89 = VECTOR('',#90,1.);
#90 = DIRECTION('',(-0.695421216677,0.,0.718602345805));
#91 = ORIENTED_EDGE('',*,*,#92,.F.);
#92 = EDGE_CURVE('',#93,#85,#95,.T.);
#93 = VERTEX_POINT('',#94);
#94 = CARTESIAN_POINT('',(-28.96712497021,-0.2,-57.16864680227));
#95 = CIRCLE('',#96,5.2);
#96 = AXIS2_PLACEMENT_3D('',#97,#98,#99);
#97 = CARTESIAN_POINT('',(-25.35093464349,-0.2,-60.90537900045));
#98 = DIRECTION('',(0.,-1.,0.));
#99 = DIRECTION('',(-1.,0.,0.));
#100 = ORIENTED_EDGE('',*,*,#101,.T.);
#101 = EDGE_CURVE('',#93,#102,#104,.T.);
#102 = VERTEX_POINT('',#103);
#103 = CARTESIAN_POINT('',(-26.93875323652,-0.2,-55.20570756731));
#104 = LINE('',#105,#106);
#105 = CARTESIAN_POINT('',(-14.90185526362,-0.2,-43.55710346492));
#106 = VECTOR('',#107,1.);
#107 = DIRECTION('',(0.718602345805,0.,0.695421216677));
#108 = ORIENTED_EDGE('',*,*,#109,.T.);
#109 = EDGE_CURVE('',#102,#110,#112,.T.);
#110 = VERTEX_POINT('',#111);
#111 = CARTESIAN_POINT('',(-41.17904151244,-0.2,-10.52828909594));
#112 = LINE('',#113,#114);
#113 = CARTESIAN_POINT('',(-32.39120436163,-0.2,-38.09921113329));
#114 = VECTOR('',#115,1.);
#115 = DIRECTION('',(-0.30368282823,0.,0.952773183837));
#116 = ORIENTED_EDGE('',*,*,#117,.F.);
#117 = EDGE_CURVE('',#118,#110,#120,.T.);
#118 = VERTEX_POINT('',#119);
#119 = CARTESIAN_POINT('',(-39.69176606491,-0.2,-4.408923352436));
#120 = CIRCLE('',#121,6.054044962965);
#121 = AXIS2_PLACEMENT_3D('',#122,#123,#124);
#122 = CARTESIAN_POINT('',(-35.41090981799,-0.2,-8.689779599357));
#123 = DIRECTION('',(0.,-1.,0.));
#124 = DIRECTION('',(-1.,0.,0.));
#125 = ORIENTED_EDGE('',*,*,#126,.T.);
#126 = EDGE_CURVE('',#118,#127,#129,.T.);
#127 = VERTEX_POINT('',#128);
#128 = CARTESIAN_POINT('',(-36.85603142851,-0.2,-1.573188716044));
#129 = LINE('',#130,#131);
#130 = CARTESIAN_POINT('',(-36.19319006079,-0.2,-0.910347348321));
#131 = VECTOR('',#132,1.);
#132 = DIRECTION('',(0.707106781187,0.,0.707106781187));
#133 = ORIENTED_EDGE('',*,*,#134,.F.);
#134 = EDGE_CURVE('',#135,#127,#137,.T.);
#135 = VERTEX_POINT('',#136);
#136 = CARTESIAN_POINT('',(-32.57517518159,-0.2,0.2));
#137 = CIRCLE('',#138,6.054044962965);
#138 = AXIS2_PLACEMENT_3D('',#139,#140,#141);
#139 = CARTESIAN_POINT('',(-32.57517518159,-0.2,-5.854044962965));
#140 = DIRECTION('',(0.,-1.,0.));
#141 = DIRECTION('',(-1.,0.,0.));
#142 = ORIENTED_EDGE('',*,*,#143,.T.);
#143 = EDGE_CURVE('',#135,#144,#146,.T.);
#144 = VERTEX_POINT('',#145);
#145 = CARTESIAN_POINT('',(35.082842712475,-0.2,0.2));
#146 = LINE('',#147,#148);
#147 = CARTESIAN_POINT('',(-7.942265537672,-0.2,0.2));
#148 = VECTOR('',#149,1.);
#149 = DIRECTION('',(1.,0.,0.));
#150 = ORIENTED_EDGE('',*,*,#151,.F.);
#151 = EDGE_CURVE('',#152,#144,#154,.T.);
#152 = VERTEX_POINT('',#153);
#153 = CARTESIAN_POINT('',(42.298608189024,-0.2,-7.015765476549));
#154 = LINE('',#155,#156);
#155 = CARTESIAN_POINT('',(36.596246576251,-0.2,-1.313403863776));
#156 = VECTOR('',#157,1.);
#157 = DIRECTION('',(-0.707106781187,0.,0.707106781187));
#158 = ORIENTED_EDGE('',*,*,#159,.F.);
#159 = EDGE_CURVE('',#160,#152,#162,.T.);
#160 = VERTEX_POINT('',#161);
#161 = CARTESIAN_POINT('',(26.938753236523,-0.2,-55.20570756731));
#162 = LINE('',#163,#164);
#163 = CARTESIAN_POINT('',(32.699020781567,-0.2,-37.13346923684));
#164 = VECTOR('',#165,1.);
#165 = DIRECTION('',(0.30368282823,0.,0.952773183837));
#166 = ORIENTED_EDGE('',*,*,#167,.F.);
#167 = EDGE_CURVE('',#168,#160,#170,.T.);
#168 = VERTEX_POINT('',#169);
#169 = CARTESIAN_POINT('',(32.703857168398,-0.2,-60.78483712899));
#170 = LINE('',#171,#172);
#171 = CARTESIAN_POINT('',(16.008242280412,-0.2,-44.62779994931));
#172 = VECTOR('',#173,1.);
#173 = DIRECTION('',(-0.718602345805,0.,0.695421216677));
#174 = ORIENTED_EDGE('',*,*,#175,.F.);
#175 = EDGE_CURVE('',#176,#168,#178,.T.);
#176 = VERTEX_POINT('',#177);
#177 = CARTESIAN_POINT('',(26.715163243538,-0.2,-66.97315781796));
#178 = LINE('',#179,#180);
#179 = CARTESIAN_POINT('',(30.25240665457,-0.2,-63.31800414721));
#180 = VECTOR('',#181,1.);
#181 = DIRECTION('',(0.695421216677,0.,0.718602345805));
#182 = ORIENTED_EDGE('',*,*,#183,.F.);
#183 = EDGE_CURVE('',#184,#176,#186,.T.);
#184 = VERTEX_POINT('',#185);
#185 = CARTESIAN_POINT('',(20.532019001374,-0.2,-60.98947335481));
#186 = LINE('',#187,#188);
#187 = CARTESIAN_POINT('',(9.922784884512,-0.2,-50.72247862452));
#188 = VECTOR('',#189,1.);
#189 = DIRECTION('',(0.718602345805,0.,-0.695421216677));
#190 = ORIENTED_EDGE('',*,*,#191,.F.);
#191 = EDGE_CURVE('',#192,#184,#194,.T.);
#192 = VERTEX_POINT('',#193);
#193 = CARTESIAN_POINT('',(-20.53201900137,-0.2,-60.98947335481));
#194 = LINE('',#195,#196);
#195 = CARTESIAN_POINT('',(5.354765181569,-0.2,-60.98947335481));
#196 = VECTOR('',#197,1.);
#197 = DIRECTION('',(1.,0.,0.));
#198 = ORIENTED_EDGE('',*,*,#199,.T.);
#199 = EDGE_CURVE('',#192,#200,#202,.T.);
#200 = VERTEX_POINT('',#201);
#201 = CARTESIAN_POINT('',(-25.53052705686,-0.2,-65.82673637491));
#202 = LINE('',#203,#204);
#203 = CARTESIAN_POINT('',(-9.454421870603,-0.2,-50.26922436104));
#204 = VECTOR('',#205,1.);
#205 = DIRECTION('',(-0.718602345805,0.,-0.695421216677));
#206 = ORIENTED_EDGE('',*,*,#207,.F.);
#207 = EDGE_CURVE('',#83,#200,#208,.T.);
#208 = CIRCLE('',#209,1.648528137424);
#209 = AXIS2_PLACEMENT_3D('',#210,#211,#212);
#210 = CARTESIAN_POINT('',(-26.67694849991,-0.2,-64.64210018823));
#211 = DIRECTION('',(0.,-1.,0.));
#212 = DIRECTION('',(-1.,0.,0.));
#213 = FACE_BOUND('',#214,.F.);
#214 = EDGE_LOOP('',(#215));
#215 = ORIENTED_EDGE('',*,*,#216,.F.);
#216 = EDGE_CURVE('',#217,#217,#219,.T.);
#217 = VERTEX_POINT('',#218);
#218 = CARTESIAN_POINT('',(-11.6927539352,-0.2,-48.00951684793));
#219 = CIRCLE('',#220,4.735522705283);
#220 = AXIS2_PLACEMENT_3D('',#221,#222,#223);
#221 = CARTESIAN_POINT('',(-16.42827664048,-0.2,-48.00951684793));
#222 = DIRECTION('',(-0.,1.,0.));
#223 = DIRECTION('',(1.,0.,0.));
#224 = PLANE('',#225);
#225 = AXIS2_PLACEMENT_3D('',#226,#227,#228);
#226 = CARTESIAN_POINT('',(0.403056515455,-0.2,-33.34517655273));
#227 = DIRECTION('',(0.,1.,0.));
#228 = DIRECTION('',(1.,0.,0.));
#229 = ADVANCED_FACE('',(#230),#255,.F.);
#230 = FACE_BOUND('',#231,.F.);
#231 = EDGE_LOOP('',(#232,#240,#241,#249));
#232 = ORIENTED_EDGE('',*,*,#233,.T.);
#233 = EDGE_CURVE('',#234,#160,#236,.T.);
#234 = VERTEX_POINT('',#235);
#235 = CARTESIAN_POINT('',(26.938753236523,3.2,-55.20570756731));
#236 = LINE('',#237,#238);
#237 = CARTESIAN_POINT('',(26.938753236523,3.,-55.20570756731));
#238 = VECTOR('',#239,1.);
#239 = DIRECTION('',(0.,-1.,0.));
#240 = ORIENTED_EDGE('',*,*,#159,.T.);
#241 = ORIENTED_EDGE('',*,*,#242,.F.);
#242 = EDGE_CURVE('',#243,#152,#245,.T.);
#243 = VERTEX_POINT('',#244);
#244 = CARTESIAN_POINT('',(42.298608189024,3.2,-7.015765476549));
#245 = LINE('',#246,#247);
#246 = CARTESIAN_POINT('',(42.298608189024,3.,-7.015765476549));
#247 = VECTOR('',#248,1.);
#248 = DIRECTION('',(0.,-1.,0.));
#249 = ORIENTED_EDGE('',*,*,#250,.F.);
#250 = EDGE_CURVE('',#234,#243,#251,.T.);
#251 = LINE('',#252,#253);
#252 = CARTESIAN_POINT('',(32.699020781567,3.2,-37.13346923684));
#253 = VECTOR('',#254,1.);
#254 = DIRECTION('',(0.30368282823,0.,0.952773183837));
#255 = PLANE('',#256);
#256 = AXIS2_PLACEMENT_3D('',#257,#258,#259);
#257 = CARTESIAN_POINT('',(34.581352051556,3.,-31.22785130119));
#258 = DIRECTION('',(-0.952773183837,0.,0.30368282823));
#259 = DIRECTION('',(0.30368282823,0.,0.952773183837));
#260 = ADVANCED_FACE('',(#261,#311,#322,#447,#481),#492,.T.);
#261 = FACE_BOUND('',#262,.T.);
#262 = EDGE_LOOP('',(#263,#273,#281,#289,#297,#305));
#263 = ORIENTED_EDGE('',*,*,#264,.F.);
#264 = EDGE_CURVE('',#265,#267,#269,.T.);
#265 = VERTEX_POINT('',#266);
#266 = CARTESIAN_POINT('',(16.626582997737,3.2,-8.940188245231));
#267 = VERTEX_POINT('',#268);
#268 = CARTESIAN_POINT('',(4.383041634064E-04,3.2,-8.903751615529));
#269 = LINE('',#270,#271);
#270 = CARTESIAN_POINT('',(4.347099726942,3.2,-8.913277437397));
#271 = VECTOR('',#272,1.);
#272 = DIRECTION('',(-0.999997598615,0.,2.191520817069E-03));
#273 = ORIENTED_EDGE('',*,*,#274,.F.);
#274 = EDGE_CURVE('',#275,#265,#277,.T.);
#275 = VERTEX_POINT('',#276);
#276 = CARTESIAN_POINT('',(19.029295926024,3.2,-17.63009960955));
#277 = LINE('',#278,#279);
#278 = CARTESIAN_POINT('',(19.849519003668,3.2,-20.59660707692));
#279 = VECTOR('',#280,1.);
#280 = DIRECTION('',(-0.26649542889,0.,0.963836182336));
#281 = ORIENTED_EDGE('',*,*,#282,.F.);
#282 = EDGE_CURVE('',#283,#275,#285,.T.);
#283 = VERTEX_POINT('',#284);
#284 = CARTESIAN_POINT('',(22.059435554995,3.2,-3.734519760785));
#285 = LINE('',#286,#287);
#286 = CARTESIAN_POINT('',(17.698510515043,3.2,-23.73280021221));
#287 = VECTOR('',#288,1.);
#288 = DIRECTION('',(-0.213058124893,0.,-0.977039526026));
#289 = ORIENTED_EDGE('',*,*,#290,.F.);
#290 = EDGE_CURVE('',#291,#283,#293,.T.);
#291 = VERTEX_POINT('',#292);
#292 = CARTESIAN_POINT('',(-21.72552223146,3.2,-3.734519760785));
#293 = LINE('',#294,#295);
#294 = CARTESIAN_POINT('',(0.297084840953,3.2,-3.734519760785));
#295 = VECTOR('',#296,1.);
#296 = DIRECTION('',(1.,0.,0.));
#297 = ORIENTED_EDGE('',*,*,#298,.F.);
#298 = EDGE_CURVE('',#299,#291,#301,.T.);
#299 = VERTEX_POINT('',#300);
#300 = CARTESIAN_POINT('',(-21.72552223146,3.2,-8.903751135252));
#301 = LINE('',#302,#303);
#302 = CARTESIAN_POINT('',(-21.72552223146,3.2,-19.83215600037));
#303 = VECTOR('',#304,1.);
#304 = DIRECTION('',(0.,0.,1.));
#305 = ORIENTED_EDGE('',*,*,#306,.F.);
#306 = EDGE_CURVE('',#267,#299,#307,.T.);
#307 = LINE('',#308,#309);
#308 = CARTESIAN_POINT('',(-5.279852300138,3.2,-8.903751135252));
#309 = VECTOR('',#310,1.);
#310 = DIRECTION('',(-1.,0.,0.));
#311 = FACE_BOUND('',#312,.T.);
#312 = EDGE_LOOP('',(#313));
#313 = ORIENTED_EDGE('',*,*,#314,.F.);
#314 = EDGE_CURVE('',#315,#315,#317,.T.);
#315 = VERTEX_POINT('',#316);
#316 = CARTESIAN_POINT('',(21.163799345768,3.2,-48.00951684793));
#317 = CIRCLE('',#318,4.735522705283);
#318 = AXIS2_PLACEMENT_3D('',#319,#320,#321);
#319 = CARTESIAN_POINT('',(16.428276640485,3.2,-48.00951684793));
#320 = DIRECTION('',(-0.,1.,0.));
#321 = DIRECTION('',(1.,0.,0.));
#322 = FACE_BOUND('',#323,.T.);
#323 = EDGE_LOOP('',(#324,#334,#343,#351,#360,#368,#374,#375,#383,#391,
    #399,#407,#415,#424,#432,#441));
#324 = ORIENTED_EDGE('',*,*,#325,.T.);
#325 = EDGE_CURVE('',#326,#328,#330,.T.);
#326 = VERTEX_POINT('',#327);
#327 = CARTESIAN_POINT('',(-26.93875323652,3.2,-55.20570756731));
#328 = VERTEX_POINT('',#329);
#329 = CARTESIAN_POINT('',(-41.17904151244,3.2,-10.52828909594));
#330 = LINE('',#331,#332);
#331 = CARTESIAN_POINT('',(-32.39120436163,3.2,-38.09921113329));
#332 = VECTOR('',#333,1.);
#333 = DIRECTION('',(-0.30368282823,0.,0.952773183837));
#334 = ORIENTED_EDGE('',*,*,#335,.F.);
#335 = EDGE_CURVE('',#336,#328,#338,.T.);
#336 = VERTEX_POINT('',#337);
#337 = CARTESIAN_POINT('',(-39.69176606491,3.2,-4.408923352436));
#338 = CIRCLE('',#339,6.054044962965);
#339 = AXIS2_PLACEMENT_3D('',#340,#341,#342);
#340 = CARTESIAN_POINT('',(-35.41090981799,3.2,-8.689779599357));
#341 = DIRECTION('',(0.,-1.,0.));
#342 = DIRECTION('',(-1.,0.,0.));
#343 = ORIENTED_EDGE('',*,*,#344,.T.);
#344 = EDGE_CURVE('',#336,#345,#347,.T.);
#345 = VERTEX_POINT('',#346);
#346 = CARTESIAN_POINT('',(-36.85603142851,3.2,-1.573188716044));
#347 = LINE('',#348,#349);
#348 = CARTESIAN_POINT('',(-36.19319006079,3.2,-0.910347348321));
#349 = VECTOR('',#350,1.);
#350 = DIRECTION('',(0.707106781187,0.,0.707106781187));
#351 = ORIENTED_EDGE('',*,*,#352,.F.);
#352 = EDGE_CURVE('',#353,#345,#355,.T.);
#353 = VERTEX_POINT('',#354);
#354 = CARTESIAN_POINT('',(-32.57517518159,3.2,0.2));
#355 = CIRCLE('',#356,6.054044962965);
#356 = AXIS2_PLACEMENT_3D('',#357,#358,#359);
#357 = CARTESIAN_POINT('',(-32.57517518159,3.2,-5.854044962965));
#358 = DIRECTION('',(0.,-1.,0.));
#359 = DIRECTION('',(-1.,0.,0.));
#360 = ORIENTED_EDGE('',*,*,#361,.T.);
#361 = EDGE_CURVE('',#353,#362,#364,.T.);
#362 = VERTEX_POINT('',#363);
#363 = CARTESIAN_POINT('',(35.082842712475,3.2,0.2));
#364 = LINE('',#365,#366);
#365 = CARTESIAN_POINT('',(-7.942265537672,3.2,0.2));
#366 = VECTOR('',#367,1.);
#367 = DIRECTION('',(1.,0.,0.));
#368 = ORIENTED_EDGE('',*,*,#369,.F.);
#369 = EDGE_CURVE('',#243,#362,#370,.T.);
#370 = LINE('',#371,#372);
#371 = CARTESIAN_POINT('',(36.596246576251,3.2,-1.313403863776));
#372 = VECTOR('',#373,1.);
#373 = DIRECTION('',(-0.707106781187,0.,0.707106781187));
#374 = ORIENTED_EDGE('',*,*,#250,.F.);
#375 = ORIENTED_EDGE('',*,*,#376,.F.);
#376 = EDGE_CURVE('',#377,#234,#379,.T.);
#377 = VERTEX_POINT('',#378);
#378 = CARTESIAN_POINT('',(32.703857168398,3.2,-60.78483712899));
#379 = LINE('',#380,#381);
#380 = CARTESIAN_POINT('',(16.008242280412,3.2,-44.62779994931));
#381 = VECTOR('',#382,1.);
#382 = DIRECTION('',(-0.718602345805,0.,0.695421216677));
#383 = ORIENTED_EDGE('',*,*,#384,.F.);
#384 = EDGE_CURVE('',#385,#377,#387,.T.);
#385 = VERTEX_POINT('',#386);
#386 = CARTESIAN_POINT('',(26.715163243538,3.2,-66.97315781796));
#387 = LINE('',#388,#389);
#388 = CARTESIAN_POINT('',(30.25240665457,3.2,-63.31800414721));
#389 = VECTOR('',#390,1.);
#390 = DIRECTION('',(0.695421216677,0.,0.718602345805));
#391 = ORIENTED_EDGE('',*,*,#392,.F.);
#392 = EDGE_CURVE('',#393,#385,#395,.T.);
#393 = VERTEX_POINT('',#394);
#394 = CARTESIAN_POINT('',(20.532019001374,3.2,-60.98947335481));
#395 = LINE('',#396,#397);
#396 = CARTESIAN_POINT('',(9.922784884512,3.2,-50.72247862452));
#397 = VECTOR('',#398,1.);
#398 = DIRECTION('',(0.718602345805,0.,-0.695421216677));
#399 = ORIENTED_EDGE('',*,*,#400,.F.);
#400 = EDGE_CURVE('',#401,#393,#403,.T.);
#401 = VERTEX_POINT('',#402);
#402 = CARTESIAN_POINT('',(-20.53201900137,3.2,-60.98947335481));
#403 = LINE('',#404,#405);
#404 = CARTESIAN_POINT('',(5.354765181569,3.2,-60.98947335481));
#405 = VECTOR('',#406,1.);
#406 = DIRECTION('',(1.,0.,0.));
#407 = ORIENTED_EDGE('',*,*,#408,.T.);
#408 = EDGE_CURVE('',#401,#409,#411,.T.);
#409 = VERTEX_POINT('',#410);
#410 = CARTESIAN_POINT('',(-25.53052705686,3.2,-65.82673637491));
#411 = LINE('',#412,#413);
#412 = CARTESIAN_POINT('',(-9.454421870603,3.2,-50.26922436104));
#413 = VECTOR('',#414,1.);
#414 = DIRECTION('',(-0.718602345805,0.,-0.695421216677));
#415 = ORIENTED_EDGE('',*,*,#416,.F.);
#416 = EDGE_CURVE('',#417,#409,#419,.T.);
#417 = VERTEX_POINT('',#418);
#418 = CARTESIAN_POINT('',(-27.86158468659,3.2,-65.78852163128));
#419 = CIRCLE('',#420,1.648528137424);
#420 = AXIS2_PLACEMENT_3D('',#421,#422,#423);
#421 = CARTESIAN_POINT('',(-26.67694849991,3.2,-64.64210018823));
#422 = DIRECTION('',(0.,-1.,0.));
#423 = DIRECTION('',(-1.,0.,0.));
#424 = ORIENTED_EDGE('',*,*,#425,.T.);
#425 = EDGE_CURVE('',#417,#426,#428,.T.);
#426 = VERTEX_POINT('',#427);
#427 = CARTESIAN_POINT('',(-29.08766684168,3.2,-64.52156932717));
#428 = LINE('',#429,#430);
#429 = CARTESIAN_POINT('',(-29.44004200272,3.2,-64.15744811364));
#430 = VECTOR('',#431,1.);
#431 = DIRECTION('',(-0.695421216677,0.,0.718602345805));
#432 = ORIENTED_EDGE('',*,*,#433,.F.);
#433 = EDGE_CURVE('',#434,#426,#436,.T.);
#434 = VERTEX_POINT('',#435);
#435 = CARTESIAN_POINT('',(-28.96712497021,3.2,-57.16864680227));
#436 = CIRCLE('',#437,5.2);
#437 = AXIS2_PLACEMENT_3D('',#438,#439,#440);
#438 = CARTESIAN_POINT('',(-25.35093464349,3.2,-60.90537900045));
#439 = DIRECTION('',(0.,-1.,0.));
#440 = DIRECTION('',(-1.,0.,0.));
#441 = ORIENTED_EDGE('',*,*,#442,.T.);
#442 = EDGE_CURVE('',#434,#326,#443,.T.);
#443 = LINE('',#444,#445);
#444 = CARTESIAN_POINT('',(-14.90185526362,3.2,-43.55710346492));
#445 = VECTOR('',#446,1.);
#446 = DIRECTION('',(0.718602345805,0.,0.695421216677));
#447 = FACE_BOUND('',#448,.T.);
#448 = EDGE_LOOP('',(#449,#459,#467,#475));
#449 = ORIENTED_EDGE('',*,*,#450,.F.);
#450 = EDGE_CURVE('',#451,#453,#455,.T.);
#451 = VERTEX_POINT('',#452);
#452 = CARTESIAN_POINT('',(5.809375885494,3.2,-13.06417917474));
#453 = VERTEX_POINT('',#454);
#454 = CARTESIAN_POINT('',(2.688069798796,3.2,-49.64588621989));
#455 = LINE('',#456,#457);
#456 = CARTESIAN_POINT('',(4.914157977861,3.2,-23.55613296875));
#457 = VECTOR('',#458,1.);
#458 = DIRECTION('',(-8.501532861635E-02,0.,-0.996379643459));
#459 = ORIENTED_EDGE('',*,*,#460,.F.);
#460 = EDGE_CURVE('',#461,#451,#463,.T.);
#461 = VERTEX_POINT('',#462);
#462 = CARTESIAN_POINT('',(-5.809375885494,3.2,-13.06417917474));
#463 = LINE('',#464,#465);
#464 = CARTESIAN_POINT('',(1.615747408047,3.2,-13.06417917474));
#465 = VECTOR('',#466,1.);
#466 = DIRECTION('',(1.,0.,-3.066574716487E-16));
#467 = ORIENTED_EDGE('',*,*,#468,.F.);
#468 = EDGE_CURVE('',#469,#461,#471,.T.);
#469 = VERTEX_POINT('',#470);
#470 = CARTESIAN_POINT('',(-2.688069798796,3.2,-49.64588621989));
#471 = LINE('',#472,#473);
#472 = CARTESIAN_POINT('',(-4.890802006217,3.2,-23.82986495424));
#473 = VECTOR('',#474,1.);
#474 = DIRECTION('',(-8.501532861635E-02,0.,0.996379643459));
#475 = ORIENTED_EDGE('',*,*,#476,.F.);
#476 = EDGE_CURVE('',#453,#469,#477,.T.);
#477 = LINE('',#478,#479);
#478 = CARTESIAN_POINT('',(1.615747408047,3.2,-49.64588621989));
#479 = VECTOR('',#480,1.);
#480 = DIRECTION('',(-1.,0.,0.));
#481 = FACE_BOUND('',#482,.T.);
#482 = EDGE_LOOP('',(#483));
#483 = ORIENTED_EDGE('',*,*,#484,.F.);
#484 = EDGE_CURVE('',#485,#485,#487,.T.);
#485 = VERTEX_POINT('',#486);
#486 = CARTESIAN_POINT('',(-11.6927539352,3.2,-48.00951684793));
#487 = CIRCLE('',#488,4.735522705283);
#488 = AXIS2_PLACEMENT_3D('',#489,#490,#491);
#489 = CARTESIAN_POINT('',(-16.42827664048,3.2,-48.00951684793));
#490 = DIRECTION('',(-0.,1.,0.));
#491 = DIRECTION('',(1.,0.,0.));
#492 = PLANE('',#493);
#493 = AXIS2_PLACEMENT_3D('',#494,#495,#496);
#494 = CARTESIAN_POINT('',(0.403056515455,3.2,-33.34517655273));
#495 = DIRECTION('',(0.,1.,0.));
#496 = DIRECTION('',(1.,0.,0.));
#497 = ADVANCED_FACE('',(#498),#509,.F.);
#498 = FACE_BOUND('',#499,.F.);
#499 = EDGE_LOOP('',(#500,#506,#507,#508));
#500 = ORIENTED_EDGE('',*,*,#501,.F.);
#501 = EDGE_CURVE('',#168,#377,#502,.T.);
#502 = LINE('',#503,#504);
#503 = CARTESIAN_POINT('',(32.703857168398,3.,-60.78483712899));
#504 = VECTOR('',#505,1.);
#505 = DIRECTION('',(0.,1.,0.));
#506 = ORIENTED_EDGE('',*,*,#167,.T.);
#507 = ORIENTED_EDGE('',*,*,#233,.F.);
#508 = ORIENTED_EDGE('',*,*,#376,.F.);
#509 = PLANE('',#510);
#510 = AXIS2_PLACEMENT_3D('',#511,#512,#513);
#511 = CARTESIAN_POINT('',(29.704873980143,3.,-57.88259703786));
#512 = DIRECTION('',(-0.695421216677,0.,-0.718602345805));
#513 = DIRECTION('',(-0.718602345805,0.,0.695421216677));
#514 = ADVANCED_FACE('',(#515),#526,.F.);
#515 = FACE_BOUND('',#516,.F.);
#516 = EDGE_LOOP('',(#517,#523,#524,#525));
#517 = ORIENTED_EDGE('',*,*,#518,.F.);
#518 = EDGE_CURVE('',#176,#385,#519,.T.);
#519 = LINE('',#520,#521);
#520 = CARTESIAN_POINT('',(26.715163243538,3.,-66.97315781796));
#521 = VECTOR('',#522,1.);
#522 = DIRECTION('',(0.,1.,0.));
#523 = ORIENTED_EDGE('',*,*,#175,.T.);
#524 = ORIENTED_EDGE('',*,*,#501,.T.);
#525 = ORIENTED_EDGE('',*,*,#384,.F.);
#526 = PLANE('',#527);
#527 = AXIS2_PLACEMENT_3D('',#528,#529,#530);
#528 = CARTESIAN_POINT('',(29.709510205968,3.,-63.87899747347));
#529 = DIRECTION('',(-0.718602345805,0.,0.695421216677));
#530 = DIRECTION('',(0.695421216677,0.,0.718602345805));
#531 = ADVANCED_FACE('',(#532),#543,.F.);
#532 = FACE_BOUND('',#533,.F.);
#533 = EDGE_LOOP('',(#534,#540,#541,#542));
#534 = ORIENTED_EDGE('',*,*,#535,.T.);
#535 = EDGE_CURVE('',#393,#184,#536,.T.);
#536 = LINE('',#537,#538);
#537 = CARTESIAN_POINT('',(20.532019001374,3.,-60.98947335481));
#538 = VECTOR('',#539,1.);
#539 = DIRECTION('',(0.,-1.,0.));
#540 = ORIENTED_EDGE('',*,*,#183,.T.);
#541 = ORIENTED_EDGE('',*,*,#518,.T.);
#542 = ORIENTED_EDGE('',*,*,#392,.F.);
#543 = PLANE('',#544);
#544 = AXIS2_PLACEMENT_3D('',#545,#546,#547);
#545 = CARTESIAN_POINT('',(23.522653113203,3.,-63.8836336993));
#546 = DIRECTION('',(0.695421216677,0.,0.718602345805));
#547 = DIRECTION('',(0.718602345805,0.,-0.695421216677));
#548 = ADVANCED_FACE('',(#549),#560,.F.);
#549 = FACE_BOUND('',#550,.F.);
#550 = EDGE_LOOP('',(#551,#557,#558,#559));
#551 = ORIENTED_EDGE('',*,*,#552,.F.);
#552 = EDGE_CURVE('',#192,#401,#553,.T.);
#553 = LINE('',#554,#555);
#554 = CARTESIAN_POINT('',(-20.53201900137,3.,-60.98947335481));
#555 = VECTOR('',#556,1.);
#556 = DIRECTION('',(0.,1.,0.));
#557 = ORIENTED_EDGE('',*,*,#191,.T.);
#558 = ORIENTED_EDGE('',*,*,#535,.F.);
#559 = ORIENTED_EDGE('',*,*,#400,.F.);
#560 = PLANE('',#561);
#561 = AXIS2_PLACEMENT_3D('',#562,#563,#564);
#562 = CARTESIAN_POINT('',(10.306473847682,3.,-60.98947335481));
#563 = DIRECTION('',(0.,0.,1.));
#564 = DIRECTION('',(0.,-1.,0.));
#565 = ADVANCED_FACE('',(#566),#577,.T.);
#566 = FACE_BOUND('',#567,.T.);
#567 = EDGE_LOOP('',(#568,#574,#575,#576));
#568 = ORIENTED_EDGE('',*,*,#569,.F.);
#569 = EDGE_CURVE('',#409,#200,#570,.T.);
#570 = LINE('',#571,#572);
#571 = CARTESIAN_POINT('',(-25.53052705686,3.,-65.82673637491));
#572 = VECTOR('',#573,1.);
#573 = DIRECTION('',(0.,-1.,0.));
#574 = ORIENTED_EDGE('',*,*,#408,.F.);
#575 = ORIENTED_EDGE('',*,*,#552,.F.);
#576 = ORIENTED_EDGE('',*,*,#199,.T.);
#577 = PLANE('',#578);
#578 = AXIS2_PLACEMENT_3D('',#579,#580,#581);
#579 = CARTESIAN_POINT('',(-23.00219525444,3.,-63.37996509944));
#580 = DIRECTION('',(0.695421216677,0.,-0.718602345805));
#581 = DIRECTION('',(-0.718602345805,0.,-0.695421216677));
#582 = ADVANCED_FACE('',(#583),#594,.T.);
#583 = FACE_BOUND('',#584,.T.);
#584 = EDGE_LOOP('',(#585,#591,#592,#593));
#585 = ORIENTED_EDGE('',*,*,#586,.F.);
#586 = EDGE_CURVE('',#417,#83,#587,.T.);
#587 = LINE('',#588,#589);
#588 = CARTESIAN_POINT('',(-27.86158468659,3.,-65.78852163128));
#589 = VECTOR('',#590,1.);
#590 = DIRECTION('',(0.,-1.,0.));
#591 = ORIENTED_EDGE('',*,*,#416,.T.);
#592 = ORIENTED_EDGE('',*,*,#569,.T.);
#593 = ORIENTED_EDGE('',*,*,#207,.F.);
#594 = CYLINDRICAL_SURFACE('',#595,1.648528137424);
#595 = AXIS2_PLACEMENT_3D('',#596,#597,#598);
#596 = CARTESIAN_POINT('',(-26.67694849991,3.,-64.64210018823));
#597 = DIRECTION('',(0.,-1.,0.));
#598 = DIRECTION('',(-1.,0.,0.));
#599 = ADVANCED_FACE('',(#600),#611,.T.);
#600 = FACE_BOUND('',#601,.T.);
#601 = EDGE_LOOP('',(#602,#608,#609,#610));
#602 = ORIENTED_EDGE('',*,*,#603,.F.);
#603 = EDGE_CURVE('',#426,#85,#604,.T.);
#604 = LINE('',#605,#606);
#605 = CARTESIAN_POINT('',(-29.08766684168,3.,-64.52156932717));
#606 = VECTOR('',#607,1.);
#607 = DIRECTION('',(0.,-1.,0.));
#608 = ORIENTED_EDGE('',*,*,#425,.F.);
#609 = ORIENTED_EDGE('',*,*,#586,.T.);
#610 = ORIENTED_EDGE('',*,*,#82,.T.);
#611 = PLANE('',#612);
#612 = AXIS2_PLACEMENT_3D('',#613,#614,#615);
#613 = CARTESIAN_POINT('',(-28.47462576413,3.,-65.15504547923));
#614 = DIRECTION('',(-0.718602345805,0.,-0.695421216677));
#615 = DIRECTION('',(-0.695421216677,0.,0.718602345805));
#616 = ADVANCED_FACE('',(#617),#628,.T.);
#617 = FACE_BOUND('',#618,.T.);
#618 = EDGE_LOOP('',(#619,#625,#626,#627));
#619 = ORIENTED_EDGE('',*,*,#620,.F.);
#620 = EDGE_CURVE('',#434,#93,#621,.T.);
#621 = LINE('',#622,#623);
#622 = CARTESIAN_POINT('',(-28.96712497021,3.,-57.16864680227));
#623 = VECTOR('',#624,1.);
#624 = DIRECTION('',(0.,-1.,0.));
#625 = ORIENTED_EDGE('',*,*,#433,.T.);
#626 = ORIENTED_EDGE('',*,*,#603,.T.);
#627 = ORIENTED_EDGE('',*,*,#92,.F.);
#628 = CYLINDRICAL_SURFACE('',#629,5.2);
#629 = AXIS2_PLACEMENT_3D('',#630,#631,#632);
#630 = CARTESIAN_POINT('',(-25.35093464349,3.,-60.90537900045));
#631 = DIRECTION('',(0.,-1.,0.));
#632 = DIRECTION('',(-1.,0.,0.));
#633 = ADVANCED_FACE('',(#634),#645,.T.);
#634 = FACE_BOUND('',#635,.T.);
#635 = EDGE_LOOP('',(#636,#642,#643,#644));
#636 = ORIENTED_EDGE('',*,*,#637,.F.);
#637 = EDGE_CURVE('',#326,#102,#638,.T.);
#638 = LINE('',#639,#640);
#639 = CARTESIAN_POINT('',(-26.93875323652,3.,-55.20570756731));
#640 = VECTOR('',#641,1.);
#641 = DIRECTION('',(0.,-1.,0.));
#642 = ORIENTED_EDGE('',*,*,#442,.F.);
#643 = ORIENTED_EDGE('',*,*,#620,.T.);
#644 = ORIENTED_EDGE('',*,*,#101,.T.);
#645 = PLANE('',#646);
#646 = AXIS2_PLACEMENT_3D('',#647,#648,#649);
#647 = CARTESIAN_POINT('',(-27.90836811563,3.,-56.14404399617));
#648 = DIRECTION('',(-0.695421216677,0.,0.718602345805));
#649 = DIRECTION('',(0.718602345805,0.,0.695421216677));
#650 = ADVANCED_FACE('',(#651),#662,.T.);
#651 = FACE_BOUND('',#652,.T.);
#652 = EDGE_LOOP('',(#653,#659,#660,#661));
#653 = ORIENTED_EDGE('',*,*,#654,.F.);
#654 = EDGE_CURVE('',#328,#110,#655,.T.);
#655 = LINE('',#656,#657);
#656 = CARTESIAN_POINT('',(-41.17904151244,3.,-10.52828909594));
#657 = VECTOR('',#658,1.);
#658 = DIRECTION('',(0.,-1.,0.));
#659 = ORIENTED_EDGE('',*,*,#325,.F.);
#660 = ORIENTED_EDGE('',*,*,#637,.T.);
#661 = ORIENTED_EDGE('',*,*,#109,.T.);
#662 = PLANE('',#663);
#663 = AXIS2_PLACEMENT_3D('',#664,#665,#666);
#664 = CARTESIAN_POINT('',(-34.04006158346,3.,-32.92609366041));
#665 = DIRECTION('',(-0.952773183837,0.,-0.30368282823));
#666 = DIRECTION('',(-0.30368282823,0.,0.952773183837));
#667 = ADVANCED_FACE('',(#668),#679,.T.);
#668 = FACE_BOUND('',#669,.T.);
#669 = EDGE_LOOP('',(#670,#676,#677,#678));
#670 = ORIENTED_EDGE('',*,*,#671,.F.);
#671 = EDGE_CURVE('',#336,#118,#672,.T.);
#672 = LINE('',#673,#674);
#673 = CARTESIAN_POINT('',(-39.69176606491,3.,-4.408923352436));
#674 = VECTOR('',#675,1.);
#675 = DIRECTION('',(0.,-1.,0.));
#676 = ORIENTED_EDGE('',*,*,#335,.T.);
#677 = ORIENTED_EDGE('',*,*,#654,.T.);
#678 = ORIENTED_EDGE('',*,*,#117,.F.);
#679 = CYLINDRICAL_SURFACE('',#680,6.054044962965);
#680 = AXIS2_PLACEMENT_3D('',#681,#682,#683);
#681 = CARTESIAN_POINT('',(-35.41090981799,3.,-8.689779599357));
#682 = DIRECTION('',(0.,-1.,0.));
#683 = DIRECTION('',(-1.,0.,0.));
#684 = ADVANCED_FACE('',(#685),#696,.T.);
#685 = FACE_BOUND('',#686,.T.);
#686 = EDGE_LOOP('',(#687,#693,#694,#695));
#687 = ORIENTED_EDGE('',*,*,#688,.F.);
#688 = EDGE_CURVE('',#345,#127,#689,.T.);
#689 = LINE('',#690,#691);
#690 = CARTESIAN_POINT('',(-36.85603142851,3.,-1.573188716044));
#691 = VECTOR('',#692,1.);
#692 = DIRECTION('',(0.,-1.,0.));
#693 = ORIENTED_EDGE('',*,*,#344,.F.);
#694 = ORIENTED_EDGE('',*,*,#671,.T.);
#695 = ORIENTED_EDGE('',*,*,#126,.T.);
#696 = PLANE('',#697);
#697 = AXIS2_PLACEMENT_3D('',#698,#699,#700);
#698 = CARTESIAN_POINT('',(-38.27389874671,3.,-2.99105603424));
#699 = DIRECTION('',(-0.707106781187,0.,0.707106781187));
#700 = DIRECTION('',(0.707106781187,0.,0.707106781187));
#701 = ADVANCED_FACE('',(#702),#713,.T.);
#702 = FACE_BOUND('',#703,.T.);
#703 = EDGE_LOOP('',(#704,#710,#711,#712));
#704 = ORIENTED_EDGE('',*,*,#705,.F.);
#705 = EDGE_CURVE('',#353,#135,#706,.T.);
#706 = LINE('',#707,#708);
#707 = CARTESIAN_POINT('',(-32.57517518159,3.,0.2));
#708 = VECTOR('',#709,1.);
#709 = DIRECTION('',(0.,-1.,0.));
#710 = ORIENTED_EDGE('',*,*,#352,.T.);
#711 = ORIENTED_EDGE('',*,*,#688,.T.);
#712 = ORIENTED_EDGE('',*,*,#134,.F.);
#713 = CYLINDRICAL_SURFACE('',#714,6.054044962965);
#714 = AXIS2_PLACEMENT_3D('',#715,#716,#717);
#715 = CARTESIAN_POINT('',(-32.57517518159,3.,-5.854044962965));
#716 = DIRECTION('',(0.,-1.,0.));
#717 = DIRECTION('',(-1.,0.,0.));
#718 = ADVANCED_FACE('',(#719),#730,.T.);
#719 = FACE_BOUND('',#720,.T.);
#720 = EDGE_LOOP('',(#721,#727,#728,#729));
#721 = ORIENTED_EDGE('',*,*,#722,.F.);
#722 = EDGE_CURVE('',#362,#144,#723,.T.);
#723 = LINE('',#724,#725);
#724 = CARTESIAN_POINT('',(35.082842712475,3.,0.2));
#725 = VECTOR('',#726,1.);
#726 = DIRECTION('',(0.,-1.,0.));
#727 = ORIENTED_EDGE('',*,*,#361,.F.);
#728 = ORIENTED_EDGE('',*,*,#705,.T.);
#729 = ORIENTED_EDGE('',*,*,#143,.T.);
#730 = PLANE('',#731);
#731 = AXIS2_PLACEMENT_3D('',#732,#733,#734);
#732 = CARTESIAN_POINT('',(-16.28758759079,3.,0.2));
#733 = DIRECTION('',(0.,0.,1.));
#734 = DIRECTION('',(0.,-1.,0.));
#735 = ADVANCED_FACE('',(#736),#742,.F.);
#736 = FACE_BOUND('',#737,.F.);
#737 = EDGE_LOOP('',(#738,#739,#740,#741));
#738 = ORIENTED_EDGE('',*,*,#151,.T.);
#739 = ORIENTED_EDGE('',*,*,#722,.F.);
#740 = ORIENTED_EDGE('',*,*,#369,.F.);
#741 = ORIENTED_EDGE('',*,*,#242,.T.);
#742 = PLANE('',#743);
#743 = AXIS2_PLACEMENT_3D('',#744,#745,#746);
#744 = CARTESIAN_POINT('',(38.67695526217,3.,-3.394112549695));
#745 = DIRECTION('',(-0.707106781187,0.,-0.707106781187));
#746 = DIRECTION('',(-0.707106781187,0.,0.707106781187));
#747 = ADVANCED_FACE('',(#748),#765,.T.);
#748 = FACE_BOUND('',#749,.T.);
#749 = EDGE_LOOP('',(#750,#758,#764));
#750 = ORIENTED_EDGE('',*,*,#751,.T.);
#751 = EDGE_CURVE('',#451,#752,#754,.T.);
#752 = VERTEX_POINT('',#753);
#753 = CARTESIAN_POINT('',(3.256654205567E-15,17.8572529153,
    -18.39898295202));
#754 = LINE('',#755,#756);
#755 = CARTESIAN_POINT('',(5.649679875255,3.602918464526,-13.21082950266
    ));
#756 = VECTOR('',#757,1.);
#757 = DIRECTION('',(-0.349023821871,0.880598971639,-0.320511814002));
#758 = ORIENTED_EDGE('',*,*,#759,.T.);
#759 = EDGE_CURVE('',#752,#461,#760,.T.);
#760 = LINE('',#761,#762);
#761 = CARTESIAN_POINT('',(-5.275833888477,4.546144602338,
    -13.55413574101));
#762 = VECTOR('',#763,1.);
#763 = DIRECTION('',(-0.349023821871,-0.880598971639,0.320511814002));
#764 = ORIENTED_EDGE('',*,*,#460,.T.);
#765 = PLANE('',#766);
#766 = AXIS2_PLACEMENT_3D('',#767,#768,#769);
#767 = CARTESIAN_POINT('',(2.828438300639,3.068404028665,-13.01628215822
    ));
#768 = DIRECTION('',(2.881637632171E-16,0.342020143326,0.939692620786));
#769 = DIRECTION('',(-1.048830324052E-16,0.939692620786,-0.342020143326)
  );
#770 = ADVANCED_FACE('',(#771),#789,.T.);
#771 = FACE_BOUND('',#772,.T.);
#772 = EDGE_LOOP('',(#773,#781,#782,#783));
#773 = ORIENTED_EDGE('',*,*,#774,.T.);
#774 = EDGE_CURVE('',#775,#752,#777,.T.);
#775 = VERTEX_POINT('',#776);
#776 = CARTESIAN_POINT('',(1.480297366167E-15,11.242400581089,
    -46.71869179633));
#777 = LINE('',#778,#779);
#778 = CARTESIAN_POINT('',(2.6645352591E-15,18.133069549222,
    -17.21814831317));
#779 = VECTOR('',#780,1.);
#780 = DIRECTION('',(5.275122655166E-17,0.227455280238,0.97378852709));
#781 = ORIENTED_EDGE('',*,*,#751,.F.);
#782 = ORIENTED_EDGE('',*,*,#450,.T.);
#783 = ORIENTED_EDGE('',*,*,#784,.T.);
#784 = EDGE_CURVE('',#453,#775,#785,.T.);
#785 = LINE('',#786,#787);
#786 = CARTESIAN_POINT('',(1.103762571829,7.940067898719,-47.92064259636
    ));
#787 = VECTOR('',#788,1.);
#788 = DIRECTION('',(-0.299648208284,0.896513522642,0.326304236859));
#789 = PLANE('',#790);
#790 = AXIS2_PLACEMENT_3D('',#791,#792,#793);
#791 = CARTESIAN_POINT('',(5.823691883056,3.068404028665,-13.45978839622
    ));
#792 = DIRECTION('',(0.93629059846,0.342020143326,-7.988827695448E-02));
#793 = DIRECTION('',(-0.340781908463,0.939692620786,2.907695487824E-02)
  );
#794 = ADVANCED_FACE('',(#795),#805,.T.);
#795 = FACE_BOUND('',#796,.T.);
#796 = EDGE_LOOP('',(#797,#803,#804));
#797 = ORIENTED_EDGE('',*,*,#798,.T.);
#798 = EDGE_CURVE('',#469,#775,#799,.T.);
#799 = LINE('',#800,#801);
#800 = CARTESIAN_POINT('',(-0.871390517001,8.635298785064,
    -47.66759924779));
#801 = VECTOR('',#802,1.);
#802 = DIRECTION('',(0.299648208284,0.896513522642,0.326304236859));
#803 = ORIENTED_EDGE('',*,*,#784,.F.);
#804 = ORIENTED_EDGE('',*,*,#476,.T.);
#805 = PLANE('',#806);
#806 = AXIS2_PLACEMENT_3D('',#807,#808,#809);
#807 = CARTESIAN_POINT('',(2.828438300639,3.068404028665,-49.69378323641
    ));
#808 = DIRECTION('',(0.,0.342020143326,-0.939692620786));
#809 = DIRECTION('',(0.,0.939692620786,0.342020143326));
#810 = ADVANCED_FACE('',(#811),#817,.T.);
#811 = FACE_BOUND('',#812,.T.);
#812 = EDGE_LOOP('',(#813,#814,#815,#816));
#813 = ORIENTED_EDGE('',*,*,#468,.T.);
#814 = ORIENTED_EDGE('',*,*,#759,.F.);
#815 = ORIENTED_EDGE('',*,*,#774,.F.);
#816 = ORIENTED_EDGE('',*,*,#798,.F.);
#817 = PLANE('',#818);
#818 = AXIS2_PLACEMENT_3D('',#819,#820,#821);
#819 = CARTESIAN_POINT('',(-5.782806207227,3.068404028665,
    -13.93896851312));
#820 = DIRECTION('',(-0.93629059846,0.342020143326,-7.988827695448E-02)
  );
#821 = DIRECTION('',(0.340781908463,0.939692620786,2.907695487824E-02));
#822 = ADVANCED_FACE('',(#823),#834,.F.);
#823 = FACE_BOUND('',#824,.F.);
#824 = EDGE_LOOP('',(#825,#831,#832,#833));
#825 = ORIENTED_EDGE('',*,*,#826,.F.);
#826 = EDGE_CURVE('',#217,#485,#827,.T.);
#827 = LINE('',#828,#829);
#828 = CARTESIAN_POINT('',(-11.6927539352,-22.,-48.00951684793));
#829 = VECTOR('',#830,1.);
#830 = DIRECTION('',(0.,1.,0.));
#831 = ORIENTED_EDGE('',*,*,#216,.T.);
#832 = ORIENTED_EDGE('',*,*,#826,.T.);
#833 = ORIENTED_EDGE('',*,*,#484,.F.);
#834 = CYLINDRICAL_SURFACE('',#835,4.735522705283);
#835 = AXIS2_PLACEMENT_3D('',#836,#837,#838);
#836 = CARTESIAN_POINT('',(-16.42827664048,-22.,-48.00951684793));
#837 = DIRECTION('',(0.,1.,0.));
#838 = DIRECTION('',(1.,0.,0.));
#839 = ADVANCED_FACE('',(#840),#851,.F.);
#840 = FACE_BOUND('',#841,.F.);
#841 = EDGE_LOOP('',(#842,#848,#849,#850));
#842 = ORIENTED_EDGE('',*,*,#843,.F.);
#843 = EDGE_CURVE('',#72,#315,#844,.T.);
#844 = LINE('',#845,#846);
#845 = CARTESIAN_POINT('',(21.163799345768,-22.,-48.00951684793));
#846 = VECTOR('',#847,1.);
#847 = DIRECTION('',(0.,1.,0.));
#848 = ORIENTED_EDGE('',*,*,#71,.T.);
#849 = ORIENTED_EDGE('',*,*,#843,.T.);
#850 = ORIENTED_EDGE('',*,*,#314,.F.);
#851 = CYLINDRICAL_SURFACE('',#852,4.735522705283);
#852 = AXIS2_PLACEMENT_3D('',#853,#854,#855);
#853 = CARTESIAN_POINT('',(16.428276640485,-22.,-48.00951684793));
#854 = DIRECTION('',(0.,1.,0.));
#855 = DIRECTION('',(1.,0.,0.));
#856 = ADVANCED_FACE('',(#857),#873,.F.);
#857 = FACE_BOUND('',#858,.F.);
#858 = EDGE_LOOP('',(#859,#865,#866,#872));
#859 = ORIENTED_EDGE('',*,*,#860,.F.);
#860 = EDGE_CURVE('',#24,#265,#861,.T.);
#861 = LINE('',#862,#863);
#862 = CARTESIAN_POINT('',(16.626582997737,-22.,-8.940188245231));
#863 = VECTOR('',#864,1.);
#864 = DIRECTION('',(0.,1.,0.));
#865 = ORIENTED_EDGE('',*,*,#63,.T.);
#866 = ORIENTED_EDGE('',*,*,#867,.T.);
#867 = EDGE_CURVE('',#56,#267,#868,.T.);
#868 = LINE('',#869,#870);
#869 = CARTESIAN_POINT('',(-5.329070518201E-15,-22.,-8.903751135252));
#870 = VECTOR('',#871,1.);
#871 = DIRECTION('',(0.,1.,0.));
#872 = ORIENTED_EDGE('',*,*,#264,.F.);
#873 = PLANE('',#874);
#874 = AXIS2_PLACEMENT_3D('',#875,#876,#877);
#875 = CARTESIAN_POINT('',(8.237581109188,-22.,-8.921803528809));
#876 = DIRECTION('',(-2.191520817069E-03,0.,-0.999997598615));
#877 = DIRECTION('',(-0.999997598615,0.,2.191520817069E-03));
#878 = ADVANCED_FACE('',(#879),#890,.F.);
#879 = FACE_BOUND('',#880,.F.);
#880 = EDGE_LOOP('',(#881,#887,#888,#889));
#881 = ORIENTED_EDGE('',*,*,#882,.T.);
#882 = EDGE_CURVE('',#48,#299,#883,.T.);
#883 = LINE('',#884,#885);
#884 = CARTESIAN_POINT('',(-21.72552223146,-22.,-8.903751135252));
#885 = VECTOR('',#886,1.);
#886 = DIRECTION('',(0.,1.,0.));
#887 = ORIENTED_EDGE('',*,*,#306,.F.);
#888 = ORIENTED_EDGE('',*,*,#867,.F.);
#889 = ORIENTED_EDGE('',*,*,#55,.T.);
#890 = PLANE('',#891);
#891 = AXIS2_PLACEMENT_3D('',#892,#893,#894);
#892 = CARTESIAN_POINT('',(-10.96276111573,-22.,-8.903751135252));
#893 = DIRECTION('',(0.,0.,-1.));
#894 = DIRECTION('',(0.,1.,0.));
#895 = ADVANCED_FACE('',(#896),#907,.F.);
#896 = FACE_BOUND('',#897,.F.);
#897 = EDGE_LOOP('',(#898,#904,#905,#906));
#898 = ORIENTED_EDGE('',*,*,#899,.T.);
#899 = EDGE_CURVE('',#40,#291,#900,.T.);
#900 = LINE('',#901,#902);
#901 = CARTESIAN_POINT('',(-21.72552223146,-22.,-3.734519760785));
#902 = VECTOR('',#903,1.);
#903 = DIRECTION('',(0.,1.,0.));
#904 = ORIENTED_EDGE('',*,*,#298,.F.);
#905 = ORIENTED_EDGE('',*,*,#882,.F.);
#906 = ORIENTED_EDGE('',*,*,#47,.T.);
#907 = PLANE('',#908);
#908 = AXIS2_PLACEMENT_3D('',#909,#910,#911);
#909 = CARTESIAN_POINT('',(-21.72552223146,-22.,-6.319135448019));
#910 = DIRECTION('',(-1.,0.,0.));
#911 = DIRECTION('',(0.,1.,0.));
#912 = ADVANCED_FACE('',(#913),#924,.F.);
#913 = FACE_BOUND('',#914,.F.);
#914 = EDGE_LOOP('',(#915,#921,#922,#923));
#915 = ORIENTED_EDGE('',*,*,#916,.T.);
#916 = EDGE_CURVE('',#32,#283,#917,.T.);
#917 = LINE('',#918,#919);
#918 = CARTESIAN_POINT('',(22.059435554995,-22.,-3.734519760785));
#919 = VECTOR('',#920,1.);
#920 = DIRECTION('',(0.,1.,0.));
#921 = ORIENTED_EDGE('',*,*,#290,.F.);
#922 = ORIENTED_EDGE('',*,*,#899,.F.);
#923 = ORIENTED_EDGE('',*,*,#39,.T.);
#924 = PLANE('',#925);
#925 = AXIS2_PLACEMENT_3D('',#926,#927,#928);
#926 = CARTESIAN_POINT('',(0.19111316645,-22.,-3.734519760785));
#927 = DIRECTION('',(0.,0.,1.));
#928 = DIRECTION('',(0.,-1.,0.));
#929 = ADVANCED_FACE('',(#930),#941,.F.);
#930 = FACE_BOUND('',#931,.F.);
#931 = EDGE_LOOP('',(#932,#938,#939,#940));
#932 = ORIENTED_EDGE('',*,*,#933,.T.);
#933 = EDGE_CURVE('',#22,#275,#934,.T.);
#934 = LINE('',#935,#936);
#935 = CARTESIAN_POINT('',(19.029295926024,-22.,-17.63009960955));
#936 = VECTOR('',#937,1.);
#937 = DIRECTION('',(0.,1.,0.));
#938 = ORIENTED_EDGE('',*,*,#282,.F.);
#939 = ORIENTED_EDGE('',*,*,#916,.F.);
#940 = ORIENTED_EDGE('',*,*,#31,.T.);
#941 = PLANE('',#942);
#942 = AXIS2_PLACEMENT_3D('',#943,#944,#945);
#943 = CARTESIAN_POINT('',(20.484588228021,-22.,-10.95643672209));
#944 = DIRECTION('',(0.977039526026,0.,-0.213058124893));
#945 = DIRECTION('',(-0.213058124893,0.,-0.977039526026));
#946 = ADVANCED_FACE('',(#947),#953,.F.);
#947 = FACE_BOUND('',#948,.F.);
#948 = EDGE_LOOP('',(#949,#950,#951,#952));
#949 = ORIENTED_EDGE('',*,*,#21,.T.);
#950 = ORIENTED_EDGE('',*,*,#860,.T.);
#951 = ORIENTED_EDGE('',*,*,#274,.F.);
#952 = ORIENTED_EDGE('',*,*,#933,.F.);
#953 = PLANE('',#954);
#954 = AXIS2_PLACEMENT_3D('',#955,#956,#957);
#955 = CARTESIAN_POINT('',(17.956031892536,-22.,-13.7484168618));
#956 = DIRECTION('',(-0.963836182336,0.,-0.26649542889));
#957 = DIRECTION('',(-0.26649542889,0.,0.963836182336));
#958 = ( GEOMETRIC_REPRESENTATION_CONTEXT(3) 
GLOBAL_UNCERTAINTY_ASSIGNED_CONTEXT((#962)) GLOBAL_UNIT_ASSIGNED_CONTEXT
((#959,#960,#961)) REPRESENTATION_CONTEXT('Context #1',
  '3D Context with UNIT and UNCERTAINTY') );
#959 = ( LENGTH_UNIT() NAMED_UNIT(*) SI_UNIT(.MILLI.,.METRE.) );
#960 = ( NAMED_UNIT(*) PLANE_ANGLE_UNIT() SI_UNIT($,.RADIAN.) );
#961 = ( NAMED_UNIT(*) SI_UNIT($,.STERADIAN.) SOLID_ANGLE_UNIT() );
#962 = UNCERTAINTY_MEASURE_WITH_UNIT(LENGTH_MEASURE(1.E-05),#959,
  'distance_accuracy_value','confusion accuracy');
#963 = PRODUCT_RELATED_PRODUCT_CATEGORY('part',$,(#7));
ENDSEC;
END-ISO-10303-21;
