ISO-10303-21;
HEADER;
FILE_DESCRIPTION(('FreeCAD Model'),'2;1');
FILE_NAME('Open CASCADE Shape Model','2026-08-05T11:06:23',('FreeCAD'),(
    'FreeCAD'),'Open CASCADE STEP processor 7.8','FreeCAD','Unknown');
FILE_SCHEMA(('AUTOMOTIVE_DESIGN { 1 0 10303 214 1 1 1 1 }'));
ENDSEC;
DATA;
#1 = APPLICATION_PROTOCOL_DEFINITION('international standard',
  'automotive_design',2000,#2);
#2 = APPLICATION_CONTEXT(
  'core data for automotive mechanical design processes');
#3 = SHAPE_DEFINITION_REPRESENTATION(#4,#10);
#4 = PRODUCT_DEFINITION_SHAPE('','',#5);
#5 = PRODUCT_DEFINITION('design','',#6,#9);
#6 = PRODUCT_DEFINITION_FORMATION('','',#7);
#7 = PRODUCT('Open CASCADE STEP translator 7.8 1',
  'Open CASCADE STEP translator 7.8 1','',(#8));
#8 = PRODUCT_CONTEXT('',#2,'mechanical');
#9 = PRODUCT_DEFINITION_CONTEXT('part definition',#2,'design');
#10 = ADVANCED_BREP_SHAPE_REPRESENTATION('',(#11,#15),#976);
#11 = AXIS2_PLACEMENT_3D('',#12,#13,#14);
#12 = CARTESIAN_POINT('',(0.,0.,0.));
#13 = DIRECTION('',(0.,0.,1.));
#14 = DIRECTION('',(1.,0.,-0.));
#15 = MANIFOLD_SOLID_BREP('',#16);
#16 = CLOSED_SHELL('',(#17,#157,#188,#212,#236,#261,#285,#310,#334,#358,
    #383,#407,#432,#456,#480,#504,#528,#545,#675,#706,#730,#754,#778,
    #802,#819,#850,#866,#882,#894,#919,#944,#958,#967));
#17 = ADVANCED_FACE('',(#18),#152,.T.);
#18 = FACE_BOUND('',#19,.T.);
#19 = EDGE_LOOP('',(#20,#30,#38,#46,#54,#62,#70,#79,#87,#96,#104,#112,
    #121,#129,#138,#146));
#20 = ORIENTED_EDGE('',*,*,#21,.F.);
#21 = EDGE_CURVE('',#22,#24,#26,.T.);
#22 = VERTEX_POINT('',#23);
#23 = CARTESIAN_POINT('',(26.824640127118,20.8572529153,-55.23443461327)
  );
#24 = VERTEX_POINT('',#25);
#25 = CARTESIAN_POINT('',(42.184838000445,20.8572529153,-7.043416644207)
  );
#26 = LINE('',#27,#28);
#27 = CARTESIAN_POINT('',(28.89442018934,20.8572529153,-48.74071565254)
  );
#28 = VECTOR('',#29,1.);
#29 = DIRECTION('',(0.30368282823,0.,0.952773183837));
#30 = ORIENTED_EDGE('',*,*,#31,.F.);
#31 = EDGE_CURVE('',#32,#22,#34,.T.);
#32 = VERTEX_POINT('',#33);
#33 = CARTESIAN_POINT('',(32.56245481215,20.8572529153,-60.7871552419));
#34 = LINE('',#35,#36);
#35 = CARTESIAN_POINT('',(12.092418778801,20.8572529153,-40.97745458223)
  );
#36 = VECTOR('',#37,1.);
#37 = DIRECTION('',(-0.718602345805,0.,0.695421216677));
#38 = ORIENTED_EDGE('',*,*,#39,.F.);
#39 = EDGE_CURVE('',#40,#32,#42,.T.);
#40 = VERTEX_POINT('',#41);
#41 = CARTESIAN_POINT('',(26.712845130625,20.8572529153,-66.83175546171)
  );
#42 = LINE('',#43,#44);
#43 = CARTESIAN_POINT('',(11.149878706433,20.8572529153,-82.91349687528)
  );
#44 = VECTOR('',#45,1.);
#45 = DIRECTION('',(0.695421216677,0.,0.718602345805));
#46 = ORIENTED_EDGE('',*,*,#47,.F.);
#47 = EDGE_CURVE('',#48,#40,#50,.T.);
#48 = VERTEX_POINT('',#49);
#49 = CARTESIAN_POINT('',(20.57248334837,20.8572529153,-60.88947335481)
  );
#50 = LINE('',#51,#52);
#51 = CARTESIAN_POINT('',(9.111716439792,20.8572529153,-49.79841511636)
  );
#52 = VECTOR('',#53,1.);
#53 = DIRECTION('',(0.718602345805,0.,-0.695421216677));
#54 = ORIENTED_EDGE('',*,*,#55,.F.);
#55 = EDGE_CURVE('',#56,#48,#58,.T.);
#56 = VERTEX_POINT('',#57);
#57 = CARTESIAN_POINT('',(-20.57248334837,20.8572529153,-60.88947335481)
  );
#58 = LINE('',#59,#60);
#59 = CARTESIAN_POINT('',(-12.44623571629,20.8572529153,-60.88947335481)
  );
#60 = VECTOR('',#61,1.);
#61 = DIRECTION('',(1.,0.,0.));
#62 = ORIENTED_EDGE('',*,*,#63,.T.);
#63 = EDGE_CURVE('',#56,#64,#66,.T.);
#64 = VERTEX_POINT('',#65);
#65 = CARTESIAN_POINT('',(-25.60006917852,20.8572529153,-65.75487614033)
  );
#66 = LINE('',#67,#68);
#67 = CARTESIAN_POINT('',(-32.03294606502,20.8572529153,-71.98023721416)
  );
#68 = VECTOR('',#69,1.);
#69 = DIRECTION('',(-0.718602345805,0.,-0.695421216677));
#70 = ORIENTED_EDGE('',*,*,#71,.F.);
#71 = EDGE_CURVE('',#72,#64,#74,.T.);
#72 = VERTEX_POINT('',#73);
#73 = CARTESIAN_POINT('',(-27.78972445201,20.8572529153,-65.71897950961)
  );
#74 = CIRCLE('',#75,1.548528137424);
#75 = AXIS2_PLACEMENT_3D('',#76,#77,#78);
#76 = CARTESIAN_POINT('',(-26.67694849991,20.8572529153,-64.64210018823)
  );
#77 = DIRECTION('',(0.,-1.,0.));
#78 = DIRECTION('',(1.,0.,0.));
#79 = ORIENTED_EDGE('',*,*,#80,.T.);
#80 = EDGE_CURVE('',#72,#81,#83,.T.);
#81 = VERTEX_POINT('',#82);
#82 = CARTESIAN_POINT('',(-29.01580660709,20.8572529153,-64.4520272055)
  );
#83 = LINE('',#84,#85);
#84 = CARTESIAN_POINT('',(-31.36389178357,20.8572529153,-62.02567109858)
  );
#85 = VECTOR('',#86,1.);
#86 = DIRECTION('',(-0.695421216677,0.,0.718602345805));
#87 = ORIENTED_EDGE('',*,*,#88,.F.);
#88 = EDGE_CURVE('',#89,#81,#91,.T.);
#89 = VERTEX_POINT('',#90);
#90 = CARTESIAN_POINT('',(-28.89758284854,20.8572529153,-57.24050703685)
  );
#91 = CIRCLE('',#92,5.1);
#92 = AXIS2_PLACEMENT_3D('',#93,#94,#95);
#93 = CARTESIAN_POINT('',(-25.35093464349,20.8572529153,-60.90537900045)
  );
#94 = DIRECTION('',(0.,-1.,0.));
#95 = DIRECTION('',(1.,0.,0.));
#96 = ORIENTED_EDGE('',*,*,#97,.T.);
#97 = EDGE_CURVE('',#89,#98,#100,.T.);
#98 = VERTEX_POINT('',#99);
#99 = CARTESIAN_POINT('',(-26.82464012711,20.8572529153,-55.23443461327)
  );
#100 = LINE('',#101,#102);
#101 = CARTESIAN_POINT('',(-35.57003638008,20.8572529153,-63.69771634073
    ));
#102 = VECTOR('',#103,1.);
#103 = DIRECTION('',(0.718602345805,0.,0.695421216677));
#104 = ORIENTED_EDGE('',*,*,#105,.T.);
#105 = EDGE_CURVE('',#98,#106,#108,.T.);
#106 = VERTEX_POINT('',#107);
#107 = CARTESIAN_POINT('',(-41.08376419406,20.8572529153,-10.49792081311
    ));
#108 = LINE('',#109,#110);
#109 = CARTESIAN_POINT('',(-32.53680963915,20.8572529153,-37.31309884227
    ));
#110 = VECTOR('',#111,1.);
#111 = DIRECTION('',(-0.30368282823,0.,0.952773183837));
#112 = ORIENTED_EDGE('',*,*,#113,.F.);
#113 = EDGE_CURVE('',#114,#106,#116,.T.);
#114 = VERTEX_POINT('',#115);
#115 = CARTESIAN_POINT('',(-39.62105538679,20.8572529153,-4.479634030555
    ));
#116 = CIRCLE('',#117,5.954044962965);
#117 = AXIS2_PLACEMENT_3D('',#118,#119,#120);
#118 = CARTESIAN_POINT('',(-35.41090981799,20.8572529153,-8.689779599357
    ));
#119 = DIRECTION('',(0.,-1.,0.));
#120 = DIRECTION('',(1.,0.,0.));
#121 = ORIENTED_EDGE('',*,*,#122,.T.);
#122 = EDGE_CURVE('',#114,#123,#125,.T.);
#123 = VERTEX_POINT('',#124);
#124 = CARTESIAN_POINT('',(-36.7853207504,20.8572529153,-1.643899394163)
  );
#125 = LINE('',#126,#127);
#126 = CARTESIAN_POINT('',(-56.28754386398,20.8572529153,-21.14612250775
    ));
#127 = VECTOR('',#128,1.);
#128 = DIRECTION('',(0.707106781187,0.,0.707106781187));
#129 = ORIENTED_EDGE('',*,*,#130,.F.);
#130 = EDGE_CURVE('',#131,#123,#133,.T.);
#131 = VERTEX_POINT('',#132);
#132 = CARTESIAN_POINT('',(-32.57517518159,20.8572529153,
    9.999999999998E-02));
#133 = CIRCLE('',#134,5.954044962965);
#134 = AXIS2_PLACEMENT_3D('',#135,#136,#137);
#135 = CARTESIAN_POINT('',(-32.57517518159,20.8572529153,-5.854044962965
    ));
#136 = DIRECTION('',(0.,-1.,0.));
#137 = DIRECTION('',(1.,0.,0.));
#138 = ORIENTED_EDGE('',*,*,#139,.T.);
#139 = EDGE_CURVE('',#131,#140,#142,.T.);
#140 = VERTEX_POINT('',#141);
#141 = CARTESIAN_POINT('',(35.041421356237,20.8572529153,0.1));
#142 = LINE('',#143,#144);
#143 = CARTESIAN_POINT('',(-5.211766712356,20.8572529153,0.1));
#144 = VECTOR('',#145,1.);
#145 = DIRECTION('',(1.,0.,0.));
#146 = ORIENTED_EDGE('',*,*,#147,.F.);
#147 = EDGE_CURVE('',#24,#140,#148,.T.);
#148 = LINE('',#149,#150);
#149 = CARTESIAN_POINT('',(32.68311677643,20.8572529153,2.458304579807)
  );
#150 = VECTOR('',#151,1.);
#151 = DIRECTION('',(-0.707106781187,0.,0.707106781187));
#152 = PLANE('',#153);
#153 = AXIS2_PLACEMENT_3D('',#154,#155,#156);
#154 = CARTESIAN_POINT('',(-45.46495478095,20.8572529153,-70.97315781796
    ));
#155 = DIRECTION('',(0.,1.,0.));
#156 = DIRECTION('',(0.,0.,1.));
#157 = ADVANCED_FACE('',(#158),#183,.F.);
#158 = FACE_BOUND('',#159,.F.);
#159 = EDGE_LOOP('',(#160,#170,#176,#177));
#160 = ORIENTED_EDGE('',*,*,#161,.T.);
#161 = EDGE_CURVE('',#162,#164,#166,.T.);
#162 = VERTEX_POINT('',#163);
#163 = CARTESIAN_POINT('',(26.824640127118,3.2,-55.23443461327));
#164 = VERTEX_POINT('',#165);
#165 = CARTESIAN_POINT('',(42.184838000445,3.2,-7.043416644207));
#166 = LINE('',#167,#168);
#167 = CARTESIAN_POINT('',(36.45312509682,3.2,-25.02606776693));
#168 = VECTOR('',#169,1.);
#169 = DIRECTION('',(0.30368282823,0.,0.952773183837));
#170 = ORIENTED_EDGE('',*,*,#171,.T.);
#171 = EDGE_CURVE('',#164,#24,#172,.T.);
#172 = LINE('',#173,#174);
#173 = CARTESIAN_POINT('',(42.184838000445,-5.,-7.043416644207));
#174 = VECTOR('',#175,1.);
#175 = DIRECTION('',(0.,1.,0.));
#176 = ORIENTED_EDGE('',*,*,#21,.F.);
#177 = ORIENTED_EDGE('',*,*,#178,.F.);
#178 = EDGE_CURVE('',#162,#22,#179,.T.);
#179 = LINE('',#180,#181);
#180 = CARTESIAN_POINT('',(26.824640127118,-5.,-55.23443461327));
#181 = VECTOR('',#182,1.);
#182 = DIRECTION('',(0.,1.,0.));
#183 = PLANE('',#184);
#184 = AXIS2_PLACEMENT_3D('',#185,#186,#187);
#185 = CARTESIAN_POINT('',(42.184838000445,-5.,-7.043416644207));
#186 = DIRECTION('',(-0.952773183837,0.,0.30368282823));
#187 = DIRECTION('',(-0.30368282823,0.,-0.952773183837));
#188 = ADVANCED_FACE('',(#189),#207,.F.);
#189 = FACE_BOUND('',#190,.F.);
#190 = EDGE_LOOP('',(#191,#199,#205,#206));
#191 = ORIENTED_EDGE('',*,*,#192,.T.);
#192 = EDGE_CURVE('',#164,#193,#195,.T.);
#193 = VERTEX_POINT('',#194);
#194 = CARTESIAN_POINT('',(35.041421356237,3.2,0.1));
#195 = LINE('',#196,#197);
#196 = CARTESIAN_POINT('',(34.743124284224,3.2,0.398297072013));
#197 = VECTOR('',#198,1.);
#198 = DIRECTION('',(-0.707106781187,0.,0.707106781187));
#199 = ORIENTED_EDGE('',*,*,#200,.T.);
#200 = EDGE_CURVE('',#193,#140,#201,.T.);
#201 = LINE('',#202,#203);
#202 = CARTESIAN_POINT('',(35.041421356237,-5.,0.1));
#203 = VECTOR('',#204,1.);
#204 = DIRECTION('',(0.,1.,0.));
#205 = ORIENTED_EDGE('',*,*,#147,.F.);
#206 = ORIENTED_EDGE('',*,*,#171,.F.);
#207 = PLANE('',#208);
#208 = AXIS2_PLACEMENT_3D('',#209,#210,#211);
#209 = CARTESIAN_POINT('',(35.041421356237,-5.,9.999999999998E-02));
#210 = DIRECTION('',(-0.707106781187,0.,-0.707106781187));
#211 = DIRECTION('',(0.707106781187,0.,-0.707106781187));
#212 = ADVANCED_FACE('',(#213),#231,.T.);
#213 = FACE_BOUND('',#214,.T.);
#214 = EDGE_LOOP('',(#215,#223,#224,#225));
#215 = ORIENTED_EDGE('',*,*,#216,.T.);
#216 = EDGE_CURVE('',#217,#193,#219,.T.);
#217 = VERTEX_POINT('',#218);
#218 = CARTESIAN_POINT('',(-32.57517518159,3.2,9.999999999998E-02));
#219 = LINE('',#220,#221);
#220 = CARTESIAN_POINT('',(17.722238935846,3.2,0.1));
#221 = VECTOR('',#222,1.);
#222 = DIRECTION('',(1.,0.,0.));
#223 = ORIENTED_EDGE('',*,*,#200,.T.);
#224 = ORIENTED_EDGE('',*,*,#139,.F.);
#225 = ORIENTED_EDGE('',*,*,#226,.F.);
#226 = EDGE_CURVE('',#217,#131,#227,.T.);
#227 = LINE('',#228,#229);
#228 = CARTESIAN_POINT('',(-32.57517518159,-5.,9.999999999998E-02));
#229 = VECTOR('',#230,1.);
#230 = DIRECTION('',(0.,1.,0.));
#231 = PLANE('',#232);
#232 = AXIS2_PLACEMENT_3D('',#233,#234,#235);
#233 = CARTESIAN_POINT('',(35.041421356237,-5.,0.1));
#234 = DIRECTION('',(0.,0.,1.));
#235 = DIRECTION('',(-1.,0.,0.));
#236 = ADVANCED_FACE('',(#237),#256,.T.);
#237 = FACE_BOUND('',#238,.F.);
#238 = EDGE_LOOP('',(#239,#248,#254,#255));
#239 = ORIENTED_EDGE('',*,*,#240,.T.);
#240 = EDGE_CURVE('',#217,#241,#243,.T.);
#241 = VERTEX_POINT('',#242);
#242 = CARTESIAN_POINT('',(-36.7853207504,3.2,-1.643899394163));
#243 = CIRCLE('',#244,5.954044962965);
#244 = AXIS2_PLACEMENT_3D('',#245,#246,#247);
#245 = CARTESIAN_POINT('',(-32.57517518159,3.2,-5.854044962965));
#246 = DIRECTION('',(0.,-1.,0.));
#247 = DIRECTION('',(1.,0.,0.));
#248 = ORIENTED_EDGE('',*,*,#249,.T.);
#249 = EDGE_CURVE('',#241,#123,#250,.T.);
#250 = LINE('',#251,#252);
#251 = CARTESIAN_POINT('',(-36.7853207504,-5.,-1.643899394163));
#252 = VECTOR('',#253,1.);
#253 = DIRECTION('',(0.,1.,0.));
#254 = ORIENTED_EDGE('',*,*,#130,.F.);
#255 = ORIENTED_EDGE('',*,*,#226,.F.);
#256 = CYLINDRICAL_SURFACE('',#257,5.954044962965);
#257 = AXIS2_PLACEMENT_3D('',#258,#259,#260);
#258 = CARTESIAN_POINT('',(-32.57517518159,-5.,-5.854044962965));
#259 = DIRECTION('',(0.,-1.,0.));
#260 = DIRECTION('',(1.,0.,0.));
#261 = ADVANCED_FACE('',(#262),#280,.T.);
#262 = FACE_BOUND('',#263,.T.);
#263 = EDGE_LOOP('',(#264,#272,#273,#274));
#264 = ORIENTED_EDGE('',*,*,#265,.T.);
#265 = EDGE_CURVE('',#266,#241,#268,.T.);
#266 = VERTEX_POINT('',#267);
#267 = CARTESIAN_POINT('',(-39.62105538679,3.2,-4.479634030555));
#268 = LINE('',#269,#270);
#269 = CARTESIAN_POINT('',(-35.41354572357,3.2,-0.272124367341));
#270 = VECTOR('',#271,1.);
#271 = DIRECTION('',(0.707106781187,0.,0.707106781187));
#272 = ORIENTED_EDGE('',*,*,#249,.T.);
#273 = ORIENTED_EDGE('',*,*,#122,.F.);
#274 = ORIENTED_EDGE('',*,*,#275,.F.);
#275 = EDGE_CURVE('',#266,#114,#276,.T.);
#276 = LINE('',#277,#278);
#277 = CARTESIAN_POINT('',(-39.62105538679,-5.,-4.479634030555));
#278 = VECTOR('',#279,1.);
#279 = DIRECTION('',(0.,1.,0.));
#280 = PLANE('',#281);
#281 = AXIS2_PLACEMENT_3D('',#282,#283,#284);
#282 = CARTESIAN_POINT('',(-36.7853207504,-5.,-1.643899394163));
#283 = DIRECTION('',(-0.707106781187,0.,0.707106781187));
#284 = DIRECTION('',(-0.707106781187,0.,-0.707106781187));
#285 = ADVANCED_FACE('',(#286),#305,.T.);
#286 = FACE_BOUND('',#287,.F.);
#287 = EDGE_LOOP('',(#288,#297,#303,#304));
#288 = ORIENTED_EDGE('',*,*,#289,.T.);
#289 = EDGE_CURVE('',#266,#290,#292,.T.);
#290 = VERTEX_POINT('',#291);
#291 = CARTESIAN_POINT('',(-41.08376419406,3.2,-10.49792081311));
#292 = CIRCLE('',#293,5.954044962965);
#293 = AXIS2_PLACEMENT_3D('',#294,#295,#296);
#294 = CARTESIAN_POINT('',(-35.41090981799,3.2,-8.689779599357));
#295 = DIRECTION('',(0.,-1.,0.));
#296 = DIRECTION('',(1.,0.,0.));
#297 = ORIENTED_EDGE('',*,*,#298,.T.);
#298 = EDGE_CURVE('',#290,#106,#299,.T.);
#299 = LINE('',#300,#301);
#300 = CARTESIAN_POINT('',(-41.08376419406,-5.,-10.49792081311));
#301 = VECTOR('',#302,1.);
#302 = DIRECTION('',(0.,1.,0.));
#303 = ORIENTED_EDGE('',*,*,#113,.F.);
#304 = ORIENTED_EDGE('',*,*,#275,.F.);
#305 = CYLINDRICAL_SURFACE('',#306,5.954044962965);
#306 = AXIS2_PLACEMENT_3D('',#307,#308,#309);
#307 = CARTESIAN_POINT('',(-35.41090981799,-5.,-8.689779599357));
#308 = DIRECTION('',(0.,-1.,0.));
#309 = DIRECTION('',(1.,0.,0.));
#310 = ADVANCED_FACE('',(#311),#329,.T.);
#311 = FACE_BOUND('',#312,.T.);
#312 = EDGE_LOOP('',(#313,#321,#322,#323));
#313 = ORIENTED_EDGE('',*,*,#314,.T.);
#314 = EDGE_CURVE('',#315,#290,#317,.T.);
#315 = VERTEX_POINT('',#316);
#316 = CARTESIAN_POINT('',(-26.82464012711,3.2,-55.23443461327));
#317 = LINE('',#318,#319);
#318 = CARTESIAN_POINT('',(-35.86541700774,3.2,-26.86994056823));
#319 = VECTOR('',#320,1.);
#320 = DIRECTION('',(-0.30368282823,0.,0.952773183837));
#321 = ORIENTED_EDGE('',*,*,#298,.T.);
#322 = ORIENTED_EDGE('',*,*,#105,.F.);
#323 = ORIENTED_EDGE('',*,*,#324,.F.);
#324 = EDGE_CURVE('',#315,#98,#325,.T.);
#325 = LINE('',#326,#327);
#326 = CARTESIAN_POINT('',(-26.82464012711,-5.,-55.23443461327));
#327 = VECTOR('',#328,1.);
#328 = DIRECTION('',(0.,1.,0.));
#329 = PLANE('',#330);
#330 = AXIS2_PLACEMENT_3D('',#331,#332,#333);
#331 = CARTESIAN_POINT('',(-41.08376419406,-5.,-10.49792081311));
#332 = DIRECTION('',(-0.952773183837,0.,-0.30368282823));
#333 = DIRECTION('',(0.30368282823,0.,-0.952773183837));
#334 = ADVANCED_FACE('',(#335),#353,.T.);
#335 = FACE_BOUND('',#336,.T.);
#336 = EDGE_LOOP('',(#337,#345,#346,#347));
#337 = ORIENTED_EDGE('',*,*,#338,.T.);
#338 = EDGE_CURVE('',#339,#315,#341,.T.);
#339 = VERTEX_POINT('',#340);
#340 = CARTESIAN_POINT('',(-28.89758284854,3.2,-57.24050703685));
#341 = LINE('',#342,#343);
#342 = CARTESIAN_POINT('',(-14.32522020853,3.2,-43.13822889076));
#343 = VECTOR('',#344,1.);
#344 = DIRECTION('',(0.718602345805,0.,0.695421216677));
#345 = ORIENTED_EDGE('',*,*,#324,.T.);
#346 = ORIENTED_EDGE('',*,*,#97,.F.);
#347 = ORIENTED_EDGE('',*,*,#348,.F.);
#348 = EDGE_CURVE('',#339,#89,#349,.T.);
#349 = LINE('',#350,#351);
#350 = CARTESIAN_POINT('',(-28.89758284854,-5.,-57.24050703685));
#351 = VECTOR('',#352,1.);
#352 = DIRECTION('',(0.,1.,0.));
#353 = PLANE('',#354);
#354 = AXIS2_PLACEMENT_3D('',#355,#356,#357);
#355 = CARTESIAN_POINT('',(-26.82464012711,-5.,-55.23443461327));
#356 = DIRECTION('',(-0.695421216677,0.,0.718602345805));
#357 = DIRECTION('',(-0.718602345805,0.,-0.695421216677));
#358 = ADVANCED_FACE('',(#359),#378,.T.);
#359 = FACE_BOUND('',#360,.F.);
#360 = EDGE_LOOP('',(#361,#370,#376,#377));
#361 = ORIENTED_EDGE('',*,*,#362,.T.);
#362 = EDGE_CURVE('',#339,#363,#365,.T.);
#363 = VERTEX_POINT('',#364);
#364 = CARTESIAN_POINT('',(-29.01580660709,3.2,-64.4520272055));
#365 = CIRCLE('',#366,5.1);
#366 = AXIS2_PLACEMENT_3D('',#367,#368,#369);
#367 = CARTESIAN_POINT('',(-25.35093464349,3.2,-60.90537900045));
#368 = DIRECTION('',(0.,-1.,0.));
#369 = DIRECTION('',(1.,0.,0.));
#370 = ORIENTED_EDGE('',*,*,#371,.T.);
#371 = EDGE_CURVE('',#363,#81,#372,.T.);
#372 = LINE('',#373,#374);
#373 = CARTESIAN_POINT('',(-29.01580660709,-5.,-64.4520272055));
#374 = VECTOR('',#375,1.);
#375 = DIRECTION('',(0.,1.,0.));
#376 = ORIENTED_EDGE('',*,*,#88,.F.);
#377 = ORIENTED_EDGE('',*,*,#348,.F.);
#378 = CYLINDRICAL_SURFACE('',#379,5.1);
#379 = AXIS2_PLACEMENT_3D('',#380,#381,#382);
#380 = CARTESIAN_POINT('',(-25.35093464349,-5.,-60.90537900045));
#381 = DIRECTION('',(0.,-1.,0.));
#382 = DIRECTION('',(1.,0.,0.));
#383 = ADVANCED_FACE('',(#384),#402,.T.);
#384 = FACE_BOUND('',#385,.T.);
#385 = EDGE_LOOP('',(#386,#394,#395,#396));
#386 = ORIENTED_EDGE('',*,*,#387,.T.);
#387 = EDGE_CURVE('',#388,#363,#390,.T.);
#388 = VERTEX_POINT('',#389);
#389 = CARTESIAN_POINT('',(-27.78972445201,3.2,-65.71897950961));
#390 = LINE('',#391,#392);
#391 = CARTESIAN_POINT('',(-29.67470230692,3.2,-63.77116791594));
#392 = VECTOR('',#393,1.);
#393 = DIRECTION('',(-0.695421216677,0.,0.718602345805));
#394 = ORIENTED_EDGE('',*,*,#371,.T.);
#395 = ORIENTED_EDGE('',*,*,#80,.F.);
#396 = ORIENTED_EDGE('',*,*,#397,.F.);
#397 = EDGE_CURVE('',#388,#72,#398,.T.);
#398 = LINE('',#399,#400);
#399 = CARTESIAN_POINT('',(-27.78972445201,-5.,-65.71897950961));
#400 = VECTOR('',#401,1.);
#401 = DIRECTION('',(0.,1.,0.));
#402 = PLANE('',#403);
#403 = AXIS2_PLACEMENT_3D('',#404,#405,#406);
#404 = CARTESIAN_POINT('',(-29.01580660709,-5.,-64.4520272055));
#405 = DIRECTION('',(-0.718602345805,0.,-0.695421216677));
#406 = DIRECTION('',(0.695421216677,0.,-0.718602345805));
#407 = ADVANCED_FACE('',(#408),#427,.T.);
#408 = FACE_BOUND('',#409,.F.);
#409 = EDGE_LOOP('',(#410,#419,#425,#426));
#410 = ORIENTED_EDGE('',*,*,#411,.T.);
#411 = EDGE_CURVE('',#388,#412,#414,.T.);
#412 = VERTEX_POINT('',#413);
#413 = CARTESIAN_POINT('',(-25.60006917852,3.2,-65.75487614033));
#414 = CIRCLE('',#415,1.548528137424);
#415 = AXIS2_PLACEMENT_3D('',#416,#417,#418);
#416 = CARTESIAN_POINT('',(-26.67694849991,3.2,-64.64210018823));
#417 = DIRECTION('',(0.,-1.,0.));
#418 = DIRECTION('',(1.,0.,0.));
#419 = ORIENTED_EDGE('',*,*,#420,.T.);
#420 = EDGE_CURVE('',#412,#64,#421,.T.);
#421 = LINE('',#422,#423);
#422 = CARTESIAN_POINT('',(-25.60006917852,-5.,-65.75487614033));
#423 = VECTOR('',#424,1.);
#424 = DIRECTION('',(0.,1.,0.));
#425 = ORIENTED_EDGE('',*,*,#71,.F.);
#426 = ORIENTED_EDGE('',*,*,#397,.F.);
#427 = CYLINDRICAL_SURFACE('',#428,1.548528137424);
#428 = AXIS2_PLACEMENT_3D('',#429,#430,#431);
#429 = CARTESIAN_POINT('',(-26.67694849991,-5.,-64.64210018823));
#430 = DIRECTION('',(0.,-1.,0.));
#431 = DIRECTION('',(1.,0.,0.));
#432 = ADVANCED_FACE('',(#433),#451,.T.);
#433 = FACE_BOUND('',#434,.T.);
#434 = EDGE_LOOP('',(#435,#443,#444,#445));
#435 = ORIENTED_EDGE('',*,*,#436,.T.);
#436 = EDGE_CURVE('',#437,#412,#439,.T.);
#437 = VERTEX_POINT('',#438);
#438 = CARTESIAN_POINT('',(-20.57248334837,3.2,-60.88947335481));
#439 = LINE('',#440,#441);
#440 = CARTESIAN_POINT('',(-10.78812989347,3.2,-51.42074976419));
#441 = VECTOR('',#442,1.);
#442 = DIRECTION('',(-0.718602345805,0.,-0.695421216677));
#443 = ORIENTED_EDGE('',*,*,#420,.T.);
#444 = ORIENTED_EDGE('',*,*,#63,.F.);
#445 = ORIENTED_EDGE('',*,*,#446,.F.);
#446 = EDGE_CURVE('',#437,#56,#447,.T.);
#447 = LINE('',#448,#449);
#448 = CARTESIAN_POINT('',(-20.57248334837,-5.,-60.88947335481));
#449 = VECTOR('',#450,1.);
#450 = DIRECTION('',(0.,1.,0.));
#451 = PLANE('',#452);
#452 = AXIS2_PLACEMENT_3D('',#453,#454,#455);
#453 = CARTESIAN_POINT('',(-25.60006917852,-5.,-65.75487614033));
#454 = DIRECTION('',(0.695421216677,0.,-0.718602345805));
#455 = DIRECTION('',(0.718602345805,0.,0.695421216677));
#456 = ADVANCED_FACE('',(#457),#475,.F.);
#457 = FACE_BOUND('',#458,.F.);
#458 = EDGE_LOOP('',(#459,#467,#473,#474));
#459 = ORIENTED_EDGE('',*,*,#460,.T.);
#460 = EDGE_CURVE('',#437,#461,#463,.T.);
#461 = VERTEX_POINT('',#462);
#462 = CARTESIAN_POINT('',(20.57248334837,3.2,-60.88947335481));
#463 = LINE('',#464,#465);
#464 = CARTESIAN_POINT('',(10.487769931912,3.2,-60.88947335481));
#465 = VECTOR('',#466,1.);
#466 = DIRECTION('',(1.,0.,0.));
#467 = ORIENTED_EDGE('',*,*,#468,.T.);
#468 = EDGE_CURVE('',#461,#48,#469,.T.);
#469 = LINE('',#470,#471);
#470 = CARTESIAN_POINT('',(20.57248334837,-5.,-60.88947335481));
#471 = VECTOR('',#472,1.);
#472 = DIRECTION('',(0.,1.,0.));
#473 = ORIENTED_EDGE('',*,*,#55,.F.);
#474 = ORIENTED_EDGE('',*,*,#446,.F.);
#475 = PLANE('',#476);
#476 = AXIS2_PLACEMENT_3D('',#477,#478,#479);
#477 = CARTESIAN_POINT('',(20.57248334837,-5.,-60.88947335481));
#478 = DIRECTION('',(0.,0.,1.));
#479 = DIRECTION('',(-1.,0.,0.));
#480 = ADVANCED_FACE('',(#481),#499,.F.);
#481 = FACE_BOUND('',#482,.F.);
#482 = EDGE_LOOP('',(#483,#491,#497,#498));
#483 = ORIENTED_EDGE('',*,*,#484,.T.);
#484 = EDGE_CURVE('',#461,#485,#487,.T.);
#485 = VERTEX_POINT('',#486);
#486 = CARTESIAN_POINT('',(26.712845130625,3.2,-66.83175546171));
#487 = LINE('',#488,#489);
#488 = CARTESIAN_POINT('',(11.552651954056,3.2,-52.16060938843));
#489 = VECTOR('',#490,1.);
#490 = DIRECTION('',(0.718602345805,0.,-0.695421216677));
#491 = ORIENTED_EDGE('',*,*,#492,.T.);
#492 = EDGE_CURVE('',#485,#40,#493,.T.);
#493 = LINE('',#494,#495);
#494 = CARTESIAN_POINT('',(26.712845130625,-5.,-66.83175546171));
#495 = VECTOR('',#496,1.);
#496 = DIRECTION('',(0.,1.,0.));
#497 = ORIENTED_EDGE('',*,*,#47,.F.);
#498 = ORIENTED_EDGE('',*,*,#468,.F.);
#499 = PLANE('',#500);
#500 = AXIS2_PLACEMENT_3D('',#501,#502,#503);
#501 = CARTESIAN_POINT('',(26.712845130625,-5.,-66.83175546171));
#502 = DIRECTION('',(0.695421216677,0.,0.718602345805));
#503 = DIRECTION('',(-0.718602345805,0.,0.695421216677));
#504 = ADVANCED_FACE('',(#505),#523,.F.);
#505 = FACE_BOUND('',#506,.F.);
#506 = EDGE_LOOP('',(#507,#515,#521,#522));
#507 = ORIENTED_EDGE('',*,*,#508,.T.);
#508 = EDGE_CURVE('',#485,#509,#511,.T.);
#509 = VERTEX_POINT('',#510);
#510 = CARTESIAN_POINT('',(32.56245481215,3.2,-60.7871552419));
#511 = LINE('',#512,#513);
#512 = CARTESIAN_POINT('',(31.642948840372,3.2,-61.73731197059));
#513 = VECTOR('',#514,1.);
#514 = DIRECTION('',(0.695421216677,0.,0.718602345805));
#515 = ORIENTED_EDGE('',*,*,#516,.T.);
#516 = EDGE_CURVE('',#509,#32,#517,.T.);
#517 = LINE('',#518,#519);
#518 = CARTESIAN_POINT('',(32.56245481215,-5.,-60.7871552419));
#519 = VECTOR('',#520,1.);
#520 = DIRECTION('',(0.,1.,0.));
#521 = ORIENTED_EDGE('',*,*,#39,.F.);
#522 = ORIENTED_EDGE('',*,*,#492,.F.);
#523 = PLANE('',#524);
#524 = AXIS2_PLACEMENT_3D('',#525,#526,#527);
#525 = CARTESIAN_POINT('',(32.56245481215,-5.,-60.7871552419));
#526 = DIRECTION('',(-0.718602345805,0.,0.695421216677));
#527 = DIRECTION('',(-0.695421216677,0.,-0.718602345805));
#528 = ADVANCED_FACE('',(#529),#540,.F.);
#529 = FACE_BOUND('',#530,.F.);
#530 = EDGE_LOOP('',(#531,#537,#538,#539));
#531 = ORIENTED_EDGE('',*,*,#532,.T.);
#532 = EDGE_CURVE('',#509,#162,#533,.T.);
#533 = LINE('',#534,#535);
#534 = CARTESIAN_POINT('',(14.533354293065,3.2,-43.3396488543));
#535 = VECTOR('',#536,1.);
#536 = DIRECTION('',(-0.718602345805,0.,0.695421216677));
#537 = ORIENTED_EDGE('',*,*,#178,.T.);
#538 = ORIENTED_EDGE('',*,*,#31,.F.);
#539 = ORIENTED_EDGE('',*,*,#516,.F.);
#540 = PLANE('',#541);
#541 = AXIS2_PLACEMENT_3D('',#542,#543,#544);
#542 = CARTESIAN_POINT('',(26.824640127118,-5.,-55.23443461327));
#543 = DIRECTION('',(-0.695421216677,0.,-0.718602345805));
#544 = DIRECTION('',(0.718602345805,0.,-0.695421216677));
#545 = ADVANCED_FACE('',(#546,#564,#614,#648,#659),#670,.F.);
#546 = FACE_BOUND('',#547,.F.);
#547 = EDGE_LOOP('',(#548,#549,#550,#551,#552,#553,#554,#555,#556,#557,
    #558,#559,#560,#561,#562,#563));
#548 = ORIENTED_EDGE('',*,*,#161,.F.);
#549 = ORIENTED_EDGE('',*,*,#532,.F.);
#550 = ORIENTED_EDGE('',*,*,#508,.F.);
#551 = ORIENTED_EDGE('',*,*,#484,.F.);
#552 = ORIENTED_EDGE('',*,*,#460,.F.);
#553 = ORIENTED_EDGE('',*,*,#436,.T.);
#554 = ORIENTED_EDGE('',*,*,#411,.F.);
#555 = ORIENTED_EDGE('',*,*,#387,.T.);
#556 = ORIENTED_EDGE('',*,*,#362,.F.);
#557 = ORIENTED_EDGE('',*,*,#338,.T.);
#558 = ORIENTED_EDGE('',*,*,#314,.T.);
#559 = ORIENTED_EDGE('',*,*,#289,.F.);
#560 = ORIENTED_EDGE('',*,*,#265,.T.);
#561 = ORIENTED_EDGE('',*,*,#240,.F.);
#562 = ORIENTED_EDGE('',*,*,#216,.T.);
#563 = ORIENTED_EDGE('',*,*,#192,.F.);
#564 = FACE_BOUND('',#565,.F.);
#565 = EDGE_LOOP('',(#566,#576,#584,#592,#600,#608));
#566 = ORIENTED_EDGE('',*,*,#567,.F.);
#567 = EDGE_CURVE('',#568,#570,#572,.T.);
#568 = VERTEX_POINT('',#569);
#569 = CARTESIAN_POINT('',(16.626582997737,3.2,-8.940188245231));
#570 = VERTEX_POINT('',#571);
#571 = CARTESIAN_POINT('',(4.383041634064E-04,3.2,-8.903751615529));
#572 = LINE('',#573,#574);
#573 = CARTESIAN_POINT('',(4.347099726942,3.2,-8.913277437397));
#574 = VECTOR('',#575,1.);
#575 = DIRECTION('',(-0.999997598615,0.,2.19152081707E-03));
#576 = ORIENTED_EDGE('',*,*,#577,.F.);
#577 = EDGE_CURVE('',#578,#568,#580,.T.);
#578 = VERTEX_POINT('',#579);
#579 = CARTESIAN_POINT('',(19.029295926024,3.2,-17.63009960955));
#580 = LINE('',#581,#582);
#581 = CARTESIAN_POINT('',(19.849519003668,3.2,-20.59660707692));
#582 = VECTOR('',#583,1.);
#583 = DIRECTION('',(-0.26649542889,0.,0.963836182336));
#584 = ORIENTED_EDGE('',*,*,#585,.F.);
#585 = EDGE_CURVE('',#586,#578,#588,.T.);
#586 = VERTEX_POINT('',#587);
#587 = CARTESIAN_POINT('',(22.059435554995,3.2,-3.734519760785));
#588 = LINE('',#589,#590);
#589 = CARTESIAN_POINT('',(17.698510515043,3.2,-23.73280021221));
#590 = VECTOR('',#591,1.);
#591 = DIRECTION('',(-0.213058124893,0.,-0.977039526026));
#592 = ORIENTED_EDGE('',*,*,#593,.F.);
#593 = EDGE_CURVE('',#594,#586,#596,.T.);
#594 = VERTEX_POINT('',#595);
#595 = CARTESIAN_POINT('',(-21.72552223146,3.2,-3.734519760785));
#596 = LINE('',#597,#598);
#597 = CARTESIAN_POINT('',(0.297084840953,3.2,-3.734519760785));
#598 = VECTOR('',#599,1.);
#599 = DIRECTION('',(1.,0.,0.));
#600 = ORIENTED_EDGE('',*,*,#601,.F.);
#601 = EDGE_CURVE('',#602,#594,#604,.T.);
#602 = VERTEX_POINT('',#603);
#603 = CARTESIAN_POINT('',(-21.72552223146,3.2,-8.903751135252));
#604 = LINE('',#605,#606);
#605 = CARTESIAN_POINT('',(-21.72552223146,3.2,-19.83215600037));
#606 = VECTOR('',#607,1.);
#607 = DIRECTION('',(0.,0.,1.));
#608 = ORIENTED_EDGE('',*,*,#609,.F.);
#609 = EDGE_CURVE('',#570,#602,#610,.T.);
#610 = LINE('',#611,#612);
#611 = CARTESIAN_POINT('',(-5.279852300138,3.2,-8.903751135252));
#612 = VECTOR('',#613,1.);
#613 = DIRECTION('',(-1.,0.,0.));
#614 = FACE_BOUND('',#615,.F.);
#615 = EDGE_LOOP('',(#616,#626,#634,#642));
#616 = ORIENTED_EDGE('',*,*,#617,.F.);
#617 = EDGE_CURVE('',#618,#620,#622,.T.);
#618 = VERTEX_POINT('',#619);
#619 = CARTESIAN_POINT('',(5.809375885494,3.2,-13.06417917474));
#620 = VERTEX_POINT('',#621);
#621 = CARTESIAN_POINT('',(2.688069798796,3.2,-49.64588621989));
#622 = LINE('',#623,#624);
#623 = CARTESIAN_POINT('',(4.914157977861,3.2,-23.55613296875));
#624 = VECTOR('',#625,1.);
#625 = DIRECTION('',(-8.501532861638E-02,0.,-0.996379643459));
#626 = ORIENTED_EDGE('',*,*,#627,.F.);
#627 = EDGE_CURVE('',#628,#618,#630,.T.);
#628 = VERTEX_POINT('',#629);
#629 = CARTESIAN_POINT('',(-5.809375885494,3.2,-13.06417917474));
#630 = LINE('',#631,#632);
#631 = CARTESIAN_POINT('',(1.615747408047,3.2,-13.06417917474));
#632 = VECTOR('',#633,1.);
#633 = DIRECTION('',(1.,0.,-3.066574716487E-16));
#634 = ORIENTED_EDGE('',*,*,#635,.F.);
#635 = EDGE_CURVE('',#636,#628,#638,.T.);
#636 = VERTEX_POINT('',#637);
#637 = CARTESIAN_POINT('',(-2.688069798796,3.2,-49.64588621989));
#638 = LINE('',#639,#640);
#639 = CARTESIAN_POINT('',(-4.890802006217,3.2,-23.82986495424));
#640 = VECTOR('',#641,1.);
#641 = DIRECTION('',(-8.501532861638E-02,0.,0.996379643459));
#642 = ORIENTED_EDGE('',*,*,#643,.F.);
#643 = EDGE_CURVE('',#620,#636,#644,.T.);
#644 = LINE('',#645,#646);
#645 = CARTESIAN_POINT('',(1.615747408047,3.2,-49.64588621989));
#646 = VECTOR('',#647,1.);
#647 = DIRECTION('',(-1.,0.,0.));
#648 = FACE_BOUND('',#649,.F.);
#649 = EDGE_LOOP('',(#650));
#650 = ORIENTED_EDGE('',*,*,#651,.F.);
#651 = EDGE_CURVE('',#652,#652,#654,.T.);
#652 = VERTEX_POINT('',#653);
#653 = CARTESIAN_POINT('',(-11.6927539352,3.2,-48.00951684793));
#654 = CIRCLE('',#655,4.735522705283);
#655 = AXIS2_PLACEMENT_3D('',#656,#657,#658);
#656 = CARTESIAN_POINT('',(-16.42827664048,3.2,-48.00951684793));
#657 = DIRECTION('',(-0.,1.,0.));
#658 = DIRECTION('',(1.,0.,0.));
#659 = FACE_BOUND('',#660,.F.);
#660 = EDGE_LOOP('',(#661));
#661 = ORIENTED_EDGE('',*,*,#662,.F.);
#662 = EDGE_CURVE('',#663,#663,#665,.T.);
#663 = VERTEX_POINT('',#664);
#664 = CARTESIAN_POINT('',(21.163799345768,3.2,-48.00951684793));
#665 = CIRCLE('',#666,4.735522705283);
#666 = AXIS2_PLACEMENT_3D('',#667,#668,#669);
#667 = CARTESIAN_POINT('',(16.428276640485,3.2,-48.00951684793));
#668 = DIRECTION('',(-0.,1.,0.));
#669 = DIRECTION('',(1.,0.,0.));
#670 = PLANE('',#671);
#671 = AXIS2_PLACEMENT_3D('',#672,#673,#674);
#672 = CARTESIAN_POINT('',(0.403056515455,3.2,-33.34517655273));
#673 = DIRECTION('',(0.,1.,0.));
#674 = DIRECTION('',(1.,0.,0.));
#675 = ADVANCED_FACE('',(#676),#701,.T.);
#676 = FACE_BOUND('',#677,.T.);
#677 = EDGE_LOOP('',(#678,#686,#694,#700));
#678 = ORIENTED_EDGE('',*,*,#679,.F.);
#679 = EDGE_CURVE('',#680,#568,#682,.T.);
#680 = VERTEX_POINT('',#681);
#681 = CARTESIAN_POINT('',(16.626582997737,0.,-8.940188245231));
#682 = LINE('',#683,#684);
#683 = CARTESIAN_POINT('',(16.626582997737,-22.,-8.940188245231));
#684 = VECTOR('',#685,1.);
#685 = DIRECTION('',(0.,1.,0.));
#686 = ORIENTED_EDGE('',*,*,#687,.T.);
#687 = EDGE_CURVE('',#680,#688,#690,.T.);
#688 = VERTEX_POINT('',#689);
#689 = CARTESIAN_POINT('',(-5.329070518201E-15,0.,-8.903751135252));
#690 = LINE('',#691,#692);
#691 = CARTESIAN_POINT('',(-18.54556462154,1.7763568394E-15,
    -8.863107566442));
#692 = VECTOR('',#693,1.);
#693 = DIRECTION('',(-0.999997598615,0.,2.19152081707E-03));
#694 = ORIENTED_EDGE('',*,*,#695,.T.);
#695 = EDGE_CURVE('',#688,#570,#696,.T.);
#696 = LINE('',#697,#698);
#697 = CARTESIAN_POINT('',(-5.329070518201E-15,-22.,-8.903751135252));
#698 = VECTOR('',#699,1.);
#699 = DIRECTION('',(0.,1.,0.));
#700 = ORIENTED_EDGE('',*,*,#567,.F.);
#701 = PLANE('',#702);
#702 = AXIS2_PLACEMENT_3D('',#703,#704,#705);
#703 = CARTESIAN_POINT('',(8.237581109188,-22.,-8.921803528809));
#704 = DIRECTION('',(-2.19152081707E-03,0.,-0.999997598615));
#705 = DIRECTION('',(-0.999997598615,0.,2.19152081707E-03));
#706 = ADVANCED_FACE('',(#707),#725,.T.);
#707 = FACE_BOUND('',#708,.T.);
#708 = EDGE_LOOP('',(#709,#717,#723,#724));
#709 = ORIENTED_EDGE('',*,*,#710,.F.);
#710 = EDGE_CURVE('',#711,#578,#713,.T.);
#711 = VERTEX_POINT('',#712);
#712 = CARTESIAN_POINT('',(19.029295926024,0.,-17.63009960955));
#713 = LINE('',#714,#715);
#714 = CARTESIAN_POINT('',(19.029295926024,-22.,-17.63009960955));
#715 = VECTOR('',#716,1.);
#716 = DIRECTION('',(0.,1.,0.));
#717 = ORIENTED_EDGE('',*,*,#718,.T.);
#718 = EDGE_CURVE('',#711,#680,#719,.T.);
#719 = LINE('',#720,#721);
#720 = CARTESIAN_POINT('',(23.053273013696,0.,-32.18365022821));
#721 = VECTOR('',#722,1.);
#722 = DIRECTION('',(-0.26649542889,0.,0.963836182336));
#723 = ORIENTED_EDGE('',*,*,#679,.T.);
#724 = ORIENTED_EDGE('',*,*,#577,.F.);
#725 = PLANE('',#726);
#726 = AXIS2_PLACEMENT_3D('',#727,#728,#729);
#727 = CARTESIAN_POINT('',(17.956031892536,-22.,-13.7484168618));
#728 = DIRECTION('',(-0.963836182336,0.,-0.26649542889));
#729 = DIRECTION('',(-0.26649542889,0.,0.963836182336));
#730 = ADVANCED_FACE('',(#731),#749,.T.);
#731 = FACE_BOUND('',#732,.T.);
#732 = EDGE_LOOP('',(#733,#741,#747,#748));
#733 = ORIENTED_EDGE('',*,*,#734,.T.);
#734 = EDGE_CURVE('',#688,#735,#737,.T.);
#735 = VERTEX_POINT('',#736);
#736 = CARTESIAN_POINT('',(-21.72552223146,0.,-8.903751135252));
#737 = LINE('',#738,#739);
#738 = CARTESIAN_POINT('',(-28.21385794834,0.,-8.903751135252));
#739 = VECTOR('',#740,1.);
#740 = DIRECTION('',(-1.,0.,0.));
#741 = ORIENTED_EDGE('',*,*,#742,.T.);
#742 = EDGE_CURVE('',#735,#602,#743,.T.);
#743 = LINE('',#744,#745);
#744 = CARTESIAN_POINT('',(-21.72552223146,-22.,-8.903751135252));
#745 = VECTOR('',#746,1.);
#746 = DIRECTION('',(0.,1.,0.));
#747 = ORIENTED_EDGE('',*,*,#609,.F.);
#748 = ORIENTED_EDGE('',*,*,#695,.F.);
#749 = PLANE('',#750);
#750 = AXIS2_PLACEMENT_3D('',#751,#752,#753);
#751 = CARTESIAN_POINT('',(-10.96276111573,-22.,-8.903751135252));
#752 = DIRECTION('',(0.,0.,-1.));
#753 = DIRECTION('',(0.,1.,0.));
#754 = ADVANCED_FACE('',(#755),#773,.T.);
#755 = FACE_BOUND('',#756,.T.);
#756 = EDGE_LOOP('',(#757,#765,#766,#767));
#757 = ORIENTED_EDGE('',*,*,#758,.T.);
#758 = EDGE_CURVE('',#759,#711,#761,.T.);
#759 = VERTEX_POINT('',#760);
#760 = CARTESIAN_POINT('',(22.059435554995,0.,-3.734519760785));
#761 = LINE('',#762,#763);
#762 = CARTESIAN_POINT('',(12.741012548745,1.7763568394E-15,
    -46.46683800444));
#763 = VECTOR('',#764,1.);
#764 = DIRECTION('',(-0.213058124893,0.,-0.977039526026));
#765 = ORIENTED_EDGE('',*,*,#710,.T.);
#766 = ORIENTED_EDGE('',*,*,#585,.F.);
#767 = ORIENTED_EDGE('',*,*,#768,.F.);
#768 = EDGE_CURVE('',#759,#586,#769,.T.);
#769 = LINE('',#770,#771);
#770 = CARTESIAN_POINT('',(22.059435554995,-22.,-3.734519760785));
#771 = VECTOR('',#772,1.);
#772 = DIRECTION('',(0.,1.,0.));
#773 = PLANE('',#774);
#774 = AXIS2_PLACEMENT_3D('',#775,#776,#777);
#775 = CARTESIAN_POINT('',(20.484588228021,-22.,-10.95643672209));
#776 = DIRECTION('',(0.977039526026,0.,-0.213058124893));
#777 = DIRECTION('',(-0.213058124893,0.,-0.977039526026));
#778 = ADVANCED_FACE('',(#779),#797,.T.);
#779 = FACE_BOUND('',#780,.T.);
#780 = EDGE_LOOP('',(#781,#789,#795,#796));
#781 = ORIENTED_EDGE('',*,*,#782,.T.);
#782 = EDGE_CURVE('',#735,#783,#785,.T.);
#783 = VERTEX_POINT('',#784);
#784 = CARTESIAN_POINT('',(-21.72552223146,0.,-3.734519760785));
#785 = LINE('',#786,#787);
#786 = CARTESIAN_POINT('',(-21.72552223146,0.,-38.64614663299));
#787 = VECTOR('',#788,1.);
#788 = DIRECTION('',(0.,0.,1.));
#789 = ORIENTED_EDGE('',*,*,#790,.T.);
#790 = EDGE_CURVE('',#783,#594,#791,.T.);
#791 = LINE('',#792,#793);
#792 = CARTESIAN_POINT('',(-21.72552223146,-22.,-3.734519760785));
#793 = VECTOR('',#794,1.);
#794 = DIRECTION('',(0.,1.,0.));
#795 = ORIENTED_EDGE('',*,*,#601,.F.);
#796 = ORIENTED_EDGE('',*,*,#742,.F.);
#797 = PLANE('',#798);
#798 = AXIS2_PLACEMENT_3D('',#799,#800,#801);
#799 = CARTESIAN_POINT('',(-21.72552223146,-22.,-6.319135448019));
#800 = DIRECTION('',(-1.,0.,0.));
#801 = DIRECTION('',(0.,1.,0.));
#802 = ADVANCED_FACE('',(#803),#814,.T.);
#803 = FACE_BOUND('',#804,.T.);
#804 = EDGE_LOOP('',(#805,#811,#812,#813));
#805 = ORIENTED_EDGE('',*,*,#806,.T.);
#806 = EDGE_CURVE('',#783,#759,#807,.T.);
#807 = LINE('',#808,#809);
#808 = CARTESIAN_POINT('',(-22.63692080725,0.,-3.734519760785));
#809 = VECTOR('',#810,1.);
#810 = DIRECTION('',(1.,0.,0.));
#811 = ORIENTED_EDGE('',*,*,#768,.T.);
#812 = ORIENTED_EDGE('',*,*,#593,.F.);
#813 = ORIENTED_EDGE('',*,*,#790,.F.);
#814 = PLANE('',#815);
#815 = AXIS2_PLACEMENT_3D('',#816,#817,#818);
#816 = CARTESIAN_POINT('',(0.19111316645,-22.,-3.734519760785));
#817 = DIRECTION('',(0.,0.,1.));
#818 = DIRECTION('',(0.,-1.,0.));
#819 = ADVANCED_FACE('',(#820),#845,.F.);
#820 = FACE_BOUND('',#821,.F.);
#821 = EDGE_LOOP('',(#822,#832,#838,#839));
#822 = ORIENTED_EDGE('',*,*,#823,.T.);
#823 = EDGE_CURVE('',#824,#826,#828,.T.);
#824 = VERTEX_POINT('',#825);
#825 = CARTESIAN_POINT('',(1.480297366167E-15,11.242400581089,
    -46.71869179633));
#826 = VERTEX_POINT('',#827);
#827 = CARTESIAN_POINT('',(3.256654205567E-15,17.8572529153,
    -18.39898295202));
#828 = LINE('',#829,#830);
#829 = CARTESIAN_POINT('',(2.6645352591E-15,18.133069549222,
    -17.21814831317));
#830 = VECTOR('',#831,1.);
#831 = DIRECTION('',(5.275122655165E-17,0.227455280238,0.97378852709));
#832 = ORIENTED_EDGE('',*,*,#833,.F.);
#833 = EDGE_CURVE('',#618,#826,#834,.T.);
#834 = LINE('',#835,#836);
#835 = CARTESIAN_POINT('',(5.649679875255,3.602918464526,-13.21082950266
    ));
#836 = VECTOR('',#837,1.);
#837 = DIRECTION('',(-0.349023821871,0.880598971639,-0.320511814002));
#838 = ORIENTED_EDGE('',*,*,#617,.T.);
#839 = ORIENTED_EDGE('',*,*,#840,.T.);
#840 = EDGE_CURVE('',#620,#824,#841,.T.);
#841 = LINE('',#842,#843);
#842 = CARTESIAN_POINT('',(1.103762571829,7.940067898719,-47.92064259636
    ));
#843 = VECTOR('',#844,1.);
#844 = DIRECTION('',(-0.299648208284,0.896513522642,0.326304236859));
#845 = PLANE('',#846);
#846 = AXIS2_PLACEMENT_3D('',#847,#848,#849);
#847 = CARTESIAN_POINT('',(5.823691883056,3.068404028665,-13.45978839622
    ));
#848 = DIRECTION('',(0.93629059846,0.342020143326,-7.988827695448E-02));
#849 = DIRECTION('',(-0.340781908463,0.939692620786,2.907695487825E-02)
  );
#850 = ADVANCED_FACE('',(#851),#861,.F.);
#851 = FACE_BOUND('',#852,.F.);
#852 = EDGE_LOOP('',(#853,#854,#860));
#853 = ORIENTED_EDGE('',*,*,#833,.T.);
#854 = ORIENTED_EDGE('',*,*,#855,.T.);
#855 = EDGE_CURVE('',#826,#628,#856,.T.);
#856 = LINE('',#857,#858);
#857 = CARTESIAN_POINT('',(-5.275833888477,4.546144602338,
    -13.55413574101));
#858 = VECTOR('',#859,1.);
#859 = DIRECTION('',(-0.349023821871,-0.880598971639,0.320511814002));
#860 = ORIENTED_EDGE('',*,*,#627,.T.);
#861 = PLANE('',#862);
#862 = AXIS2_PLACEMENT_3D('',#863,#864,#865);
#863 = CARTESIAN_POINT('',(2.828438300639,3.068404028665,-13.01628215822
    ));
#864 = DIRECTION('',(2.88163763217E-16,0.342020143326,0.939692620786));
#865 = DIRECTION('',(-1.048830324052E-16,0.939692620786,-0.342020143326)
  );
#866 = ADVANCED_FACE('',(#867),#877,.F.);
#867 = FACE_BOUND('',#868,.F.);
#868 = EDGE_LOOP('',(#869,#875,#876));
#869 = ORIENTED_EDGE('',*,*,#870,.T.);
#870 = EDGE_CURVE('',#636,#824,#871,.T.);
#871 = LINE('',#872,#873);
#872 = CARTESIAN_POINT('',(-0.871390517001,8.635298785064,
    -47.66759924779));
#873 = VECTOR('',#874,1.);
#874 = DIRECTION('',(0.299648208284,0.896513522642,0.326304236859));
#875 = ORIENTED_EDGE('',*,*,#840,.F.);
#876 = ORIENTED_EDGE('',*,*,#643,.T.);
#877 = PLANE('',#878);
#878 = AXIS2_PLACEMENT_3D('',#879,#880,#881);
#879 = CARTESIAN_POINT('',(2.828438300639,3.068404028665,-49.69378323641
    ));
#880 = DIRECTION('',(0.,0.342020143326,-0.939692620786));
#881 = DIRECTION('',(0.,0.939692620786,0.342020143326));
#882 = ADVANCED_FACE('',(#883),#889,.F.);
#883 = FACE_BOUND('',#884,.F.);
#884 = EDGE_LOOP('',(#885,#886,#887,#888));
#885 = ORIENTED_EDGE('',*,*,#635,.T.);
#886 = ORIENTED_EDGE('',*,*,#855,.F.);
#887 = ORIENTED_EDGE('',*,*,#823,.F.);
#888 = ORIENTED_EDGE('',*,*,#870,.F.);
#889 = PLANE('',#890);
#890 = AXIS2_PLACEMENT_3D('',#891,#892,#893);
#891 = CARTESIAN_POINT('',(-5.782806207227,3.068404028665,
    -13.93896851312));
#892 = DIRECTION('',(-0.93629059846,0.342020143326,-7.988827695448E-02)
  );
#893 = DIRECTION('',(0.340781908463,0.939692620786,2.907695487825E-02));
#894 = ADVANCED_FACE('',(#895),#914,.T.);
#895 = FACE_BOUND('',#896,.T.);
#896 = EDGE_LOOP('',(#897,#906,#912,#913));
#897 = ORIENTED_EDGE('',*,*,#898,.T.);
#898 = EDGE_CURVE('',#899,#899,#901,.T.);
#899 = VERTEX_POINT('',#900);
#900 = CARTESIAN_POINT('',(-11.6927539352,0.,-48.00951684793));
#901 = CIRCLE('',#902,4.735522705283);
#902 = AXIS2_PLACEMENT_3D('',#903,#904,#905);
#903 = CARTESIAN_POINT('',(-16.42827664048,0.,-48.00951684793));
#904 = DIRECTION('',(-0.,1.,0.));
#905 = DIRECTION('',(1.,0.,0.));
#906 = ORIENTED_EDGE('',*,*,#907,.T.);
#907 = EDGE_CURVE('',#899,#652,#908,.T.);
#908 = LINE('',#909,#910);
#909 = CARTESIAN_POINT('',(-11.6927539352,-22.,-48.00951684793));
#910 = VECTOR('',#911,1.);
#911 = DIRECTION('',(0.,1.,0.));
#912 = ORIENTED_EDGE('',*,*,#651,.F.);
#913 = ORIENTED_EDGE('',*,*,#907,.F.);
#914 = CYLINDRICAL_SURFACE('',#915,4.735522705283);
#915 = AXIS2_PLACEMENT_3D('',#916,#917,#918);
#916 = CARTESIAN_POINT('',(-16.42827664048,-22.,-48.00951684793));
#917 = DIRECTION('',(0.,1.,0.));
#918 = DIRECTION('',(1.,0.,0.));
#919 = ADVANCED_FACE('',(#920),#939,.T.);
#920 = FACE_BOUND('',#921,.T.);
#921 = EDGE_LOOP('',(#922,#931,#937,#938));
#922 = ORIENTED_EDGE('',*,*,#923,.T.);
#923 = EDGE_CURVE('',#924,#924,#926,.T.);
#924 = VERTEX_POINT('',#925);
#925 = CARTESIAN_POINT('',(21.163799345768,0.,-48.00951684793));
#926 = CIRCLE('',#927,4.735522705283);
#927 = AXIS2_PLACEMENT_3D('',#928,#929,#930);
#928 = CARTESIAN_POINT('',(16.428276640485,0.,-48.00951684793));
#929 = DIRECTION('',(-0.,1.,0.));
#930 = DIRECTION('',(1.,0.,0.));
#931 = ORIENTED_EDGE('',*,*,#932,.T.);
#932 = EDGE_CURVE('',#924,#663,#933,.T.);
#933 = LINE('',#934,#935);
#934 = CARTESIAN_POINT('',(21.163799345768,-22.,-48.00951684793));
#935 = VECTOR('',#936,1.);
#936 = DIRECTION('',(0.,1.,0.));
#937 = ORIENTED_EDGE('',*,*,#662,.F.);
#938 = ORIENTED_EDGE('',*,*,#932,.F.);
#939 = CYLINDRICAL_SURFACE('',#940,4.735522705283);
#940 = AXIS2_PLACEMENT_3D('',#941,#942,#943);
#941 = CARTESIAN_POINT('',(16.428276640485,-22.,-48.00951684793));
#942 = DIRECTION('',(0.,1.,0.));
#943 = DIRECTION('',(1.,0.,0.));
#944 = ADVANCED_FACE('',(#945),#953,.F.);
#945 = FACE_BOUND('',#946,.F.);
#946 = EDGE_LOOP('',(#947,#948,#949,#950,#951,#952));
#947 = ORIENTED_EDGE('',*,*,#718,.T.);
#948 = ORIENTED_EDGE('',*,*,#687,.T.);
#949 = ORIENTED_EDGE('',*,*,#734,.T.);
#950 = ORIENTED_EDGE('',*,*,#782,.T.);
#951 = ORIENTED_EDGE('',*,*,#806,.T.);
#952 = ORIENTED_EDGE('',*,*,#758,.T.);
#953 = PLANE('',#954);
#954 = AXIS2_PLACEMENT_3D('',#955,#956,#957);
#955 = CARTESIAN_POINT('',(-45.46495478095,0.,-70.97315781796));
#956 = DIRECTION('',(0.,1.,0.));
#957 = DIRECTION('',(0.,0.,1.));
#958 = ADVANCED_FACE('',(#959),#962,.F.);
#959 = FACE_BOUND('',#960,.F.);
#960 = EDGE_LOOP('',(#961));
#961 = ORIENTED_EDGE('',*,*,#898,.T.);
#962 = PLANE('',#963);
#963 = AXIS2_PLACEMENT_3D('',#964,#965,#966);
#964 = CARTESIAN_POINT('',(-45.46495478095,0.,-70.97315781796));
#965 = DIRECTION('',(0.,1.,0.));
#966 = DIRECTION('',(0.,0.,1.));
#967 = ADVANCED_FACE('',(#968),#971,.F.);
#968 = FACE_BOUND('',#969,.F.);
#969 = EDGE_LOOP('',(#970));
#970 = ORIENTED_EDGE('',*,*,#923,.T.);
#971 = PLANE('',#972);
#972 = AXIS2_PLACEMENT_3D('',#973,#974,#975);
#973 = CARTESIAN_POINT('',(-45.46495478095,0.,-70.97315781796));
#974 = DIRECTION('',(0.,1.,0.));
#975 = DIRECTION('',(0.,0.,1.));
#976 = ( GEOMETRIC_REPRESENTATION_CONTEXT(3) 
GLOBAL_UNCERTAINTY_ASSIGNED_CONTEXT((#980)) GLOBAL_UNIT_ASSIGNED_CONTEXT
((#977,#978,#979)) REPRESENTATION_CONTEXT('Context #1',
  '3D Context with UNIT and UNCERTAINTY') );
#977 = ( LENGTH_UNIT() NAMED_UNIT(*) SI_UNIT(.MILLI.,.METRE.) );
#978 = ( NAMED_UNIT(*) PLANE_ANGLE_UNIT() SI_UNIT($,.RADIAN.) );
#979 = ( NAMED_UNIT(*) SI_UNIT($,.STERADIAN.) SOLID_ANGLE_UNIT() );
#980 = UNCERTAINTY_MEASURE_WITH_UNIT(LENGTH_MEASURE(5.E-06),#977,
  'distance_accuracy_value','confusion accuracy');
#981 = PRODUCT_RELATED_PRODUCT_CATEGORY('part',$,(#7));
ENDSEC;
END-ISO-10303-21;
