ISO-10303-21;
HEADER;
FILE_DESCRIPTION(('FreeCAD Model'),'2;1');
FILE_NAME('Open CASCADE Shape Model','2026-08-05T11:06:23',('FreeCAD'),(
    'FreeCAD'),'Open CASCADE STEP processor 7.8','FreeCAD','Unknown');
FILE_SCHEMA(('AUTOMOTIVE_DESIGN { 1 0 10303 214 1 1 1 1 }'));
ENDSEC;
DATA;
#1 = APPLICATION_PROTOCOL_DEFINITION('international standard',
  'automotive_design',2000,#2);
#2 = APPLICATION_CONTEXT(
  'core data for automotive mechanical design processes');
#3 = SHAPE_DEFINITION_REPRESENTATION(#4,#10);
#4 = PRODUCT_DEFINITION_SHAPE('','',#5);
#5 = PRODUCT_DEFINITION('design','',#6,#9);
#6 = PRODUCT_DEFINITION_FORMATION('','',#7);
#7 = PRODUCT('Open CASCADE STEP translator 7.8 2',
  'Open CASCADE STEP translator 7.8 2','',(#8));
#8 = PRODUCT_CONTEXT('',#2,'mechanical');
#9 = PRODUCT_DEFINITION_CONTEXT('part definition',#2,'design');
#10 = ADVANCED_BREP_SHAPE_REPRESENTATION('',(#11,#15),#1522);
#11 = AXIS2_PLACEMENT_3D('',#12,#13,#14);
#12 = CARTESIAN_POINT('',(0.,0.,0.));
#13 = DIRECTION('',(0.,0.,1.));
#14 = DIRECTION('',(1.,0.,-0.));
#15 = MANIFOLD_SOLID_BREP('',#16);
#16 = CLOSED_SHELL('',(#17,#291,#322,#346,#370,#395,#419,#444,#468,#492,
    #517,#541,#566,#590,#614,#638,#662,#679,#710,#734,#758,#782,#806,
    #830,#854,#878,#903,#928,#952,#976,#1001,#1026,#1050,#1067,#1091,
    #1221,#1252,#1276,#1300,#1324,#1348,#1365,#1390,#1421,#1437,#1454,
    #1465,#1490,#1504,#1513));
#17 = ADVANCED_FACE('',(#18,#152),#286,.F.);
#18 = FACE_BOUND('',#19,.F.);
#19 = EDGE_LOOP('',(#20,#30,#38,#46,#54,#62,#70,#79,#87,#96,#104,#112,
    #121,#129,#138,#146));
#20 = ORIENTED_EDGE('',*,*,#21,.F.);
#21 = EDGE_CURVE('',#22,#24,#26,.T.);
#22 = VERTEX_POINT('',#23);
#23 = CARTESIAN_POINT('',(28.536336768195,0.,-54.80352892379));
#24 = VERTEX_POINT('',#25);
#25 = CARTESIAN_POINT('',(43.891390829132,0.,-6.628649129335));
#26 = LINE('',#27,#28);
#27 = CARTESIAN_POINT('',(30.462276491561,4.440892098501E-16,
    -48.76109401628));
#28 = VECTOR('',#29,1.);
#29 = DIRECTION('',(0.30368282823,0.,0.952773183837));
#30 = ORIENTED_EDGE('',*,*,#31,.F.);
#31 = EDGE_CURVE('',#32,#22,#34,.T.);
#32 = VERTEX_POINT('',#33);
#33 = CARTESIAN_POINT('',(34.683490155872,0.,-60.75238354821));
#34 = LINE('',#35,#36);
#35 = CARTESIAN_POINT('',(13.469833011847,0.,-40.22304997814));
#36 = VECTOR('',#37,1.);
#37 = DIRECTION('',(-0.718602345805,0.,0.695421216677));
#38 = ORIENTED_EDGE('',*,*,#39,.F.);
#39 = EDGE_CURVE('',#40,#32,#42,.T.);
#40 = VERTEX_POINT('',#41);
#41 = CARTESIAN_POINT('',(26.747616824317,0.,-68.95279080543));
#42 = LINE('',#43,#44);
#43 = CARTESIAN_POINT('',(12.749348137648,0.,-83.41767694094));
#44 = VECTOR('',#45,1.);
#45 = DIRECTION('',(0.695421216677,0.,0.718602345805));
#46 = ORIENTED_EDGE('',*,*,#47,.F.);
#47 = EDGE_CURVE('',#48,#40,#50,.T.);
#48 = VERTEX_POINT('',#49);
#49 = CARTESIAN_POINT('',(19.965518143439,0.,-62.38947335481));
#50 = LINE('',#51,#52);
#51 = CARTESIAN_POINT('',(8.607536374131,0.,-51.39788454757));
#52 = VECTOR('',#53,1.);
#53 = DIRECTION('',(0.718602345805,0.,-0.695421216677));
#54 = ORIENTED_EDGE('',*,*,#55,.F.);
#55 = EDGE_CURVE('',#56,#48,#58,.T.);
#56 = VERTEX_POINT('',#57);
#57 = CARTESIAN_POINT('',(-19.96551814343,0.,-62.38947335481));
#58 = LINE('',#59,#60);
#59 = CARTESIAN_POINT('',(-12.74971831875,0.,-62.38947335481));
#60 = VECTOR('',#61,1.);
#61 = DIRECTION('',(1.,0.,0.));
#62 = ORIENTED_EDGE('',*,*,#63,.T.);
#63 = EDGE_CURVE('',#56,#64,#66,.T.);
#64 = VERTEX_POINT('',#65);
#65 = CARTESIAN_POINT('',(-24.55693735351,0.,-66.83277965903));
#66 = LINE('',#67,#68);
#67 = CARTESIAN_POINT('',(-30.98981424001,0.,-73.05814073287));
#68 = VECTOR('',#69,1.);
#69 = DIRECTION('',(-0.718602345805,0.,-0.695421216677));
#70 = ORIENTED_EDGE('',*,*,#71,.F.);
#71 = EDGE_CURVE('',#72,#64,#74,.T.);
#72 = VERTEX_POINT('',#73);
#73 = CARTESIAN_POINT('',(-28.86762797071,0.,-66.76211133463));
#74 = CIRCLE('',#75,3.048528137424);
#75 = AXIS2_PLACEMENT_3D('',#76,#77,#78);
#76 = CARTESIAN_POINT('',(-26.67694849991,0.,-64.64210018823));
#77 = DIRECTION('',(0.,-1.,0.));
#78 = DIRECTION('',(1.,0.,0.));
#79 = ORIENTED_EDGE('',*,*,#80,.T.);
#80 = EDGE_CURVE('',#72,#81,#83,.T.);
#81 = VERTEX_POINT('',#82);
#82 = CARTESIAN_POINT('',(-30.0937101258,0.,-65.49515903052));
#83 = LINE('',#84,#85);
#84 = CARTESIAN_POINT('',(-32.44179530228,0.,-63.0688029236));
#85 = VECTOR('',#86,1.);
#86 = DIRECTION('',(-0.695421216677,0.,0.718602345805));
#87 = ORIENTED_EDGE('',*,*,#88,.F.);
#88 = EDGE_CURVE('',#89,#81,#91,.T.);
#89 = VERTEX_POINT('',#90);
#90 = CARTESIAN_POINT('',(-29.94071467356,0.,-56.16260351814));
#91 = CIRCLE('',#92,6.6);
#92 = AXIS2_PLACEMENT_3D('',#93,#94,#95);
#93 = CARTESIAN_POINT('',(-25.35093464349,0.,-60.90537900045));
#94 = DIRECTION('',(0.,-1.,0.));
#95 = DIRECTION('',(1.,0.,0.));
#96 = ORIENTED_EDGE('',*,*,#97,.T.);
#97 = EDGE_CURVE('',#89,#98,#100,.T.);
#98 = VERTEX_POINT('',#99);
#99 = CARTESIAN_POINT('',(-28.53633676819,0.,-54.80352892379));
#100 = LINE('',#101,#102);
#101 = CARTESIAN_POINT('',(-36.94745061313,0.,-62.94331173664));
#102 = VECTOR('',#103,1.);
#103 = DIRECTION('',(0.718602345805,0.,0.695421216677));
#104 = ORIENTED_EDGE('',*,*,#105,.T.);
#105 = EDGE_CURVE('',#98,#106,#108,.T.);
#106 = VERTEX_POINT('',#107);
#107 = CARTESIAN_POINT('',(-42.51292396981,0.,-10.95344505546));
#108 = LINE('',#109,#110);
#109 = CARTESIAN_POINT('',(-33.96596941491,4.440892098501E-16,
    -37.76862308461));
#110 = VECTOR('',#111,1.);
#111 = DIRECTION('',(-0.30368282823,0.,0.952773183837));
#112 = ORIENTED_EDGE('',*,*,#113,.F.);
#113 = EDGE_CURVE('',#114,#106,#116,.T.);
#114 = VERTEX_POINT('',#115);
#115 = CARTESIAN_POINT('',(-40.68171555857,0.,-3.418973858775));
#116 = CIRCLE('',#117,7.454044962965);
#117 = AXIS2_PLACEMENT_3D('',#118,#119,#120);
#118 = CARTESIAN_POINT('',(-35.41090981799,0.,-8.689779599357));
#119 = DIRECTION('',(0.,-1.,0.));
#120 = DIRECTION('',(1.,0.,0.));
#121 = ORIENTED_EDGE('',*,*,#122,.T.);
#122 = EDGE_CURVE('',#114,#123,#125,.T.);
#123 = VERTEX_POINT('',#124);
#124 = CARTESIAN_POINT('',(-37.84598092218,0.,-0.583239222383));
#125 = LINE('',#126,#127);
#126 = CARTESIAN_POINT('',(-57.34820403576,0.,-20.08546233597));
#127 = VECTOR('',#128,1.);
#128 = DIRECTION('',(0.707106781187,0.,0.707106781187));
#129 = ORIENTED_EDGE('',*,*,#130,.F.);
#130 = EDGE_CURVE('',#131,#123,#133,.T.);
#131 = VERTEX_POINT('',#132);
#132 = CARTESIAN_POINT('',(-32.57517518159,0.,1.6));
#133 = CIRCLE('',#134,7.454044962965);
#134 = AXIS2_PLACEMENT_3D('',#135,#136,#137);
#135 = CARTESIAN_POINT('',(-32.57517518159,0.,-5.854044962965));
#136 = DIRECTION('',(0.,-1.,0.));
#137 = DIRECTION('',(1.,0.,0.));
#138 = ORIENTED_EDGE('',*,*,#139,.T.);
#139 = EDGE_CURVE('',#131,#140,#142,.T.);
#140 = VERTEX_POINT('',#141);
#141 = CARTESIAN_POINT('',(35.662741699797,0.,1.6));
#142 = LINE('',#143,#144);
#143 = CARTESIAN_POINT('',(-4.901106540577,0.,1.6));
#144 = VECTOR('',#145,1.);
#145 = DIRECTION('',(1.,0.,0.));
#146 = ORIENTED_EDGE('',*,*,#147,.F.);
#147 = EDGE_CURVE('',#24,#140,#148,.T.);
#148 = LINE('',#149,#150);
#149 = CARTESIAN_POINT('',(33.5241070341,0.,3.738634665697));
#150 = VECTOR('',#151,1.);
#151 = DIRECTION('',(-0.707106781187,0.,0.707106781187));
#152 = FACE_BOUND('',#153,.F.);
#153 = EDGE_LOOP('',(#154,#164,#172,#180,#188,#197,#205,#214,#222,#230,
    #239,#247,#256,#264,#272,#280));
#154 = ORIENTED_EDGE('',*,*,#155,.T.);
#155 = EDGE_CURVE('',#156,#158,#160,.T.);
#156 = VERTEX_POINT('',#157);
#157 = CARTESIAN_POINT('',(32.703857168398,0.,-60.78483712899));
#158 = VERTEX_POINT('',#159);
#159 = CARTESIAN_POINT('',(26.938753236523,0.,-55.20570756731));
#160 = LINE('',#161,#162);
#161 = CARTESIAN_POINT('',(13.567306766147,0.,-42.26560567724));
#162 = VECTOR('',#163,1.);
#163 = DIRECTION('',(-0.718602345805,0.,0.695421216677));
#164 = ORIENTED_EDGE('',*,*,#165,.T.);
#165 = EDGE_CURVE('',#158,#166,#168,.T.);
#166 = VERTEX_POINT('',#167);
#167 = CARTESIAN_POINT('',(42.298608189024,0.,-7.015765476549));
#168 = LINE('',#169,#170);
#169 = CARTESIAN_POINT('',(25.140315874087,-4.440892098501E-16,
    -60.84811712245));
#170 = VECTOR('',#171,1.);
#171 = DIRECTION('',(0.30368282823,0.,0.952773183837));
#172 = ORIENTED_EDGE('',*,*,#173,.T.);
#173 = EDGE_CURVE('',#166,#174,#176,.T.);
#174 = VERTEX_POINT('',#175);
#175 = CARTESIAN_POINT('',(35.082842712475,0.,0.2));
#176 = LINE('',#177,#178);
#177 = CARTESIAN_POINT('',(34.536239068456,0.,0.746603644019));
#178 = VECTOR('',#179,1.);
#179 = DIRECTION('',(-0.707106781187,0.,0.707106781187));
#180 = ORIENTED_EDGE('',*,*,#181,.F.);
#181 = EDGE_CURVE('',#182,#174,#184,.T.);
#182 = VERTEX_POINT('',#183);
#183 = CARTESIAN_POINT('',(-32.57517518159,0.,0.2));
#184 = LINE('',#185,#186);
#185 = CARTESIAN_POINT('',(-30.87627118587,0.,0.2));
#186 = VECTOR('',#187,1.);
#187 = DIRECTION('',(1.,0.,0.));
#188 = ORIENTED_EDGE('',*,*,#189,.T.);
#189 = EDGE_CURVE('',#182,#190,#192,.T.);
#190 = VERTEX_POINT('',#191);
#191 = CARTESIAN_POINT('',(-36.85603142851,0.,-1.573188716044));
#192 = CIRCLE('',#193,6.054044962965);
#193 = AXIS2_PLACEMENT_3D('',#194,#195,#196);
#194 = CARTESIAN_POINT('',(-32.57517518159,0.,-5.854044962965));
#195 = DIRECTION('',(0.,-1.,0.));
#196 = DIRECTION('',(-1.,0.,0.));
#197 = ORIENTED_EDGE('',*,*,#198,.F.);
#198 = EDGE_CURVE('',#199,#190,#201,.T.);
#199 = VERTEX_POINT('',#200);
#200 = CARTESIAN_POINT('',(-39.69176606491,0.,-4.408923352436));
#201 = LINE('',#202,#203);
#202 = CARTESIAN_POINT('',(-57.0671882012,0.,-21.78434548873));
#203 = VECTOR('',#204,1.);
#204 = DIRECTION('',(0.707106781187,0.,0.707106781187));
#205 = ORIENTED_EDGE('',*,*,#206,.T.);
#206 = EDGE_CURVE('',#199,#207,#209,.T.);
#207 = VERTEX_POINT('',#208);
#208 = CARTESIAN_POINT('',(-41.17904151244,0.,-10.52828909594));
#209 = CIRCLE('',#210,6.054044962965);
#210 = AXIS2_PLACEMENT_3D('',#211,#212,#213);
#211 = CARTESIAN_POINT('',(-35.41090981799,0.,-8.689779599357));
#212 = DIRECTION('',(0.,-1.,0.));
#213 = DIRECTION('',(-1.,0.,0.));
#214 = ORIENTED_EDGE('',*,*,#215,.F.);
#215 = EDGE_CURVE('',#216,#207,#218,.T.);
#216 = VERTEX_POINT('',#217);
#217 = CARTESIAN_POINT('',(-26.93875323652,0.,-55.20570756731));
#218 = LINE('',#219,#220);
#219 = CARTESIAN_POINT('',(-29.06259699304,-4.440892098501E-16,
    -48.54236940733));
#220 = VECTOR('',#221,1.);
#221 = DIRECTION('',(-0.30368282823,0.,0.952773183837));
#222 = ORIENTED_EDGE('',*,*,#223,.F.);
#223 = EDGE_CURVE('',#224,#216,#226,.T.);
#224 = VERTEX_POINT('',#225);
#225 = CARTESIAN_POINT('',(-28.96712497021,0.,-57.16864680227));
#226 = LINE('',#227,#228);
#227 = CARTESIAN_POINT('',(-36.14667143517,0.,-64.11659091489));
#228 = VECTOR('',#229,1.);
#229 = DIRECTION('',(0.718602345805,0.,0.695421216677));
#230 = ORIENTED_EDGE('',*,*,#231,.T.);
#231 = EDGE_CURVE('',#224,#232,#234,.T.);
#232 = VERTEX_POINT('',#233);
#233 = CARTESIAN_POINT('',(-29.08766684168,0.,-64.52156932717));
#234 = CIRCLE('',#235,5.2);
#235 = AXIS2_PLACEMENT_3D('',#236,#237,#238);
#236 = CARTESIAN_POINT('',(-25.35093464349,0.,-60.90537900045));
#237 = DIRECTION('',(0.,-1.,0.));
#238 = DIRECTION('',(-1.,0.,0.));
#239 = ORIENTED_EDGE('',*,*,#240,.F.);
#240 = EDGE_CURVE('',#241,#232,#243,.T.);
#241 = VERTEX_POINT('',#242);
#242 = CARTESIAN_POINT('',(-27.86158468659,0.,-65.78852163128));
#243 = LINE('',#244,#245);
#244 = CARTESIAN_POINT('',(-31.12923147938,0.,-62.41195129628));
#245 = VECTOR('',#246,1.);
#246 = DIRECTION('',(-0.695421216677,0.,0.718602345805));
#247 = ORIENTED_EDGE('',*,*,#248,.T.);
#248 = EDGE_CURVE('',#241,#249,#251,.T.);
#249 = VERTEX_POINT('',#250);
#250 = CARTESIAN_POINT('',(-25.53052705686,0.,-65.82673637491));
#251 = CIRCLE('',#252,1.648528137424);
#252 = AXIS2_PLACEMENT_3D('',#253,#254,#255);
#253 = CARTESIAN_POINT('',(-26.67694849991,0.,-64.64210018823));
#254 = DIRECTION('',(0.,-1.,0.));
#255 = DIRECTION('',(-1.,0.,0.));
#256 = ORIENTED_EDGE('',*,*,#257,.F.);
#257 = EDGE_CURVE('',#258,#249,#260,.T.);
#258 = VERTEX_POINT('',#259);
#259 = CARTESIAN_POINT('',(-20.53201900137,0.,-60.98947335481));
#260 = LINE('',#261,#262);
#261 = CARTESIAN_POINT('',(-30.69923804215,0.,-70.82871181101));
#262 = VECTOR('',#263,1.);
#263 = DIRECTION('',(-0.718602345805,0.,-0.695421216677));
#264 = ORIENTED_EDGE('',*,*,#265,.T.);
#265 = EDGE_CURVE('',#258,#266,#268,.T.);
#266 = VERTEX_POINT('',#267);
#267 = CARTESIAN_POINT('',(20.532019001374,0.,-60.98947335481));
#268 = LINE('',#269,#270);
#269 = CARTESIAN_POINT('',(-17.57924046663,0.,-60.98947335481));
#270 = VECTOR('',#271,1.);
#271 = DIRECTION('',(1.,0.,0.));
#272 = ORIENTED_EDGE('',*,*,#273,.T.);
#273 = EDGE_CURVE('',#266,#274,#276,.T.);
#274 = VERTEX_POINT('',#275);
#275 = CARTESIAN_POINT('',(26.715163243538,0.,-66.97315781796));
#276 = LINE('',#277,#278);
#277 = CARTESIAN_POINT('',(7.481849370247,-4.440892098501E-16,
    -48.36028435244));
#278 = VECTOR('',#279,1.);
#279 = DIRECTION('',(0.718602345805,0.,-0.695421216677));
#280 = ORIENTED_EDGE('',*,*,#281,.T.);
#281 = EDGE_CURVE('',#274,#156,#282,.T.);
#282 = LINE('',#283,#284);
#283 = CARTESIAN_POINT('',(9.75933652063,0.,-84.4941890519));
#284 = VECTOR('',#285,1.);
#285 = DIRECTION('',(0.695421216677,0.,0.718602345805));
#286 = PLANE('',#287);
#287 = AXIS2_PLACEMENT_3D('',#288,#289,#290);
#288 = CARTESIAN_POINT('',(-45.46495478095,0.,-70.97315781796));
#289 = DIRECTION('',(0.,1.,0.));
#290 = DIRECTION('',(0.,0.,1.));
#291 = ADVANCED_FACE('',(#292),#317,.F.);
#292 = FACE_BOUND('',#293,.F.);
#293 = EDGE_LOOP('',(#294,#295,#303,#311));
#294 = ORIENTED_EDGE('',*,*,#21,.T.);
#295 = ORIENTED_EDGE('',*,*,#296,.T.);
#296 = EDGE_CURVE('',#24,#297,#299,.T.);
#297 = VERTEX_POINT('',#298);
#298 = CARTESIAN_POINT('',(43.891390829132,20.8572529153,-6.628649129335
    ));
#299 = LINE('',#300,#301);
#300 = CARTESIAN_POINT('',(43.891390829132,-5.,-6.628649129335));
#301 = VECTOR('',#302,1.);
#302 = DIRECTION('',(0.,1.,0.));
#303 = ORIENTED_EDGE('',*,*,#304,.F.);
#304 = EDGE_CURVE('',#305,#297,#307,.T.);
#305 = VERTEX_POINT('',#306);
#306 = CARTESIAN_POINT('',(28.536336768195,20.8572529153,-54.80352892379
    ));
#307 = LINE('',#308,#309);
#308 = CARTESIAN_POINT('',(30.462276491561,20.8572529153,-48.76109401628
    ));
#309 = VECTOR('',#310,1.);
#310 = DIRECTION('',(0.30368282823,0.,0.952773183837));
#311 = ORIENTED_EDGE('',*,*,#312,.F.);
#312 = EDGE_CURVE('',#22,#305,#313,.T.);
#313 = LINE('',#314,#315);
#314 = CARTESIAN_POINT('',(28.536336768195,-5.,-54.80352892379));
#315 = VECTOR('',#316,1.);
#316 = DIRECTION('',(0.,1.,0.));
#317 = PLANE('',#318);
#318 = AXIS2_PLACEMENT_3D('',#319,#320,#321);
#319 = CARTESIAN_POINT('',(43.891390829132,-5.,-6.628649129335));
#320 = DIRECTION('',(-0.952773183837,0.,0.30368282823));
#321 = DIRECTION('',(-0.30368282823,0.,-0.952773183837));
#322 = ADVANCED_FACE('',(#323),#341,.F.);
#323 = FACE_BOUND('',#324,.F.);
#324 = EDGE_LOOP('',(#325,#326,#334,#340));
#325 = ORIENTED_EDGE('',*,*,#147,.T.);
#326 = ORIENTED_EDGE('',*,*,#327,.T.);
#327 = EDGE_CURVE('',#140,#328,#330,.T.);
#328 = VERTEX_POINT('',#329);
#329 = CARTESIAN_POINT('',(35.662741699797,20.8572529153,1.6));
#330 = LINE('',#331,#332);
#331 = CARTESIAN_POINT('',(35.662741699797,-5.,1.6));
#332 = VECTOR('',#333,1.);
#333 = DIRECTION('',(0.,1.,0.));
#334 = ORIENTED_EDGE('',*,*,#335,.F.);
#335 = EDGE_CURVE('',#297,#328,#336,.T.);
#336 = LINE('',#337,#338);
#337 = CARTESIAN_POINT('',(33.5241070341,20.8572529153,3.738634665697));
#338 = VECTOR('',#339,1.);
#339 = DIRECTION('',(-0.707106781187,0.,0.707106781187));
#340 = ORIENTED_EDGE('',*,*,#296,.F.);
#341 = PLANE('',#342);
#342 = AXIS2_PLACEMENT_3D('',#343,#344,#345);
#343 = CARTESIAN_POINT('',(35.662741699797,-5.,1.6));
#344 = DIRECTION('',(-0.707106781187,0.,-0.707106781187));
#345 = DIRECTION('',(0.707106781187,0.,-0.707106781187));
#346 = ADVANCED_FACE('',(#347),#365,.T.);
#347 = FACE_BOUND('',#348,.T.);
#348 = EDGE_LOOP('',(#349,#350,#351,#359));
#349 = ORIENTED_EDGE('',*,*,#139,.T.);
#350 = ORIENTED_EDGE('',*,*,#327,.T.);
#351 = ORIENTED_EDGE('',*,*,#352,.F.);
#352 = EDGE_CURVE('',#353,#328,#355,.T.);
#353 = VERTEX_POINT('',#354);
#354 = CARTESIAN_POINT('',(-32.57517518159,20.8572529153,1.6));
#355 = LINE('',#356,#357);
#356 = CARTESIAN_POINT('',(-4.901106540577,20.8572529153,1.6));
#357 = VECTOR('',#358,1.);
#358 = DIRECTION('',(1.,0.,0.));
#359 = ORIENTED_EDGE('',*,*,#360,.F.);
#360 = EDGE_CURVE('',#131,#353,#361,.T.);
#361 = LINE('',#362,#363);
#362 = CARTESIAN_POINT('',(-32.57517518159,-5.,1.6));
#363 = VECTOR('',#364,1.);
#364 = DIRECTION('',(0.,1.,0.));
#365 = PLANE('',#366);
#366 = AXIS2_PLACEMENT_3D('',#367,#368,#369);
#367 = CARTESIAN_POINT('',(35.662741699797,-5.,1.6));
#368 = DIRECTION('',(0.,0.,1.));
#369 = DIRECTION('',(-1.,0.,0.));
#370 = ADVANCED_FACE('',(#371),#390,.T.);
#371 = FACE_BOUND('',#372,.F.);
#372 = EDGE_LOOP('',(#373,#374,#382,#389));
#373 = ORIENTED_EDGE('',*,*,#130,.T.);
#374 = ORIENTED_EDGE('',*,*,#375,.T.);
#375 = EDGE_CURVE('',#123,#376,#378,.T.);
#376 = VERTEX_POINT('',#377);
#377 = CARTESIAN_POINT('',(-37.84598092218,20.8572529153,-0.583239222383
    ));
#378 = LINE('',#379,#380);
#379 = CARTESIAN_POINT('',(-37.84598092218,-5.,-0.583239222383));
#380 = VECTOR('',#381,1.);
#381 = DIRECTION('',(0.,1.,0.));
#382 = ORIENTED_EDGE('',*,*,#383,.F.);
#383 = EDGE_CURVE('',#353,#376,#384,.T.);
#384 = CIRCLE('',#385,7.454044962965);
#385 = AXIS2_PLACEMENT_3D('',#386,#387,#388);
#386 = CARTESIAN_POINT('',(-32.57517518159,20.8572529153,-5.854044962965
    ));
#387 = DIRECTION('',(0.,-1.,0.));
#388 = DIRECTION('',(1.,0.,0.));
#389 = ORIENTED_EDGE('',*,*,#360,.F.);
#390 = CYLINDRICAL_SURFACE('',#391,7.454044962965);
#391 = AXIS2_PLACEMENT_3D('',#392,#393,#394);
#392 = CARTESIAN_POINT('',(-32.57517518159,-5.,-5.854044962965));
#393 = DIRECTION('',(0.,-1.,0.));
#394 = DIRECTION('',(1.,0.,0.));
#395 = ADVANCED_FACE('',(#396),#414,.T.);
#396 = FACE_BOUND('',#397,.T.);
#397 = EDGE_LOOP('',(#398,#399,#400,#408));
#398 = ORIENTED_EDGE('',*,*,#122,.T.);
#399 = ORIENTED_EDGE('',*,*,#375,.T.);
#400 = ORIENTED_EDGE('',*,*,#401,.F.);
#401 = EDGE_CURVE('',#402,#376,#404,.T.);
#402 = VERTEX_POINT('',#403);
#403 = CARTESIAN_POINT('',(-40.68171555857,20.8572529153,-3.418973858775
    ));
#404 = LINE('',#405,#406);
#405 = CARTESIAN_POINT('',(-57.34820403576,20.8572529153,-20.08546233597
    ));
#406 = VECTOR('',#407,1.);
#407 = DIRECTION('',(0.707106781187,0.,0.707106781187));
#408 = ORIENTED_EDGE('',*,*,#409,.F.);
#409 = EDGE_CURVE('',#114,#402,#410,.T.);
#410 = LINE('',#411,#412);
#411 = CARTESIAN_POINT('',(-40.68171555857,-5.,-3.418973858775));
#412 = VECTOR('',#413,1.);
#413 = DIRECTION('',(0.,1.,0.));
#414 = PLANE('',#415);
#415 = AXIS2_PLACEMENT_3D('',#416,#417,#418);
#416 = CARTESIAN_POINT('',(-37.84598092218,-5.,-0.583239222383));
#417 = DIRECTION('',(-0.707106781187,0.,0.707106781187));
#418 = DIRECTION('',(-0.707106781187,0.,-0.707106781187));
#419 = ADVANCED_FACE('',(#420),#439,.T.);
#420 = FACE_BOUND('',#421,.F.);
#421 = EDGE_LOOP('',(#422,#423,#431,#438));
#422 = ORIENTED_EDGE('',*,*,#113,.T.);
#423 = ORIENTED_EDGE('',*,*,#424,.T.);
#424 = EDGE_CURVE('',#106,#425,#427,.T.);
#425 = VERTEX_POINT('',#426);
#426 = CARTESIAN_POINT('',(-42.51292396981,20.8572529153,-10.95344505546
    ));
#427 = LINE('',#428,#429);
#428 = CARTESIAN_POINT('',(-42.51292396981,-5.,-10.95344505546));
#429 = VECTOR('',#430,1.);
#430 = DIRECTION('',(0.,1.,0.));
#431 = ORIENTED_EDGE('',*,*,#432,.F.);
#432 = EDGE_CURVE('',#402,#425,#433,.T.);
#433 = CIRCLE('',#434,7.454044962965);
#434 = AXIS2_PLACEMENT_3D('',#435,#436,#437);
#435 = CARTESIAN_POINT('',(-35.41090981799,20.8572529153,-8.689779599357
    ));
#436 = DIRECTION('',(0.,-1.,0.));
#437 = DIRECTION('',(1.,0.,0.));
#438 = ORIENTED_EDGE('',*,*,#409,.F.);
#439 = CYLINDRICAL_SURFACE('',#440,7.454044962965);
#440 = AXIS2_PLACEMENT_3D('',#441,#442,#443);
#441 = CARTESIAN_POINT('',(-35.41090981799,-5.,-8.689779599357));
#442 = DIRECTION('',(0.,-1.,0.));
#443 = DIRECTION('',(1.,0.,0.));
#444 = ADVANCED_FACE('',(#445),#463,.T.);
#445 = FACE_BOUND('',#446,.T.);
#446 = EDGE_LOOP('',(#447,#448,#449,#457));
#447 = ORIENTED_EDGE('',*,*,#105,.T.);
#448 = ORIENTED_EDGE('',*,*,#424,.T.);
#449 = ORIENTED_EDGE('',*,*,#450,.F.);
#450 = EDGE_CURVE('',#451,#425,#453,.T.);
#451 = VERTEX_POINT('',#452);
#452 = CARTESIAN_POINT('',(-28.53633676819,20.8572529153,-54.80352892379
    ));
#453 = LINE('',#454,#455);
#454 = CARTESIAN_POINT('',(-33.96596941491,20.8572529153,-37.76862308461
    ));
#455 = VECTOR('',#456,1.);
#456 = DIRECTION('',(-0.30368282823,0.,0.952773183837));
#457 = ORIENTED_EDGE('',*,*,#458,.F.);
#458 = EDGE_CURVE('',#98,#451,#459,.T.);
#459 = LINE('',#460,#461);
#460 = CARTESIAN_POINT('',(-28.53633676819,-5.,-54.80352892379));
#461 = VECTOR('',#462,1.);
#462 = DIRECTION('',(0.,1.,0.));
#463 = PLANE('',#464);
#464 = AXIS2_PLACEMENT_3D('',#465,#466,#467);
#465 = CARTESIAN_POINT('',(-42.51292396981,-5.,-10.95344505546));
#466 = DIRECTION('',(-0.952773183837,0.,-0.30368282823));
#467 = DIRECTION('',(0.30368282823,0.,-0.952773183837));
#468 = ADVANCED_FACE('',(#469),#487,.T.);
#469 = FACE_BOUND('',#470,.T.);
#470 = EDGE_LOOP('',(#471,#472,#473,#481));
#471 = ORIENTED_EDGE('',*,*,#97,.T.);
#472 = ORIENTED_EDGE('',*,*,#458,.T.);
#473 = ORIENTED_EDGE('',*,*,#474,.F.);
#474 = EDGE_CURVE('',#475,#451,#477,.T.);
#475 = VERTEX_POINT('',#476);
#476 = CARTESIAN_POINT('',(-29.94071467356,20.8572529153,-56.16260351814
    ));
#477 = LINE('',#478,#479);
#478 = CARTESIAN_POINT('',(-36.94745061313,20.8572529153,-62.94331173664
    ));
#479 = VECTOR('',#480,1.);
#480 = DIRECTION('',(0.718602345805,0.,0.695421216677));
#481 = ORIENTED_EDGE('',*,*,#482,.F.);
#482 = EDGE_CURVE('',#89,#475,#483,.T.);
#483 = LINE('',#484,#485);
#484 = CARTESIAN_POINT('',(-29.94071467356,-5.,-56.16260351814));
#485 = VECTOR('',#486,1.);
#486 = DIRECTION('',(0.,1.,0.));
#487 = PLANE('',#488);
#488 = AXIS2_PLACEMENT_3D('',#489,#490,#491);
#489 = CARTESIAN_POINT('',(-28.53633676819,-5.,-54.80352892379));
#490 = DIRECTION('',(-0.695421216677,0.,0.718602345805));
#491 = DIRECTION('',(-0.718602345805,0.,-0.695421216677));
#492 = ADVANCED_FACE('',(#493),#512,.T.);
#493 = FACE_BOUND('',#494,.F.);
#494 = EDGE_LOOP('',(#495,#496,#504,#511));
#495 = ORIENTED_EDGE('',*,*,#88,.T.);
#496 = ORIENTED_EDGE('',*,*,#497,.T.);
#497 = EDGE_CURVE('',#81,#498,#500,.T.);
#498 = VERTEX_POINT('',#499);
#499 = CARTESIAN_POINT('',(-30.0937101258,20.8572529153,-65.49515903052)
  );
#500 = LINE('',#501,#502);
#501 = CARTESIAN_POINT('',(-30.0937101258,-5.,-65.49515903052));
#502 = VECTOR('',#503,1.);
#503 = DIRECTION('',(0.,1.,0.));
#504 = ORIENTED_EDGE('',*,*,#505,.F.);
#505 = EDGE_CURVE('',#475,#498,#506,.T.);
#506 = CIRCLE('',#507,6.6);
#507 = AXIS2_PLACEMENT_3D('',#508,#509,#510);
#508 = CARTESIAN_POINT('',(-25.35093464349,20.8572529153,-60.90537900045
    ));
#509 = DIRECTION('',(0.,-1.,0.));
#510 = DIRECTION('',(1.,0.,0.));
#511 = ORIENTED_EDGE('',*,*,#482,.F.);
#512 = CYLINDRICAL_SURFACE('',#513,6.6);
#513 = AXIS2_PLACEMENT_3D('',#514,#515,#516);
#514 = CARTESIAN_POINT('',(-25.35093464349,-5.,-60.90537900045));
#515 = DIRECTION('',(0.,-1.,0.));
#516 = DIRECTION('',(1.,0.,0.));
#517 = ADVANCED_FACE('',(#518),#536,.T.);
#518 = FACE_BOUND('',#519,.T.);
#519 = EDGE_LOOP('',(#520,#521,#522,#530));
#520 = ORIENTED_EDGE('',*,*,#80,.T.);
#521 = ORIENTED_EDGE('',*,*,#497,.T.);
#522 = ORIENTED_EDGE('',*,*,#523,.F.);
#523 = EDGE_CURVE('',#524,#498,#526,.T.);
#524 = VERTEX_POINT('',#525);
#525 = CARTESIAN_POINT('',(-28.86762797071,20.8572529153,-66.76211133463
    ));
#526 = LINE('',#527,#528);
#527 = CARTESIAN_POINT('',(-32.44179530228,20.8572529153,-63.0688029236)
  );
#528 = VECTOR('',#529,1.);
#529 = DIRECTION('',(-0.695421216677,0.,0.718602345805));
#530 = ORIENTED_EDGE('',*,*,#531,.F.);
#531 = EDGE_CURVE('',#72,#524,#532,.T.);
#532 = LINE('',#533,#534);
#533 = CARTESIAN_POINT('',(-28.86762797071,-5.,-66.76211133463));
#534 = VECTOR('',#535,1.);
#535 = DIRECTION('',(0.,1.,0.));
#536 = PLANE('',#537);
#537 = AXIS2_PLACEMENT_3D('',#538,#539,#540);
#538 = CARTESIAN_POINT('',(-30.0937101258,-5.,-65.49515903052));
#539 = DIRECTION('',(-0.718602345805,0.,-0.695421216677));
#540 = DIRECTION('',(0.695421216677,0.,-0.718602345805));
#541 = ADVANCED_FACE('',(#542),#561,.T.);
#542 = FACE_BOUND('',#543,.F.);
#543 = EDGE_LOOP('',(#544,#545,#553,#560));
#544 = ORIENTED_EDGE('',*,*,#71,.T.);
#545 = ORIENTED_EDGE('',*,*,#546,.T.);
#546 = EDGE_CURVE('',#64,#547,#549,.T.);
#547 = VERTEX_POINT('',#548);
#548 = CARTESIAN_POINT('',(-24.55693735351,20.8572529153,-66.83277965903
    ));
#549 = LINE('',#550,#551);
#550 = CARTESIAN_POINT('',(-24.55693735351,-5.,-66.83277965903));
#551 = VECTOR('',#552,1.);
#552 = DIRECTION('',(0.,1.,0.));
#553 = ORIENTED_EDGE('',*,*,#554,.F.);
#554 = EDGE_CURVE('',#524,#547,#555,.T.);
#555 = CIRCLE('',#556,3.048528137424);
#556 = AXIS2_PLACEMENT_3D('',#557,#558,#559);
#557 = CARTESIAN_POINT('',(-26.67694849991,20.8572529153,-64.64210018823
    ));
#558 = DIRECTION('',(0.,-1.,0.));
#559 = DIRECTION('',(1.,0.,0.));
#560 = ORIENTED_EDGE('',*,*,#531,.F.);
#561 = CYLINDRICAL_SURFACE('',#562,3.048528137424);
#562 = AXIS2_PLACEMENT_3D('',#563,#564,#565);
#563 = CARTESIAN_POINT('',(-26.67694849991,-5.,-64.64210018823));
#564 = DIRECTION('',(0.,-1.,0.));
#565 = DIRECTION('',(1.,0.,0.));
#566 = ADVANCED_FACE('',(#567),#585,.T.);
#567 = FACE_BOUND('',#568,.T.);
#568 = EDGE_LOOP('',(#569,#570,#571,#579));
#569 = ORIENTED_EDGE('',*,*,#63,.T.);
#570 = ORIENTED_EDGE('',*,*,#546,.T.);
#571 = ORIENTED_EDGE('',*,*,#572,.F.);
#572 = EDGE_CURVE('',#573,#547,#575,.T.);
#573 = VERTEX_POINT('',#574);
#574 = CARTESIAN_POINT('',(-19.96551814343,20.8572529153,-62.38947335481
    ));
#575 = LINE('',#576,#577);
#576 = CARTESIAN_POINT('',(-30.98981424001,20.8572529153,-73.05814073287
    ));
#577 = VECTOR('',#578,1.);
#578 = DIRECTION('',(-0.718602345805,0.,-0.695421216677));
#579 = ORIENTED_EDGE('',*,*,#580,.F.);
#580 = EDGE_CURVE('',#56,#573,#581,.T.);
#581 = LINE('',#582,#583);
#582 = CARTESIAN_POINT('',(-19.96551814343,-5.,-62.38947335481));
#583 = VECTOR('',#584,1.);
#584 = DIRECTION('',(0.,1.,0.));
#585 = PLANE('',#586);
#586 = AXIS2_PLACEMENT_3D('',#587,#588,#589);
#587 = CARTESIAN_POINT('',(-24.55693735351,-5.,-66.83277965903));
#588 = DIRECTION('',(0.695421216677,0.,-0.718602345805));
#589 = DIRECTION('',(0.718602345805,0.,0.695421216677));
#590 = ADVANCED_FACE('',(#591),#609,.F.);
#591 = FACE_BOUND('',#592,.F.);
#592 = EDGE_LOOP('',(#593,#594,#602,#608));
#593 = ORIENTED_EDGE('',*,*,#55,.T.);
#594 = ORIENTED_EDGE('',*,*,#595,.T.);
#595 = EDGE_CURVE('',#48,#596,#598,.T.);
#596 = VERTEX_POINT('',#597);
#597 = CARTESIAN_POINT('',(19.965518143439,20.8572529153,-62.38947335481
    ));
#598 = LINE('',#599,#600);
#599 = CARTESIAN_POINT('',(19.965518143439,-5.,-62.38947335481));
#600 = VECTOR('',#601,1.);
#601 = DIRECTION('',(0.,1.,0.));
#602 = ORIENTED_EDGE('',*,*,#603,.F.);
#603 = EDGE_CURVE('',#573,#596,#604,.T.);
#604 = LINE('',#605,#606);
#605 = CARTESIAN_POINT('',(-12.74971831875,20.8572529153,-62.38947335481
    ));
#606 = VECTOR('',#607,1.);
#607 = DIRECTION('',(1.,0.,0.));
#608 = ORIENTED_EDGE('',*,*,#580,.F.);
#609 = PLANE('',#610);
#610 = AXIS2_PLACEMENT_3D('',#611,#612,#613);
#611 = CARTESIAN_POINT('',(19.965518143439,-5.,-62.38947335481));
#612 = DIRECTION('',(0.,0.,1.));
#613 = DIRECTION('',(-1.,0.,0.));
#614 = ADVANCED_FACE('',(#615),#633,.F.);
#615 = FACE_BOUND('',#616,.F.);
#616 = EDGE_LOOP('',(#617,#618,#626,#632));
#617 = ORIENTED_EDGE('',*,*,#47,.T.);
#618 = ORIENTED_EDGE('',*,*,#619,.T.);
#619 = EDGE_CURVE('',#40,#620,#622,.T.);
#620 = VERTEX_POINT('',#621);
#621 = CARTESIAN_POINT('',(26.747616824317,20.8572529153,-68.95279080543
    ));
#622 = LINE('',#623,#624);
#623 = CARTESIAN_POINT('',(26.747616824317,-5.,-68.95279080543));
#624 = VECTOR('',#625,1.);
#625 = DIRECTION('',(0.,1.,0.));
#626 = ORIENTED_EDGE('',*,*,#627,.F.);
#627 = EDGE_CURVE('',#596,#620,#628,.T.);
#628 = LINE('',#629,#630);
#629 = CARTESIAN_POINT('',(8.607536374131,20.8572529153,-51.39788454757)
  );
#630 = VECTOR('',#631,1.);
#631 = DIRECTION('',(0.718602345805,0.,-0.695421216677));
#632 = ORIENTED_EDGE('',*,*,#595,.F.);
#633 = PLANE('',#634);
#634 = AXIS2_PLACEMENT_3D('',#635,#636,#637);
#635 = CARTESIAN_POINT('',(26.747616824317,-5.,-68.95279080543));
#636 = DIRECTION('',(0.695421216677,0.,0.718602345805));
#637 = DIRECTION('',(-0.718602345805,0.,0.695421216677));
#638 = ADVANCED_FACE('',(#639),#657,.F.);
#639 = FACE_BOUND('',#640,.F.);
#640 = EDGE_LOOP('',(#641,#642,#650,#656));
#641 = ORIENTED_EDGE('',*,*,#39,.T.);
#642 = ORIENTED_EDGE('',*,*,#643,.T.);
#643 = EDGE_CURVE('',#32,#644,#646,.T.);
#644 = VERTEX_POINT('',#645);
#645 = CARTESIAN_POINT('',(34.683490155872,20.8572529153,-60.75238354821
    ));
#646 = LINE('',#647,#648);
#647 = CARTESIAN_POINT('',(34.683490155872,-5.,-60.75238354821));
#648 = VECTOR('',#649,1.);
#649 = DIRECTION('',(0.,1.,0.));
#650 = ORIENTED_EDGE('',*,*,#651,.F.);
#651 = EDGE_CURVE('',#620,#644,#652,.T.);
#652 = LINE('',#653,#654);
#653 = CARTESIAN_POINT('',(12.749348137648,20.8572529153,-83.41767694094
    ));
#654 = VECTOR('',#655,1.);
#655 = DIRECTION('',(0.695421216677,0.,0.718602345805));
#656 = ORIENTED_EDGE('',*,*,#619,.F.);
#657 = PLANE('',#658);
#658 = AXIS2_PLACEMENT_3D('',#659,#660,#661);
#659 = CARTESIAN_POINT('',(34.683490155872,-5.,-60.75238354821));
#660 = DIRECTION('',(-0.718602345805,0.,0.695421216677));
#661 = DIRECTION('',(-0.695421216677,0.,-0.718602345805));
#662 = ADVANCED_FACE('',(#663),#674,.F.);
#663 = FACE_BOUND('',#664,.F.);
#664 = EDGE_LOOP('',(#665,#666,#667,#673));
#665 = ORIENTED_EDGE('',*,*,#31,.T.);
#666 = ORIENTED_EDGE('',*,*,#312,.T.);
#667 = ORIENTED_EDGE('',*,*,#668,.F.);
#668 = EDGE_CURVE('',#644,#305,#669,.T.);
#669 = LINE('',#670,#671);
#670 = CARTESIAN_POINT('',(13.469833011847,20.8572529153,-40.22304997814
    ));
#671 = VECTOR('',#672,1.);
#672 = DIRECTION('',(-0.718602345805,0.,0.695421216677));
#673 = ORIENTED_EDGE('',*,*,#643,.F.);
#674 = PLANE('',#675);
#675 = AXIS2_PLACEMENT_3D('',#676,#677,#678);
#676 = CARTESIAN_POINT('',(28.536336768195,-5.,-54.80352892379));
#677 = DIRECTION('',(-0.695421216677,0.,-0.718602345805));
#678 = DIRECTION('',(0.718602345805,0.,-0.695421216677));
#679 = ADVANCED_FACE('',(#680),#705,.T.);
#680 = FACE_BOUND('',#681,.T.);
#681 = EDGE_LOOP('',(#682,#690,#691,#699));
#682 = ORIENTED_EDGE('',*,*,#683,.F.);
#683 = EDGE_CURVE('',#156,#684,#686,.T.);
#684 = VERTEX_POINT('',#685);
#685 = CARTESIAN_POINT('',(32.703857168398,3.2,-60.78483712899));
#686 = LINE('',#687,#688);
#687 = CARTESIAN_POINT('',(32.703857168398,3.,-60.78483712899));
#688 = VECTOR('',#689,1.);
#689 = DIRECTION('',(0.,1.,0.));
#690 = ORIENTED_EDGE('',*,*,#155,.T.);
#691 = ORIENTED_EDGE('',*,*,#692,.F.);
#692 = EDGE_CURVE('',#693,#158,#695,.T.);
#693 = VERTEX_POINT('',#694);
#694 = CARTESIAN_POINT('',(26.938753236523,3.2,-55.20570756731));
#695 = LINE('',#696,#697);
#696 = CARTESIAN_POINT('',(26.938753236523,3.,-55.20570756731));
#697 = VECTOR('',#698,1.);
#698 = DIRECTION('',(0.,-1.,0.));
#699 = ORIENTED_EDGE('',*,*,#700,.F.);
#700 = EDGE_CURVE('',#684,#693,#701,.T.);
#701 = LINE('',#702,#703);
#702 = CARTESIAN_POINT('',(16.008242280412,3.2,-44.62779994931));
#703 = VECTOR('',#704,1.);
#704 = DIRECTION('',(-0.718602345805,0.,0.695421216677));
#705 = PLANE('',#706);
#706 = AXIS2_PLACEMENT_3D('',#707,#708,#709);
#707 = CARTESIAN_POINT('',(29.704873980143,3.,-57.88259703786));
#708 = DIRECTION('',(-0.695421216677,0.,-0.718602345805));
#709 = DIRECTION('',(-0.718602345805,0.,0.695421216677));
#710 = ADVANCED_FACE('',(#711),#729,.T.);
#711 = FACE_BOUND('',#712,.T.);
#712 = EDGE_LOOP('',(#713,#721,#722,#723));
#713 = ORIENTED_EDGE('',*,*,#714,.F.);
#714 = EDGE_CURVE('',#274,#715,#717,.T.);
#715 = VERTEX_POINT('',#716);
#716 = CARTESIAN_POINT('',(26.715163243538,3.2,-66.97315781796));
#717 = LINE('',#718,#719);
#718 = CARTESIAN_POINT('',(26.715163243538,3.,-66.97315781796));
#719 = VECTOR('',#720,1.);
#720 = DIRECTION('',(0.,1.,0.));
#721 = ORIENTED_EDGE('',*,*,#281,.T.);
#722 = ORIENTED_EDGE('',*,*,#683,.T.);
#723 = ORIENTED_EDGE('',*,*,#724,.F.);
#724 = EDGE_CURVE('',#715,#684,#725,.T.);
#725 = LINE('',#726,#727);
#726 = CARTESIAN_POINT('',(30.25240665457,3.2,-63.31800414721));
#727 = VECTOR('',#728,1.);
#728 = DIRECTION('',(0.695421216677,0.,0.718602345805));
#729 = PLANE('',#730);
#730 = AXIS2_PLACEMENT_3D('',#731,#732,#733);
#731 = CARTESIAN_POINT('',(29.709510205968,3.,-63.87899747347));
#732 = DIRECTION('',(-0.718602345805,0.,0.695421216677));
#733 = DIRECTION('',(0.695421216677,0.,0.718602345805));
#734 = ADVANCED_FACE('',(#735),#753,.T.);
#735 = FACE_BOUND('',#736,.T.);
#736 = EDGE_LOOP('',(#737,#745,#746,#747));
#737 = ORIENTED_EDGE('',*,*,#738,.F.);
#738 = EDGE_CURVE('',#693,#739,#741,.T.);
#739 = VERTEX_POINT('',#740);
#740 = CARTESIAN_POINT('',(42.298608189024,3.2,-7.015765476549));
#741 = LINE('',#742,#743);
#742 = CARTESIAN_POINT('',(32.699020781567,3.2,-37.13346923684));
#743 = VECTOR('',#744,1.);
#744 = DIRECTION('',(0.30368282823,0.,0.952773183837));
#745 = ORIENTED_EDGE('',*,*,#692,.T.);
#746 = ORIENTED_EDGE('',*,*,#165,.T.);
#747 = ORIENTED_EDGE('',*,*,#748,.F.);
#748 = EDGE_CURVE('',#739,#166,#749,.T.);
#749 = LINE('',#750,#751);
#750 = CARTESIAN_POINT('',(42.298608189024,3.,-7.015765476549));
#751 = VECTOR('',#752,1.);
#752 = DIRECTION('',(0.,-1.,0.));
#753 = PLANE('',#754);
#754 = AXIS2_PLACEMENT_3D('',#755,#756,#757);
#755 = CARTESIAN_POINT('',(34.581352051556,3.,-31.22785130119));
#756 = DIRECTION('',(-0.952773183837,0.,0.30368282823));
#757 = DIRECTION('',(0.30368282823,0.,0.952773183837));
#758 = ADVANCED_FACE('',(#759),#777,.T.);
#759 = FACE_BOUND('',#760,.T.);
#760 = EDGE_LOOP('',(#761,#769,#775,#776));
#761 = ORIENTED_EDGE('',*,*,#762,.F.);
#762 = EDGE_CURVE('',#763,#715,#765,.T.);
#763 = VERTEX_POINT('',#764);
#764 = CARTESIAN_POINT('',(20.532019001374,3.2,-60.98947335481));
#765 = LINE('',#766,#767);
#766 = CARTESIAN_POINT('',(9.922784884512,3.2,-50.72247862452));
#767 = VECTOR('',#768,1.);
#768 = DIRECTION('',(0.718602345805,0.,-0.695421216677));
#769 = ORIENTED_EDGE('',*,*,#770,.T.);
#770 = EDGE_CURVE('',#763,#266,#771,.T.);
#771 = LINE('',#772,#773);
#772 = CARTESIAN_POINT('',(20.532019001374,3.,-60.98947335481));
#773 = VECTOR('',#774,1.);
#774 = DIRECTION('',(0.,-1.,0.));
#775 = ORIENTED_EDGE('',*,*,#273,.T.);
#776 = ORIENTED_EDGE('',*,*,#714,.T.);
#777 = PLANE('',#778);
#778 = AXIS2_PLACEMENT_3D('',#779,#780,#781);
#779 = CARTESIAN_POINT('',(23.522653113203,3.,-63.8836336993));
#780 = DIRECTION('',(0.695421216677,0.,0.718602345805));
#781 = DIRECTION('',(0.718602345805,0.,-0.695421216677));
#782 = ADVANCED_FACE('',(#783),#801,.T.);
#783 = FACE_BOUND('',#784,.T.);
#784 = EDGE_LOOP('',(#785,#786,#787,#795));
#785 = ORIENTED_EDGE('',*,*,#748,.T.);
#786 = ORIENTED_EDGE('',*,*,#173,.T.);
#787 = ORIENTED_EDGE('',*,*,#788,.F.);
#788 = EDGE_CURVE('',#789,#174,#791,.T.);
#789 = VERTEX_POINT('',#790);
#790 = CARTESIAN_POINT('',(35.082842712475,3.2,0.2));
#791 = LINE('',#792,#793);
#792 = CARTESIAN_POINT('',(35.082842712475,3.,0.2));
#793 = VECTOR('',#794,1.);
#794 = DIRECTION('',(0.,-1.,0.));
#795 = ORIENTED_EDGE('',*,*,#796,.F.);
#796 = EDGE_CURVE('',#739,#789,#797,.T.);
#797 = LINE('',#798,#799);
#798 = CARTESIAN_POINT('',(36.596246576251,3.2,-1.313403863776));
#799 = VECTOR('',#800,1.);
#800 = DIRECTION('',(-0.707106781187,0.,0.707106781187));
#801 = PLANE('',#802);
#802 = AXIS2_PLACEMENT_3D('',#803,#804,#805);
#803 = CARTESIAN_POINT('',(38.67695526217,3.,-3.394112549695));
#804 = DIRECTION('',(-0.707106781187,0.,-0.707106781187));
#805 = DIRECTION('',(-0.707106781187,0.,0.707106781187));
#806 = ADVANCED_FACE('',(#807),#825,.T.);
#807 = FACE_BOUND('',#808,.T.);
#808 = EDGE_LOOP('',(#809,#817,#818,#819));
#809 = ORIENTED_EDGE('',*,*,#810,.F.);
#810 = EDGE_CURVE('',#258,#811,#813,.T.);
#811 = VERTEX_POINT('',#812);
#812 = CARTESIAN_POINT('',(-20.53201900137,3.2,-60.98947335481));
#813 = LINE('',#814,#815);
#814 = CARTESIAN_POINT('',(-20.53201900137,3.,-60.98947335481));
#815 = VECTOR('',#816,1.);
#816 = DIRECTION('',(0.,1.,0.));
#817 = ORIENTED_EDGE('',*,*,#265,.T.);
#818 = ORIENTED_EDGE('',*,*,#770,.F.);
#819 = ORIENTED_EDGE('',*,*,#820,.F.);
#820 = EDGE_CURVE('',#811,#763,#821,.T.);
#821 = LINE('',#822,#823);
#822 = CARTESIAN_POINT('',(5.354765181569,3.2,-60.98947335481));
#823 = VECTOR('',#824,1.);
#824 = DIRECTION('',(1.,0.,0.));
#825 = PLANE('',#826);
#826 = AXIS2_PLACEMENT_3D('',#827,#828,#829);
#827 = CARTESIAN_POINT('',(10.306473847682,3.,-60.98947335481));
#828 = DIRECTION('',(0.,0.,1.));
#829 = DIRECTION('',(0.,-1.,0.));
#830 = ADVANCED_FACE('',(#831),#849,.F.);
#831 = FACE_BOUND('',#832,.F.);
#832 = EDGE_LOOP('',(#833,#834,#842,#848));
#833 = ORIENTED_EDGE('',*,*,#788,.F.);
#834 = ORIENTED_EDGE('',*,*,#835,.F.);
#835 = EDGE_CURVE('',#836,#789,#838,.T.);
#836 = VERTEX_POINT('',#837);
#837 = CARTESIAN_POINT('',(-32.57517518159,3.2,0.2));
#838 = LINE('',#839,#840);
#839 = CARTESIAN_POINT('',(-7.942265537672,3.2,0.2));
#840 = VECTOR('',#841,1.);
#841 = DIRECTION('',(1.,0.,0.));
#842 = ORIENTED_EDGE('',*,*,#843,.T.);
#843 = EDGE_CURVE('',#836,#182,#844,.T.);
#844 = LINE('',#845,#846);
#845 = CARTESIAN_POINT('',(-32.57517518159,3.,0.2));
#846 = VECTOR('',#847,1.);
#847 = DIRECTION('',(0.,-1.,0.));
#848 = ORIENTED_EDGE('',*,*,#181,.T.);
#849 = PLANE('',#850);
#850 = AXIS2_PLACEMENT_3D('',#851,#852,#853);
#851 = CARTESIAN_POINT('',(-16.28758759079,3.,0.2));
#852 = DIRECTION('',(0.,0.,1.));
#853 = DIRECTION('',(0.,-1.,0.));
#854 = ADVANCED_FACE('',(#855),#873,.F.);
#855 = FACE_BOUND('',#856,.F.);
#856 = EDGE_LOOP('',(#857,#865,#871,#872));
#857 = ORIENTED_EDGE('',*,*,#858,.F.);
#858 = EDGE_CURVE('',#859,#249,#861,.T.);
#859 = VERTEX_POINT('',#860);
#860 = CARTESIAN_POINT('',(-25.53052705686,3.2,-65.82673637491));
#861 = LINE('',#862,#863);
#862 = CARTESIAN_POINT('',(-25.53052705686,3.,-65.82673637491));
#863 = VECTOR('',#864,1.);
#864 = DIRECTION('',(0.,-1.,0.));
#865 = ORIENTED_EDGE('',*,*,#866,.F.);
#866 = EDGE_CURVE('',#811,#859,#867,.T.);
#867 = LINE('',#868,#869);
#868 = CARTESIAN_POINT('',(-9.454421870603,3.2,-50.26922436104));
#869 = VECTOR('',#870,1.);
#870 = DIRECTION('',(-0.718602345805,0.,-0.695421216677));
#871 = ORIENTED_EDGE('',*,*,#810,.F.);
#872 = ORIENTED_EDGE('',*,*,#257,.T.);
#873 = PLANE('',#874);
#874 = AXIS2_PLACEMENT_3D('',#875,#876,#877);
#875 = CARTESIAN_POINT('',(-23.00219525444,3.,-63.37996509944));
#876 = DIRECTION('',(0.695421216677,0.,-0.718602345805));
#877 = DIRECTION('',(-0.718602345805,0.,-0.695421216677));
#878 = ADVANCED_FACE('',(#879),#898,.F.);
#879 = FACE_BOUND('',#880,.F.);
#880 = EDGE_LOOP('',(#881,#882,#891,#897));
#881 = ORIENTED_EDGE('',*,*,#843,.F.);
#882 = ORIENTED_EDGE('',*,*,#883,.T.);
#883 = EDGE_CURVE('',#836,#884,#886,.T.);
#884 = VERTEX_POINT('',#885);
#885 = CARTESIAN_POINT('',(-36.85603142851,3.2,-1.573188716044));
#886 = CIRCLE('',#887,6.054044962965);
#887 = AXIS2_PLACEMENT_3D('',#888,#889,#890);
#888 = CARTESIAN_POINT('',(-32.57517518159,3.2,-5.854044962965));
#889 = DIRECTION('',(0.,-1.,0.));
#890 = DIRECTION('',(-1.,0.,0.));
#891 = ORIENTED_EDGE('',*,*,#892,.T.);
#892 = EDGE_CURVE('',#884,#190,#893,.T.);
#893 = LINE('',#894,#895);
#894 = CARTESIAN_POINT('',(-36.85603142851,3.,-1.573188716044));
#895 = VECTOR('',#896,1.);
#896 = DIRECTION('',(0.,-1.,0.));
#897 = ORIENTED_EDGE('',*,*,#189,.F.);
#898 = CYLINDRICAL_SURFACE('',#899,6.054044962965);
#899 = AXIS2_PLACEMENT_3D('',#900,#901,#902);
#900 = CARTESIAN_POINT('',(-32.57517518159,3.,-5.854044962965));
#901 = DIRECTION('',(0.,-1.,0.));
#902 = DIRECTION('',(-1.,0.,0.));
#903 = ADVANCED_FACE('',(#904),#923,.F.);
#904 = FACE_BOUND('',#905,.F.);
#905 = EDGE_LOOP('',(#906,#914,#921,#922));
#906 = ORIENTED_EDGE('',*,*,#907,.F.);
#907 = EDGE_CURVE('',#908,#241,#910,.T.);
#908 = VERTEX_POINT('',#909);
#909 = CARTESIAN_POINT('',(-27.86158468659,3.2,-65.78852163128));
#910 = LINE('',#911,#912);
#911 = CARTESIAN_POINT('',(-27.86158468659,3.,-65.78852163128));
#912 = VECTOR('',#913,1.);
#913 = DIRECTION('',(0.,-1.,0.));
#914 = ORIENTED_EDGE('',*,*,#915,.T.);
#915 = EDGE_CURVE('',#908,#859,#916,.T.);
#916 = CIRCLE('',#917,1.648528137424);
#917 = AXIS2_PLACEMENT_3D('',#918,#919,#920);
#918 = CARTESIAN_POINT('',(-26.67694849991,3.2,-64.64210018823));
#919 = DIRECTION('',(0.,-1.,0.));
#920 = DIRECTION('',(-1.,0.,0.));
#921 = ORIENTED_EDGE('',*,*,#858,.T.);
#922 = ORIENTED_EDGE('',*,*,#248,.F.);
#923 = CYLINDRICAL_SURFACE('',#924,1.648528137424);
#924 = AXIS2_PLACEMENT_3D('',#925,#926,#927);
#925 = CARTESIAN_POINT('',(-26.67694849991,3.,-64.64210018823));
#926 = DIRECTION('',(0.,-1.,0.));
#927 = DIRECTION('',(-1.,0.,0.));
#928 = ADVANCED_FACE('',(#929),#947,.F.);
#929 = FACE_BOUND('',#930,.F.);
#930 = EDGE_LOOP('',(#931,#932,#940,#946));
#931 = ORIENTED_EDGE('',*,*,#892,.F.);
#932 = ORIENTED_EDGE('',*,*,#933,.F.);
#933 = EDGE_CURVE('',#934,#884,#936,.T.);
#934 = VERTEX_POINT('',#935);
#935 = CARTESIAN_POINT('',(-39.69176606491,3.2,-4.408923352436));
#936 = LINE('',#937,#938);
#937 = CARTESIAN_POINT('',(-36.19319006079,3.2,-0.910347348321));
#938 = VECTOR('',#939,1.);
#939 = DIRECTION('',(0.707106781187,0.,0.707106781187));
#940 = ORIENTED_EDGE('',*,*,#941,.T.);
#941 = EDGE_CURVE('',#934,#199,#942,.T.);
#942 = LINE('',#943,#944);
#943 = CARTESIAN_POINT('',(-39.69176606491,3.,-4.408923352436));
#944 = VECTOR('',#945,1.);
#945 = DIRECTION('',(0.,-1.,0.));
#946 = ORIENTED_EDGE('',*,*,#198,.T.);
#947 = PLANE('',#948);
#948 = AXIS2_PLACEMENT_3D('',#949,#950,#951);
#949 = CARTESIAN_POINT('',(-38.27389874671,3.,-2.99105603424));
#950 = DIRECTION('',(-0.707106781187,0.,0.707106781187));
#951 = DIRECTION('',(0.707106781187,0.,0.707106781187));
#952 = ADVANCED_FACE('',(#953),#971,.F.);
#953 = FACE_BOUND('',#954,.F.);
#954 = EDGE_LOOP('',(#955,#963,#969,#970));
#955 = ORIENTED_EDGE('',*,*,#956,.F.);
#956 = EDGE_CURVE('',#957,#232,#959,.T.);
#957 = VERTEX_POINT('',#958);
#958 = CARTESIAN_POINT('',(-29.08766684168,3.2,-64.52156932717));
#959 = LINE('',#960,#961);
#960 = CARTESIAN_POINT('',(-29.08766684168,3.,-64.52156932717));
#961 = VECTOR('',#962,1.);
#962 = DIRECTION('',(0.,-1.,0.));
#963 = ORIENTED_EDGE('',*,*,#964,.F.);
#964 = EDGE_CURVE('',#908,#957,#965,.T.);
#965 = LINE('',#966,#967);
#966 = CARTESIAN_POINT('',(-29.44004200272,3.2,-64.15744811364));
#967 = VECTOR('',#968,1.);
#968 = DIRECTION('',(-0.695421216677,0.,0.718602345805));
#969 = ORIENTED_EDGE('',*,*,#907,.T.);
#970 = ORIENTED_EDGE('',*,*,#240,.T.);
#971 = PLANE('',#972);
#972 = AXIS2_PLACEMENT_3D('',#973,#974,#975);
#973 = CARTESIAN_POINT('',(-28.47462576413,3.,-65.15504547923));
#974 = DIRECTION('',(-0.718602345805,0.,-0.695421216677));
#975 = DIRECTION('',(-0.695421216677,0.,0.718602345805));
#976 = ADVANCED_FACE('',(#977),#996,.F.);
#977 = FACE_BOUND('',#978,.F.);
#978 = EDGE_LOOP('',(#979,#980,#989,#995));
#979 = ORIENTED_EDGE('',*,*,#941,.F.);
#980 = ORIENTED_EDGE('',*,*,#981,.T.);
#981 = EDGE_CURVE('',#934,#982,#984,.T.);
#982 = VERTEX_POINT('',#983);
#983 = CARTESIAN_POINT('',(-41.17904151244,3.2,-10.52828909594));
#984 = CIRCLE('',#985,6.054044962965);
#985 = AXIS2_PLACEMENT_3D('',#986,#987,#988);
#986 = CARTESIAN_POINT('',(-35.41090981799,3.2,-8.689779599357));
#987 = DIRECTION('',(0.,-1.,0.));
#988 = DIRECTION('',(-1.,0.,0.));
#989 = ORIENTED_EDGE('',*,*,#990,.T.);
#990 = EDGE_CURVE('',#982,#207,#991,.T.);
#991 = LINE('',#992,#993);
#992 = CARTESIAN_POINT('',(-41.17904151244,3.,-10.52828909594));
#993 = VECTOR('',#994,1.);
#994 = DIRECTION('',(0.,-1.,0.));
#995 = ORIENTED_EDGE('',*,*,#206,.F.);
#996 = CYLINDRICAL_SURFACE('',#997,6.054044962965);
#997 = AXIS2_PLACEMENT_3D('',#998,#999,#1000);
#998 = CARTESIAN_POINT('',(-35.41090981799,3.,-8.689779599357));
#999 = DIRECTION('',(0.,-1.,0.));
#1000 = DIRECTION('',(-1.,0.,0.));
#1001 = ADVANCED_FACE('',(#1002),#1021,.F.);
#1002 = FACE_BOUND('',#1003,.F.);
#1003 = EDGE_LOOP('',(#1004,#1012,#1019,#1020));
#1004 = ORIENTED_EDGE('',*,*,#1005,.F.);
#1005 = EDGE_CURVE('',#1006,#224,#1008,.T.);
#1006 = VERTEX_POINT('',#1007);
#1007 = CARTESIAN_POINT('',(-28.96712497021,3.2,-57.16864680227));
#1008 = LINE('',#1009,#1010);
#1009 = CARTESIAN_POINT('',(-28.96712497021,3.,-57.16864680227));
#1010 = VECTOR('',#1011,1.);
#1011 = DIRECTION('',(0.,-1.,0.));
#1012 = ORIENTED_EDGE('',*,*,#1013,.T.);
#1013 = EDGE_CURVE('',#1006,#957,#1014,.T.);
#1014 = CIRCLE('',#1015,5.2);
#1015 = AXIS2_PLACEMENT_3D('',#1016,#1017,#1018);
#1016 = CARTESIAN_POINT('',(-25.35093464349,3.2,-60.90537900045));
#1017 = DIRECTION('',(0.,-1.,0.));
#1018 = DIRECTION('',(-1.,0.,0.));
#1019 = ORIENTED_EDGE('',*,*,#956,.T.);
#1020 = ORIENTED_EDGE('',*,*,#231,.F.);
#1021 = CYLINDRICAL_SURFACE('',#1022,5.2);
#1022 = AXIS2_PLACEMENT_3D('',#1023,#1024,#1025);
#1023 = CARTESIAN_POINT('',(-25.35093464349,3.,-60.90537900045));
#1024 = DIRECTION('',(0.,-1.,0.));
#1025 = DIRECTION('',(-1.,0.,0.));
#1026 = ADVANCED_FACE('',(#1027),#1045,.F.);
#1027 = FACE_BOUND('',#1028,.F.);
#1028 = EDGE_LOOP('',(#1029,#1030,#1038,#1044));
#1029 = ORIENTED_EDGE('',*,*,#990,.F.);
#1030 = ORIENTED_EDGE('',*,*,#1031,.F.);
#1031 = EDGE_CURVE('',#1032,#982,#1034,.T.);
#1032 = VERTEX_POINT('',#1033);
#1033 = CARTESIAN_POINT('',(-26.93875323652,3.2,-55.20570756731));
#1034 = LINE('',#1035,#1036);
#1035 = CARTESIAN_POINT('',(-32.39120436163,3.2,-38.09921113329));
#1036 = VECTOR('',#1037,1.);
#1037 = DIRECTION('',(-0.30368282823,0.,0.952773183837));
#1038 = ORIENTED_EDGE('',*,*,#1039,.T.);
#1039 = EDGE_CURVE('',#1032,#216,#1040,.T.);
#1040 = LINE('',#1041,#1042);
#1041 = CARTESIAN_POINT('',(-26.93875323652,3.,-55.20570756731));
#1042 = VECTOR('',#1043,1.);
#1043 = DIRECTION('',(0.,-1.,0.));
#1044 = ORIENTED_EDGE('',*,*,#215,.T.);
#1045 = PLANE('',#1046);
#1046 = AXIS2_PLACEMENT_3D('',#1047,#1048,#1049);
#1047 = CARTESIAN_POINT('',(-34.04006158346,3.,-32.92609366041));
#1048 = DIRECTION('',(-0.952773183837,0.,-0.30368282823));
#1049 = DIRECTION('',(-0.30368282823,0.,0.952773183837));
#1050 = ADVANCED_FACE('',(#1051),#1062,.F.);
#1051 = FACE_BOUND('',#1052,.F.);
#1052 = EDGE_LOOP('',(#1053,#1054,#1060,#1061));
#1053 = ORIENTED_EDGE('',*,*,#1039,.F.);
#1054 = ORIENTED_EDGE('',*,*,#1055,.F.);
#1055 = EDGE_CURVE('',#1006,#1032,#1056,.T.);
#1056 = LINE('',#1057,#1058);
#1057 = CARTESIAN_POINT('',(-14.90185526362,3.2,-43.55710346492));
#1058 = VECTOR('',#1059,1.);
#1059 = DIRECTION('',(0.718602345805,0.,0.695421216677));
#1060 = ORIENTED_EDGE('',*,*,#1005,.T.);
#1061 = ORIENTED_EDGE('',*,*,#223,.T.);
#1062 = PLANE('',#1063);
#1063 = AXIS2_PLACEMENT_3D('',#1064,#1065,#1066);
#1064 = CARTESIAN_POINT('',(-27.90836811563,3.,-56.14404399617));
#1065 = DIRECTION('',(-0.695421216677,0.,0.718602345805));
#1066 = DIRECTION('',(0.718602345805,0.,0.695421216677));
#1067 = ADVANCED_FACE('',(#1068),#1086,.T.);
#1068 = FACE_BOUND('',#1069,.T.);
#1069 = EDGE_LOOP('',(#1070,#1071,#1072,#1073,#1074,#1075,#1076,#1077,
    #1078,#1079,#1080,#1081,#1082,#1083,#1084,#1085));
#1070 = ORIENTED_EDGE('',*,*,#304,.F.);
#1071 = ORIENTED_EDGE('',*,*,#668,.F.);
#1072 = ORIENTED_EDGE('',*,*,#651,.F.);
#1073 = ORIENTED_EDGE('',*,*,#627,.F.);
#1074 = ORIENTED_EDGE('',*,*,#603,.F.);
#1075 = ORIENTED_EDGE('',*,*,#572,.T.);
#1076 = ORIENTED_EDGE('',*,*,#554,.F.);
#1077 = ORIENTED_EDGE('',*,*,#523,.T.);
#1078 = ORIENTED_EDGE('',*,*,#505,.F.);
#1079 = ORIENTED_EDGE('',*,*,#474,.T.);
#1080 = ORIENTED_EDGE('',*,*,#450,.T.);
#1081 = ORIENTED_EDGE('',*,*,#432,.F.);
#1082 = ORIENTED_EDGE('',*,*,#401,.T.);
#1083 = ORIENTED_EDGE('',*,*,#383,.F.);
#1084 = ORIENTED_EDGE('',*,*,#352,.T.);
#1085 = ORIENTED_EDGE('',*,*,#335,.F.);
#1086 = PLANE('',#1087);
#1087 = AXIS2_PLACEMENT_3D('',#1088,#1089,#1090);
#1088 = CARTESIAN_POINT('',(-45.46495478095,20.8572529153,
    -70.97315781796));
#1089 = DIRECTION('',(0.,1.,0.));
#1090 = DIRECTION('',(0.,0.,1.));
#1091 = ADVANCED_FACE('',(#1092,#1142,#1153,#1171,#1205),#1216,.F.);
#1092 = FACE_BOUND('',#1093,.F.);
#1093 = EDGE_LOOP('',(#1094,#1104,#1112,#1120,#1128,#1136));
#1094 = ORIENTED_EDGE('',*,*,#1095,.F.);
#1095 = EDGE_CURVE('',#1096,#1098,#1100,.T.);
#1096 = VERTEX_POINT('',#1097);
#1097 = CARTESIAN_POINT('',(16.626582997737,3.2,-8.940188245231));
#1098 = VERTEX_POINT('',#1099);
#1099 = CARTESIAN_POINT('',(4.383041634064E-04,3.2,-8.903751615529));
#1100 = LINE('',#1101,#1102);
#1101 = CARTESIAN_POINT('',(4.347099726942,3.2,-8.913277437397));
#1102 = VECTOR('',#1103,1.);
#1103 = DIRECTION('',(-0.999997598615,0.,2.19152081707E-03));
#1104 = ORIENTED_EDGE('',*,*,#1105,.F.);
#1105 = EDGE_CURVE('',#1106,#1096,#1108,.T.);
#1106 = VERTEX_POINT('',#1107);
#1107 = CARTESIAN_POINT('',(19.029295926024,3.2,-17.63009960955));
#1108 = LINE('',#1109,#1110);
#1109 = CARTESIAN_POINT('',(19.849519003668,3.2,-20.59660707692));
#1110 = VECTOR('',#1111,1.);
#1111 = DIRECTION('',(-0.26649542889,0.,0.963836182336));
#1112 = ORIENTED_EDGE('',*,*,#1113,.F.);
#1113 = EDGE_CURVE('',#1114,#1106,#1116,.T.);
#1114 = VERTEX_POINT('',#1115);
#1115 = CARTESIAN_POINT('',(22.059435554995,3.2,-3.734519760785));
#1116 = LINE('',#1117,#1118);
#1117 = CARTESIAN_POINT('',(17.698510515043,3.2,-23.73280021221));
#1118 = VECTOR('',#1119,1.);
#1119 = DIRECTION('',(-0.213058124893,0.,-0.977039526026));
#1120 = ORIENTED_EDGE('',*,*,#1121,.F.);
#1121 = EDGE_CURVE('',#1122,#1114,#1124,.T.);
#1122 = VERTEX_POINT('',#1123);
#1123 = CARTESIAN_POINT('',(-21.72552223146,3.2,-3.734519760785));
#1124 = LINE('',#1125,#1126);
#1125 = CARTESIAN_POINT('',(0.297084840953,3.2,-3.734519760785));
#1126 = VECTOR('',#1127,1.);
#1127 = DIRECTION('',(1.,0.,0.));
#1128 = ORIENTED_EDGE('',*,*,#1129,.F.);
#1129 = EDGE_CURVE('',#1130,#1122,#1132,.T.);
#1130 = VERTEX_POINT('',#1131);
#1131 = CARTESIAN_POINT('',(-21.72552223146,3.2,-8.903751135252));
#1132 = LINE('',#1133,#1134);
#1133 = CARTESIAN_POINT('',(-21.72552223146,3.2,-19.83215600037));
#1134 = VECTOR('',#1135,1.);
#1135 = DIRECTION('',(0.,0.,1.));
#1136 = ORIENTED_EDGE('',*,*,#1137,.F.);
#1137 = EDGE_CURVE('',#1098,#1130,#1138,.T.);
#1138 = LINE('',#1139,#1140);
#1139 = CARTESIAN_POINT('',(-5.279852300138,3.2,-8.903751135252));
#1140 = VECTOR('',#1141,1.);
#1141 = DIRECTION('',(-1.,0.,0.));
#1142 = FACE_BOUND('',#1143,.F.);
#1143 = EDGE_LOOP('',(#1144));
#1144 = ORIENTED_EDGE('',*,*,#1145,.F.);
#1145 = EDGE_CURVE('',#1146,#1146,#1148,.T.);
#1146 = VERTEX_POINT('',#1147);
#1147 = CARTESIAN_POINT('',(21.163799345768,3.2,-48.00951684793));
#1148 = CIRCLE('',#1149,4.735522705283);
#1149 = AXIS2_PLACEMENT_3D('',#1150,#1151,#1152);
#1150 = CARTESIAN_POINT('',(16.428276640485,3.2,-48.00951684793));
#1151 = DIRECTION('',(-0.,1.,0.));
#1152 = DIRECTION('',(1.,0.,0.));
#1153 = FACE_BOUND('',#1154,.F.);
#1154 = EDGE_LOOP('',(#1155,#1156,#1157,#1158,#1159,#1160,#1161,#1162,
    #1163,#1164,#1165,#1166,#1167,#1168,#1169,#1170));
#1155 = ORIENTED_EDGE('',*,*,#1031,.T.);
#1156 = ORIENTED_EDGE('',*,*,#981,.F.);
#1157 = ORIENTED_EDGE('',*,*,#933,.T.);
#1158 = ORIENTED_EDGE('',*,*,#883,.F.);
#1159 = ORIENTED_EDGE('',*,*,#835,.T.);
#1160 = ORIENTED_EDGE('',*,*,#796,.F.);
#1161 = ORIENTED_EDGE('',*,*,#738,.F.);
#1162 = ORIENTED_EDGE('',*,*,#700,.F.);
#1163 = ORIENTED_EDGE('',*,*,#724,.F.);
#1164 = ORIENTED_EDGE('',*,*,#762,.F.);
#1165 = ORIENTED_EDGE('',*,*,#820,.F.);
#1166 = ORIENTED_EDGE('',*,*,#866,.T.);
#1167 = ORIENTED_EDGE('',*,*,#915,.F.);
#1168 = ORIENTED_EDGE('',*,*,#964,.T.);
#1169 = ORIENTED_EDGE('',*,*,#1013,.F.);
#1170 = ORIENTED_EDGE('',*,*,#1055,.T.);
#1171 = FACE_BOUND('',#1172,.F.);
#1172 = EDGE_LOOP('',(#1173,#1183,#1191,#1199));
#1173 = ORIENTED_EDGE('',*,*,#1174,.F.);
#1174 = EDGE_CURVE('',#1175,#1177,#1179,.T.);
#1175 = VERTEX_POINT('',#1176);
#1176 = CARTESIAN_POINT('',(5.809375885494,3.2,-13.06417917474));
#1177 = VERTEX_POINT('',#1178);
#1178 = CARTESIAN_POINT('',(2.688069798796,3.2,-49.64588621989));
#1179 = LINE('',#1180,#1181);
#1180 = CARTESIAN_POINT('',(4.914157977861,3.2,-23.55613296875));
#1181 = VECTOR('',#1182,1.);
#1182 = DIRECTION('',(-8.501532861638E-02,0.,-0.996379643459));
#1183 = ORIENTED_EDGE('',*,*,#1184,.F.);
#1184 = EDGE_CURVE('',#1185,#1175,#1187,.T.);
#1185 = VERTEX_POINT('',#1186);
#1186 = CARTESIAN_POINT('',(-5.809375885494,3.2,-13.06417917474));
#1187 = LINE('',#1188,#1189);
#1188 = CARTESIAN_POINT('',(1.615747408047,3.2,-13.06417917474));
#1189 = VECTOR('',#1190,1.);
#1190 = DIRECTION('',(1.,0.,-3.066574716487E-16));
#1191 = ORIENTED_EDGE('',*,*,#1192,.F.);
#1192 = EDGE_CURVE('',#1193,#1185,#1195,.T.);
#1193 = VERTEX_POINT('',#1194);
#1194 = CARTESIAN_POINT('',(-2.688069798796,3.2,-49.64588621989));
#1195 = LINE('',#1196,#1197);
#1196 = CARTESIAN_POINT('',(-4.890802006217,3.2,-23.82986495424));
#1197 = VECTOR('',#1198,1.);
#1198 = DIRECTION('',(-8.501532861638E-02,0.,0.996379643459));
#1199 = ORIENTED_EDGE('',*,*,#1200,.F.);
#1200 = EDGE_CURVE('',#1177,#1193,#1201,.T.);
#1201 = LINE('',#1202,#1203);
#1202 = CARTESIAN_POINT('',(1.615747408047,3.2,-49.64588621989));
#1203 = VECTOR('',#1204,1.);
#1204 = DIRECTION('',(-1.,0.,0.));
#1205 = FACE_BOUND('',#1206,.F.);
#1206 = EDGE_LOOP('',(#1207));
#1207 = ORIENTED_EDGE('',*,*,#1208,.F.);
#1208 = EDGE_CURVE('',#1209,#1209,#1211,.T.);
#1209 = VERTEX_POINT('',#1210);
#1210 = CARTESIAN_POINT('',(-11.6927539352,3.2,-48.00951684793));
#1211 = CIRCLE('',#1212,4.735522705283);
#1212 = AXIS2_PLACEMENT_3D('',#1213,#1214,#1215);
#1213 = CARTESIAN_POINT('',(-16.42827664048,3.2,-48.00951684793));
#1214 = DIRECTION('',(-0.,1.,0.));
#1215 = DIRECTION('',(1.,0.,0.));
#1216 = PLANE('',#1217);
#1217 = AXIS2_PLACEMENT_3D('',#1218,#1219,#1220);
#1218 = CARTESIAN_POINT('',(0.403056515455,3.2,-33.34517655273));
#1219 = DIRECTION('',(0.,1.,0.));
#1220 = DIRECTION('',(1.,0.,0.));
#1221 = ADVANCED_FACE('',(#1222),#1247,.T.);
#1222 = FACE_BOUND('',#1223,.T.);
#1223 = EDGE_LOOP('',(#1224,#1232,#1240,#1246));
#1224 = ORIENTED_EDGE('',*,*,#1225,.F.);
#1225 = EDGE_CURVE('',#1226,#1096,#1228,.T.);
#1226 = VERTEX_POINT('',#1227);
#1227 = CARTESIAN_POINT('',(16.626582997737,0.,-8.940188245231));
#1228 = LINE('',#1229,#1230);
#1229 = CARTESIAN_POINT('',(16.626582997737,-22.,-8.940188245231));
#1230 = VECTOR('',#1231,1.);
#1231 = DIRECTION('',(0.,1.,0.));
#1232 = ORIENTED_EDGE('',*,*,#1233,.T.);
#1233 = EDGE_CURVE('',#1226,#1234,#1236,.T.);
#1234 = VERTEX_POINT('',#1235);
#1235 = CARTESIAN_POINT('',(-5.329070518201E-15,0.,-8.903751135252));
#1236 = LINE('',#1237,#1238);
#1237 = CARTESIAN_POINT('',(-18.54556462154,1.7763568394E-15,
    -8.863107566442));
#1238 = VECTOR('',#1239,1.);
#1239 = DIRECTION('',(-0.999997598615,0.,2.19152081707E-03));
#1240 = ORIENTED_EDGE('',*,*,#1241,.T.);
#1241 = EDGE_CURVE('',#1234,#1098,#1242,.T.);
#1242 = LINE('',#1243,#1244);
#1243 = CARTESIAN_POINT('',(-5.329070518201E-15,-22.,-8.903751135252));
#1244 = VECTOR('',#1245,1.);
#1245 = DIRECTION('',(0.,1.,0.));
#1246 = ORIENTED_EDGE('',*,*,#1095,.F.);
#1247 = PLANE('',#1248);
#1248 = AXIS2_PLACEMENT_3D('',#1249,#1250,#1251);
#1249 = CARTESIAN_POINT('',(8.237581109188,-22.,-8.921803528809));
#1250 = DIRECTION('',(-2.19152081707E-03,0.,-0.999997598615));
#1251 = DIRECTION('',(-0.999997598615,0.,2.19152081707E-03));
#1252 = ADVANCED_FACE('',(#1253),#1271,.T.);
#1253 = FACE_BOUND('',#1254,.T.);
#1254 = EDGE_LOOP('',(#1255,#1263,#1269,#1270));
#1255 = ORIENTED_EDGE('',*,*,#1256,.F.);
#1256 = EDGE_CURVE('',#1257,#1106,#1259,.T.);
#1257 = VERTEX_POINT('',#1258);
#1258 = CARTESIAN_POINT('',(19.029295926024,0.,-17.63009960955));
#1259 = LINE('',#1260,#1261);
#1260 = CARTESIAN_POINT('',(19.029295926024,-22.,-17.63009960955));
#1261 = VECTOR('',#1262,1.);
#1262 = DIRECTION('',(0.,1.,0.));
#1263 = ORIENTED_EDGE('',*,*,#1264,.T.);
#1264 = EDGE_CURVE('',#1257,#1226,#1265,.T.);
#1265 = LINE('',#1266,#1267);
#1266 = CARTESIAN_POINT('',(23.053273013696,0.,-32.18365022821));
#1267 = VECTOR('',#1268,1.);
#1268 = DIRECTION('',(-0.26649542889,0.,0.963836182336));
#1269 = ORIENTED_EDGE('',*,*,#1225,.T.);
#1270 = ORIENTED_EDGE('',*,*,#1105,.F.);
#1271 = PLANE('',#1272);
#1272 = AXIS2_PLACEMENT_3D('',#1273,#1274,#1275);
#1273 = CARTESIAN_POINT('',(17.956031892536,-22.,-13.7484168618));
#1274 = DIRECTION('',(-0.963836182336,0.,-0.26649542889));
#1275 = DIRECTION('',(-0.26649542889,0.,0.963836182336));
#1276 = ADVANCED_FACE('',(#1277),#1295,.T.);
#1277 = FACE_BOUND('',#1278,.T.);
#1278 = EDGE_LOOP('',(#1279,#1287,#1288,#1289));
#1279 = ORIENTED_EDGE('',*,*,#1280,.T.);
#1280 = EDGE_CURVE('',#1281,#1257,#1283,.T.);
#1281 = VERTEX_POINT('',#1282);
#1282 = CARTESIAN_POINT('',(22.059435554995,0.,-3.734519760785));
#1283 = LINE('',#1284,#1285);
#1284 = CARTESIAN_POINT('',(12.741012548745,1.7763568394E-15,
    -46.46683800444));
#1285 = VECTOR('',#1286,1.);
#1286 = DIRECTION('',(-0.213058124893,0.,-0.977039526026));
#1287 = ORIENTED_EDGE('',*,*,#1256,.T.);
#1288 = ORIENTED_EDGE('',*,*,#1113,.F.);
#1289 = ORIENTED_EDGE('',*,*,#1290,.F.);
#1290 = EDGE_CURVE('',#1281,#1114,#1291,.T.);
#1291 = LINE('',#1292,#1293);
#1292 = CARTESIAN_POINT('',(22.059435554995,-22.,-3.734519760785));
#1293 = VECTOR('',#1294,1.);
#1294 = DIRECTION('',(0.,1.,0.));
#1295 = PLANE('',#1296);
#1296 = AXIS2_PLACEMENT_3D('',#1297,#1298,#1299);
#1297 = CARTESIAN_POINT('',(20.484588228021,-22.,-10.95643672209));
#1298 = DIRECTION('',(0.977039526026,0.,-0.213058124893));
#1299 = DIRECTION('',(-0.213058124893,0.,-0.977039526026));
#1300 = ADVANCED_FACE('',(#1301),#1319,.T.);
#1301 = FACE_BOUND('',#1302,.T.);
#1302 = EDGE_LOOP('',(#1303,#1311,#1312,#1313));
#1303 = ORIENTED_EDGE('',*,*,#1304,.T.);
#1304 = EDGE_CURVE('',#1305,#1281,#1307,.T.);
#1305 = VERTEX_POINT('',#1306);
#1306 = CARTESIAN_POINT('',(-21.72552223146,0.,-3.734519760785));
#1307 = LINE('',#1308,#1309);
#1308 = CARTESIAN_POINT('',(-22.63692080725,0.,-3.734519760785));
#1309 = VECTOR('',#1310,1.);
#1310 = DIRECTION('',(1.,0.,0.));
#1311 = ORIENTED_EDGE('',*,*,#1290,.T.);
#1312 = ORIENTED_EDGE('',*,*,#1121,.F.);
#1313 = ORIENTED_EDGE('',*,*,#1314,.F.);
#1314 = EDGE_CURVE('',#1305,#1122,#1315,.T.);
#1315 = LINE('',#1316,#1317);
#1316 = CARTESIAN_POINT('',(-21.72552223146,-22.,-3.734519760785));
#1317 = VECTOR('',#1318,1.);
#1318 = DIRECTION('',(0.,1.,0.));
#1319 = PLANE('',#1320);
#1320 = AXIS2_PLACEMENT_3D('',#1321,#1322,#1323);
#1321 = CARTESIAN_POINT('',(0.19111316645,-22.,-3.734519760785));
#1322 = DIRECTION('',(0.,0.,1.));
#1323 = DIRECTION('',(0.,-1.,0.));
#1324 = ADVANCED_FACE('',(#1325),#1343,.T.);
#1325 = FACE_BOUND('',#1326,.T.);
#1326 = EDGE_LOOP('',(#1327,#1335,#1336,#1337));
#1327 = ORIENTED_EDGE('',*,*,#1328,.T.);
#1328 = EDGE_CURVE('',#1329,#1305,#1331,.T.);
#1329 = VERTEX_POINT('',#1330);
#1330 = CARTESIAN_POINT('',(-21.72552223146,0.,-8.903751135252));
#1331 = LINE('',#1332,#1333);
#1332 = CARTESIAN_POINT('',(-21.72552223146,0.,-38.64614663299));
#1333 = VECTOR('',#1334,1.);
#1334 = DIRECTION('',(0.,0.,1.));
#1335 = ORIENTED_EDGE('',*,*,#1314,.T.);
#1336 = ORIENTED_EDGE('',*,*,#1129,.F.);
#1337 = ORIENTED_EDGE('',*,*,#1338,.F.);
#1338 = EDGE_CURVE('',#1329,#1130,#1339,.T.);
#1339 = LINE('',#1340,#1341);
#1340 = CARTESIAN_POINT('',(-21.72552223146,-22.,-8.903751135252));
#1341 = VECTOR('',#1342,1.);
#1342 = DIRECTION('',(0.,1.,0.));
#1343 = PLANE('',#1344);
#1344 = AXIS2_PLACEMENT_3D('',#1345,#1346,#1347);
#1345 = CARTESIAN_POINT('',(-21.72552223146,-22.,-6.319135448019));
#1346 = DIRECTION('',(-1.,0.,0.));
#1347 = DIRECTION('',(0.,1.,0.));
#1348 = ADVANCED_FACE('',(#1349),#1360,.T.);
#1349 = FACE_BOUND('',#1350,.T.);
#1350 = EDGE_LOOP('',(#1351,#1357,#1358,#1359));
#1351 = ORIENTED_EDGE('',*,*,#1352,.T.);
#1352 = EDGE_CURVE('',#1234,#1329,#1353,.T.);
#1353 = LINE('',#1354,#1355);
#1354 = CARTESIAN_POINT('',(-28.21385794834,0.,-8.903751135252));
#1355 = VECTOR('',#1356,1.);
#1356 = DIRECTION('',(-1.,0.,0.));
#1357 = ORIENTED_EDGE('',*,*,#1338,.T.);
#1358 = ORIENTED_EDGE('',*,*,#1137,.F.);
#1359 = ORIENTED_EDGE('',*,*,#1241,.F.);
#1360 = PLANE('',#1361);
#1361 = AXIS2_PLACEMENT_3D('',#1362,#1363,#1364);
#1362 = CARTESIAN_POINT('',(-10.96276111573,-22.,-8.903751135252));
#1363 = DIRECTION('',(0.,0.,-1.));
#1364 = DIRECTION('',(0.,1.,0.));
#1365 = ADVANCED_FACE('',(#1366),#1385,.T.);
#1366 = FACE_BOUND('',#1367,.T.);
#1367 = EDGE_LOOP('',(#1368,#1377,#1383,#1384));
#1368 = ORIENTED_EDGE('',*,*,#1369,.T.);
#1369 = EDGE_CURVE('',#1370,#1370,#1372,.T.);
#1370 = VERTEX_POINT('',#1371);
#1371 = CARTESIAN_POINT('',(21.163799345768,0.,-48.00951684793));
#1372 = CIRCLE('',#1373,4.735522705283);
#1373 = AXIS2_PLACEMENT_3D('',#1374,#1375,#1376);
#1374 = CARTESIAN_POINT('',(16.428276640485,0.,-48.00951684793));
#1375 = DIRECTION('',(-0.,1.,0.));
#1376 = DIRECTION('',(1.,0.,0.));
#1377 = ORIENTED_EDGE('',*,*,#1378,.T.);
#1378 = EDGE_CURVE('',#1370,#1146,#1379,.T.);
#1379 = LINE('',#1380,#1381);
#1380 = CARTESIAN_POINT('',(21.163799345768,-22.,-48.00951684793));
#1381 = VECTOR('',#1382,1.);
#1382 = DIRECTION('',(0.,1.,0.));
#1383 = ORIENTED_EDGE('',*,*,#1145,.F.);
#1384 = ORIENTED_EDGE('',*,*,#1378,.F.);
#1385 = CYLINDRICAL_SURFACE('',#1386,4.735522705283);
#1386 = AXIS2_PLACEMENT_3D('',#1387,#1388,#1389);
#1387 = CARTESIAN_POINT('',(16.428276640485,-22.,-48.00951684793));
#1388 = DIRECTION('',(0.,1.,0.));
#1389 = DIRECTION('',(1.,0.,0.));
#1390 = ADVANCED_FACE('',(#1391),#1416,.F.);
#1391 = FACE_BOUND('',#1392,.F.);
#1392 = EDGE_LOOP('',(#1393,#1403,#1409,#1410));
#1393 = ORIENTED_EDGE('',*,*,#1394,.T.);
#1394 = EDGE_CURVE('',#1395,#1397,#1399,.T.);
#1395 = VERTEX_POINT('',#1396);
#1396 = CARTESIAN_POINT('',(1.480297366167E-15,11.242400581089,
    -46.71869179633));
#1397 = VERTEX_POINT('',#1398);
#1398 = CARTESIAN_POINT('',(3.256654205567E-15,17.8572529153,
    -18.39898295202));
#1399 = LINE('',#1400,#1401);
#1400 = CARTESIAN_POINT('',(2.6645352591E-15,18.133069549222,
    -17.21814831317));
#1401 = VECTOR('',#1402,1.);
#1402 = DIRECTION('',(5.275122655165E-17,0.227455280238,0.97378852709));
#1403 = ORIENTED_EDGE('',*,*,#1404,.F.);
#1404 = EDGE_CURVE('',#1175,#1397,#1405,.T.);
#1405 = LINE('',#1406,#1407);
#1406 = CARTESIAN_POINT('',(5.649679875255,3.602918464526,
    -13.21082950266));
#1407 = VECTOR('',#1408,1.);
#1408 = DIRECTION('',(-0.349023821871,0.880598971639,-0.320511814002));
#1409 = ORIENTED_EDGE('',*,*,#1174,.T.);
#1410 = ORIENTED_EDGE('',*,*,#1411,.T.);
#1411 = EDGE_CURVE('',#1177,#1395,#1412,.T.);
#1412 = LINE('',#1413,#1414);
#1413 = CARTESIAN_POINT('',(1.103762571829,7.940067898719,
    -47.92064259636));
#1414 = VECTOR('',#1415,1.);
#1415 = DIRECTION('',(-0.299648208284,0.896513522642,0.326304236859));
#1416 = PLANE('',#1417);
#1417 = AXIS2_PLACEMENT_3D('',#1418,#1419,#1420);
#1418 = CARTESIAN_POINT('',(5.823691883056,3.068404028665,
    -13.45978839622));
#1419 = DIRECTION('',(0.93629059846,0.342020143326,-7.988827695448E-02)
  );
#1420 = DIRECTION('',(-0.340781908463,0.939692620786,2.907695487825E-02)
  );
#1421 = ADVANCED_FACE('',(#1422),#1432,.F.);
#1422 = FACE_BOUND('',#1423,.F.);
#1423 = EDGE_LOOP('',(#1424,#1425,#1431));
#1424 = ORIENTED_EDGE('',*,*,#1404,.T.);
#1425 = ORIENTED_EDGE('',*,*,#1426,.T.);
#1426 = EDGE_CURVE('',#1397,#1185,#1427,.T.);
#1427 = LINE('',#1428,#1429);
#1428 = CARTESIAN_POINT('',(-5.275833888477,4.546144602338,
    -13.55413574101));
#1429 = VECTOR('',#1430,1.);
#1430 = DIRECTION('',(-0.349023821871,-0.880598971639,0.320511814002));
#1431 = ORIENTED_EDGE('',*,*,#1184,.T.);
#1432 = PLANE('',#1433);
#1433 = AXIS2_PLACEMENT_3D('',#1434,#1435,#1436);
#1434 = CARTESIAN_POINT('',(2.828438300639,3.068404028665,
    -13.01628215822));
#1435 = DIRECTION('',(2.88163763217E-16,0.342020143326,0.939692620786));
#1436 = DIRECTION('',(-1.048830324052E-16,0.939692620786,-0.342020143326
    ));
#1437 = ADVANCED_FACE('',(#1438),#1449,.F.);
#1438 = FACE_BOUND('',#1439,.F.);
#1439 = EDGE_LOOP('',(#1440,#1441,#1442,#1443));
#1440 = ORIENTED_EDGE('',*,*,#1192,.T.);
#1441 = ORIENTED_EDGE('',*,*,#1426,.F.);
#1442 = ORIENTED_EDGE('',*,*,#1394,.F.);
#1443 = ORIENTED_EDGE('',*,*,#1444,.F.);
#1444 = EDGE_CURVE('',#1193,#1395,#1445,.T.);
#1445 = LINE('',#1446,#1447);
#1446 = CARTESIAN_POINT('',(-0.871390517001,8.635298785064,
    -47.66759924779));
#1447 = VECTOR('',#1448,1.);
#1448 = DIRECTION('',(0.299648208284,0.896513522642,0.326304236859));
#1449 = PLANE('',#1450);
#1450 = AXIS2_PLACEMENT_3D('',#1451,#1452,#1453);
#1451 = CARTESIAN_POINT('',(-5.782806207227,3.068404028665,
    -13.93896851312));
#1452 = DIRECTION('',(-0.93629059846,0.342020143326,-7.988827695448E-02)
  );
#1453 = DIRECTION('',(0.340781908463,0.939692620786,2.907695487825E-02)
  );
#1454 = ADVANCED_FACE('',(#1455),#1460,.F.);
#1455 = FACE_BOUND('',#1456,.F.);
#1456 = EDGE_LOOP('',(#1457,#1458,#1459));
#1457 = ORIENTED_EDGE('',*,*,#1444,.T.);
#1458 = ORIENTED_EDGE('',*,*,#1411,.F.);
#1459 = ORIENTED_EDGE('',*,*,#1200,.T.);
#1460 = PLANE('',#1461);
#1461 = AXIS2_PLACEMENT_3D('',#1462,#1463,#1464);
#1462 = CARTESIAN_POINT('',(2.828438300639,3.068404028665,
    -49.69378323641));
#1463 = DIRECTION('',(0.,0.342020143326,-0.939692620786));
#1464 = DIRECTION('',(0.,0.939692620786,0.342020143326));
#1465 = ADVANCED_FACE('',(#1466),#1485,.T.);
#1466 = FACE_BOUND('',#1467,.T.);
#1467 = EDGE_LOOP('',(#1468,#1477,#1483,#1484));
#1468 = ORIENTED_EDGE('',*,*,#1469,.T.);
#1469 = EDGE_CURVE('',#1470,#1470,#1472,.T.);
#1470 = VERTEX_POINT('',#1471);
#1471 = CARTESIAN_POINT('',(-11.6927539352,0.,-48.00951684793));
#1472 = CIRCLE('',#1473,4.735522705283);
#1473 = AXIS2_PLACEMENT_3D('',#1474,#1475,#1476);
#1474 = CARTESIAN_POINT('',(-16.42827664048,0.,-48.00951684793));
#1475 = DIRECTION('',(-0.,1.,0.));
#1476 = DIRECTION('',(1.,0.,0.));
#1477 = ORIENTED_EDGE('',*,*,#1478,.T.);
#1478 = EDGE_CURVE('',#1470,#1209,#1479,.T.);
#1479 = LINE('',#1480,#1481);
#1480 = CARTESIAN_POINT('',(-11.6927539352,-22.,-48.00951684793));
#1481 = VECTOR('',#1482,1.);
#1482 = DIRECTION('',(0.,1.,0.));
#1483 = ORIENTED_EDGE('',*,*,#1208,.F.);
#1484 = ORIENTED_EDGE('',*,*,#1478,.F.);
#1485 = CYLINDRICAL_SURFACE('',#1486,4.735522705283);
#1486 = AXIS2_PLACEMENT_3D('',#1487,#1488,#1489);
#1487 = CARTESIAN_POINT('',(-16.42827664048,-22.,-48.00951684793));
#1488 = DIRECTION('',(0.,1.,0.));
#1489 = DIRECTION('',(1.,0.,0.));
#1490 = ADVANCED_FACE('',(#1491),#1499,.F.);
#1491 = FACE_BOUND('',#1492,.F.);
#1492 = EDGE_LOOP('',(#1493,#1494,#1495,#1496,#1497,#1498));
#1493 = ORIENTED_EDGE('',*,*,#1264,.T.);
#1494 = ORIENTED_EDGE('',*,*,#1233,.T.);
#1495 = ORIENTED_EDGE('',*,*,#1352,.T.);
#1496 = ORIENTED_EDGE('',*,*,#1328,.T.);
#1497 = ORIENTED_EDGE('',*,*,#1304,.T.);
#1498 = ORIENTED_EDGE('',*,*,#1280,.T.);
#1499 = PLANE('',#1500);
#1500 = AXIS2_PLACEMENT_3D('',#1501,#1502,#1503);
#1501 = CARTESIAN_POINT('',(-45.46495478095,0.,-70.97315781796));
#1502 = DIRECTION('',(0.,1.,0.));
#1503 = DIRECTION('',(0.,0.,1.));
#1504 = ADVANCED_FACE('',(#1505),#1508,.F.);
#1505 = FACE_BOUND('',#1506,.F.);
#1506 = EDGE_LOOP('',(#1507));
#1507 = ORIENTED_EDGE('',*,*,#1369,.T.);
#1508 = PLANE('',#1509);
#1509 = AXIS2_PLACEMENT_3D('',#1510,#1511,#1512);
#1510 = CARTESIAN_POINT('',(-45.46495478095,0.,-70.97315781796));
#1511 = DIRECTION('',(0.,1.,0.));
#1512 = DIRECTION('',(0.,0.,1.));
#1513 = ADVANCED_FACE('',(#1514),#1517,.F.);
#1514 = FACE_BOUND('',#1515,.F.);
#1515 = EDGE_LOOP('',(#1516));
#1516 = ORIENTED_EDGE('',*,*,#1469,.T.);
#1517 = PLANE('',#1518);
#1518 = AXIS2_PLACEMENT_3D('',#1519,#1520,#1521);
#1519 = CARTESIAN_POINT('',(-45.46495478095,0.,-70.97315781796));
#1520 = DIRECTION('',(0.,1.,0.));
#1521 = DIRECTION('',(0.,0.,1.));
#1522 = ( GEOMETRIC_REPRESENTATION_CONTEXT(3) 
GLOBAL_UNCERTAINTY_ASSIGNED_CONTEXT((#1526)) 
GLOBAL_UNIT_ASSIGNED_CONTEXT((#1523,#1524,#1525)) REPRESENTATION_CONTEXT
('Context #1','3D Context with UNIT and UNCERTAINTY') );
#1523 = ( LENGTH_UNIT() NAMED_UNIT(*) SI_UNIT(.MILLI.,.METRE.) );
#1524 = ( NAMED_UNIT(*) PLANE_ANGLE_UNIT() SI_UNIT($,.RADIAN.) );
#1525 = ( NAMED_UNIT(*) SI_UNIT($,.STERADIAN.) SOLID_ANGLE_UNIT() );
#1526 = UNCERTAINTY_MEASURE_WITH_UNIT(LENGTH_MEASURE(2.E-06),#1523,
  'distance_accuracy_value','confusion accuracy');
#1527 = PRODUCT_RELATED_PRODUCT_CATEGORY('part',$,(#7));
ENDSEC;
END-ISO-10303-21;
