ISO-10303-21;
HEADER;
FILE_DESCRIPTION(('FreeCAD Model'),'2;1');
FILE_NAME('Open CASCADE Shape Model','2026-08-05T10:54:26',('FreeCAD'),(
    'FreeCAD'),'Open CASCADE STEP processor 7.8','FreeCAD','Unknown');
FILE_SCHEMA(('AUTOMOTIVE_DESIGN { 1 0 10303 214 1 1 1 1 }'));
ENDSEC;
DATA;
#1 = APPLICATION_PROTOCOL_DEFINITION('international standard',
  'automotive_design',2000,#2);
#2 = APPLICATION_CONTEXT(
  'core data for automotive mechanical design processes');
#3 = SHAPE_DEFINITION_REPRESENTATION(#4,#10);
#4 = PRODUCT_DEFINITION_SHAPE('','',#5);
#5 = PRODUCT_DEFINITION('design','',#6,#9);
#6 = PRODUCT_DEFINITION_FORMATION('','',#7);
#7 = PRODUCT('Open CASCADE STEP translator 7.8 1',
  'Open CASCADE STEP translator 7.8 1','',(#8));
#8 = PRODUCT_CONTEXT('',#2,'mechanical');
#9 = PRODUCT_DEFINITION_CONTEXT('part definition',#2,'design');
#10 = ADVANCED_BREP_SHAPE_REPRESENTATION('',(#11,#15),#1118);
#11 = AXIS2_PLACEMENT_3D('',#12,#13,#14);
#12 = CARTESIAN_POINT('',(0.,0.,0.));
#13 = DIRECTION('',(0.,0.,1.));
#14 = DIRECTION('',(1.,0.,-0.));
#15 = MANIFOLD_SOLID_BREP('',#16);
#16 = CLOSED_SHELL('',(#17,#57,#222,#246,#270,#287,#299,#330,#354,#378,
    #402,#426,#451,#475,#500,#524,#548,#573,#597,#622,#646,#670,#687,
    #817,#848,#872,#896,#920,#944,#961,#986,#1017,#1033,#1050,#1061,
    #1086,#1100,#1109));
#17 = ADVANCED_FACE('',(#18),#52,.F.);
#18 = FACE_BOUND('',#19,.F.);
#19 = EDGE_LOOP('',(#20,#30,#38,#46));
#20 = ORIENTED_EDGE('',*,*,#21,.F.);
#21 = EDGE_CURVE('',#22,#24,#26,.T.);
#22 = VERTEX_POINT('',#23);
#23 = CARTESIAN_POINT('',(-45.46495478095,0.,-70.97315781796));
#24 = VERTEX_POINT('',#25);
#25 = CARTESIAN_POINT('',(-45.46495478095,0.,4.2));
#26 = LINE('',#27,#28);
#27 = CARTESIAN_POINT('',(-45.46495478095,0.,-70.97315781796));
#28 = VECTOR('',#29,1.);
#29 = DIRECTION('',(0.,0.,1.));
#30 = ORIENTED_EDGE('',*,*,#31,.T.);
#31 = EDGE_CURVE('',#22,#32,#34,.T.);
#32 = VERTEX_POINT('',#33);
#33 = CARTESIAN_POINT('',(-45.46495478095,20.8572529153,-70.97315781796)
  );
#34 = LINE('',#35,#36);
#35 = CARTESIAN_POINT('',(-45.46495478095,0.,-70.97315781796));
#36 = VECTOR('',#37,1.);
#37 = DIRECTION('',(0.,1.,0.));
#38 = ORIENTED_EDGE('',*,*,#39,.T.);
#39 = EDGE_CURVE('',#32,#40,#42,.T.);
#40 = VERTEX_POINT('',#41);
#41 = CARTESIAN_POINT('',(-45.46495478095,20.8572529153,4.2));
#42 = LINE('',#43,#44);
#43 = CARTESIAN_POINT('',(-45.46495478095,20.8572529153,-70.97315781796)
  );
#44 = VECTOR('',#45,1.);
#45 = DIRECTION('',(0.,0.,1.));
#46 = ORIENTED_EDGE('',*,*,#47,.F.);
#47 = EDGE_CURVE('',#24,#40,#48,.T.);
#48 = LINE('',#49,#50);
#49 = CARTESIAN_POINT('',(-45.46495478095,0.,4.2));
#50 = VECTOR('',#51,1.);
#51 = DIRECTION('',(0.,1.,0.));
#52 = PLANE('',#53);
#53 = AXIS2_PLACEMENT_3D('',#54,#55,#56);
#54 = CARTESIAN_POINT('',(-45.46495478095,0.,-70.97315781796));
#55 = DIRECTION('',(1.,0.,0.));
#56 = DIRECTION('',(0.,0.,1.));
#57 = ADVANCED_FACE('',(#58,#83),#217,.F.);
#58 = FACE_BOUND('',#59,.F.);
#59 = EDGE_LOOP('',(#60,#68,#69,#77));
#60 = ORIENTED_EDGE('',*,*,#61,.F.);
#61 = EDGE_CURVE('',#22,#62,#64,.T.);
#62 = VERTEX_POINT('',#63);
#63 = CARTESIAN_POINT('',(46.298608189024,0.,-70.97315781796));
#64 = LINE('',#65,#66);
#65 = CARTESIAN_POINT('',(-45.46495478095,0.,-70.97315781796));
#66 = VECTOR('',#67,1.);
#67 = DIRECTION('',(1.,0.,0.));
#68 = ORIENTED_EDGE('',*,*,#21,.T.);
#69 = ORIENTED_EDGE('',*,*,#70,.T.);
#70 = EDGE_CURVE('',#24,#71,#73,.T.);
#71 = VERTEX_POINT('',#72);
#72 = CARTESIAN_POINT('',(46.298608189024,0.,4.2));
#73 = LINE('',#74,#75);
#74 = CARTESIAN_POINT('',(-45.46495478095,0.,4.2));
#75 = VECTOR('',#76,1.);
#76 = DIRECTION('',(1.,0.,0.));
#77 = ORIENTED_EDGE('',*,*,#78,.F.);
#78 = EDGE_CURVE('',#62,#71,#79,.T.);
#79 = LINE('',#80,#81);
#80 = CARTESIAN_POINT('',(46.298608189024,0.,-70.97315781796));
#81 = VECTOR('',#82,1.);
#82 = DIRECTION('',(0.,0.,1.));
#83 = FACE_BOUND('',#84,.F.);
#84 = EDGE_LOOP('',(#85,#95,#103,#111,#119,#128,#136,#145,#153,#161,#170
    ,#178,#187,#195,#203,#211));
#85 = ORIENTED_EDGE('',*,*,#86,.T.);
#86 = EDGE_CURVE('',#87,#89,#91,.T.);
#87 = VERTEX_POINT('',#88);
#88 = CARTESIAN_POINT('',(32.703857168398,0.,-60.78483712899));
#89 = VERTEX_POINT('',#90);
#90 = CARTESIAN_POINT('',(26.938753236523,0.,-55.20570756731));
#91 = LINE('',#92,#93);
#92 = CARTESIAN_POINT('',(13.567306766147,0.,-42.26560567724));
#93 = VECTOR('',#94,1.);
#94 = DIRECTION('',(-0.718602345805,0.,0.695421216677));
#95 = ORIENTED_EDGE('',*,*,#96,.T.);
#96 = EDGE_CURVE('',#89,#97,#99,.T.);
#97 = VERTEX_POINT('',#98);
#98 = CARTESIAN_POINT('',(42.298608189024,0.,-7.015765476549));
#99 = LINE('',#100,#101);
#100 = CARTESIAN_POINT('',(25.140315874087,-4.440892098501E-16,
    -60.84811712245));
#101 = VECTOR('',#102,1.);
#102 = DIRECTION('',(0.30368282823,0.,0.952773183837));
#103 = ORIENTED_EDGE('',*,*,#104,.T.);
#104 = EDGE_CURVE('',#97,#105,#107,.T.);
#105 = VERTEX_POINT('',#106);
#106 = CARTESIAN_POINT('',(35.082842712475,0.,0.2));
#107 = LINE('',#108,#109);
#108 = CARTESIAN_POINT('',(34.536239068456,0.,0.746603644019));
#109 = VECTOR('',#110,1.);
#110 = DIRECTION('',(-0.707106781187,0.,0.707106781187));
#111 = ORIENTED_EDGE('',*,*,#112,.F.);
#112 = EDGE_CURVE('',#113,#105,#115,.T.);
#113 = VERTEX_POINT('',#114);
#114 = CARTESIAN_POINT('',(-32.57517518159,0.,0.2));
#115 = LINE('',#116,#117);
#116 = CARTESIAN_POINT('',(-30.87627118587,0.,0.2));
#117 = VECTOR('',#118,1.);
#118 = DIRECTION('',(1.,0.,0.));
#119 = ORIENTED_EDGE('',*,*,#120,.T.);
#120 = EDGE_CURVE('',#113,#121,#123,.T.);
#121 = VERTEX_POINT('',#122);
#122 = CARTESIAN_POINT('',(-36.85603142851,0.,-1.573188716044));
#123 = CIRCLE('',#124,6.054044962965);
#124 = AXIS2_PLACEMENT_3D('',#125,#126,#127);
#125 = CARTESIAN_POINT('',(-32.57517518159,0.,-5.854044962965));
#126 = DIRECTION('',(0.,-1.,0.));
#127 = DIRECTION('',(-1.,0.,0.));
#128 = ORIENTED_EDGE('',*,*,#129,.F.);
#129 = EDGE_CURVE('',#130,#121,#132,.T.);
#130 = VERTEX_POINT('',#131);
#131 = CARTESIAN_POINT('',(-39.69176606491,0.,-4.408923352436));
#132 = LINE('',#133,#134);
#133 = CARTESIAN_POINT('',(-57.0671882012,0.,-21.78434548873));
#134 = VECTOR('',#135,1.);
#135 = DIRECTION('',(0.707106781187,0.,0.707106781187));
#136 = ORIENTED_EDGE('',*,*,#137,.T.);
#137 = EDGE_CURVE('',#130,#138,#140,.T.);
#138 = VERTEX_POINT('',#139);
#139 = CARTESIAN_POINT('',(-41.17904151244,0.,-10.52828909594));
#140 = CIRCLE('',#141,6.054044962965);
#141 = AXIS2_PLACEMENT_3D('',#142,#143,#144);
#142 = CARTESIAN_POINT('',(-35.41090981799,0.,-8.689779599357));
#143 = DIRECTION('',(0.,-1.,0.));
#144 = DIRECTION('',(-1.,0.,0.));
#145 = ORIENTED_EDGE('',*,*,#146,.F.);
#146 = EDGE_CURVE('',#147,#138,#149,.T.);
#147 = VERTEX_POINT('',#148);
#148 = CARTESIAN_POINT('',(-26.93875323652,0.,-55.20570756731));
#149 = LINE('',#150,#151);
#150 = CARTESIAN_POINT('',(-29.06259699304,-4.440892098501E-16,
    -48.54236940733));
#151 = VECTOR('',#152,1.);
#152 = DIRECTION('',(-0.30368282823,0.,0.952773183837));
#153 = ORIENTED_EDGE('',*,*,#154,.F.);
#154 = EDGE_CURVE('',#155,#147,#157,.T.);
#155 = VERTEX_POINT('',#156);
#156 = CARTESIAN_POINT('',(-28.96712497021,0.,-57.16864680227));
#157 = LINE('',#158,#159);
#158 = CARTESIAN_POINT('',(-36.14667143517,0.,-64.11659091489));
#159 = VECTOR('',#160,1.);
#160 = DIRECTION('',(0.718602345805,0.,0.695421216677));
#161 = ORIENTED_EDGE('',*,*,#162,.T.);
#162 = EDGE_CURVE('',#155,#163,#165,.T.);
#163 = VERTEX_POINT('',#164);
#164 = CARTESIAN_POINT('',(-29.08766684168,0.,-64.52156932717));
#165 = CIRCLE('',#166,5.2);
#166 = AXIS2_PLACEMENT_3D('',#167,#168,#169);
#167 = CARTESIAN_POINT('',(-25.35093464349,0.,-60.90537900045));
#168 = DIRECTION('',(0.,-1.,0.));
#169 = DIRECTION('',(-1.,0.,0.));
#170 = ORIENTED_EDGE('',*,*,#171,.F.);
#171 = EDGE_CURVE('',#172,#163,#174,.T.);
#172 = VERTEX_POINT('',#173);
#173 = CARTESIAN_POINT('',(-27.86158468659,0.,-65.78852163128));
#174 = LINE('',#175,#176);
#175 = CARTESIAN_POINT('',(-31.12923147938,0.,-62.41195129628));
#176 = VECTOR('',#177,1.);
#177 = DIRECTION('',(-0.695421216677,0.,0.718602345805));
#178 = ORIENTED_EDGE('',*,*,#179,.T.);
#179 = EDGE_CURVE('',#172,#180,#182,.T.);
#180 = VERTEX_POINT('',#181);
#181 = CARTESIAN_POINT('',(-25.53052705686,0.,-65.82673637491));
#182 = CIRCLE('',#183,1.648528137424);
#183 = AXIS2_PLACEMENT_3D('',#184,#185,#186);
#184 = CARTESIAN_POINT('',(-26.67694849991,0.,-64.64210018823));
#185 = DIRECTION('',(0.,-1.,0.));
#186 = DIRECTION('',(-1.,0.,0.));
#187 = ORIENTED_EDGE('',*,*,#188,.F.);
#188 = EDGE_CURVE('',#189,#180,#191,.T.);
#189 = VERTEX_POINT('',#190);
#190 = CARTESIAN_POINT('',(-20.53201900137,0.,-60.98947335481));
#191 = LINE('',#192,#193);
#192 = CARTESIAN_POINT('',(-30.69923804215,0.,-70.82871181101));
#193 = VECTOR('',#194,1.);
#194 = DIRECTION('',(-0.718602345805,0.,-0.695421216677));
#195 = ORIENTED_EDGE('',*,*,#196,.T.);
#196 = EDGE_CURVE('',#189,#197,#199,.T.);
#197 = VERTEX_POINT('',#198);
#198 = CARTESIAN_POINT('',(20.532019001374,0.,-60.98947335481));
#199 = LINE('',#200,#201);
#200 = CARTESIAN_POINT('',(-17.57924046663,0.,-60.98947335481));
#201 = VECTOR('',#202,1.);
#202 = DIRECTION('',(1.,0.,0.));
#203 = ORIENTED_EDGE('',*,*,#204,.T.);
#204 = EDGE_CURVE('',#197,#205,#207,.T.);
#205 = VERTEX_POINT('',#206);
#206 = CARTESIAN_POINT('',(26.715163243538,0.,-66.97315781796));
#207 = LINE('',#208,#209);
#208 = CARTESIAN_POINT('',(7.481849370247,-4.440892098501E-16,
    -48.36028435244));
#209 = VECTOR('',#210,1.);
#210 = DIRECTION('',(0.718602345805,0.,-0.695421216677));
#211 = ORIENTED_EDGE('',*,*,#212,.T.);
#212 = EDGE_CURVE('',#205,#87,#213,.T.);
#213 = LINE('',#214,#215);
#214 = CARTESIAN_POINT('',(9.75933652063,0.,-84.4941890519));
#215 = VECTOR('',#216,1.);
#216 = DIRECTION('',(0.695421216677,0.,0.718602345805));
#217 = PLANE('',#218);
#218 = AXIS2_PLACEMENT_3D('',#219,#220,#221);
#219 = CARTESIAN_POINT('',(-45.46495478095,0.,-70.97315781796));
#220 = DIRECTION('',(0.,1.,0.));
#221 = DIRECTION('',(0.,0.,1.));
#222 = ADVANCED_FACE('',(#223),#241,.T.);
#223 = FACE_BOUND('',#224,.T.);
#224 = EDGE_LOOP('',(#225,#226,#227,#235));
#225 = ORIENTED_EDGE('',*,*,#47,.F.);
#226 = ORIENTED_EDGE('',*,*,#70,.T.);
#227 = ORIENTED_EDGE('',*,*,#228,.T.);
#228 = EDGE_CURVE('',#71,#229,#231,.T.);
#229 = VERTEX_POINT('',#230);
#230 = CARTESIAN_POINT('',(46.298608189024,20.8572529153,4.2));
#231 = LINE('',#232,#233);
#232 = CARTESIAN_POINT('',(46.298608189024,0.,4.2));
#233 = VECTOR('',#234,1.);
#234 = DIRECTION('',(0.,1.,0.));
#235 = ORIENTED_EDGE('',*,*,#236,.F.);
#236 = EDGE_CURVE('',#40,#229,#237,.T.);
#237 = LINE('',#238,#239);
#238 = CARTESIAN_POINT('',(-45.46495478095,20.8572529153,4.2));
#239 = VECTOR('',#240,1.);
#240 = DIRECTION('',(1.,0.,0.));
#241 = PLANE('',#242);
#242 = AXIS2_PLACEMENT_3D('',#243,#244,#245);
#243 = CARTESIAN_POINT('',(-45.46495478095,0.,4.2));
#244 = DIRECTION('',(0.,0.,1.));
#245 = DIRECTION('',(1.,0.,0.));
#246 = ADVANCED_FACE('',(#247),#265,.T.);
#247 = FACE_BOUND('',#248,.T.);
#248 = EDGE_LOOP('',(#249,#257,#258,#259));
#249 = ORIENTED_EDGE('',*,*,#250,.F.);
#250 = EDGE_CURVE('',#32,#251,#253,.T.);
#251 = VERTEX_POINT('',#252);
#252 = CARTESIAN_POINT('',(46.298608189024,20.8572529153,-70.97315781796
    ));
#253 = LINE('',#254,#255);
#254 = CARTESIAN_POINT('',(-45.46495478095,20.8572529153,-70.97315781796
    ));
#255 = VECTOR('',#256,1.);
#256 = DIRECTION('',(1.,0.,0.));
#257 = ORIENTED_EDGE('',*,*,#39,.T.);
#258 = ORIENTED_EDGE('',*,*,#236,.T.);
#259 = ORIENTED_EDGE('',*,*,#260,.F.);
#260 = EDGE_CURVE('',#251,#229,#261,.T.);
#261 = LINE('',#262,#263);
#262 = CARTESIAN_POINT('',(46.298608189024,20.8572529153,-70.97315781796
    ));
#263 = VECTOR('',#264,1.);
#264 = DIRECTION('',(0.,0.,1.));
#265 = PLANE('',#266);
#266 = AXIS2_PLACEMENT_3D('',#267,#268,#269);
#267 = CARTESIAN_POINT('',(-45.46495478095,20.8572529153,-70.97315781796
    ));
#268 = DIRECTION('',(0.,1.,0.));
#269 = DIRECTION('',(0.,0.,1.));
#270 = ADVANCED_FACE('',(#271),#282,.F.);
#271 = FACE_BOUND('',#272,.F.);
#272 = EDGE_LOOP('',(#273,#274,#275,#281));
#273 = ORIENTED_EDGE('',*,*,#31,.F.);
#274 = ORIENTED_EDGE('',*,*,#61,.T.);
#275 = ORIENTED_EDGE('',*,*,#276,.T.);
#276 = EDGE_CURVE('',#62,#251,#277,.T.);
#277 = LINE('',#278,#279);
#278 = CARTESIAN_POINT('',(46.298608189024,0.,-70.97315781796));
#279 = VECTOR('',#280,1.);
#280 = DIRECTION('',(0.,1.,0.));
#281 = ORIENTED_EDGE('',*,*,#250,.F.);
#282 = PLANE('',#283);
#283 = AXIS2_PLACEMENT_3D('',#284,#285,#286);
#284 = CARTESIAN_POINT('',(-45.46495478095,0.,-70.97315781796));
#285 = DIRECTION('',(0.,0.,1.));
#286 = DIRECTION('',(1.,0.,0.));
#287 = ADVANCED_FACE('',(#288),#294,.T.);
#288 = FACE_BOUND('',#289,.T.);
#289 = EDGE_LOOP('',(#290,#291,#292,#293));
#290 = ORIENTED_EDGE('',*,*,#78,.F.);
#291 = ORIENTED_EDGE('',*,*,#276,.T.);
#292 = ORIENTED_EDGE('',*,*,#260,.T.);
#293 = ORIENTED_EDGE('',*,*,#228,.F.);
#294 = PLANE('',#295);
#295 = AXIS2_PLACEMENT_3D('',#296,#297,#298);
#296 = CARTESIAN_POINT('',(46.298608189024,0.,-70.97315781796));
#297 = DIRECTION('',(1.,0.,0.));
#298 = DIRECTION('',(0.,0.,1.));
#299 = ADVANCED_FACE('',(#300),#325,.T.);
#300 = FACE_BOUND('',#301,.T.);
#301 = EDGE_LOOP('',(#302,#310,#311,#319));
#302 = ORIENTED_EDGE('',*,*,#303,.F.);
#303 = EDGE_CURVE('',#87,#304,#306,.T.);
#304 = VERTEX_POINT('',#305);
#305 = CARTESIAN_POINT('',(32.703857168398,3.2,-60.78483712899));
#306 = LINE('',#307,#308);
#307 = CARTESIAN_POINT('',(32.703857168398,3.,-60.78483712899));
#308 = VECTOR('',#309,1.);
#309 = DIRECTION('',(0.,1.,0.));
#310 = ORIENTED_EDGE('',*,*,#86,.T.);
#311 = ORIENTED_EDGE('',*,*,#312,.F.);
#312 = EDGE_CURVE('',#313,#89,#315,.T.);
#313 = VERTEX_POINT('',#314);
#314 = CARTESIAN_POINT('',(26.938753236523,3.2,-55.20570756731));
#315 = LINE('',#316,#317);
#316 = CARTESIAN_POINT('',(26.938753236523,3.,-55.20570756731));
#317 = VECTOR('',#318,1.);
#318 = DIRECTION('',(0.,-1.,0.));
#319 = ORIENTED_EDGE('',*,*,#320,.F.);
#320 = EDGE_CURVE('',#304,#313,#321,.T.);
#321 = LINE('',#322,#323);
#322 = CARTESIAN_POINT('',(16.008242280412,3.2,-44.62779994931));
#323 = VECTOR('',#324,1.);
#324 = DIRECTION('',(-0.718602345805,0.,0.695421216677));
#325 = PLANE('',#326);
#326 = AXIS2_PLACEMENT_3D('',#327,#328,#329);
#327 = CARTESIAN_POINT('',(29.704873980143,3.,-57.88259703786));
#328 = DIRECTION('',(-0.695421216677,0.,-0.718602345805));
#329 = DIRECTION('',(-0.718602345805,0.,0.695421216677));
#330 = ADVANCED_FACE('',(#331),#349,.T.);
#331 = FACE_BOUND('',#332,.T.);
#332 = EDGE_LOOP('',(#333,#341,#342,#343));
#333 = ORIENTED_EDGE('',*,*,#334,.F.);
#334 = EDGE_CURVE('',#205,#335,#337,.T.);
#335 = VERTEX_POINT('',#336);
#336 = CARTESIAN_POINT('',(26.715163243538,3.2,-66.97315781796));
#337 = LINE('',#338,#339);
#338 = CARTESIAN_POINT('',(26.715163243538,3.,-66.97315781796));
#339 = VECTOR('',#340,1.);
#340 = DIRECTION('',(0.,1.,0.));
#341 = ORIENTED_EDGE('',*,*,#212,.T.);
#342 = ORIENTED_EDGE('',*,*,#303,.T.);
#343 = ORIENTED_EDGE('',*,*,#344,.F.);
#344 = EDGE_CURVE('',#335,#304,#345,.T.);
#345 = LINE('',#346,#347);
#346 = CARTESIAN_POINT('',(30.25240665457,3.2,-63.31800414721));
#347 = VECTOR('',#348,1.);
#348 = DIRECTION('',(0.695421216677,0.,0.718602345805));
#349 = PLANE('',#350);
#350 = AXIS2_PLACEMENT_3D('',#351,#352,#353);
#351 = CARTESIAN_POINT('',(29.709510205968,3.,-63.87899747347));
#352 = DIRECTION('',(-0.718602345805,0.,0.695421216677));
#353 = DIRECTION('',(0.695421216677,0.,0.718602345805));
#354 = ADVANCED_FACE('',(#355),#373,.T.);
#355 = FACE_BOUND('',#356,.T.);
#356 = EDGE_LOOP('',(#357,#365,#371,#372));
#357 = ORIENTED_EDGE('',*,*,#358,.F.);
#358 = EDGE_CURVE('',#359,#335,#361,.T.);
#359 = VERTEX_POINT('',#360);
#360 = CARTESIAN_POINT('',(20.532019001374,3.2,-60.98947335481));
#361 = LINE('',#362,#363);
#362 = CARTESIAN_POINT('',(9.922784884512,3.2,-50.72247862452));
#363 = VECTOR('',#364,1.);
#364 = DIRECTION('',(0.718602345805,0.,-0.695421216677));
#365 = ORIENTED_EDGE('',*,*,#366,.T.);
#366 = EDGE_CURVE('',#359,#197,#367,.T.);
#367 = LINE('',#368,#369);
#368 = CARTESIAN_POINT('',(20.532019001374,3.,-60.98947335481));
#369 = VECTOR('',#370,1.);
#370 = DIRECTION('',(0.,-1.,0.));
#371 = ORIENTED_EDGE('',*,*,#204,.T.);
#372 = ORIENTED_EDGE('',*,*,#334,.T.);
#373 = PLANE('',#374);
#374 = AXIS2_PLACEMENT_3D('',#375,#376,#377);
#375 = CARTESIAN_POINT('',(23.522653113203,3.,-63.8836336993));
#376 = DIRECTION('',(0.695421216677,0.,0.718602345805));
#377 = DIRECTION('',(0.718602345805,0.,-0.695421216677));
#378 = ADVANCED_FACE('',(#379),#397,.T.);
#379 = FACE_BOUND('',#380,.T.);
#380 = EDGE_LOOP('',(#381,#389,#390,#391));
#381 = ORIENTED_EDGE('',*,*,#382,.F.);
#382 = EDGE_CURVE('',#189,#383,#385,.T.);
#383 = VERTEX_POINT('',#384);
#384 = CARTESIAN_POINT('',(-20.53201900137,3.2,-60.98947335481));
#385 = LINE('',#386,#387);
#386 = CARTESIAN_POINT('',(-20.53201900137,3.,-60.98947335481));
#387 = VECTOR('',#388,1.);
#388 = DIRECTION('',(0.,1.,0.));
#389 = ORIENTED_EDGE('',*,*,#196,.T.);
#390 = ORIENTED_EDGE('',*,*,#366,.F.);
#391 = ORIENTED_EDGE('',*,*,#392,.F.);
#392 = EDGE_CURVE('',#383,#359,#393,.T.);
#393 = LINE('',#394,#395);
#394 = CARTESIAN_POINT('',(5.354765181569,3.2,-60.98947335481));
#395 = VECTOR('',#396,1.);
#396 = DIRECTION('',(1.,0.,0.));
#397 = PLANE('',#398);
#398 = AXIS2_PLACEMENT_3D('',#399,#400,#401);
#399 = CARTESIAN_POINT('',(10.306473847682,3.,-60.98947335481));
#400 = DIRECTION('',(0.,0.,1.));
#401 = DIRECTION('',(0.,-1.,0.));
#402 = ADVANCED_FACE('',(#403),#421,.F.);
#403 = FACE_BOUND('',#404,.F.);
#404 = EDGE_LOOP('',(#405,#413,#419,#420));
#405 = ORIENTED_EDGE('',*,*,#406,.F.);
#406 = EDGE_CURVE('',#407,#180,#409,.T.);
#407 = VERTEX_POINT('',#408);
#408 = CARTESIAN_POINT('',(-25.53052705686,3.2,-65.82673637491));
#409 = LINE('',#410,#411);
#410 = CARTESIAN_POINT('',(-25.53052705686,3.,-65.82673637491));
#411 = VECTOR('',#412,1.);
#412 = DIRECTION('',(0.,-1.,0.));
#413 = ORIENTED_EDGE('',*,*,#414,.F.);
#414 = EDGE_CURVE('',#383,#407,#415,.T.);
#415 = LINE('',#416,#417);
#416 = CARTESIAN_POINT('',(-9.454421870603,3.2,-50.26922436104));
#417 = VECTOR('',#418,1.);
#418 = DIRECTION('',(-0.718602345805,0.,-0.695421216677));
#419 = ORIENTED_EDGE('',*,*,#382,.F.);
#420 = ORIENTED_EDGE('',*,*,#188,.T.);
#421 = PLANE('',#422);
#422 = AXIS2_PLACEMENT_3D('',#423,#424,#425);
#423 = CARTESIAN_POINT('',(-23.00219525444,3.,-63.37996509944));
#424 = DIRECTION('',(0.695421216677,0.,-0.718602345805));
#425 = DIRECTION('',(-0.718602345805,0.,-0.695421216677));
#426 = ADVANCED_FACE('',(#427),#446,.F.);
#427 = FACE_BOUND('',#428,.F.);
#428 = EDGE_LOOP('',(#429,#437,#444,#445));
#429 = ORIENTED_EDGE('',*,*,#430,.F.);
#430 = EDGE_CURVE('',#431,#172,#433,.T.);
#431 = VERTEX_POINT('',#432);
#432 = CARTESIAN_POINT('',(-27.86158468659,3.2,-65.78852163128));
#433 = LINE('',#434,#435);
#434 = CARTESIAN_POINT('',(-27.86158468659,3.,-65.78852163128));
#435 = VECTOR('',#436,1.);
#436 = DIRECTION('',(0.,-1.,0.));
#437 = ORIENTED_EDGE('',*,*,#438,.T.);
#438 = EDGE_CURVE('',#431,#407,#439,.T.);
#439 = CIRCLE('',#440,1.648528137424);
#440 = AXIS2_PLACEMENT_3D('',#441,#442,#443);
#441 = CARTESIAN_POINT('',(-26.67694849991,3.2,-64.64210018823));
#442 = DIRECTION('',(0.,-1.,0.));
#443 = DIRECTION('',(-1.,0.,0.));
#444 = ORIENTED_EDGE('',*,*,#406,.T.);
#445 = ORIENTED_EDGE('',*,*,#179,.F.);
#446 = CYLINDRICAL_SURFACE('',#447,1.648528137424);
#447 = AXIS2_PLACEMENT_3D('',#448,#449,#450);
#448 = CARTESIAN_POINT('',(-26.67694849991,3.,-64.64210018823));
#449 = DIRECTION('',(0.,-1.,0.));
#450 = DIRECTION('',(-1.,0.,0.));
#451 = ADVANCED_FACE('',(#452),#470,.F.);
#452 = FACE_BOUND('',#453,.F.);
#453 = EDGE_LOOP('',(#454,#462,#468,#469));
#454 = ORIENTED_EDGE('',*,*,#455,.F.);
#455 = EDGE_CURVE('',#456,#163,#458,.T.);
#456 = VERTEX_POINT('',#457);
#457 = CARTESIAN_POINT('',(-29.08766684168,3.2,-64.52156932717));
#458 = LINE('',#459,#460);
#459 = CARTESIAN_POINT('',(-29.08766684168,3.,-64.52156932717));
#460 = VECTOR('',#461,1.);
#461 = DIRECTION('',(0.,-1.,0.));
#462 = ORIENTED_EDGE('',*,*,#463,.F.);
#463 = EDGE_CURVE('',#431,#456,#464,.T.);
#464 = LINE('',#465,#466);
#465 = CARTESIAN_POINT('',(-29.44004200272,3.2,-64.15744811364));
#466 = VECTOR('',#467,1.);
#467 = DIRECTION('',(-0.695421216677,0.,0.718602345805));
#468 = ORIENTED_EDGE('',*,*,#430,.T.);
#469 = ORIENTED_EDGE('',*,*,#171,.T.);
#470 = PLANE('',#471);
#471 = AXIS2_PLACEMENT_3D('',#472,#473,#474);
#472 = CARTESIAN_POINT('',(-28.47462576413,3.,-65.15504547923));
#473 = DIRECTION('',(-0.718602345805,0.,-0.695421216677));
#474 = DIRECTION('',(-0.695421216677,0.,0.718602345805));
#475 = ADVANCED_FACE('',(#476),#495,.F.);
#476 = FACE_BOUND('',#477,.F.);
#477 = EDGE_LOOP('',(#478,#486,#493,#494));
#478 = ORIENTED_EDGE('',*,*,#479,.F.);
#479 = EDGE_CURVE('',#480,#155,#482,.T.);
#480 = VERTEX_POINT('',#481);
#481 = CARTESIAN_POINT('',(-28.96712497021,3.2,-57.16864680227));
#482 = LINE('',#483,#484);
#483 = CARTESIAN_POINT('',(-28.96712497021,3.,-57.16864680227));
#484 = VECTOR('',#485,1.);
#485 = DIRECTION('',(0.,-1.,0.));
#486 = ORIENTED_EDGE('',*,*,#487,.T.);
#487 = EDGE_CURVE('',#480,#456,#488,.T.);
#488 = CIRCLE('',#489,5.2);
#489 = AXIS2_PLACEMENT_3D('',#490,#491,#492);
#490 = CARTESIAN_POINT('',(-25.35093464349,3.2,-60.90537900045));
#491 = DIRECTION('',(0.,-1.,0.));
#492 = DIRECTION('',(-1.,0.,0.));
#493 = ORIENTED_EDGE('',*,*,#455,.T.);
#494 = ORIENTED_EDGE('',*,*,#162,.F.);
#495 = CYLINDRICAL_SURFACE('',#496,5.2);
#496 = AXIS2_PLACEMENT_3D('',#497,#498,#499);
#497 = CARTESIAN_POINT('',(-25.35093464349,3.,-60.90537900045));
#498 = DIRECTION('',(0.,-1.,0.));
#499 = DIRECTION('',(-1.,0.,0.));
#500 = ADVANCED_FACE('',(#501),#519,.F.);
#501 = FACE_BOUND('',#502,.F.);
#502 = EDGE_LOOP('',(#503,#511,#517,#518));
#503 = ORIENTED_EDGE('',*,*,#504,.F.);
#504 = EDGE_CURVE('',#505,#147,#507,.T.);
#505 = VERTEX_POINT('',#506);
#506 = CARTESIAN_POINT('',(-26.93875323652,3.2,-55.20570756731));
#507 = LINE('',#508,#509);
#508 = CARTESIAN_POINT('',(-26.93875323652,3.,-55.20570756731));
#509 = VECTOR('',#510,1.);
#510 = DIRECTION('',(0.,-1.,0.));
#511 = ORIENTED_EDGE('',*,*,#512,.F.);
#512 = EDGE_CURVE('',#480,#505,#513,.T.);
#513 = LINE('',#514,#515);
#514 = CARTESIAN_POINT('',(-14.90185526362,3.2,-43.55710346492));
#515 = VECTOR('',#516,1.);
#516 = DIRECTION('',(0.718602345805,0.,0.695421216677));
#517 = ORIENTED_EDGE('',*,*,#479,.T.);
#518 = ORIENTED_EDGE('',*,*,#154,.T.);
#519 = PLANE('',#520);
#520 = AXIS2_PLACEMENT_3D('',#521,#522,#523);
#521 = CARTESIAN_POINT('',(-27.90836811563,3.,-56.14404399617));
#522 = DIRECTION('',(-0.695421216677,0.,0.718602345805));
#523 = DIRECTION('',(0.718602345805,0.,0.695421216677));
#524 = ADVANCED_FACE('',(#525),#543,.F.);
#525 = FACE_BOUND('',#526,.F.);
#526 = EDGE_LOOP('',(#527,#535,#541,#542));
#527 = ORIENTED_EDGE('',*,*,#528,.F.);
#528 = EDGE_CURVE('',#529,#138,#531,.T.);
#529 = VERTEX_POINT('',#530);
#530 = CARTESIAN_POINT('',(-41.17904151244,3.2,-10.52828909594));
#531 = LINE('',#532,#533);
#532 = CARTESIAN_POINT('',(-41.17904151244,3.,-10.52828909594));
#533 = VECTOR('',#534,1.);
#534 = DIRECTION('',(0.,-1.,0.));
#535 = ORIENTED_EDGE('',*,*,#536,.F.);
#536 = EDGE_CURVE('',#505,#529,#537,.T.);
#537 = LINE('',#538,#539);
#538 = CARTESIAN_POINT('',(-32.39120436163,3.2,-38.09921113329));
#539 = VECTOR('',#540,1.);
#540 = DIRECTION('',(-0.30368282823,0.,0.952773183837));
#541 = ORIENTED_EDGE('',*,*,#504,.T.);
#542 = ORIENTED_EDGE('',*,*,#146,.T.);
#543 = PLANE('',#544);
#544 = AXIS2_PLACEMENT_3D('',#545,#546,#547);
#545 = CARTESIAN_POINT('',(-34.04006158346,3.,-32.92609366041));
#546 = DIRECTION('',(-0.952773183837,0.,-0.30368282823));
#547 = DIRECTION('',(-0.30368282823,0.,0.952773183837));
#548 = ADVANCED_FACE('',(#549),#568,.F.);
#549 = FACE_BOUND('',#550,.F.);
#550 = EDGE_LOOP('',(#551,#559,#566,#567));
#551 = ORIENTED_EDGE('',*,*,#552,.F.);
#552 = EDGE_CURVE('',#553,#130,#555,.T.);
#553 = VERTEX_POINT('',#554);
#554 = CARTESIAN_POINT('',(-39.69176606491,3.2,-4.408923352436));
#555 = LINE('',#556,#557);
#556 = CARTESIAN_POINT('',(-39.69176606491,3.,-4.408923352436));
#557 = VECTOR('',#558,1.);
#558 = DIRECTION('',(0.,-1.,0.));
#559 = ORIENTED_EDGE('',*,*,#560,.T.);
#560 = EDGE_CURVE('',#553,#529,#561,.T.);
#561 = CIRCLE('',#562,6.054044962965);
#562 = AXIS2_PLACEMENT_3D('',#563,#564,#565);
#563 = CARTESIAN_POINT('',(-35.41090981799,3.2,-8.689779599357));
#564 = DIRECTION('',(0.,-1.,0.));
#565 = DIRECTION('',(-1.,0.,0.));
#566 = ORIENTED_EDGE('',*,*,#528,.T.);
#567 = ORIENTED_EDGE('',*,*,#137,.F.);
#568 = CYLINDRICAL_SURFACE('',#569,6.054044962965);
#569 = AXIS2_PLACEMENT_3D('',#570,#571,#572);
#570 = CARTESIAN_POINT('',(-35.41090981799,3.,-8.689779599357));
#571 = DIRECTION('',(0.,-1.,0.));
#572 = DIRECTION('',(-1.,0.,0.));
#573 = ADVANCED_FACE('',(#574),#592,.F.);
#574 = FACE_BOUND('',#575,.F.);
#575 = EDGE_LOOP('',(#576,#584,#590,#591));
#576 = ORIENTED_EDGE('',*,*,#577,.F.);
#577 = EDGE_CURVE('',#578,#121,#580,.T.);
#578 = VERTEX_POINT('',#579);
#579 = CARTESIAN_POINT('',(-36.85603142851,3.2,-1.573188716044));
#580 = LINE('',#581,#582);
#581 = CARTESIAN_POINT('',(-36.85603142851,3.,-1.573188716044));
#582 = VECTOR('',#583,1.);
#583 = DIRECTION('',(0.,-1.,0.));
#584 = ORIENTED_EDGE('',*,*,#585,.F.);
#585 = EDGE_CURVE('',#553,#578,#586,.T.);
#586 = LINE('',#587,#588);
#587 = CARTESIAN_POINT('',(-36.19319006079,3.2,-0.910347348321));
#588 = VECTOR('',#589,1.);
#589 = DIRECTION('',(0.707106781187,0.,0.707106781187));
#590 = ORIENTED_EDGE('',*,*,#552,.T.);
#591 = ORIENTED_EDGE('',*,*,#129,.T.);
#592 = PLANE('',#593);
#593 = AXIS2_PLACEMENT_3D('',#594,#595,#596);
#594 = CARTESIAN_POINT('',(-38.27389874671,3.,-2.99105603424));
#595 = DIRECTION('',(-0.707106781187,0.,0.707106781187));
#596 = DIRECTION('',(0.707106781187,0.,0.707106781187));
#597 = ADVANCED_FACE('',(#598),#617,.F.);
#598 = FACE_BOUND('',#599,.F.);
#599 = EDGE_LOOP('',(#600,#608,#615,#616));
#600 = ORIENTED_EDGE('',*,*,#601,.F.);
#601 = EDGE_CURVE('',#602,#113,#604,.T.);
#602 = VERTEX_POINT('',#603);
#603 = CARTESIAN_POINT('',(-32.57517518159,3.2,0.2));
#604 = LINE('',#605,#606);
#605 = CARTESIAN_POINT('',(-32.57517518159,3.,0.2));
#606 = VECTOR('',#607,1.);
#607 = DIRECTION('',(0.,-1.,0.));
#608 = ORIENTED_EDGE('',*,*,#609,.T.);
#609 = EDGE_CURVE('',#602,#578,#610,.T.);
#610 = CIRCLE('',#611,6.054044962965);
#611 = AXIS2_PLACEMENT_3D('',#612,#613,#614);
#612 = CARTESIAN_POINT('',(-32.57517518159,3.2,-5.854044962965));
#613 = DIRECTION('',(0.,-1.,0.));
#614 = DIRECTION('',(-1.,0.,0.));
#615 = ORIENTED_EDGE('',*,*,#577,.T.);
#616 = ORIENTED_EDGE('',*,*,#120,.F.);
#617 = CYLINDRICAL_SURFACE('',#618,6.054044962965);
#618 = AXIS2_PLACEMENT_3D('',#619,#620,#621);
#619 = CARTESIAN_POINT('',(-32.57517518159,3.,-5.854044962965));
#620 = DIRECTION('',(0.,-1.,0.));
#621 = DIRECTION('',(-1.,0.,0.));
#622 = ADVANCED_FACE('',(#623),#641,.F.);
#623 = FACE_BOUND('',#624,.F.);
#624 = EDGE_LOOP('',(#625,#633,#639,#640));
#625 = ORIENTED_EDGE('',*,*,#626,.F.);
#626 = EDGE_CURVE('',#627,#105,#629,.T.);
#627 = VERTEX_POINT('',#628);
#628 = CARTESIAN_POINT('',(35.082842712475,3.2,0.2));
#629 = LINE('',#630,#631);
#630 = CARTESIAN_POINT('',(35.082842712475,3.,0.2));
#631 = VECTOR('',#632,1.);
#632 = DIRECTION('',(0.,-1.,0.));
#633 = ORIENTED_EDGE('',*,*,#634,.F.);
#634 = EDGE_CURVE('',#602,#627,#635,.T.);
#635 = LINE('',#636,#637);
#636 = CARTESIAN_POINT('',(-7.942265537672,3.2,0.2));
#637 = VECTOR('',#638,1.);
#638 = DIRECTION('',(1.,0.,0.));
#639 = ORIENTED_EDGE('',*,*,#601,.T.);
#640 = ORIENTED_EDGE('',*,*,#112,.T.);
#641 = PLANE('',#642);
#642 = AXIS2_PLACEMENT_3D('',#643,#644,#645);
#643 = CARTESIAN_POINT('',(-16.28758759079,3.,0.2));
#644 = DIRECTION('',(0.,0.,1.));
#645 = DIRECTION('',(0.,-1.,0.));
#646 = ADVANCED_FACE('',(#647),#665,.T.);
#647 = FACE_BOUND('',#648,.T.);
#648 = EDGE_LOOP('',(#649,#657,#658,#659));
#649 = ORIENTED_EDGE('',*,*,#650,.T.);
#650 = EDGE_CURVE('',#651,#97,#653,.T.);
#651 = VERTEX_POINT('',#652);
#652 = CARTESIAN_POINT('',(42.298608189024,3.2,-7.015765476549));
#653 = LINE('',#654,#655);
#654 = CARTESIAN_POINT('',(42.298608189024,3.,-7.015765476549));
#655 = VECTOR('',#656,1.);
#656 = DIRECTION('',(0.,-1.,0.));
#657 = ORIENTED_EDGE('',*,*,#104,.T.);
#658 = ORIENTED_EDGE('',*,*,#626,.F.);
#659 = ORIENTED_EDGE('',*,*,#660,.F.);
#660 = EDGE_CURVE('',#651,#627,#661,.T.);
#661 = LINE('',#662,#663);
#662 = CARTESIAN_POINT('',(36.596246576251,3.2,-1.313403863776));
#663 = VECTOR('',#664,1.);
#664 = DIRECTION('',(-0.707106781187,0.,0.707106781187));
#665 = PLANE('',#666);
#666 = AXIS2_PLACEMENT_3D('',#667,#668,#669);
#667 = CARTESIAN_POINT('',(38.67695526217,3.,-3.394112549695));
#668 = DIRECTION('',(-0.707106781187,0.,-0.707106781187));
#669 = DIRECTION('',(-0.707106781187,0.,0.707106781187));
#670 = ADVANCED_FACE('',(#671),#682,.T.);
#671 = FACE_BOUND('',#672,.T.);
#672 = EDGE_LOOP('',(#673,#679,#680,#681));
#673 = ORIENTED_EDGE('',*,*,#674,.F.);
#674 = EDGE_CURVE('',#313,#651,#675,.T.);
#675 = LINE('',#676,#677);
#676 = CARTESIAN_POINT('',(32.699020781567,3.2,-37.13346923684));
#677 = VECTOR('',#678,1.);
#678 = DIRECTION('',(0.30368282823,0.,0.952773183837));
#679 = ORIENTED_EDGE('',*,*,#312,.T.);
#680 = ORIENTED_EDGE('',*,*,#96,.T.);
#681 = ORIENTED_EDGE('',*,*,#650,.F.);
#682 = PLANE('',#683);
#683 = AXIS2_PLACEMENT_3D('',#684,#685,#686);
#684 = CARTESIAN_POINT('',(34.581352051556,3.,-31.22785130119));
#685 = DIRECTION('',(-0.952773183837,0.,0.30368282823));
#686 = DIRECTION('',(0.30368282823,0.,0.952773183837));
#687 = ADVANCED_FACE('',(#688,#738,#749,#767,#801),#812,.F.);
#688 = FACE_BOUND('',#689,.F.);
#689 = EDGE_LOOP('',(#690,#700,#708,#716,#724,#732));
#690 = ORIENTED_EDGE('',*,*,#691,.F.);
#691 = EDGE_CURVE('',#692,#694,#696,.T.);
#692 = VERTEX_POINT('',#693);
#693 = CARTESIAN_POINT('',(16.626582997737,3.2,-8.940188245231));
#694 = VERTEX_POINT('',#695);
#695 = CARTESIAN_POINT('',(4.383041634064E-04,3.2,-8.903751615529));
#696 = LINE('',#697,#698);
#697 = CARTESIAN_POINT('',(4.347099726942,3.2,-8.913277437397));
#698 = VECTOR('',#699,1.);
#699 = DIRECTION('',(-0.999997598615,0.,2.191520817069E-03));
#700 = ORIENTED_EDGE('',*,*,#701,.F.);
#701 = EDGE_CURVE('',#702,#692,#704,.T.);
#702 = VERTEX_POINT('',#703);
#703 = CARTESIAN_POINT('',(19.029295926024,3.2,-17.63009960955));
#704 = LINE('',#705,#706);
#705 = CARTESIAN_POINT('',(19.849519003668,3.2,-20.59660707692));
#706 = VECTOR('',#707,1.);
#707 = DIRECTION('',(-0.26649542889,0.,0.963836182336));
#708 = ORIENTED_EDGE('',*,*,#709,.F.);
#709 = EDGE_CURVE('',#710,#702,#712,.T.);
#710 = VERTEX_POINT('',#711);
#711 = CARTESIAN_POINT('',(22.059435554995,3.2,-3.734519760785));
#712 = LINE('',#713,#714);
#713 = CARTESIAN_POINT('',(17.698510515043,3.2,-23.73280021221));
#714 = VECTOR('',#715,1.);
#715 = DIRECTION('',(-0.213058124893,0.,-0.977039526026));
#716 = ORIENTED_EDGE('',*,*,#717,.F.);
#717 = EDGE_CURVE('',#718,#710,#720,.T.);
#718 = VERTEX_POINT('',#719);
#719 = CARTESIAN_POINT('',(-21.72552223146,3.2,-3.734519760785));
#720 = LINE('',#721,#722);
#721 = CARTESIAN_POINT('',(0.297084840953,3.2,-3.734519760785));
#722 = VECTOR('',#723,1.);
#723 = DIRECTION('',(1.,0.,0.));
#724 = ORIENTED_EDGE('',*,*,#725,.F.);
#725 = EDGE_CURVE('',#726,#718,#728,.T.);
#726 = VERTEX_POINT('',#727);
#727 = CARTESIAN_POINT('',(-21.72552223146,3.2,-8.903751135252));
#728 = LINE('',#729,#730);
#729 = CARTESIAN_POINT('',(-21.72552223146,3.2,-19.83215600037));
#730 = VECTOR('',#731,1.);
#731 = DIRECTION('',(0.,0.,1.));
#732 = ORIENTED_EDGE('',*,*,#733,.F.);
#733 = EDGE_CURVE('',#694,#726,#734,.T.);
#734 = LINE('',#735,#736);
#735 = CARTESIAN_POINT('',(-5.279852300138,3.2,-8.903751135252));
#736 = VECTOR('',#737,1.);
#737 = DIRECTION('',(-1.,0.,0.));
#738 = FACE_BOUND('',#739,.F.);
#739 = EDGE_LOOP('',(#740));
#740 = ORIENTED_EDGE('',*,*,#741,.F.);
#741 = EDGE_CURVE('',#742,#742,#744,.T.);
#742 = VERTEX_POINT('',#743);
#743 = CARTESIAN_POINT('',(21.163799345768,3.2,-48.00951684793));
#744 = CIRCLE('',#745,4.735522705283);
#745 = AXIS2_PLACEMENT_3D('',#746,#747,#748);
#746 = CARTESIAN_POINT('',(16.428276640485,3.2,-48.00951684793));
#747 = DIRECTION('',(-0.,1.,0.));
#748 = DIRECTION('',(1.,0.,0.));
#749 = FACE_BOUND('',#750,.F.);
#750 = EDGE_LOOP('',(#751,#752,#753,#754,#755,#756,#757,#758,#759,#760,
    #761,#762,#763,#764,#765,#766));
#751 = ORIENTED_EDGE('',*,*,#536,.T.);
#752 = ORIENTED_EDGE('',*,*,#560,.F.);
#753 = ORIENTED_EDGE('',*,*,#585,.T.);
#754 = ORIENTED_EDGE('',*,*,#609,.F.);
#755 = ORIENTED_EDGE('',*,*,#634,.T.);
#756 = ORIENTED_EDGE('',*,*,#660,.F.);
#757 = ORIENTED_EDGE('',*,*,#674,.F.);
#758 = ORIENTED_EDGE('',*,*,#320,.F.);
#759 = ORIENTED_EDGE('',*,*,#344,.F.);
#760 = ORIENTED_EDGE('',*,*,#358,.F.);
#761 = ORIENTED_EDGE('',*,*,#392,.F.);
#762 = ORIENTED_EDGE('',*,*,#414,.T.);
#763 = ORIENTED_EDGE('',*,*,#438,.F.);
#764 = ORIENTED_EDGE('',*,*,#463,.T.);
#765 = ORIENTED_EDGE('',*,*,#487,.F.);
#766 = ORIENTED_EDGE('',*,*,#512,.T.);
#767 = FACE_BOUND('',#768,.F.);
#768 = EDGE_LOOP('',(#769,#779,#787,#795));
#769 = ORIENTED_EDGE('',*,*,#770,.F.);
#770 = EDGE_CURVE('',#771,#773,#775,.T.);
#771 = VERTEX_POINT('',#772);
#772 = CARTESIAN_POINT('',(5.809375885494,3.2,-13.06417917474));
#773 = VERTEX_POINT('',#774);
#774 = CARTESIAN_POINT('',(2.688069798796,3.2,-49.64588621989));
#775 = LINE('',#776,#777);
#776 = CARTESIAN_POINT('',(4.914157977861,3.2,-23.55613296875));
#777 = VECTOR('',#778,1.);
#778 = DIRECTION('',(-8.501532861635E-02,0.,-0.996379643459));
#779 = ORIENTED_EDGE('',*,*,#780,.F.);
#780 = EDGE_CURVE('',#781,#771,#783,.T.);
#781 = VERTEX_POINT('',#782);
#782 = CARTESIAN_POINT('',(-5.809375885494,3.2,-13.06417917474));
#783 = LINE('',#784,#785);
#784 = CARTESIAN_POINT('',(1.615747408047,3.2,-13.06417917474));
#785 = VECTOR('',#786,1.);
#786 = DIRECTION('',(1.,0.,-3.066574716487E-16));
#787 = ORIENTED_EDGE('',*,*,#788,.F.);
#788 = EDGE_CURVE('',#789,#781,#791,.T.);
#789 = VERTEX_POINT('',#790);
#790 = CARTESIAN_POINT('',(-2.688069798796,3.2,-49.64588621989));
#791 = LINE('',#792,#793);
#792 = CARTESIAN_POINT('',(-4.890802006217,3.2,-23.82986495424));
#793 = VECTOR('',#794,1.);
#794 = DIRECTION('',(-8.501532861635E-02,0.,0.996379643459));
#795 = ORIENTED_EDGE('',*,*,#796,.F.);
#796 = EDGE_CURVE('',#773,#789,#797,.T.);
#797 = LINE('',#798,#799);
#798 = CARTESIAN_POINT('',(1.615747408047,3.2,-49.64588621989));
#799 = VECTOR('',#800,1.);
#800 = DIRECTION('',(-1.,0.,0.));
#801 = FACE_BOUND('',#802,.F.);
#802 = EDGE_LOOP('',(#803));
#803 = ORIENTED_EDGE('',*,*,#804,.F.);
#804 = EDGE_CURVE('',#805,#805,#807,.T.);
#805 = VERTEX_POINT('',#806);
#806 = CARTESIAN_POINT('',(-11.6927539352,3.2,-48.00951684793));
#807 = CIRCLE('',#808,4.735522705283);
#808 = AXIS2_PLACEMENT_3D('',#809,#810,#811);
#809 = CARTESIAN_POINT('',(-16.42827664048,3.2,-48.00951684793));
#810 = DIRECTION('',(-0.,1.,0.));
#811 = DIRECTION('',(1.,0.,0.));
#812 = PLANE('',#813);
#813 = AXIS2_PLACEMENT_3D('',#814,#815,#816);
#814 = CARTESIAN_POINT('',(0.403056515455,3.2,-33.34517655273));
#815 = DIRECTION('',(0.,1.,0.));
#816 = DIRECTION('',(1.,0.,0.));
#817 = ADVANCED_FACE('',(#818),#843,.T.);
#818 = FACE_BOUND('',#819,.T.);
#819 = EDGE_LOOP('',(#820,#828,#836,#842));
#820 = ORIENTED_EDGE('',*,*,#821,.F.);
#821 = EDGE_CURVE('',#822,#692,#824,.T.);
#822 = VERTEX_POINT('',#823);
#823 = CARTESIAN_POINT('',(16.626582997737,0.,-8.940188245231));
#824 = LINE('',#825,#826);
#825 = CARTESIAN_POINT('',(16.626582997737,-22.,-8.940188245231));
#826 = VECTOR('',#827,1.);
#827 = DIRECTION('',(0.,1.,0.));
#828 = ORIENTED_EDGE('',*,*,#829,.T.);
#829 = EDGE_CURVE('',#822,#830,#832,.T.);
#830 = VERTEX_POINT('',#831);
#831 = CARTESIAN_POINT('',(-5.329070518201E-15,0.,-8.903751135252));
#832 = LINE('',#833,#834);
#833 = CARTESIAN_POINT('',(-18.54556462154,1.7763568394E-15,
    -8.863107566442));
#834 = VECTOR('',#835,1.);
#835 = DIRECTION('',(-0.999997598615,0.,2.191520817069E-03));
#836 = ORIENTED_EDGE('',*,*,#837,.T.);
#837 = EDGE_CURVE('',#830,#694,#838,.T.);
#838 = LINE('',#839,#840);
#839 = CARTESIAN_POINT('',(-5.329070518201E-15,-22.,-8.903751135252));
#840 = VECTOR('',#841,1.);
#841 = DIRECTION('',(0.,1.,0.));
#842 = ORIENTED_EDGE('',*,*,#691,.F.);
#843 = PLANE('',#844);
#844 = AXIS2_PLACEMENT_3D('',#845,#846,#847);
#845 = CARTESIAN_POINT('',(8.237581109188,-22.,-8.921803528809));
#846 = DIRECTION('',(-2.191520817069E-03,0.,-0.999997598615));
#847 = DIRECTION('',(-0.999997598615,0.,2.191520817069E-03));
#848 = ADVANCED_FACE('',(#849),#867,.T.);
#849 = FACE_BOUND('',#850,.T.);
#850 = EDGE_LOOP('',(#851,#859,#865,#866));
#851 = ORIENTED_EDGE('',*,*,#852,.F.);
#852 = EDGE_CURVE('',#853,#702,#855,.T.);
#853 = VERTEX_POINT('',#854);
#854 = CARTESIAN_POINT('',(19.029295926024,0.,-17.63009960955));
#855 = LINE('',#856,#857);
#856 = CARTESIAN_POINT('',(19.029295926024,-22.,-17.63009960955));
#857 = VECTOR('',#858,1.);
#858 = DIRECTION('',(0.,1.,0.));
#859 = ORIENTED_EDGE('',*,*,#860,.T.);
#860 = EDGE_CURVE('',#853,#822,#861,.T.);
#861 = LINE('',#862,#863);
#862 = CARTESIAN_POINT('',(23.053273013696,0.,-32.18365022821));
#863 = VECTOR('',#864,1.);
#864 = DIRECTION('',(-0.26649542889,0.,0.963836182336));
#865 = ORIENTED_EDGE('',*,*,#821,.T.);
#866 = ORIENTED_EDGE('',*,*,#701,.F.);
#867 = PLANE('',#868);
#868 = AXIS2_PLACEMENT_3D('',#869,#870,#871);
#869 = CARTESIAN_POINT('',(17.956031892536,-22.,-13.7484168618));
#870 = DIRECTION('',(-0.963836182336,0.,-0.26649542889));
#871 = DIRECTION('',(-0.26649542889,0.,0.963836182336));
#872 = ADVANCED_FACE('',(#873),#891,.T.);
#873 = FACE_BOUND('',#874,.T.);
#874 = EDGE_LOOP('',(#875,#883,#884,#885));
#875 = ORIENTED_EDGE('',*,*,#876,.T.);
#876 = EDGE_CURVE('',#877,#853,#879,.T.);
#877 = VERTEX_POINT('',#878);
#878 = CARTESIAN_POINT('',(22.059435554995,0.,-3.734519760785));
#879 = LINE('',#880,#881);
#880 = CARTESIAN_POINT('',(12.741012548745,1.7763568394E-15,
    -46.46683800444));
#881 = VECTOR('',#882,1.);
#882 = DIRECTION('',(-0.213058124893,0.,-0.977039526026));
#883 = ORIENTED_EDGE('',*,*,#852,.T.);
#884 = ORIENTED_EDGE('',*,*,#709,.F.);
#885 = ORIENTED_EDGE('',*,*,#886,.F.);
#886 = EDGE_CURVE('',#877,#710,#887,.T.);
#887 = LINE('',#888,#889);
#888 = CARTESIAN_POINT('',(22.059435554995,-22.,-3.734519760785));
#889 = VECTOR('',#890,1.);
#890 = DIRECTION('',(0.,1.,0.));
#891 = PLANE('',#892);
#892 = AXIS2_PLACEMENT_3D('',#893,#894,#895);
#893 = CARTESIAN_POINT('',(20.484588228021,-22.,-10.95643672209));
#894 = DIRECTION('',(0.977039526026,0.,-0.213058124893));
#895 = DIRECTION('',(-0.213058124893,0.,-0.977039526026));
#896 = ADVANCED_FACE('',(#897),#915,.T.);
#897 = FACE_BOUND('',#898,.T.);
#898 = EDGE_LOOP('',(#899,#907,#908,#909));
#899 = ORIENTED_EDGE('',*,*,#900,.T.);
#900 = EDGE_CURVE('',#901,#877,#903,.T.);
#901 = VERTEX_POINT('',#902);
#902 = CARTESIAN_POINT('',(-21.72552223146,0.,-3.734519760785));
#903 = LINE('',#904,#905);
#904 = CARTESIAN_POINT('',(-22.63692080725,0.,-3.734519760785));
#905 = VECTOR('',#906,1.);
#906 = DIRECTION('',(1.,0.,0.));
#907 = ORIENTED_EDGE('',*,*,#886,.T.);
#908 = ORIENTED_EDGE('',*,*,#717,.F.);
#909 = ORIENTED_EDGE('',*,*,#910,.F.);
#910 = EDGE_CURVE('',#901,#718,#911,.T.);
#911 = LINE('',#912,#913);
#912 = CARTESIAN_POINT('',(-21.72552223146,-22.,-3.734519760785));
#913 = VECTOR('',#914,1.);
#914 = DIRECTION('',(0.,1.,0.));
#915 = PLANE('',#916);
#916 = AXIS2_PLACEMENT_3D('',#917,#918,#919);
#917 = CARTESIAN_POINT('',(0.19111316645,-22.,-3.734519760785));
#918 = DIRECTION('',(0.,0.,1.));
#919 = DIRECTION('',(0.,-1.,0.));
#920 = ADVANCED_FACE('',(#921),#939,.T.);
#921 = FACE_BOUND('',#922,.T.);
#922 = EDGE_LOOP('',(#923,#931,#932,#933));
#923 = ORIENTED_EDGE('',*,*,#924,.T.);
#924 = EDGE_CURVE('',#925,#901,#927,.T.);
#925 = VERTEX_POINT('',#926);
#926 = CARTESIAN_POINT('',(-21.72552223146,0.,-8.903751135252));
#927 = LINE('',#928,#929);
#928 = CARTESIAN_POINT('',(-21.72552223146,0.,-38.64614663299));
#929 = VECTOR('',#930,1.);
#930 = DIRECTION('',(0.,0.,1.));
#931 = ORIENTED_EDGE('',*,*,#910,.T.);
#932 = ORIENTED_EDGE('',*,*,#725,.F.);
#933 = ORIENTED_EDGE('',*,*,#934,.F.);
#934 = EDGE_CURVE('',#925,#726,#935,.T.);
#935 = LINE('',#936,#937);
#936 = CARTESIAN_POINT('',(-21.72552223146,-22.,-8.903751135252));
#937 = VECTOR('',#938,1.);
#938 = DIRECTION('',(0.,1.,0.));
#939 = PLANE('',#940);
#940 = AXIS2_PLACEMENT_3D('',#941,#942,#943);
#941 = CARTESIAN_POINT('',(-21.72552223146,-22.,-6.319135448019));
#942 = DIRECTION('',(-1.,0.,0.));
#943 = DIRECTION('',(0.,1.,0.));
#944 = ADVANCED_FACE('',(#945),#956,.T.);
#945 = FACE_BOUND('',#946,.T.);
#946 = EDGE_LOOP('',(#947,#953,#954,#955));
#947 = ORIENTED_EDGE('',*,*,#948,.T.);
#948 = EDGE_CURVE('',#830,#925,#949,.T.);
#949 = LINE('',#950,#951);
#950 = CARTESIAN_POINT('',(-28.21385794834,0.,-8.903751135252));
#951 = VECTOR('',#952,1.);
#952 = DIRECTION('',(-1.,0.,0.));
#953 = ORIENTED_EDGE('',*,*,#934,.T.);
#954 = ORIENTED_EDGE('',*,*,#733,.F.);
#955 = ORIENTED_EDGE('',*,*,#837,.F.);
#956 = PLANE('',#957);
#957 = AXIS2_PLACEMENT_3D('',#958,#959,#960);
#958 = CARTESIAN_POINT('',(-10.96276111573,-22.,-8.903751135252));
#959 = DIRECTION('',(0.,0.,-1.));
#960 = DIRECTION('',(0.,1.,0.));
#961 = ADVANCED_FACE('',(#962),#981,.T.);
#962 = FACE_BOUND('',#963,.T.);
#963 = EDGE_LOOP('',(#964,#973,#979,#980));
#964 = ORIENTED_EDGE('',*,*,#965,.T.);
#965 = EDGE_CURVE('',#966,#966,#968,.T.);
#966 = VERTEX_POINT('',#967);
#967 = CARTESIAN_POINT('',(21.163799345768,0.,-48.00951684793));
#968 = CIRCLE('',#969,4.735522705283);
#969 = AXIS2_PLACEMENT_3D('',#970,#971,#972);
#970 = CARTESIAN_POINT('',(16.428276640485,0.,-48.00951684793));
#971 = DIRECTION('',(-0.,1.,0.));
#972 = DIRECTION('',(1.,0.,0.));
#973 = ORIENTED_EDGE('',*,*,#974,.T.);
#974 = EDGE_CURVE('',#966,#742,#975,.T.);
#975 = LINE('',#976,#977);
#976 = CARTESIAN_POINT('',(21.163799345768,-22.,-48.00951684793));
#977 = VECTOR('',#978,1.);
#978 = DIRECTION('',(0.,1.,0.));
#979 = ORIENTED_EDGE('',*,*,#741,.F.);
#980 = ORIENTED_EDGE('',*,*,#974,.F.);
#981 = CYLINDRICAL_SURFACE('',#982,4.735522705283);
#982 = AXIS2_PLACEMENT_3D('',#983,#984,#985);
#983 = CARTESIAN_POINT('',(16.428276640485,-22.,-48.00951684793));
#984 = DIRECTION('',(0.,1.,0.));
#985 = DIRECTION('',(1.,0.,0.));
#986 = ADVANCED_FACE('',(#987),#1012,.F.);
#987 = FACE_BOUND('',#988,.F.);
#988 = EDGE_LOOP('',(#989,#999,#1005,#1006));
#989 = ORIENTED_EDGE('',*,*,#990,.T.);
#990 = EDGE_CURVE('',#991,#993,#995,.T.);
#991 = VERTEX_POINT('',#992);
#992 = CARTESIAN_POINT('',(1.480297366167E-15,11.242400581089,
    -46.71869179633));
#993 = VERTEX_POINT('',#994);
#994 = CARTESIAN_POINT('',(3.256654205567E-15,17.8572529153,
    -18.39898295202));
#995 = LINE('',#996,#997);
#996 = CARTESIAN_POINT('',(2.6645352591E-15,18.133069549222,
    -17.21814831317));
#997 = VECTOR('',#998,1.);
#998 = DIRECTION('',(5.275122655166E-17,0.227455280238,0.97378852709));
#999 = ORIENTED_EDGE('',*,*,#1000,.F.);
#1000 = EDGE_CURVE('',#771,#993,#1001,.T.);
#1001 = LINE('',#1002,#1003);
#1002 = CARTESIAN_POINT('',(5.649679875255,3.602918464526,
    -13.21082950266));
#1003 = VECTOR('',#1004,1.);
#1004 = DIRECTION('',(-0.349023821871,0.880598971639,-0.320511814002));
#1005 = ORIENTED_EDGE('',*,*,#770,.T.);
#1006 = ORIENTED_EDGE('',*,*,#1007,.T.);
#1007 = EDGE_CURVE('',#773,#991,#1008,.T.);
#1008 = LINE('',#1009,#1010);
#1009 = CARTESIAN_POINT('',(1.103762571829,7.940067898719,
    -47.92064259636));
#1010 = VECTOR('',#1011,1.);
#1011 = DIRECTION('',(-0.299648208284,0.896513522642,0.326304236859));
#1012 = PLANE('',#1013);
#1013 = AXIS2_PLACEMENT_3D('',#1014,#1015,#1016);
#1014 = CARTESIAN_POINT('',(5.823691883056,3.068404028665,
    -13.45978839622));
#1015 = DIRECTION('',(0.93629059846,0.342020143326,-7.988827695448E-02)
  );
#1016 = DIRECTION('',(-0.340781908463,0.939692620786,2.907695487824E-02)
  );
#1017 = ADVANCED_FACE('',(#1018),#1028,.F.);
#1018 = FACE_BOUND('',#1019,.F.);
#1019 = EDGE_LOOP('',(#1020,#1021,#1027));
#1020 = ORIENTED_EDGE('',*,*,#1000,.T.);
#1021 = ORIENTED_EDGE('',*,*,#1022,.T.);
#1022 = EDGE_CURVE('',#993,#781,#1023,.T.);
#1023 = LINE('',#1024,#1025);
#1024 = CARTESIAN_POINT('',(-5.275833888477,4.546144602338,
    -13.55413574101));
#1025 = VECTOR('',#1026,1.);
#1026 = DIRECTION('',(-0.349023821871,-0.880598971639,0.320511814002));
#1027 = ORIENTED_EDGE('',*,*,#780,.T.);
#1028 = PLANE('',#1029);
#1029 = AXIS2_PLACEMENT_3D('',#1030,#1031,#1032);
#1030 = CARTESIAN_POINT('',(2.828438300639,3.068404028665,
    -13.01628215822));
#1031 = DIRECTION('',(2.881637632171E-16,0.342020143326,0.939692620786)
  );
#1032 = DIRECTION('',(-1.048830324052E-16,0.939692620786,-0.342020143326
    ));
#1033 = ADVANCED_FACE('',(#1034),#1045,.F.);
#1034 = FACE_BOUND('',#1035,.F.);
#1035 = EDGE_LOOP('',(#1036,#1037,#1038,#1039));
#1036 = ORIENTED_EDGE('',*,*,#788,.T.);
#1037 = ORIENTED_EDGE('',*,*,#1022,.F.);
#1038 = ORIENTED_EDGE('',*,*,#990,.F.);
#1039 = ORIENTED_EDGE('',*,*,#1040,.F.);
#1040 = EDGE_CURVE('',#789,#991,#1041,.T.);
#1041 = LINE('',#1042,#1043);
#1042 = CARTESIAN_POINT('',(-0.871390517001,8.635298785064,
    -47.66759924779));
#1043 = VECTOR('',#1044,1.);
#1044 = DIRECTION('',(0.299648208284,0.896513522642,0.326304236859));
#1045 = PLANE('',#1046);
#1046 = AXIS2_PLACEMENT_3D('',#1047,#1048,#1049);
#1047 = CARTESIAN_POINT('',(-5.782806207227,3.068404028665,
    -13.93896851312));
#1048 = DIRECTION('',(-0.93629059846,0.342020143326,-7.988827695448E-02)
  );
#1049 = DIRECTION('',(0.340781908463,0.939692620786,2.907695487824E-02)
  );
#1050 = ADVANCED_FACE('',(#1051),#1056,.F.);
#1051 = FACE_BOUND('',#1052,.F.);
#1052 = EDGE_LOOP('',(#1053,#1054,#1055));
#1053 = ORIENTED_EDGE('',*,*,#1040,.T.);
#1054 = ORIENTED_EDGE('',*,*,#1007,.F.);
#1055 = ORIENTED_EDGE('',*,*,#796,.T.);
#1056 = PLANE('',#1057);
#1057 = AXIS2_PLACEMENT_3D('',#1058,#1059,#1060);
#1058 = CARTESIAN_POINT('',(2.828438300639,3.068404028665,
    -49.69378323641));
#1059 = DIRECTION('',(0.,0.342020143326,-0.939692620786));
#1060 = DIRECTION('',(0.,0.939692620786,0.342020143326));
#1061 = ADVANCED_FACE('',(#1062),#1081,.T.);
#1062 = FACE_BOUND('',#1063,.T.);
#1063 = EDGE_LOOP('',(#1064,#1073,#1079,#1080));
#1064 = ORIENTED_EDGE('',*,*,#1065,.T.);
#1065 = EDGE_CURVE('',#1066,#1066,#1068,.T.);
#1066 = VERTEX_POINT('',#1067);
#1067 = CARTESIAN_POINT('',(-11.6927539352,0.,-48.00951684793));
#1068 = CIRCLE('',#1069,4.735522705283);
#1069 = AXIS2_PLACEMENT_3D('',#1070,#1071,#1072);
#1070 = CARTESIAN_POINT('',(-16.42827664048,0.,-48.00951684793));
#1071 = DIRECTION('',(-0.,1.,0.));
#1072 = DIRECTION('',(1.,0.,0.));
#1073 = ORIENTED_EDGE('',*,*,#1074,.T.);
#1074 = EDGE_CURVE('',#1066,#805,#1075,.T.);
#1075 = LINE('',#1076,#1077);
#1076 = CARTESIAN_POINT('',(-11.6927539352,-22.,-48.00951684793));
#1077 = VECTOR('',#1078,1.);
#1078 = DIRECTION('',(0.,1.,0.));
#1079 = ORIENTED_EDGE('',*,*,#804,.F.);
#1080 = ORIENTED_EDGE('',*,*,#1074,.F.);
#1081 = CYLINDRICAL_SURFACE('',#1082,4.735522705283);
#1082 = AXIS2_PLACEMENT_3D('',#1083,#1084,#1085);
#1083 = CARTESIAN_POINT('',(-16.42827664048,-22.,-48.00951684793));
#1084 = DIRECTION('',(0.,1.,0.));
#1085 = DIRECTION('',(1.,0.,0.));
#1086 = ADVANCED_FACE('',(#1087),#1095,.F.);
#1087 = FACE_BOUND('',#1088,.F.);
#1088 = EDGE_LOOP('',(#1089,#1090,#1091,#1092,#1093,#1094));
#1089 = ORIENTED_EDGE('',*,*,#860,.T.);
#1090 = ORIENTED_EDGE('',*,*,#829,.T.);
#1091 = ORIENTED_EDGE('',*,*,#948,.T.);
#1092 = ORIENTED_EDGE('',*,*,#924,.T.);
#1093 = ORIENTED_EDGE('',*,*,#900,.T.);
#1094 = ORIENTED_EDGE('',*,*,#876,.T.);
#1095 = PLANE('',#1096);
#1096 = AXIS2_PLACEMENT_3D('',#1097,#1098,#1099);
#1097 = CARTESIAN_POINT('',(-45.46495478095,0.,-70.97315781796));
#1098 = DIRECTION('',(0.,1.,0.));
#1099 = DIRECTION('',(0.,0.,1.));
#1100 = ADVANCED_FACE('',(#1101),#1104,.F.);
#1101 = FACE_BOUND('',#1102,.F.);
#1102 = EDGE_LOOP('',(#1103));
#1103 = ORIENTED_EDGE('',*,*,#965,.T.);
#1104 = PLANE('',#1105);
#1105 = AXIS2_PLACEMENT_3D('',#1106,#1107,#1108);
#1106 = CARTESIAN_POINT('',(-45.46495478095,0.,-70.97315781796));
#1107 = DIRECTION('',(0.,1.,0.));
#1108 = DIRECTION('',(0.,0.,1.));
#1109 = ADVANCED_FACE('',(#1110),#1113,.F.);
#1110 = FACE_BOUND('',#1111,.F.);
#1111 = EDGE_LOOP('',(#1112));
#1112 = ORIENTED_EDGE('',*,*,#1065,.T.);
#1113 = PLANE('',#1114);
#1114 = AXIS2_PLACEMENT_3D('',#1115,#1116,#1117);
#1115 = CARTESIAN_POINT('',(-45.46495478095,0.,-70.97315781796));
#1116 = DIRECTION('',(0.,1.,0.));
#1117 = DIRECTION('',(0.,0.,1.));
#1118 = ( GEOMETRIC_REPRESENTATION_CONTEXT(3) 
GLOBAL_UNCERTAINTY_ASSIGNED_CONTEXT((#1122)) 
GLOBAL_UNIT_ASSIGNED_CONTEXT((#1119,#1120,#1121)) REPRESENTATION_CONTEXT
('Context #1','3D Context with UNIT and UNCERTAINTY') );
#1119 = ( LENGTH_UNIT() NAMED_UNIT(*) SI_UNIT(.MILLI.,.METRE.) );
#1120 = ( NAMED_UNIT(*) PLANE_ANGLE_UNIT() SI_UNIT($,.RADIAN.) );
#1121 = ( NAMED_UNIT(*) SI_UNIT($,.STERADIAN.) SOLID_ANGLE_UNIT() );
#1122 = UNCERTAINTY_MEASURE_WITH_UNIT(LENGTH_MEASURE(1.E-05),#1119,
  'distance_accuracy_value','confusion accuracy');
#1123 = PRODUCT_RELATED_PRODUCT_CATEGORY('part',$,(#7));
ENDSEC;
END-ISO-10303-21;
